<?xml version="1.0" encoding="UTF-8" standalone="no"?>
<!DOCTYPE svg PUBLIC "-//W3C//DTD SVG 1.1//EN"
 "http://www.w3.org/Graphics/SVG/1.1/DTD/svg11.dtd">
<!-- Generated by graphviz version 7.1.0 (20230121.1956)
 -->
<!-- Title: segtree0 Pages: 1 -->
<svg width="542pt" height="304pt"
 viewBox="0.00 0.00 542.00 304.00" xmlns="http://www.w3.org/2000/svg" xmlns:xlink="http://www.w3.org/1999/xlink">
<g id="graph0" class="graph" transform="scale(1 1) rotate(0) translate(4 300)">
<title>segtree0</title>
<polygon fill="white" stroke="none" points="-4,4 -4,-300 538,-300 538,4 -4,4"/>
<!-- 0 -->
<g id="node1" class="node">
<title>0</title>
<polygon fill="none" stroke="black" points="322,-249.5 322,-295.5 396,-295.5 396,-249.5 322,-249.5"/>
<text text-anchor="middle" x="359" y="-280.3" font-family="Courier,monospace" font-size="14.00">0..6</text>
<polyline fill="none" stroke="black" points="322,-272.5 396,-272.5"/>
<text text-anchor="middle" x="359" y="-257.3" font-family="Courier,monospace" font-size="14.00">(10,70)</text>
</g>
<!-- 1 -->
<g id="node2" class="node">
<title>1</title>
<polygon fill="none" stroke="black" points="230,-166.5 230,-212.5 304,-212.5 304,-166.5 230,-166.5"/>
<text text-anchor="middle" x="267" y="-197.3" font-family="Courier,monospace" font-size="14.00">0..3</text>
<polyline fill="none" stroke="black" points="230,-189.5 304,-189.5"/>
<text text-anchor="middle" x="267" y="-174.3" font-family="Courier,monospace" font-size="14.00">(10,40)</text>
</g>
<!-- 0&#45;&gt;1 -->
<g id="edge1" class="edge">
<title>0&#45;&gt;1</title>
<path fill="none" stroke="black" d="M334.35,-249.79C323.83,-240.53 311.39,-229.59 300.09,-219.64"/>
<polygon fill="black" stroke="black" points="302.68,-217.25 292.86,-213.27 298.05,-222.5 302.68,-217.25"/>
</g>
<!-- 2 -->
<g id="node3" class="node">
<title>2</title>
<polygon fill="none" stroke="black" points="368,-166.5 368,-212.5 442,-212.5 442,-166.5 368,-166.5"/>
<text text-anchor="middle" x="405" y="-197.3" font-family="Courier,monospace" font-size="14.00">4..6</text>
<polyline fill="none" stroke="black" points="368,-189.5 442,-189.5"/>
<text text-anchor="middle" x="405" y="-174.3" font-family="Courier,monospace" font-size="14.00">(50,70)</text>
</g>
<!-- 0&#45;&gt;2 -->
<g id="edge2" class="edge">
<title>0&#45;&gt;2</title>
<path fill="none" stroke="black" d="M371.33,-249.79C376.17,-241.26 381.83,-231.29 387.11,-222"/>
<polygon fill="black" stroke="black" points="390,-224.01 391.89,-213.58 383.91,-220.55 390,-224.01"/>
</g>
<!-- 3 -->
<g id="node4" class="node">
<title>3</title>
<polygon fill="none" stroke="black" points="92,-83.5 92,-129.5 166,-129.5 166,-83.5 92,-83.5"/>
<text text-anchor="middle" x="129" y="-114.3" font-family="Courier,monospace" font-size="14.00">0..1</text>
<polyline fill="none" stroke="black" points="92,-106.5 166,-106.5"/>
<text text-anchor="middle" x="129" y="-91.3" font-family="Courier,monospace" font-size="14.00">(10,20)</text>
</g>
<!-- 1&#45;&gt;3 -->
<g id="edge3" class="edge">
<title>1&#45;&gt;3</title>
<path fill="none" stroke="black" d="M230.02,-166.79C213.18,-156.91 193.07,-145.1 175.24,-134.64"/>
<polygon fill="black" stroke="black" points="177.31,-131.8 166.91,-129.75 173.76,-137.83 177.31,-131.8"/>
</g>
<!-- 4 -->
<g id="node5" class="node">
<title>4</title>
<polygon fill="none" stroke="black" points="230,-83.5 230,-129.5 304,-129.5 304,-83.5 230,-83.5"/>
<text text-anchor="middle" x="267" y="-114.3" font-family="Courier,monospace" font-size="14.00">2..3</text>
<polyline fill="none" stroke="black" points="230,-106.5 304,-106.5"/>
<text text-anchor="middle" x="267" y="-91.3" font-family="Courier,monospace" font-size="14.00">(30,40)</text>
</g>
<!-- 1&#45;&gt;4 -->
<g id="edge4" class="edge">
<title>1&#45;&gt;4</title>
<path fill="none" stroke="black" d="M267,-166.79C267,-158.71 267,-149.35 267,-140.48"/>
<polygon fill="black" stroke="black" points="270.5,-140.78 267,-130.78 263.5,-140.78 270.5,-140.78"/>
</g>
<!-- 5 -->
<g id="node6" class="node">
<title>5</title>
<polygon fill="none" stroke="black" points="368,-83.5 368,-129.5 442,-129.5 442,-83.5 368,-83.5"/>
<text text-anchor="middle" x="405" y="-114.3" font-family="Courier,monospace" font-size="14.00">4..5</text>
<polyline fill="none" stroke="black" points="368,-106.5 442,-106.5"/>
<text text-anchor="middle" x="405" y="-91.3" font-family="Courier,monospace" font-size="14.00">(50,60)</text>
</g>
<!-- 2&#45;&gt;5 -->
<g id="edge5" class="edge">
<title>2&#45;&gt;5</title>
<path fill="none" stroke="black" d="M405,-166.79C405,-158.71 405,-149.35 405,-140.48"/>
<polygon fill="black" stroke="black" points="408.5,-140.78 405,-130.78 401.5,-140.78 408.5,-140.78"/>
</g>
<!-- 6 -->
<g id="node7" class="node">
<title>6</title>
<polygon fill="none" stroke="black" points="460,-83.5 460,-129.5 534,-129.5 534,-83.5 460,-83.5"/>
<text text-anchor="middle" x="497" y="-114.3" font-family="Courier,monospace" font-size="14.00">6..6</text>
<polyline fill="none" stroke="black" points="460,-106.5 534,-106.5"/>
<text text-anchor="middle" x="497" y="-91.3" font-family="Courier,monospace" font-size="14.00">(70,70)</text>
</g>
<!-- 2&#45;&gt;6 -->
<g id="edge6" class="edge">
<title>2&#45;&gt;6</title>
<path fill="none" stroke="black" d="M429.65,-166.79C440.17,-157.53 452.61,-146.59 463.91,-136.64"/>
<polygon fill="black" stroke="black" points="465.95,-139.5 471.14,-130.27 461.32,-134.25 465.95,-139.5"/>
</g>
<!-- 7 -->
<g id="node8" class="node">
<title>7</title>
<polygon fill="none" stroke="black" points="0,-0.5 0,-46.5 74,-46.5 74,-0.5 0,-0.5"/>
<text text-anchor="middle" x="37" y="-31.3" font-family="Courier,monospace" font-size="14.00">0..0</text>
<polyline fill="none" stroke="black" points="0,-23.5 74,-23.5"/>
<text text-anchor="middle" x="37" y="-8.3" font-family="Courier,monospace" font-size="14.00">(10,10)</text>
</g>
<!-- 3&#45;&gt;7 -->
<g id="edge7" class="edge">
<title>3&#45;&gt;7</title>
<path fill="none" stroke="black" d="M104.35,-83.79C93.83,-74.53 81.39,-63.59 70.09,-53.64"/>
<polygon fill="black" stroke="black" points="72.68,-51.25 62.86,-47.27 68.05,-56.5 72.68,-51.25"/>
</g>
<!-- 8 -->
<g id="node9" class="node">
<title>8</title>
<polygon fill="none" stroke="black" points="92,-0.5 92,-46.5 166,-46.5 166,-0.5 92,-0.5"/>
<text text-anchor="middle" x="129" y="-31.3" font-family="Courier,monospace" font-size="14.00">1..1</text>
<polyline fill="none" stroke="black" points="92,-23.5 166,-23.5"/>
<text text-anchor="middle" x="129" y="-8.3" font-family="Courier,monospace" font-size="14.00">(20,20)</text>
</g>
<!-- 3&#45;&gt;8 -->
<g id="edge8" class="edge">
<title>3&#45;&gt;8</title>
<path fill="none" stroke="black" d="M129,-83.79C129,-75.71 129,-66.35 129,-57.48"/>
<polygon fill="black" stroke="black" points="132.5,-57.78 129,-47.78 125.5,-57.78 132.5,-57.78"/>
</g>
<!-- 9 -->
<g id="node10" class="node">
<title>9</title>
<polygon fill="none" stroke="black" points="184,-0.5 184,-46.5 258,-46.5 258,-0.5 184,-0.5"/>
<text text-anchor="middle" x="221" y="-31.3" font-family="Courier,monospace" font-size="14.00">2..2</text>
<polyline fill="none" stroke="black" points="184,-23.5 258,-23.5"/>
<text text-anchor="middle" x="221" y="-8.3" font-family="Courier,monospace" font-size="14.00">(30,30)</text>
</g>
<!-- 4&#45;&gt;9 -->
<g id="edge9" class="edge">
<title>4&#45;&gt;9</title>
<path fill="none" stroke="black" d="M254.67,-83.79C249.83,-75.26 244.17,-65.29 238.89,-56"/>
<polygon fill="black" stroke="black" points="242.09,-54.55 234.11,-47.58 236,-58.01 242.09,-54.55"/>
</g>
<!-- 10 -->
<g id="node11" class="node">
<title>10</title>
<polygon fill="none" stroke="black" points="276,-0.5 276,-46.5 350,-46.5 350,-0.5 276,-0.5"/>
<text text-anchor="middle" x="313" y="-31.3" font-family="Courier,monospace" font-size="14.00">3..3</text>
<polyline fill="none" stroke="black" points="276,-23.5 350,-23.5"/>
<text text-anchor="middle" x="313" y="-8.3" font-family="Courier,monospace" font-size="14.00">(40,40)</text>
</g>
<!-- 4&#45;&gt;10 -->
<g id="edge10" class="edge">
<title>4&#45;&gt;10</title>
<path fill="none" stroke="black" d="M279.33,-83.79C284.17,-75.26 289.83,-65.29 295.11,-56"/>
<polygon fill="black" stroke="black" points="298,-58.01 299.89,-47.58 291.91,-54.55 298,-58.01"/>
</g>
<!-- 11 -->
<g id="node12" class="node">
<title>11</title>
<polygon fill="none" stroke="black" points="368,-0.5 368,-46.5 442,-46.5 442,-0.5 368,-0.5"/>
<text text-anchor="middle" x="405" y="-31.3" font-family="Courier,monospace" font-size="14.00">4..4</text>
<polyline fill="none" stroke="black" points="368,-23.5 442,-23.5"/>
<text text-anchor="middle" x="405" y="-8.3" font-family="Courier,monospace" font-size="14.00">(50,50)</text>
</g>
<!-- 5&#45;&gt;11 -->
<g id="edge11" class="edge">
<title>5&#45;&gt;11</title>
<path fill="none" stroke="black" d="M405,-83.79C405,-75.71 405,-66.35 405,-57.48"/>
<polygon fill="black" stroke="black" points="408.5,-57.78 405,-47.78 401.5,-57.78 408.5,-57.78"/>
</g>
<!-- 12 -->
<g id="node13" class="node">
<title>12</title>
<polygon fill="none" stroke="black" points="460,-0.5 460,-46.5 534,-46.5 534,-0.5 460,-0.5"/>
<text text-anchor="middle" x="497" y="-31.3" font-family="Courier,monospace" font-size="14.00">5..5</text>
<polyline fill="none" stroke="black" points="460,-23.5 534,-23.5"/>
<text text-anchor="middle" x="497" y="-8.3" font-family="Courier,monospace" font-size="14.00">(60,60)</text>
</g>
<!-- 5&#45;&gt;12 -->
<g id="edge12" class="edge">
<title>5&#45;&gt;12</title>
<path fill="none" stroke="black" d="M429.65,-83.79C440.17,-74.53 452.61,-63.59 463.91,-53.64"/>
<polygon fill="black" stroke="black" points="465.95,-56.5 471.14,-47.27 461.32,-51.25 465.95,-56.5"/>
</g>
</g>
</svg>
