<?xml version="1.0" encoding="UTF-8" standalone="no"?>
<!DOCTYPE svg PUBLIC "-//W3C//DTD SVG 1.1//EN"
 "http://www.w3.org/Graphics/SVG/1.1/DTD/svg11.dtd">
<!-- Generated by graphviz version 2.40.1 (20161225.0304)
 -->
<!-- Title: segtree0 Pages: 1 -->
<svg width="548pt" height="296pt"
 viewBox="0.00 0.00 547.81 296.00" xmlns="http://www.w3.org/2000/svg" xmlns:xlink="http://www.w3.org/1999/xlink">
<g id="graph0" class="graph" transform="scale(1 1) rotate(0) translate(4 292)">
<title>segtree0</title>
<polygon fill="#ffffff" stroke="transparent" points="-4,4 -4,-292 543.8096,-292 543.8096,4 -4,4"/>
<!-- 0 -->
<g id="node1" class="node">
<title>0</title>
<polygon fill="none" stroke="#000000" points="325,-243.5 325,-287.5 399.8096,-287.5 399.8096,-243.5 325,-243.5"/>
<text text-anchor="middle" x="362.4048" y="-272.3" font-family="Courier,monospace" font-size="14.00" fill="#000000">0..6</text>
<polyline fill="none" stroke="#000000" points="325,-265.5 399.8096,-265.5 "/>
<text text-anchor="middle" x="362.4048" y="-250.3" font-family="Courier,monospace" font-size="14.00" fill="#000000">(10,70)</text>
</g>
<!-- 1 -->
<g id="node2" class="node">
<title>1</title>
<polygon fill="none" stroke="#000000" points="232,-162.5 232,-206.5 306.8096,-206.5 306.8096,-162.5 232,-162.5"/>
<text text-anchor="middle" x="269.4048" y="-191.3" font-family="Courier,monospace" font-size="14.00" fill="#000000">0..3</text>
<polyline fill="none" stroke="#000000" points="232,-184.5 306.8096,-184.5 "/>
<text text-anchor="middle" x="269.4048" y="-169.3" font-family="Courier,monospace" font-size="14.00" fill="#000000">(10,40)</text>
</g>
<!-- 0&#45;&gt;1 -->
<g id="edge1" class="edge">
<title>0&#45;&gt;1</title>
<path fill="none" stroke="#000000" d="M336.9921,-243.3664C326.3302,-234.0802 313.7916,-223.1595 302.4284,-213.2625"/>
<polygon fill="#000000" stroke="#000000" points="304.6263,-210.5354 294.7867,-206.6068 300.0288,-215.814 304.6263,-210.5354"/>
</g>
<!-- 2 -->
<g id="node3" class="node">
<title>2</title>
<polygon fill="none" stroke="#000000" points="372,-162.5 372,-206.5 446.8096,-206.5 446.8096,-162.5 372,-162.5"/>
<text text-anchor="middle" x="409.4048" y="-191.3" font-family="Courier,monospace" font-size="14.00" fill="#000000">4..6</text>
<polyline fill="none" stroke="#000000" points="372,-184.5 446.8096,-184.5 "/>
<text text-anchor="middle" x="409.4048" y="-169.3" font-family="Courier,monospace" font-size="14.00" fill="#000000">(50,70)</text>
</g>
<!-- 0&#45;&gt;2 -->
<g id="edge2" class="edge">
<title>0&#45;&gt;2</title>
<path fill="none" stroke="#000000" d="M375.2477,-243.3664C380.2734,-234.7052 386.124,-224.6222 391.5483,-215.274"/>
<polygon fill="#000000" stroke="#000000" points="394.5858,-217.0128 396.5774,-206.6068 388.5312,-213.4997 394.5858,-217.0128"/>
</g>
<!-- 3 -->
<g id="node4" class="node">
<title>3</title>
<polygon fill="none" stroke="#000000" points="93,-81.5 93,-125.5 167.8096,-125.5 167.8096,-81.5 93,-81.5"/>
<text text-anchor="middle" x="130.4048" y="-110.3" font-family="Courier,monospace" font-size="14.00" fill="#000000">0..1</text>
<polyline fill="none" stroke="#000000" points="93,-103.5 167.8096,-103.5 "/>
<text text-anchor="middle" x="130.4048" y="-88.3" font-family="Courier,monospace" font-size="14.00" fill="#000000">(10,20)</text>
</g>
<!-- 1&#45;&gt;3 -->
<g id="edge3" class="edge">
<title>1&#45;&gt;3</title>
<path fill="none" stroke="#000000" d="M231.7894,-162.5802C214.9466,-152.7654 194.9141,-141.0918 177.1216,-130.7235"/>
<polygon fill="#000000" stroke="#000000" points="178.4525,-127.4482 168.0503,-125.4373 174.9281,-133.4962 178.4525,-127.4482"/>
</g>
<!-- 4 -->
<g id="node5" class="node">
<title>4</title>
<polygon fill="none" stroke="#000000" points="232,-81.5 232,-125.5 306.8096,-125.5 306.8096,-81.5 232,-81.5"/>
<text text-anchor="middle" x="269.4048" y="-110.3" font-family="Courier,monospace" font-size="14.00" fill="#000000">2..3</text>
<polyline fill="none" stroke="#000000" points="232,-103.5 306.8096,-103.5 "/>
<text text-anchor="middle" x="269.4048" y="-88.3" font-family="Courier,monospace" font-size="14.00" fill="#000000">(30,40)</text>
</g>
<!-- 1&#45;&gt;4 -->
<g id="edge4" class="edge">
<title>1&#45;&gt;4</title>
<path fill="none" stroke="#000000" d="M269.4048,-162.3664C269.4048,-154.1516 269.4048,-144.6579 269.4048,-135.7252"/>
<polygon fill="#000000" stroke="#000000" points="272.9049,-135.6068 269.4048,-125.6068 265.9049,-135.6069 272.9049,-135.6068"/>
</g>
<!-- 5 -->
<g id="node6" class="node">
<title>5</title>
<polygon fill="none" stroke="#000000" points="372,-81.5 372,-125.5 446.8096,-125.5 446.8096,-81.5 372,-81.5"/>
<text text-anchor="middle" x="409.4048" y="-110.3" font-family="Courier,monospace" font-size="14.00" fill="#000000">4..5</text>
<polyline fill="none" stroke="#000000" points="372,-103.5 446.8096,-103.5 "/>
<text text-anchor="middle" x="409.4048" y="-88.3" font-family="Courier,monospace" font-size="14.00" fill="#000000">(50,60)</text>
</g>
<!-- 2&#45;&gt;5 -->
<g id="edge5" class="edge">
<title>2&#45;&gt;5</title>
<path fill="none" stroke="#000000" d="M409.4048,-162.3664C409.4048,-154.1516 409.4048,-144.6579 409.4048,-135.7252"/>
<polygon fill="#000000" stroke="#000000" points="412.9049,-135.6068 409.4048,-125.6068 405.9049,-135.6069 412.9049,-135.6068"/>
</g>
<!-- 6 -->
<g id="node7" class="node">
<title>6</title>
<polygon fill="none" stroke="#000000" points="465,-81.5 465,-125.5 539.8096,-125.5 539.8096,-81.5 465,-81.5"/>
<text text-anchor="middle" x="502.4048" y="-110.3" font-family="Courier,monospace" font-size="14.00" fill="#000000">6..6</text>
<polyline fill="none" stroke="#000000" points="465,-103.5 539.8096,-103.5 "/>
<text text-anchor="middle" x="502.4048" y="-88.3" font-family="Courier,monospace" font-size="14.00" fill="#000000">(70,70)</text>
</g>
<!-- 2&#45;&gt;6 -->
<g id="edge6" class="edge">
<title>2&#45;&gt;6</title>
<path fill="none" stroke="#000000" d="M434.8174,-162.3664C445.4794,-153.0802 458.0179,-142.1595 469.3812,-132.2625"/>
<polygon fill="#000000" stroke="#000000" points="471.7808,-134.814 477.0229,-125.6068 467.1833,-129.5354 471.7808,-134.814"/>
</g>
<!-- 7 -->
<g id="node8" class="node">
<title>7</title>
<polygon fill="none" stroke="#000000" points="0,-.5 0,-44.5 74.8096,-44.5 74.8096,-.5 0,-.5"/>
<text text-anchor="middle" x="37.4048" y="-29.3" font-family="Courier,monospace" font-size="14.00" fill="#000000">0..0</text>
<polyline fill="none" stroke="#000000" points="0,-22.5 74.8096,-22.5 "/>
<text text-anchor="middle" x="37.4048" y="-7.3" font-family="Courier,monospace" font-size="14.00" fill="#000000">(10,10)</text>
</g>
<!-- 3&#45;&gt;7 -->
<g id="edge7" class="edge">
<title>3&#45;&gt;7</title>
<path fill="none" stroke="#000000" d="M104.9921,-81.3664C94.3302,-72.0802 81.7916,-61.1595 70.4284,-51.2625"/>
<polygon fill="#000000" stroke="#000000" points="72.6263,-48.5354 62.7867,-44.6068 68.0288,-53.814 72.6263,-48.5354"/>
</g>
<!-- 8 -->
<g id="node9" class="node">
<title>8</title>
<polygon fill="none" stroke="#000000" points="93,-.5 93,-44.5 167.8096,-44.5 167.8096,-.5 93,-.5"/>
<text text-anchor="middle" x="130.4048" y="-29.3" font-family="Courier,monospace" font-size="14.00" fill="#000000">1..1</text>
<polyline fill="none" stroke="#000000" points="93,-22.5 167.8096,-22.5 "/>
<text text-anchor="middle" x="130.4048" y="-7.3" font-family="Courier,monospace" font-size="14.00" fill="#000000">(20,20)</text>
</g>
<!-- 3&#45;&gt;8 -->
<g id="edge8" class="edge">
<title>3&#45;&gt;8</title>
<path fill="none" stroke="#000000" d="M130.4048,-81.3664C130.4048,-73.1516 130.4048,-63.6579 130.4048,-54.7252"/>
<polygon fill="#000000" stroke="#000000" points="133.9049,-54.6068 130.4048,-44.6068 126.9049,-54.6069 133.9049,-54.6068"/>
</g>
<!-- 9 -->
<g id="node10" class="node">
<title>9</title>
<polygon fill="none" stroke="#000000" points="186,-.5 186,-44.5 260.8096,-44.5 260.8096,-.5 186,-.5"/>
<text text-anchor="middle" x="223.4048" y="-29.3" font-family="Courier,monospace" font-size="14.00" fill="#000000">2..2</text>
<polyline fill="none" stroke="#000000" points="186,-22.5 260.8096,-22.5 "/>
<text text-anchor="middle" x="223.4048" y="-7.3" font-family="Courier,monospace" font-size="14.00" fill="#000000">(30,30)</text>
</g>
<!-- 4&#45;&gt;9 -->
<g id="edge9" class="edge">
<title>4&#45;&gt;9</title>
<path fill="none" stroke="#000000" d="M256.8351,-81.3664C251.9671,-72.7945 246.3082,-62.8299 241.0457,-53.5634"/>
<polygon fill="#000000" stroke="#000000" points="243.9411,-51.5741 235.9593,-44.6068 237.8541,-55.0309 243.9411,-51.5741"/>
</g>
<!-- 10 -->
<g id="node11" class="node">
<title>10</title>
<polygon fill="none" stroke="#000000" points="279,-.5 279,-44.5 353.8096,-44.5 353.8096,-.5 279,-.5"/>
<text text-anchor="middle" x="316.4048" y="-29.3" font-family="Courier,monospace" font-size="14.00" fill="#000000">3..3</text>
<polyline fill="none" stroke="#000000" points="279,-22.5 353.8096,-22.5 "/>
<text text-anchor="middle" x="316.4048" y="-7.3" font-family="Courier,monospace" font-size="14.00" fill="#000000">(40,40)</text>
</g>
<!-- 4&#45;&gt;10 -->
<g id="edge10" class="edge">
<title>4&#45;&gt;10</title>
<path fill="none" stroke="#000000" d="M282.2477,-81.3664C287.2734,-72.7052 293.124,-62.6222 298.5483,-53.274"/>
<polygon fill="#000000" stroke="#000000" points="301.5858,-55.0128 303.5774,-44.6068 295.5312,-51.4997 301.5858,-55.0128"/>
</g>
<!-- 11 -->
<g id="node12" class="node">
<title>11</title>
<polygon fill="none" stroke="#000000" points="372,-.5 372,-44.5 446.8096,-44.5 446.8096,-.5 372,-.5"/>
<text text-anchor="middle" x="409.4048" y="-29.3" font-family="Courier,monospace" font-size="14.00" fill="#000000">4..4</text>
<polyline fill="none" stroke="#000000" points="372,-22.5 446.8096,-22.5 "/>
<text text-anchor="middle" x="409.4048" y="-7.3" font-family="Courier,monospace" font-size="14.00" fill="#000000">(50,50)</text>
</g>
<!-- 5&#45;&gt;11 -->
<g id="edge11" class="edge">
<title>5&#45;&gt;11</title>
<path fill="none" stroke="#000000" d="M409.4048,-81.3664C409.4048,-73.1516 409.4048,-63.6579 409.4048,-54.7252"/>
<polygon fill="#000000" stroke="#000000" points="412.9049,-54.6068 409.4048,-44.6068 405.9049,-54.6069 412.9049,-54.6068"/>
</g>
<!-- 12 -->
<g id="node13" class="node">
<title>12</title>
<polygon fill="none" stroke="#000000" points="465,-.5 465,-44.5 539.8096,-44.5 539.8096,-.5 465,-.5"/>
<text text-anchor="middle" x="502.4048" y="-29.3" font-family="Courier,monospace" font-size="14.00" fill="#000000">5..5</text>
<polyline fill="none" stroke="#000000" points="465,-22.5 539.8096,-22.5 "/>
<text text-anchor="middle" x="502.4048" y="-7.3" font-family="Courier,monospace" font-size="14.00" fill="#000000">(60,60)</text>
</g>
<!-- 5&#45;&gt;12 -->
<g id="edge12" class="edge">
<title>5&#45;&gt;12</title>
<path fill="none" stroke="#000000" d="M434.8174,-81.3664C445.4794,-72.0802 458.0179,-61.1595 469.3812,-51.2625"/>
<polygon fill="#000000" stroke="#000000" points="471.7808,-53.814 477.0229,-44.6068 467.1833,-48.5354 471.7808,-53.814"/>
</g>
</g>
</svg>
