<?xml version="1.0" encoding="UTF-8" standalone="no"?>
<!DOCTYPE svg PUBLIC "-//W3C//DTD SVG 1.1//EN"
 "http://www.w3.org/Graphics/SVG/1.1/DTD/svg11.dtd">
<!-- Generated by graphviz version 2.47.1 (20210417.1919)
 -->
<!-- Title: segtree0 Pages: 1 -->
<svg width="542pt" height="304pt"
 viewBox="0.00 0.00 542.00 304.00" xmlns="http://www.w3.org/2000/svg" xmlns:xlink="http://www.w3.org/1999/xlink">
<g id="graph0" class="graph" transform="scale(1 1) rotate(0) translate(4 300)">
<title>segtree0</title>
<polygon fill="white" stroke="transparent" points="-4,4 -4,-300 538,-300 538,4 -4,4"/>
<!-- 0 -->
<g id="node1" class="node">
<title>0</title>
<polygon fill="none" stroke="black" points="322,-249.5 322,-295.5 396,-295.5 396,-249.5 322,-249.5"/>
<text text-anchor="middle" x="359" y="-280.3" font-family="Courier,monospace" font-size="14.00">0..6</text>
<polyline fill="none" stroke="black" points="322,-272.5 396,-272.5 "/>
<text text-anchor="middle" x="359" y="-257.3" font-family="Courier,monospace" font-size="14.00">(10,70)</text>
</g>
<!-- 1 -->
<g id="node2" class="node">
<title>1</title>
<polygon fill="none" stroke="black" points="230,-166.5 230,-212.5 304,-212.5 304,-166.5 230,-166.5"/>
<text text-anchor="middle" x="267" y="-197.3" font-family="Courier,monospace" font-size="14.00">0..3</text>
<polyline fill="none" stroke="black" points="230,-189.5 304,-189.5 "/>
<text text-anchor="middle" x="267" y="-174.3" font-family="Courier,monospace" font-size="14.00">(10,40)</text>
</g>
<!-- 0&#45;&gt;1 -->
<g id="edge1" class="edge">
<title>0&#45;&gt;1</title>
<path fill="none" stroke="black" d="M333.86,-249.37C323.31,-240.08 310.91,-229.16 299.67,-219.26"/>
<polygon fill="black" stroke="black" points="301.93,-216.59 292.11,-212.61 297.3,-221.84 301.93,-216.59"/>
</g>
<!-- 2 -->
<g id="node3" class="node">
<title>2</title>
<polygon fill="none" stroke="black" points="368,-166.5 368,-212.5 442,-212.5 442,-166.5 368,-166.5"/>
<text text-anchor="middle" x="405" y="-197.3" font-family="Courier,monospace" font-size="14.00">4..6</text>
<polyline fill="none" stroke="black" points="368,-189.5 442,-189.5 "/>
<text text-anchor="middle" x="405" y="-174.3" font-family="Courier,monospace" font-size="14.00">(50,70)</text>
</g>
<!-- 0&#45;&gt;2 -->
<g id="edge2" class="edge">
<title>0&#45;&gt;2</title>
<path fill="none" stroke="black" d="M371.57,-249.37C376.44,-240.79 382.1,-230.83 387.36,-221.56"/>
<polygon fill="black" stroke="black" points="390.55,-223.03 392.45,-212.61 384.46,-219.57 390.55,-223.03"/>
</g>
<!-- 3 -->
<g id="node4" class="node">
<title>3</title>
<polygon fill="none" stroke="black" points="92,-83.5 92,-129.5 166,-129.5 166,-83.5 92,-83.5"/>
<text text-anchor="middle" x="129" y="-114.3" font-family="Courier,monospace" font-size="14.00">0..1</text>
<polyline fill="none" stroke="black" points="92,-106.5 166,-106.5 "/>
<text text-anchor="middle" x="129" y="-91.3" font-family="Courier,monospace" font-size="14.00">(10,20)</text>
</g>
<!-- 1&#45;&gt;3 -->
<g id="edge3" class="edge">
<title>1&#45;&gt;3</title>
<path fill="none" stroke="black" d="M229.66,-166.58C212.93,-156.77 193.05,-145.09 175.38,-134.72"/>
<polygon fill="black" stroke="black" points="176.77,-131.48 166.37,-129.44 173.23,-137.52 176.77,-131.48"/>
</g>
<!-- 4 -->
<g id="node5" class="node">
<title>4</title>
<polygon fill="none" stroke="black" points="230,-83.5 230,-129.5 304,-129.5 304,-83.5 230,-83.5"/>
<text text-anchor="middle" x="267" y="-114.3" font-family="Courier,monospace" font-size="14.00">2..3</text>
<polyline fill="none" stroke="black" points="230,-106.5 304,-106.5 "/>
<text text-anchor="middle" x="267" y="-91.3" font-family="Courier,monospace" font-size="14.00">(30,40)</text>
</g>
<!-- 1&#45;&gt;4 -->
<g id="edge4" class="edge">
<title>1&#45;&gt;4</title>
<path fill="none" stroke="black" d="M267,-166.37C267,-158.15 267,-148.66 267,-139.73"/>
<polygon fill="black" stroke="black" points="270.5,-139.61 267,-129.61 263.5,-139.61 270.5,-139.61"/>
</g>
<!-- 5 -->
<g id="node6" class="node">
<title>5</title>
<polygon fill="none" stroke="black" points="368,-83.5 368,-129.5 442,-129.5 442,-83.5 368,-83.5"/>
<text text-anchor="middle" x="405" y="-114.3" font-family="Courier,monospace" font-size="14.00">4..5</text>
<polyline fill="none" stroke="black" points="368,-106.5 442,-106.5 "/>
<text text-anchor="middle" x="405" y="-91.3" font-family="Courier,monospace" font-size="14.00">(50,60)</text>
</g>
<!-- 2&#45;&gt;5 -->
<g id="edge5" class="edge">
<title>2&#45;&gt;5</title>
<path fill="none" stroke="black" d="M405,-166.37C405,-158.15 405,-148.66 405,-139.73"/>
<polygon fill="black" stroke="black" points="408.5,-139.61 405,-129.61 401.5,-139.61 408.5,-139.61"/>
</g>
<!-- 6 -->
<g id="node7" class="node">
<title>6</title>
<polygon fill="none" stroke="black" points="460,-83.5 460,-129.5 534,-129.5 534,-83.5 460,-83.5"/>
<text text-anchor="middle" x="497" y="-114.3" font-family="Courier,monospace" font-size="14.00">6..6</text>
<polyline fill="none" stroke="black" points="460,-106.5 534,-106.5 "/>
<text text-anchor="middle" x="497" y="-91.3" font-family="Courier,monospace" font-size="14.00">(70,70)</text>
</g>
<!-- 2&#45;&gt;6 -->
<g id="edge6" class="edge">
<title>2&#45;&gt;6</title>
<path fill="none" stroke="black" d="M430.14,-166.37C440.69,-157.08 453.09,-146.16 464.33,-136.26"/>
<polygon fill="black" stroke="black" points="466.7,-138.84 471.89,-129.61 462.07,-133.59 466.7,-138.84"/>
</g>
<!-- 7 -->
<g id="node8" class="node">
<title>7</title>
<polygon fill="none" stroke="black" points="0,-0.5 0,-46.5 74,-46.5 74,-0.5 0,-0.5"/>
<text text-anchor="middle" x="37" y="-31.3" font-family="Courier,monospace" font-size="14.00">0..0</text>
<polyline fill="none" stroke="black" points="0,-23.5 74,-23.5 "/>
<text text-anchor="middle" x="37" y="-8.3" font-family="Courier,monospace" font-size="14.00">(10,10)</text>
</g>
<!-- 3&#45;&gt;7 -->
<g id="edge7" class="edge">
<title>3&#45;&gt;7</title>
<path fill="none" stroke="black" d="M103.86,-83.37C93.31,-74.08 80.91,-63.16 69.67,-53.26"/>
<polygon fill="black" stroke="black" points="71.93,-50.59 62.11,-46.61 67.3,-55.84 71.93,-50.59"/>
</g>
<!-- 8 -->
<g id="node9" class="node">
<title>8</title>
<polygon fill="none" stroke="black" points="92,-0.5 92,-46.5 166,-46.5 166,-0.5 92,-0.5"/>
<text text-anchor="middle" x="129" y="-31.3" font-family="Courier,monospace" font-size="14.00">1..1</text>
<polyline fill="none" stroke="black" points="92,-23.5 166,-23.5 "/>
<text text-anchor="middle" x="129" y="-8.3" font-family="Courier,monospace" font-size="14.00">(20,20)</text>
</g>
<!-- 3&#45;&gt;8 -->
<g id="edge8" class="edge">
<title>3&#45;&gt;8</title>
<path fill="none" stroke="black" d="M129,-83.37C129,-75.15 129,-65.66 129,-56.73"/>
<polygon fill="black" stroke="black" points="132.5,-56.61 129,-46.61 125.5,-56.61 132.5,-56.61"/>
</g>
<!-- 9 -->
<g id="node10" class="node">
<title>9</title>
<polygon fill="none" stroke="black" points="184,-0.5 184,-46.5 258,-46.5 258,-0.5 184,-0.5"/>
<text text-anchor="middle" x="221" y="-31.3" font-family="Courier,monospace" font-size="14.00">2..2</text>
<polyline fill="none" stroke="black" points="184,-23.5 258,-23.5 "/>
<text text-anchor="middle" x="221" y="-8.3" font-family="Courier,monospace" font-size="14.00">(30,30)</text>
</g>
<!-- 4&#45;&gt;9 -->
<g id="edge9" class="edge">
<title>4&#45;&gt;9</title>
<path fill="none" stroke="black" d="M254.43,-83.37C249.56,-74.79 243.9,-64.83 238.64,-55.56"/>
<polygon fill="black" stroke="black" points="241.54,-53.57 233.55,-46.61 235.45,-57.03 241.54,-53.57"/>
</g>
<!-- 10 -->
<g id="node11" class="node">
<title>10</title>
<polygon fill="none" stroke="black" points="276,-0.5 276,-46.5 350,-46.5 350,-0.5 276,-0.5"/>
<text text-anchor="middle" x="313" y="-31.3" font-family="Courier,monospace" font-size="14.00">3..3</text>
<polyline fill="none" stroke="black" points="276,-23.5 350,-23.5 "/>
<text text-anchor="middle" x="313" y="-8.3" font-family="Courier,monospace" font-size="14.00">(40,40)</text>
</g>
<!-- 4&#45;&gt;10 -->
<g id="edge10" class="edge">
<title>4&#45;&gt;10</title>
<path fill="none" stroke="black" d="M279.57,-83.37C284.44,-74.79 290.1,-64.83 295.36,-55.56"/>
<polygon fill="black" stroke="black" points="298.55,-57.03 300.45,-46.61 292.46,-53.57 298.55,-57.03"/>
</g>
<!-- 11 -->
<g id="node12" class="node">
<title>11</title>
<polygon fill="none" stroke="black" points="368,-0.5 368,-46.5 442,-46.5 442,-0.5 368,-0.5"/>
<text text-anchor="middle" x="405" y="-31.3" font-family="Courier,monospace" font-size="14.00">4..4</text>
<polyline fill="none" stroke="black" points="368,-23.5 442,-23.5 "/>
<text text-anchor="middle" x="405" y="-8.3" font-family="Courier,monospace" font-size="14.00">(50,50)</text>
</g>
<!-- 5&#45;&gt;11 -->
<g id="edge11" class="edge">
<title>5&#45;&gt;11</title>
<path fill="none" stroke="black" d="M405,-83.37C405,-75.15 405,-65.66 405,-56.73"/>
<polygon fill="black" stroke="black" points="408.5,-56.61 405,-46.61 401.5,-56.61 408.5,-56.61"/>
</g>
<!-- 12 -->
<g id="node13" class="node">
<title>12</title>
<polygon fill="none" stroke="black" points="460,-0.5 460,-46.5 534,-46.5 534,-0.5 460,-0.5"/>
<text text-anchor="middle" x="497" y="-31.3" font-family="Courier,monospace" font-size="14.00">5..5</text>
<polyline fill="none" stroke="black" points="460,-23.5 534,-23.5 "/>
<text text-anchor="middle" x="497" y="-8.3" font-family="Courier,monospace" font-size="14.00">(60,60)</text>
</g>
<!-- 5&#45;&gt;12 -->
<g id="edge12" class="edge">
<title>5&#45;&gt;12</title>
<path fill="none" stroke="black" d="M430.14,-83.37C440.69,-74.08 453.09,-63.16 464.33,-53.26"/>
<polygon fill="black" stroke="black" points="466.7,-55.84 471.89,-46.61 462.07,-50.59 466.7,-55.84"/>
</g>
</g>
</svg>
