<?xml version="1.0" encoding="UTF-8" standalone="no"?>
<!DOCTYPE svg PUBLIC "-//W3C//DTD SVG 1.1//EN"
 "http://www.w3.org/Graphics/SVG/1.1/DTD/svg11.dtd">
<!-- Generated by graphviz version 2.48.0 (20210717.1556)
 -->
<!-- Title: segtree0 Pages: 1 -->
<svg width="548pt" height="304pt"
 viewBox="0.00 0.00 548.00 304.00" xmlns="http://www.w3.org/2000/svg" xmlns:xlink="http://www.w3.org/1999/xlink">
<g id="graph0" class="graph" transform="scale(1 1) rotate(0) translate(4 300)">
<title>segtree0</title>
<polygon fill="white" stroke="transparent" points="-4,4 -4,-300 544,-300 544,4 -4,4"/>
<!-- 0 -->
<g id="node1" class="node">
<title>0</title>
<polygon fill="none" stroke="black" points="325,-249.5 325,-295.5 400,-295.5 400,-249.5 325,-249.5"/>
<text text-anchor="middle" x="362.5" y="-280.3" font-family="Courier,monospace" font-size="14.00">0..6</text>
<polyline fill="none" stroke="black" points="325,-272.5 400,-272.5 "/>
<text text-anchor="middle" x="362.5" y="-257.3" font-family="Courier,monospace" font-size="14.00">(10,70)</text>
</g>
<!-- 1 -->
<g id="node2" class="node">
<title>1</title>
<polygon fill="none" stroke="black" points="232,-166.5 232,-212.5 307,-212.5 307,-166.5 232,-166.5"/>
<text text-anchor="middle" x="269.5" y="-197.3" font-family="Courier,monospace" font-size="14.00">0..3</text>
<polyline fill="none" stroke="black" points="232,-189.5 307,-189.5 "/>
<text text-anchor="middle" x="269.5" y="-174.3" font-family="Courier,monospace" font-size="14.00">(10,40)</text>
</g>
<!-- 0&#45;&gt;1 -->
<g id="edge1" class="edge">
<title>0&#45;&gt;1</title>
<path fill="none" stroke="black" d="M337.09,-249.37C326.43,-240.08 313.89,-229.16 302.52,-219.26"/>
<polygon fill="black" stroke="black" points="304.72,-216.54 294.88,-212.61 300.12,-221.81 304.72,-216.54"/>
</g>
<!-- 2 -->
<g id="node3" class="node">
<title>2</title>
<polygon fill="none" stroke="black" points="372,-166.5 372,-212.5 447,-212.5 447,-166.5 372,-166.5"/>
<text text-anchor="middle" x="409.5" y="-197.3" font-family="Courier,monospace" font-size="14.00">4..6</text>
<polyline fill="none" stroke="black" points="372,-189.5 447,-189.5 "/>
<text text-anchor="middle" x="409.5" y="-174.3" font-family="Courier,monospace" font-size="14.00">(50,70)</text>
</g>
<!-- 0&#45;&gt;2 -->
<g id="edge2" class="edge">
<title>0&#45;&gt;2</title>
<path fill="none" stroke="black" d="M375.34,-249.37C380.37,-240.71 386.22,-230.62 391.64,-221.27"/>
<polygon fill="black" stroke="black" points="394.68,-223.01 396.67,-212.61 388.63,-219.5 394.68,-223.01"/>
</g>
<!-- 3 -->
<g id="node4" class="node">
<title>3</title>
<polygon fill="none" stroke="black" points="93,-83.5 93,-129.5 168,-129.5 168,-83.5 93,-83.5"/>
<text text-anchor="middle" x="130.5" y="-114.3" font-family="Courier,monospace" font-size="14.00">0..1</text>
<polyline fill="none" stroke="black" points="93,-106.5 168,-106.5 "/>
<text text-anchor="middle" x="130.5" y="-91.3" font-family="Courier,monospace" font-size="14.00">(10,20)</text>
</g>
<!-- 1&#45;&gt;3 -->
<g id="edge3" class="edge">
<title>1&#45;&gt;3</title>
<path fill="none" stroke="black" d="M231.88,-166.58C215.04,-156.77 195.01,-145.09 177.22,-134.72"/>
<polygon fill="black" stroke="black" points="178.55,-131.45 168.15,-129.44 175.02,-137.5 178.55,-131.45"/>
</g>
<!-- 4 -->
<g id="node5" class="node">
<title>4</title>
<polygon fill="none" stroke="black" points="232,-83.5 232,-129.5 307,-129.5 307,-83.5 232,-83.5"/>
<text text-anchor="middle" x="269.5" y="-114.3" font-family="Courier,monospace" font-size="14.00">2..3</text>
<polyline fill="none" stroke="black" points="232,-106.5 307,-106.5 "/>
<text text-anchor="middle" x="269.5" y="-91.3" font-family="Courier,monospace" font-size="14.00">(30,40)</text>
</g>
<!-- 1&#45;&gt;4 -->
<g id="edge4" class="edge">
<title>1&#45;&gt;4</title>
<path fill="none" stroke="black" d="M269.5,-166.37C269.5,-158.15 269.5,-148.66 269.5,-139.73"/>
<polygon fill="black" stroke="black" points="273,-139.61 269.5,-129.61 266,-139.61 273,-139.61"/>
</g>
<!-- 5 -->
<g id="node6" class="node">
<title>5</title>
<polygon fill="none" stroke="black" points="372,-83.5 372,-129.5 447,-129.5 447,-83.5 372,-83.5"/>
<text text-anchor="middle" x="409.5" y="-114.3" font-family="Courier,monospace" font-size="14.00">4..5</text>
<polyline fill="none" stroke="black" points="372,-106.5 447,-106.5 "/>
<text text-anchor="middle" x="409.5" y="-91.3" font-family="Courier,monospace" font-size="14.00">(50,60)</text>
</g>
<!-- 2&#45;&gt;5 -->
<g id="edge5" class="edge">
<title>2&#45;&gt;5</title>
<path fill="none" stroke="black" d="M409.5,-166.37C409.5,-158.15 409.5,-148.66 409.5,-139.73"/>
<polygon fill="black" stroke="black" points="413,-139.61 409.5,-129.61 406,-139.61 413,-139.61"/>
</g>
<!-- 6 -->
<g id="node7" class="node">
<title>6</title>
<polygon fill="none" stroke="black" points="465,-83.5 465,-129.5 540,-129.5 540,-83.5 465,-83.5"/>
<text text-anchor="middle" x="502.5" y="-114.3" font-family="Courier,monospace" font-size="14.00">6..6</text>
<polyline fill="none" stroke="black" points="465,-106.5 540,-106.5 "/>
<text text-anchor="middle" x="502.5" y="-91.3" font-family="Courier,monospace" font-size="14.00">(70,70)</text>
</g>
<!-- 2&#45;&gt;6 -->
<g id="edge6" class="edge">
<title>2&#45;&gt;6</title>
<path fill="none" stroke="black" d="M434.91,-166.37C445.57,-157.08 458.11,-146.16 469.48,-136.26"/>
<polygon fill="black" stroke="black" points="471.88,-138.81 477.12,-129.61 467.28,-133.54 471.88,-138.81"/>
</g>
<!-- 7 -->
<g id="node8" class="node">
<title>7</title>
<polygon fill="none" stroke="black" points="0,-0.5 0,-46.5 75,-46.5 75,-0.5 0,-0.5"/>
<text text-anchor="middle" x="37.5" y="-31.3" font-family="Courier,monospace" font-size="14.00">0..0</text>
<polyline fill="none" stroke="black" points="0,-23.5 75,-23.5 "/>
<text text-anchor="middle" x="37.5" y="-8.3" font-family="Courier,monospace" font-size="14.00">(10,10)</text>
</g>
<!-- 3&#45;&gt;7 -->
<g id="edge7" class="edge">
<title>3&#45;&gt;7</title>
<path fill="none" stroke="black" d="M105.09,-83.37C94.43,-74.08 81.89,-63.16 70.52,-53.26"/>
<polygon fill="black" stroke="black" points="72.72,-50.54 62.88,-46.61 68.12,-55.81 72.72,-50.54"/>
</g>
<!-- 8 -->
<g id="node9" class="node">
<title>8</title>
<polygon fill="none" stroke="black" points="93,-0.5 93,-46.5 168,-46.5 168,-0.5 93,-0.5"/>
<text text-anchor="middle" x="130.5" y="-31.3" font-family="Courier,monospace" font-size="14.00">1..1</text>
<polyline fill="none" stroke="black" points="93,-23.5 168,-23.5 "/>
<text text-anchor="middle" x="130.5" y="-8.3" font-family="Courier,monospace" font-size="14.00">(20,20)</text>
</g>
<!-- 3&#45;&gt;8 -->
<g id="edge8" class="edge">
<title>3&#45;&gt;8</title>
<path fill="none" stroke="black" d="M130.5,-83.37C130.5,-75.15 130.5,-65.66 130.5,-56.73"/>
<polygon fill="black" stroke="black" points="134,-56.61 130.5,-46.61 127,-56.61 134,-56.61"/>
</g>
<!-- 9 -->
<g id="node10" class="node">
<title>9</title>
<polygon fill="none" stroke="black" points="186,-0.5 186,-46.5 261,-46.5 261,-0.5 186,-0.5"/>
<text text-anchor="middle" x="223.5" y="-31.3" font-family="Courier,monospace" font-size="14.00">2..2</text>
<polyline fill="none" stroke="black" points="186,-23.5 261,-23.5 "/>
<text text-anchor="middle" x="223.5" y="-8.3" font-family="Courier,monospace" font-size="14.00">(30,30)</text>
</g>
<!-- 4&#45;&gt;9 -->
<g id="edge9" class="edge">
<title>4&#45;&gt;9</title>
<path fill="none" stroke="black" d="M256.93,-83.37C252.06,-74.79 246.4,-64.83 241.14,-55.56"/>
<polygon fill="black" stroke="black" points="244.04,-53.57 236.05,-46.61 237.95,-57.03 244.04,-53.57"/>
</g>
<!-- 10 -->
<g id="node11" class="node">
<title>10</title>
<polygon fill="none" stroke="black" points="279,-0.5 279,-46.5 354,-46.5 354,-0.5 279,-0.5"/>
<text text-anchor="middle" x="316.5" y="-31.3" font-family="Courier,monospace" font-size="14.00">3..3</text>
<polyline fill="none" stroke="black" points="279,-23.5 354,-23.5 "/>
<text text-anchor="middle" x="316.5" y="-8.3" font-family="Courier,monospace" font-size="14.00">(40,40)</text>
</g>
<!-- 4&#45;&gt;10 -->
<g id="edge10" class="edge">
<title>4&#45;&gt;10</title>
<path fill="none" stroke="black" d="M282.34,-83.37C287.37,-74.71 293.22,-64.62 298.64,-55.27"/>
<polygon fill="black" stroke="black" points="301.68,-57.01 303.67,-46.61 295.63,-53.5 301.68,-57.01"/>
</g>
<!-- 11 -->
<g id="node12" class="node">
<title>11</title>
<polygon fill="none" stroke="black" points="372,-0.5 372,-46.5 447,-46.5 447,-0.5 372,-0.5"/>
<text text-anchor="middle" x="409.5" y="-31.3" font-family="Courier,monospace" font-size="14.00">4..4</text>
<polyline fill="none" stroke="black" points="372,-23.5 447,-23.5 "/>
<text text-anchor="middle" x="409.5" y="-8.3" font-family="Courier,monospace" font-size="14.00">(50,50)</text>
</g>
<!-- 5&#45;&gt;11 -->
<g id="edge11" class="edge">
<title>5&#45;&gt;11</title>
<path fill="none" stroke="black" d="M409.5,-83.37C409.5,-75.15 409.5,-65.66 409.5,-56.73"/>
<polygon fill="black" stroke="black" points="413,-56.61 409.5,-46.61 406,-56.61 413,-56.61"/>
</g>
<!-- 12 -->
<g id="node13" class="node">
<title>12</title>
<polygon fill="none" stroke="black" points="465,-0.5 465,-46.5 540,-46.5 540,-0.5 465,-0.5"/>
<text text-anchor="middle" x="502.5" y="-31.3" font-family="Courier,monospace" font-size="14.00">5..5</text>
<polyline fill="none" stroke="black" points="465,-23.5 540,-23.5 "/>
<text text-anchor="middle" x="502.5" y="-8.3" font-family="Courier,monospace" font-size="14.00">(60,60)</text>
</g>
<!-- 5&#45;&gt;12 -->
<g id="edge12" class="edge">
<title>5&#45;&gt;12</title>
<path fill="none" stroke="black" d="M434.91,-83.37C445.57,-74.08 458.11,-63.16 469.48,-53.26"/>
<polygon fill="black" stroke="black" points="471.88,-55.81 477.12,-46.61 467.28,-50.54 471.88,-55.81"/>
</g>
</g>
</svg>
