<?xml version="1.0" encoding="UTF-8" standalone="no"?>
<!DOCTYPE svg PUBLIC "-//W3C//DTD SVG 1.1//EN"
 "http://www.w3.org/Graphics/SVG/1.1/DTD/svg11.dtd">
<!-- Generated by graphviz version 8.0.5 (20230430.1635)
 -->
<!-- Title: segtree0 Pages: 1 -->
<svg width="542pt" height="316pt"
 viewBox="0.00 0.00 541.75 316.00" xmlns="http://www.w3.org/2000/svg" xmlns:xlink="http://www.w3.org/1999/xlink">
<g id="graph0" class="graph" transform="scale(1 1) rotate(0) translate(4 312)">
<title>segtree0</title>
<polygon fill="white" stroke="none" points="-4,4 -4,-312 537.75,-312 537.75,4 -4,4"/>
<!-- 0 -->
<g id="node1" class="node">
<title>0</title>
<polygon fill="none" stroke="black" points="322,-258.5 322,-307.5 395.75,-307.5 395.75,-258.5 322,-258.5"/>
<text text-anchor="middle" x="358.88" y="-290.2" font-family="Courier,monospace" font-size="14.00">0..6</text>
<polyline fill="none" stroke="black" points="322,-283 395.75,-283"/>
<text text-anchor="middle" x="358.88" y="-265.7" font-family="Courier,monospace" font-size="14.00">(10,70)</text>
</g>
<!-- 1 -->
<g id="node2" class="node">
<title>1</title>
<polygon fill="none" stroke="black" points="230,-172.5 230,-221.5 303.75,-221.5 303.75,-172.5 230,-172.5"/>
<text text-anchor="middle" x="266.88" y="-204.2" font-family="Courier,monospace" font-size="14.00">0..3</text>
<polyline fill="none" stroke="black" points="230,-197 303.75,-197"/>
<text text-anchor="middle" x="266.88" y="-179.7" font-family="Courier,monospace" font-size="14.00">(10,40)</text>
</g>
<!-- 0&#45;&gt;1 -->
<g id="edge1" class="edge">
<title>0&#45;&gt;1</title>
<path fill="none" stroke="black" d="M333.25,-258.6C323.08,-249.32 311.25,-238.51 300.41,-228.62"/>
<polygon fill="black" stroke="black" points="303.11,-226.43 293.36,-222.27 298.39,-231.6 303.11,-226.43"/>
</g>
<!-- 2 -->
<g id="node3" class="node">
<title>2</title>
<polygon fill="none" stroke="black" points="368,-172.5 368,-221.5 441.75,-221.5 441.75,-172.5 368,-172.5"/>
<text text-anchor="middle" x="404.88" y="-204.2" font-family="Courier,monospace" font-size="14.00">4..6</text>
<polyline fill="none" stroke="black" points="368,-197 441.75,-197"/>
<text text-anchor="middle" x="404.88" y="-179.7" font-family="Courier,monospace" font-size="14.00">(50,70)</text>
</g>
<!-- 0&#45;&gt;2 -->
<g id="edge2" class="edge">
<title>0&#45;&gt;2</title>
<path fill="none" stroke="black" d="M371.69,-258.6C376.42,-249.95 381.88,-239.99 386.98,-230.67"/>
<polygon fill="black" stroke="black" points="390.4,-232.73 392.13,-222.27 384.26,-229.36 390.4,-232.73"/>
</g>
<!-- 3 -->
<g id="node4" class="node">
<title>3</title>
<polygon fill="none" stroke="black" points="92,-86.5 92,-135.5 165.75,-135.5 165.75,-86.5 92,-86.5"/>
<text text-anchor="middle" x="128.88" y="-118.2" font-family="Courier,monospace" font-size="14.00">0..1</text>
<polyline fill="none" stroke="black" points="92,-111 165.75,-111"/>
<text text-anchor="middle" x="128.88" y="-93.7" font-family="Courier,monospace" font-size="14.00">(10,20)</text>
</g>
<!-- 1&#45;&gt;3 -->
<g id="edge3" class="edge">
<title>1&#45;&gt;3</title>
<path fill="none" stroke="black" d="M230.26,-173.71C213.26,-163.36 192.87,-150.95 174.84,-139.98"/>
<polygon fill="black" stroke="black" points="177.03,-136.6 166.67,-134.39 173.39,-142.58 177.03,-136.6"/>
</g>
<!-- 4 -->
<g id="node5" class="node">
<title>4</title>
<polygon fill="none" stroke="black" points="230,-86.5 230,-135.5 303.75,-135.5 303.75,-86.5 230,-86.5"/>
<text text-anchor="middle" x="266.88" y="-118.2" font-family="Courier,monospace" font-size="14.00">2..3</text>
<polyline fill="none" stroke="black" points="230,-111 303.75,-111"/>
<text text-anchor="middle" x="266.88" y="-93.7" font-family="Courier,monospace" font-size="14.00">(30,40)</text>
</g>
<!-- 1&#45;&gt;4 -->
<g id="edge4" class="edge">
<title>1&#45;&gt;4</title>
<path fill="none" stroke="black" d="M266.88,-172.6C266.88,-164.41 266.88,-155.03 266.88,-146.15"/>
<polygon fill="black" stroke="black" points="270.38,-146.27 266.88,-136.27 263.38,-146.27 270.38,-146.27"/>
</g>
<!-- 5 -->
<g id="node6" class="node">
<title>5</title>
<polygon fill="none" stroke="black" points="368,-86.5 368,-135.5 441.75,-135.5 441.75,-86.5 368,-86.5"/>
<text text-anchor="middle" x="404.88" y="-118.2" font-family="Courier,monospace" font-size="14.00">4..5</text>
<polyline fill="none" stroke="black" points="368,-111 441.75,-111"/>
<text text-anchor="middle" x="404.88" y="-93.7" font-family="Courier,monospace" font-size="14.00">(50,60)</text>
</g>
<!-- 2&#45;&gt;5 -->
<g id="edge5" class="edge">
<title>2&#45;&gt;5</title>
<path fill="none" stroke="black" d="M404.88,-172.6C404.88,-164.41 404.88,-155.03 404.88,-146.15"/>
<polygon fill="black" stroke="black" points="408.38,-146.27 404.88,-136.27 401.38,-146.27 408.38,-146.27"/>
</g>
<!-- 6 -->
<g id="node7" class="node">
<title>6</title>
<polygon fill="none" stroke="black" points="460,-86.5 460,-135.5 533.75,-135.5 533.75,-86.5 460,-86.5"/>
<text text-anchor="middle" x="496.88" y="-118.2" font-family="Courier,monospace" font-size="14.00">6..6</text>
<polyline fill="none" stroke="black" points="460,-111 533.75,-111"/>
<text text-anchor="middle" x="496.88" y="-93.7" font-family="Courier,monospace" font-size="14.00">(70,70)</text>
</g>
<!-- 2&#45;&gt;6 -->
<g id="edge6" class="edge">
<title>2&#45;&gt;6</title>
<path fill="none" stroke="black" d="M430.5,-172.6C440.67,-163.32 452.5,-152.51 463.34,-142.62"/>
<polygon fill="black" stroke="black" points="465.36,-145.6 470.39,-136.27 460.64,-140.43 465.36,-145.6"/>
</g>
<!-- 7 -->
<g id="node8" class="node">
<title>7</title>
<polygon fill="none" stroke="black" points="0,-0.5 0,-49.5 73.75,-49.5 73.75,-0.5 0,-0.5"/>
<text text-anchor="middle" x="36.88" y="-32.2" font-family="Courier,monospace" font-size="14.00">0..0</text>
<polyline fill="none" stroke="black" points="0,-25 73.75,-25"/>
<text text-anchor="middle" x="36.88" y="-7.7" font-family="Courier,monospace" font-size="14.00">(10,10)</text>
</g>
<!-- 3&#45;&gt;7 -->
<g id="edge7" class="edge">
<title>3&#45;&gt;7</title>
<path fill="none" stroke="black" d="M103.25,-86.6C93.08,-77.32 81.25,-66.51 70.41,-56.62"/>
<polygon fill="black" stroke="black" points="73.11,-54.43 63.36,-50.27 68.39,-59.6 73.11,-54.43"/>
</g>
<!-- 8 -->
<g id="node9" class="node">
<title>8</title>
<polygon fill="none" stroke="black" points="92,-0.5 92,-49.5 165.75,-49.5 165.75,-0.5 92,-0.5"/>
<text text-anchor="middle" x="128.88" y="-32.2" font-family="Courier,monospace" font-size="14.00">1..1</text>
<polyline fill="none" stroke="black" points="92,-25 165.75,-25"/>
<text text-anchor="middle" x="128.88" y="-7.7" font-family="Courier,monospace" font-size="14.00">(20,20)</text>
</g>
<!-- 3&#45;&gt;8 -->
<g id="edge8" class="edge">
<title>3&#45;&gt;8</title>
<path fill="none" stroke="black" d="M128.88,-86.6C128.88,-78.41 128.88,-69.03 128.88,-60.15"/>
<polygon fill="black" stroke="black" points="132.38,-60.27 128.88,-50.27 125.38,-60.27 132.38,-60.27"/>
</g>
<!-- 9 -->
<g id="node10" class="node">
<title>9</title>
<polygon fill="none" stroke="black" points="184,-0.5 184,-49.5 257.75,-49.5 257.75,-0.5 184,-0.5"/>
<text text-anchor="middle" x="220.88" y="-32.2" font-family="Courier,monospace" font-size="14.00">2..2</text>
<polyline fill="none" stroke="black" points="184,-25 257.75,-25"/>
<text text-anchor="middle" x="220.88" y="-7.7" font-family="Courier,monospace" font-size="14.00">(30,30)</text>
</g>
<!-- 4&#45;&gt;9 -->
<g id="edge9" class="edge">
<title>4&#45;&gt;9</title>
<path fill="none" stroke="black" d="M254.06,-86.6C249.33,-77.95 243.87,-67.99 238.77,-58.67"/>
<polygon fill="black" stroke="black" points="241.49,-57.36 233.62,-50.27 235.35,-60.73 241.49,-57.36"/>
</g>
<!-- 10 -->
<g id="node11" class="node">
<title>10</title>
<polygon fill="none" stroke="black" points="276,-0.5 276,-49.5 349.75,-49.5 349.75,-0.5 276,-0.5"/>
<text text-anchor="middle" x="312.88" y="-32.2" font-family="Courier,monospace" font-size="14.00">3..3</text>
<polyline fill="none" stroke="black" points="276,-25 349.75,-25"/>
<text text-anchor="middle" x="312.88" y="-7.7" font-family="Courier,monospace" font-size="14.00">(40,40)</text>
</g>
<!-- 4&#45;&gt;10 -->
<g id="edge10" class="edge">
<title>4&#45;&gt;10</title>
<path fill="none" stroke="black" d="M279.69,-86.6C284.42,-77.95 289.88,-67.99 294.98,-58.67"/>
<polygon fill="black" stroke="black" points="298.4,-60.73 300.13,-50.27 292.26,-57.36 298.4,-60.73"/>
</g>
<!-- 11 -->
<g id="node12" class="node">
<title>11</title>
<polygon fill="none" stroke="black" points="368,-0.5 368,-49.5 441.75,-49.5 441.75,-0.5 368,-0.5"/>
<text text-anchor="middle" x="404.88" y="-32.2" font-family="Courier,monospace" font-size="14.00">4..4</text>
<polyline fill="none" stroke="black" points="368,-25 441.75,-25"/>
<text text-anchor="middle" x="404.88" y="-7.7" font-family="Courier,monospace" font-size="14.00">(50,50)</text>
</g>
<!-- 5&#45;&gt;11 -->
<g id="edge11" class="edge">
<title>5&#45;&gt;11</title>
<path fill="none" stroke="black" d="M404.88,-86.6C404.88,-78.41 404.88,-69.03 404.88,-60.15"/>
<polygon fill="black" stroke="black" points="408.38,-60.27 404.88,-50.27 401.38,-60.27 408.38,-60.27"/>
</g>
<!-- 12 -->
<g id="node13" class="node">
<title>12</title>
<polygon fill="none" stroke="black" points="460,-0.5 460,-49.5 533.75,-49.5 533.75,-0.5 460,-0.5"/>
<text text-anchor="middle" x="496.88" y="-32.2" font-family="Courier,monospace" font-size="14.00">5..5</text>
<polyline fill="none" stroke="black" points="460,-25 533.75,-25"/>
<text text-anchor="middle" x="496.88" y="-7.7" font-family="Courier,monospace" font-size="14.00">(60,60)</text>
</g>
<!-- 5&#45;&gt;12 -->
<g id="edge12" class="edge">
<title>5&#45;&gt;12</title>
<path fill="none" stroke="black" d="M430.5,-86.6C440.67,-77.32 452.5,-66.51 463.34,-56.62"/>
<polygon fill="black" stroke="black" points="465.36,-59.6 470.39,-50.27 460.64,-54.43 465.36,-59.6"/>
</g>
</g>
</svg>
