<?xml version="1.0" encoding="UTF-8" standalone="no"?>
<!DOCTYPE svg PUBLIC "-//W3C//DTD SVG 1.1//EN"
 "http://www.w3.org/Graphics/SVG/1.1/DTD/svg11.dtd">
<!-- Generated by graphviz version 2.42.3 (20191010.1750)
 -->
<!-- Title: segtree0 Pages: 1 -->
<svg width="548pt" height="296pt"
 viewBox="0.00 0.00 547.81 296.00" xmlns="http://www.w3.org/2000/svg" xmlns:xlink="http://www.w3.org/1999/xlink">
<g id="graph0" class="graph" transform="scale(1 1) rotate(0) translate(4 292)">
<title>segtree0</title>
<polygon fill="white" stroke="transparent" points="-4,4 -4,-292 543.81,-292 543.81,4 -4,4"/>
<!-- 0 -->
<g id="node1" class="node">
<title>0</title>
<polygon fill="none" stroke="black" points="325,-243.5 325,-287.5 399.81,-287.5 399.81,-243.5 325,-243.5"/>
<text text-anchor="middle" x="362.4" y="-272.3" font-family="Courier,monospace" font-size="14.00">0..6</text>
<polyline fill="none" stroke="black" points="325,-265.5 399.81,-265.5 "/>
<text text-anchor="middle" x="362.4" y="-250.3" font-family="Courier,monospace" font-size="14.00">(10,70)</text>
</g>
<!-- 1 -->
<g id="node2" class="node">
<title>1</title>
<polygon fill="none" stroke="black" points="232,-162.5 232,-206.5 306.81,-206.5 306.81,-162.5 232,-162.5"/>
<text text-anchor="middle" x="269.4" y="-191.3" font-family="Courier,monospace" font-size="14.00">0..3</text>
<polyline fill="none" stroke="black" points="232,-184.5 306.81,-184.5 "/>
<text text-anchor="middle" x="269.4" y="-169.3" font-family="Courier,monospace" font-size="14.00">(10,40)</text>
</g>
<!-- 0&#45;&gt;1 -->
<g id="edge1" class="edge">
<title>0&#45;&gt;1</title>
<path fill="none" stroke="black" d="M337.48,-243.33C326.64,-234.12 313.79,-223.2 302.19,-213.35"/>
<polygon fill="black" stroke="black" points="304.28,-210.54 294.4,-206.73 299.75,-215.87 304.28,-210.54"/>
</g>
<!-- 2 -->
<g id="node3" class="node">
<title>2</title>
<polygon fill="none" stroke="black" points="372,-162.5 372,-206.5 446.81,-206.5 446.81,-162.5 372,-162.5"/>
<text text-anchor="middle" x="409.4" y="-191.3" font-family="Courier,monospace" font-size="14.00">4..6</text>
<polyline fill="none" stroke="black" points="372,-184.5 446.81,-184.5 "/>
<text text-anchor="middle" x="409.4" y="-169.3" font-family="Courier,monospace" font-size="14.00">(50,70)</text>
</g>
<!-- 0&#45;&gt;2 -->
<g id="edge2" class="edge">
<title>0&#45;&gt;2</title>
<path fill="none" stroke="black" d="M375,-243.33C380.11,-234.74 386.1,-224.66 391.65,-215.35"/>
<polygon fill="black" stroke="black" points="394.67,-217.11 396.77,-206.73 388.65,-213.53 394.67,-217.11"/>
</g>
<!-- 3 -->
<g id="node4" class="node">
<title>3</title>
<polygon fill="none" stroke="black" points="93,-81.5 93,-125.5 167.81,-125.5 167.81,-81.5 93,-81.5"/>
<text text-anchor="middle" x="130.4" y="-110.3" font-family="Courier,monospace" font-size="14.00">0..1</text>
<polyline fill="none" stroke="black" points="93,-103.5 167.81,-103.5 "/>
<text text-anchor="middle" x="130.4" y="-88.3" font-family="Courier,monospace" font-size="14.00">(10,20)</text>
</g>
<!-- 1&#45;&gt;3 -->
<g id="edge3" class="edge">
<title>1&#45;&gt;3</title>
<path fill="none" stroke="black" d="M232.16,-162.33C215.17,-152.68 194.89,-141.15 176.92,-130.93"/>
<polygon fill="black" stroke="black" points="178.18,-127.63 167.76,-125.73 174.72,-133.71 178.18,-127.63"/>
</g>
<!-- 4 -->
<g id="node5" class="node">
<title>4</title>
<polygon fill="none" stroke="black" points="232,-81.5 232,-125.5 306.81,-125.5 306.81,-81.5 232,-81.5"/>
<text text-anchor="middle" x="269.4" y="-110.3" font-family="Courier,monospace" font-size="14.00">2..3</text>
<polyline fill="none" stroke="black" points="232,-103.5 306.81,-103.5 "/>
<text text-anchor="middle" x="269.4" y="-88.3" font-family="Courier,monospace" font-size="14.00">(30,40)</text>
</g>
<!-- 1&#45;&gt;4 -->
<g id="edge4" class="edge">
<title>1&#45;&gt;4</title>
<path fill="none" stroke="black" d="M269.4,-162.33C269.4,-154.18 269.4,-144.7 269.4,-135.8"/>
<polygon fill="black" stroke="black" points="272.9,-135.73 269.4,-125.73 265.9,-135.73 272.9,-135.73"/>
</g>
<!-- 5 -->
<g id="node6" class="node">
<title>5</title>
<polygon fill="none" stroke="black" points="372,-81.5 372,-125.5 446.81,-125.5 446.81,-81.5 372,-81.5"/>
<text text-anchor="middle" x="409.4" y="-110.3" font-family="Courier,monospace" font-size="14.00">4..5</text>
<polyline fill="none" stroke="black" points="372,-103.5 446.81,-103.5 "/>
<text text-anchor="middle" x="409.4" y="-88.3" font-family="Courier,monospace" font-size="14.00">(50,60)</text>
</g>
<!-- 2&#45;&gt;5 -->
<g id="edge5" class="edge">
<title>2&#45;&gt;5</title>
<path fill="none" stroke="black" d="M409.4,-162.33C409.4,-154.18 409.4,-144.7 409.4,-135.8"/>
<polygon fill="black" stroke="black" points="412.9,-135.73 409.4,-125.73 405.9,-135.73 412.9,-135.73"/>
</g>
<!-- 6 -->
<g id="node7" class="node">
<title>6</title>
<polygon fill="none" stroke="black" points="465,-81.5 465,-125.5 539.81,-125.5 539.81,-81.5 465,-81.5"/>
<text text-anchor="middle" x="502.4" y="-110.3" font-family="Courier,monospace" font-size="14.00">6..6</text>
<polyline fill="none" stroke="black" points="465,-103.5 539.81,-103.5 "/>
<text text-anchor="middle" x="502.4" y="-88.3" font-family="Courier,monospace" font-size="14.00">(70,70)</text>
</g>
<!-- 2&#45;&gt;6 -->
<g id="edge6" class="edge">
<title>2&#45;&gt;6</title>
<path fill="none" stroke="black" d="M434.33,-162.33C445.17,-153.12 458.02,-142.2 469.62,-132.35"/>
<polygon fill="black" stroke="black" points="472.06,-134.87 477.41,-125.73 467.53,-129.54 472.06,-134.87"/>
</g>
<!-- 7 -->
<g id="node8" class="node">
<title>7</title>
<polygon fill="none" stroke="black" points="0,-0.5 0,-44.5 74.81,-44.5 74.81,-0.5 0,-0.5"/>
<text text-anchor="middle" x="37.4" y="-29.3" font-family="Courier,monospace" font-size="14.00">0..0</text>
<polyline fill="none" stroke="black" points="0,-22.5 74.81,-22.5 "/>
<text text-anchor="middle" x="37.4" y="-7.3" font-family="Courier,monospace" font-size="14.00">(10,10)</text>
</g>
<!-- 3&#45;&gt;7 -->
<g id="edge7" class="edge">
<title>3&#45;&gt;7</title>
<path fill="none" stroke="black" d="M105.48,-81.33C94.64,-72.12 81.79,-61.2 70.19,-51.35"/>
<polygon fill="black" stroke="black" points="72.28,-48.54 62.4,-44.73 67.75,-53.87 72.28,-48.54"/>
</g>
<!-- 8 -->
<g id="node9" class="node">
<title>8</title>
<polygon fill="none" stroke="black" points="93,-0.5 93,-44.5 167.81,-44.5 167.81,-0.5 93,-0.5"/>
<text text-anchor="middle" x="130.4" y="-29.3" font-family="Courier,monospace" font-size="14.00">1..1</text>
<polyline fill="none" stroke="black" points="93,-22.5 167.81,-22.5 "/>
<text text-anchor="middle" x="130.4" y="-7.3" font-family="Courier,monospace" font-size="14.00">(20,20)</text>
</g>
<!-- 3&#45;&gt;8 -->
<g id="edge8" class="edge">
<title>3&#45;&gt;8</title>
<path fill="none" stroke="black" d="M130.4,-81.33C130.4,-73.18 130.4,-63.7 130.4,-54.8"/>
<polygon fill="black" stroke="black" points="133.9,-54.73 130.4,-44.73 126.9,-54.73 133.9,-54.73"/>
</g>
<!-- 9 -->
<g id="node10" class="node">
<title>9</title>
<polygon fill="none" stroke="black" points="186,-0.5 186,-44.5 260.81,-44.5 260.81,-0.5 186,-0.5"/>
<text text-anchor="middle" x="223.4" y="-29.3" font-family="Courier,monospace" font-size="14.00">2..2</text>
<polyline fill="none" stroke="black" points="186,-22.5 260.81,-22.5 "/>
<text text-anchor="middle" x="223.4" y="-7.3" font-family="Courier,monospace" font-size="14.00">(30,30)</text>
</g>
<!-- 4&#45;&gt;9 -->
<g id="edge9" class="edge">
<title>4&#45;&gt;9</title>
<path fill="none" stroke="black" d="M257.08,-81.33C252.13,-72.83 246.33,-62.87 240.95,-53.64"/>
<polygon fill="black" stroke="black" points="243.82,-51.61 235.77,-44.73 237.77,-55.13 243.82,-51.61"/>
</g>
<!-- 10 -->
<g id="node11" class="node">
<title>10</title>
<polygon fill="none" stroke="black" points="279,-0.5 279,-44.5 353.81,-44.5 353.81,-0.5 279,-0.5"/>
<text text-anchor="middle" x="316.4" y="-29.3" font-family="Courier,monospace" font-size="14.00">3..3</text>
<polyline fill="none" stroke="black" points="279,-22.5 353.81,-22.5 "/>
<text text-anchor="middle" x="316.4" y="-7.3" font-family="Courier,monospace" font-size="14.00">(40,40)</text>
</g>
<!-- 4&#45;&gt;10 -->
<g id="edge10" class="edge">
<title>4&#45;&gt;10</title>
<path fill="none" stroke="black" d="M282,-81.33C287.11,-72.74 293.1,-62.66 298.65,-53.35"/>
<polygon fill="black" stroke="black" points="301.67,-55.11 303.77,-44.73 295.65,-51.53 301.67,-55.11"/>
</g>
<!-- 11 -->
<g id="node12" class="node">
<title>11</title>
<polygon fill="none" stroke="black" points="372,-0.5 372,-44.5 446.81,-44.5 446.81,-0.5 372,-0.5"/>
<text text-anchor="middle" x="409.4" y="-29.3" font-family="Courier,monospace" font-size="14.00">4..4</text>
<polyline fill="none" stroke="black" points="372,-22.5 446.81,-22.5 "/>
<text text-anchor="middle" x="409.4" y="-7.3" font-family="Courier,monospace" font-size="14.00">(50,50)</text>
</g>
<!-- 5&#45;&gt;11 -->
<g id="edge11" class="edge">
<title>5&#45;&gt;11</title>
<path fill="none" stroke="black" d="M409.4,-81.33C409.4,-73.18 409.4,-63.7 409.4,-54.8"/>
<polygon fill="black" stroke="black" points="412.9,-54.73 409.4,-44.73 405.9,-54.73 412.9,-54.73"/>
</g>
<!-- 12 -->
<g id="node13" class="node">
<title>12</title>
<polygon fill="none" stroke="black" points="465,-0.5 465,-44.5 539.81,-44.5 539.81,-0.5 465,-0.5"/>
<text text-anchor="middle" x="502.4" y="-29.3" font-family="Courier,monospace" font-size="14.00">5..5</text>
<polyline fill="none" stroke="black" points="465,-22.5 539.81,-22.5 "/>
<text text-anchor="middle" x="502.4" y="-7.3" font-family="Courier,monospace" font-size="14.00">(60,60)</text>
</g>
<!-- 5&#45;&gt;12 -->
<g id="edge12" class="edge">
<title>5&#45;&gt;12</title>
<path fill="none" stroke="black" d="M434.33,-81.33C445.17,-72.12 458.02,-61.2 469.62,-51.35"/>
<polygon fill="black" stroke="black" points="472.06,-53.87 477.41,-44.73 467.53,-48.54 472.06,-53.87"/>
</g>
</g>
</svg>
