<?xml version="1.0" encoding="UTF-8" standalone="no"?>
<!DOCTYPE svg PUBLIC "-//W3C//DTD SVG 1.1//EN"
 "http://www.w3.org/Graphics/SVG/1.1/DTD/svg11.dtd">
<!-- Generated by graphviz version 8.0.5 (20230430.1635)
 -->
<!-- Title: segtree0 Pages: 1 -->
<svg width="542pt" height="365pt"
 viewBox="0.00 0.00 541.75 365.00" xmlns="http://www.w3.org/2000/svg" xmlns:xlink="http://www.w3.org/1999/xlink">
<g id="graph0" class="graph" transform="scale(1 1) rotate(0) translate(4 361)">
<title>segtree0</title>
<polygon fill="white" stroke="none" points="-4,4 -4,-361 537.75,-361 537.75,4 -4,4"/>
<!-- 0 -->
<g id="node1" class="node">
<title>0</title>
<polygon fill="none" stroke="blue" points="322,-307.5 322,-356.5 395.75,-356.5 395.75,-307.5 322,-307.5"/>
<text text-anchor="middle" x="358.88" y="-339.2" font-family="Courier,monospace" font-size="14.00" fill="blue">0..6</text>
<polyline fill="none" stroke="blue" points="322,-332 395.75,-332"/>
<text text-anchor="middle" x="358.88" y="-314.7" font-family="Courier,monospace" font-size="14.00" fill="blue">(10,90)</text>
</g>
<!-- 1 -->
<g id="node2" class="node">
<title>1</title>
<polygon fill="none" stroke="blue" points="230,-221.5 230,-270.5 303.75,-270.5 303.75,-221.5 230,-221.5"/>
<text text-anchor="middle" x="266.88" y="-253.2" font-family="Courier,monospace" font-size="14.00" fill="blue">0..3</text>
<polyline fill="none" stroke="blue" points="230,-246 303.75,-246"/>
<text text-anchor="middle" x="266.88" y="-228.7" font-family="Courier,monospace" font-size="14.00" fill="blue">(10,60)</text>
</g>
<!-- 0&#45;&gt;1 -->
<g id="edge1" class="edge">
<title>0&#45;&gt;1</title>
<path fill="none" stroke="black" d="M333.25,-307.6C323.08,-298.32 311.25,-287.51 300.41,-277.62"/>
<polygon fill="black" stroke="black" points="303.11,-275.43 293.36,-271.27 298.39,-280.6 303.11,-275.43"/>
</g>
<!-- 2 -->
<g id="node3" class="node">
<title>2</title>
<polygon fill="none" stroke="blue" points="368,-221.5 368,-270.5 441.75,-270.5 441.75,-221.5 368,-221.5"/>
<text text-anchor="middle" x="404.88" y="-253.2" font-family="Courier,monospace" font-size="14.00" fill="blue">4..6</text>
<polyline fill="none" stroke="blue" points="368,-246 441.75,-246"/>
<text text-anchor="middle" x="404.88" y="-228.7" font-family="Courier,monospace" font-size="14.00" fill="blue">(70,90)</text>
</g>
<!-- 0&#45;&gt;2 -->
<g id="edge2" class="edge">
<title>0&#45;&gt;2</title>
<path fill="none" stroke="black" d="M371.69,-307.6C376.42,-298.95 381.88,-288.99 386.98,-279.67"/>
<polygon fill="black" stroke="black" points="390.4,-281.73 392.13,-271.27 384.26,-278.36 390.4,-281.73"/>
</g>
<!-- 3 -->
<g id="node4" class="node">
<title>3</title>
<polygon fill="none" stroke="black" points="92,-123.25 92,-172.25 165.75,-172.25 165.75,-123.25 92,-123.25"/>
<text text-anchor="middle" x="128.88" y="-154.95" font-family="Courier,monospace" font-size="14.00">0..1</text>
<polyline fill="none" stroke="black" points="92,-147.75 165.75,-147.75"/>
<text text-anchor="middle" x="128.88" y="-130.45" font-family="Courier,monospace" font-size="14.00">(10,20)</text>
</g>
<!-- 1&#45;&gt;3 -->
<g id="edge3" class="edge">
<title>1&#45;&gt;3</title>
<path fill="none" stroke="black" d="M233.47,-221.7C214.79,-208.67 191.32,-192.31 171.35,-178.38"/>
<polygon fill="black" stroke="black" points="173.66,-175.02 163.45,-172.17 169.65,-180.76 173.66,-175.02"/>
</g>
<!-- 4 -->
<g id="node5" class="node">
<title>4</title>
<polygon fill="none" stroke="blue" points="230,-123.25 230,-172.25 303.75,-172.25 303.75,-123.25 230,-123.25"/>
<text text-anchor="middle" x="266.88" y="-154.95" font-family="Courier,monospace" font-size="14.00" fill="blue">2..3</text>
<polyline fill="none" stroke="blue" points="230,-147.75 303.75,-147.75"/>
<text text-anchor="middle" x="266.88" y="-130.45" font-family="Courier,monospace" font-size="14.00" fill="blue">(50,60)</text>
</g>
<!-- 1&#45;&gt;4 -->
<g id="edge4" class="edge">
<title>1&#45;&gt;4</title>
<path fill="none" stroke="black" d="M266.88,-221.7C266.88,-210.08 266.88,-195.81 266.88,-182.97"/>
<polygon fill="black" stroke="black" points="270.38,-183.17 266.88,-173.17 263.38,-183.17 270.38,-183.17"/>
</g>
<!-- 5 -->
<g id="node6" class="node">
<title>5</title>
<polygon fill="none" stroke="red" points="368,-111 368,-184.5 441.75,-184.5 441.75,-111 368,-111"/>
<text text-anchor="middle" x="404.88" y="-167.2" font-family="Courier,monospace" font-size="14.00" fill="red">4..5</text>
<polyline fill="none" stroke="red" points="368,-160 441.75,-160"/>
<text text-anchor="middle" x="404.88" y="-142.7" font-family="Courier,monospace" font-size="14.00" fill="red">(50,60)</text>
<polyline fill="none" stroke="red" points="368,-135.5 441.75,-135.5"/>
<text text-anchor="middle" x="404.88" y="-118.2" font-family="Courier,monospace" font-size="14.00" fill="red">d(1,20)</text>
</g>
<!-- 2&#45;&gt;5 -->
<g id="edge5" class="edge">
<title>2&#45;&gt;5</title>
<path fill="none" stroke="black" d="M404.88,-221.7C404.88,-213.62 404.88,-204.26 404.88,-194.99"/>
<polygon fill="black" stroke="black" points="408.38,-195.24 404.88,-185.24 401.38,-195.24 408.38,-195.24"/>
</g>
<!-- 6 -->
<g id="node7" class="node">
<title>6</title>
<polygon fill="none" stroke="red" points="460,-111 460,-184.5 533.75,-184.5 533.75,-111 460,-111"/>
<text text-anchor="middle" x="496.88" y="-167.2" font-family="Courier,monospace" font-size="14.00" fill="red">6..6</text>
<polyline fill="none" stroke="red" points="460,-160 533.75,-160"/>
<text text-anchor="middle" x="496.88" y="-142.7" font-family="Courier,monospace" font-size="14.00" fill="red">(70,70)</text>
<polyline fill="none" stroke="red" points="460,-135.5 533.75,-135.5"/>
<text text-anchor="middle" x="496.88" y="-118.2" font-family="Courier,monospace" font-size="14.00" fill="red">d(1,20)</text>
</g>
<!-- 2&#45;&gt;6 -->
<g id="edge6" class="edge">
<title>2&#45;&gt;6</title>
<path fill="none" stroke="black" d="M427.15,-221.7C435.71,-212.74 445.78,-202.21 455.56,-191.97"/>
<polygon fill="black" stroke="black" points="457.58,-194.88 461.96,-185.24 452.52,-190.05 457.58,-194.88"/>
</g>
<!-- 7 -->
<g id="node8" class="node">
<title>7</title>
<polygon fill="none" stroke="black" points="0,-12.75 0,-61.75 73.75,-61.75 73.75,-12.75 0,-12.75"/>
<text text-anchor="middle" x="36.88" y="-44.45" font-family="Courier,monospace" font-size="14.00">0..0</text>
<polyline fill="none" stroke="black" points="0,-37.25 73.75,-37.25"/>
<text text-anchor="middle" x="36.88" y="-19.95" font-family="Courier,monospace" font-size="14.00">(10,10)</text>
</g>
<!-- 3&#45;&gt;7 -->
<g id="edge7" class="edge">
<title>3&#45;&gt;7</title>
<path fill="none" stroke="black" d="M109.14,-123.47C95.8,-107.74 78.03,-86.78 63.45,-69.59"/>
<polygon fill="black" stroke="black" points="65.72,-67.85 56.58,-62.49 60.38,-72.38 65.72,-67.85"/>
</g>
<!-- 8 -->
<g id="node9" class="node">
<title>8</title>
<polygon fill="none" stroke="black" points="92,-12.75 92,-61.75 165.75,-61.75 165.75,-12.75 92,-12.75"/>
<text text-anchor="middle" x="128.88" y="-44.45" font-family="Courier,monospace" font-size="14.00">1..1</text>
<polyline fill="none" stroke="black" points="92,-37.25 165.75,-37.25"/>
<text text-anchor="middle" x="128.88" y="-19.95" font-family="Courier,monospace" font-size="14.00">(20,20)</text>
</g>
<!-- 3&#45;&gt;8 -->
<g id="edge8" class="edge">
<title>3&#45;&gt;8</title>
<path fill="none" stroke="black" d="M128.88,-123.47C128.88,-108.6 128.88,-89.05 128.88,-72.43"/>
<polygon fill="black" stroke="black" points="132.38,-72.49 128.88,-62.49 125.38,-72.49 132.38,-72.49"/>
</g>
<!-- 9 -->
<g id="node10" class="node">
<title>9</title>
<polygon fill="none" stroke="red" points="184,-0.5 184,-74 257.75,-74 257.75,-0.5 184,-0.5"/>
<text text-anchor="middle" x="220.88" y="-56.7" font-family="Courier,monospace" font-size="14.00" fill="red">2..2</text>
<polyline fill="none" stroke="red" points="184,-49.5 257.75,-49.5"/>
<text text-anchor="middle" x="220.88" y="-32.2" font-family="Courier,monospace" font-size="14.00" fill="red">(30,30)</text>
<polyline fill="none" stroke="red" points="184,-25 257.75,-25"/>
<text text-anchor="middle" x="220.88" y="-7.7" font-family="Courier,monospace" font-size="14.00" fill="red">d(1,20)</text>
</g>
<!-- 4&#45;&gt;9 -->
<g id="edge9" class="edge">
<title>4&#45;&gt;9</title>
<path fill="none" stroke="black" d="M257.01,-123.47C252.08,-111.85 245.94,-97.37 240.13,-83.67"/>
<polygon fill="black" stroke="black" points="243.1,-82.72 235.98,-74.88 236.66,-85.45 243.1,-82.72"/>
</g>
<!-- 10 -->
<g id="node11" class="node">
<title>10</title>
<polygon fill="none" stroke="red" points="276,-0.5 276,-74 349.75,-74 349.75,-0.5 276,-0.5"/>
<text text-anchor="middle" x="312.88" y="-56.7" font-family="Courier,monospace" font-size="14.00" fill="red">3..3</text>
<polyline fill="none" stroke="red" points="276,-49.5 349.75,-49.5"/>
<text text-anchor="middle" x="312.88" y="-32.2" font-family="Courier,monospace" font-size="14.00" fill="red">(40,40)</text>
<polyline fill="none" stroke="red" points="276,-25 349.75,-25"/>
<text text-anchor="middle" x="312.88" y="-7.7" font-family="Courier,monospace" font-size="14.00" fill="red">d(1,20)</text>
</g>
<!-- 4&#45;&gt;10 -->
<g id="edge10" class="edge">
<title>4&#45;&gt;10</title>
<path fill="none" stroke="black" d="M276.74,-123.47C281.67,-111.85 287.81,-97.37 293.62,-83.67"/>
<polygon fill="black" stroke="black" points="297.09,-85.45 297.77,-74.88 290.65,-82.72 297.09,-85.45"/>
</g>
<!-- 11 -->
<g id="node12" class="node">
<title>11</title>
<polygon fill="none" stroke="black" points="368,-12.75 368,-61.75 441.75,-61.75 441.75,-12.75 368,-12.75"/>
<text text-anchor="middle" x="404.88" y="-44.45" font-family="Courier,monospace" font-size="14.00">4..4</text>
<polyline fill="none" stroke="black" points="368,-37.25 441.75,-37.25"/>
<text text-anchor="middle" x="404.88" y="-19.95" font-family="Courier,monospace" font-size="14.00">(50,50)</text>
</g>
<!-- 5&#45;&gt;11 -->
<g id="edge11" class="edge">
<title>5&#45;&gt;11</title>
<path fill="none" stroke="black" d="M404.88,-111.22C404.88,-98.73 404.88,-84.73 404.88,-72.36"/>
<polygon fill="black" stroke="black" points="408.38,-72.54 404.88,-62.54 401.38,-72.54 408.38,-72.54"/>
</g>
<!-- 12 -->
<g id="node13" class="node">
<title>12</title>
<polygon fill="none" stroke="black" points="460,-12.75 460,-61.75 533.75,-61.75 533.75,-12.75 460,-12.75"/>
<text text-anchor="middle" x="496.88" y="-44.45" font-family="Courier,monospace" font-size="14.00">5..5</text>
<polyline fill="none" stroke="black" points="460,-37.25 533.75,-37.25"/>
<text text-anchor="middle" x="496.88" y="-19.95" font-family="Courier,monospace" font-size="14.00">(60,60)</text>
</g>
<!-- 5&#45;&gt;12 -->
<g id="edge12" class="edge">
<title>5&#45;&gt;12</title>
<path fill="none" stroke="black" d="M435,-111.22C446.35,-97.84 459.17,-82.72 470.18,-69.73"/>
<polygon fill="black" stroke="black" points="473.33,-72.43 477.12,-62.54 467.99,-67.91 473.33,-72.43"/>
</g>
</g>
</svg>
