<?xml version="1.0" encoding="UTF-8" standalone="no"?>
<!DOCTYPE svg PUBLIC "-//W3C//DTD SVG 1.1//EN"
 "http://www.w3.org/Graphics/SVG/1.1/DTD/svg11.dtd">
<!-- Generated by graphviz version 3.0.0 (20220226.1711)
 -->
<!-- Title: segtree0 Pages: 1 -->
<svg width="542pt" height="350pt"
 viewBox="0.00 0.00 542.00 350.00" xmlns="http://www.w3.org/2000/svg" xmlns:xlink="http://www.w3.org/1999/xlink">
<g id="graph0" class="graph" transform="scale(1 1) rotate(0) translate(4 346)">
<title>segtree0</title>
<polygon fill="white" stroke="transparent" points="-4,4 -4,-346 538,-346 538,4 -4,4"/>
<!-- 0 -->
<g id="node1" class="node">
<title>0</title>
<polygon fill="none" stroke="blue" points="322,-295.5 322,-341.5 396,-341.5 396,-295.5 322,-295.5"/>
<text text-anchor="middle" x="359" y="-326.3" font-family="Courier,monospace" font-size="14.00" fill="blue">0..6</text>
<polyline fill="none" stroke="blue" points="322,-318.5 396,-318.5 "/>
<text text-anchor="middle" x="359" y="-303.3" font-family="Courier,monospace" font-size="14.00" fill="blue">(10,90)</text>
</g>
<!-- 1 -->
<g id="node2" class="node">
<title>1</title>
<polygon fill="none" stroke="blue" points="230,-212.5 230,-258.5 304,-258.5 304,-212.5 230,-212.5"/>
<text text-anchor="middle" x="267" y="-243.3" font-family="Courier,monospace" font-size="14.00" fill="blue">0..3</text>
<polyline fill="none" stroke="blue" points="230,-235.5 304,-235.5 "/>
<text text-anchor="middle" x="267" y="-220.3" font-family="Courier,monospace" font-size="14.00" fill="blue">(10,60)</text>
</g>
<!-- 0&#45;&gt;1 -->
<g id="edge1" class="edge">
<title>0&#45;&gt;1</title>
<path fill="none" stroke="black" d="M333.86,-295.37C323.31,-286.08 310.91,-275.16 299.67,-265.26"/>
<polygon fill="black" stroke="black" points="301.93,-262.59 292.11,-258.61 297.3,-267.84 301.93,-262.59"/>
</g>
<!-- 2 -->
<g id="node3" class="node">
<title>2</title>
<polygon fill="none" stroke="blue" points="368,-212.5 368,-258.5 442,-258.5 442,-212.5 368,-212.5"/>
<text text-anchor="middle" x="405" y="-243.3" font-family="Courier,monospace" font-size="14.00" fill="blue">4..6</text>
<polyline fill="none" stroke="blue" points="368,-235.5 442,-235.5 "/>
<text text-anchor="middle" x="405" y="-220.3" font-family="Courier,monospace" font-size="14.00" fill="blue">(70,90)</text>
</g>
<!-- 0&#45;&gt;2 -->
<g id="edge2" class="edge">
<title>0&#45;&gt;2</title>
<path fill="none" stroke="black" d="M371.57,-295.37C376.44,-286.79 382.1,-276.83 387.36,-267.56"/>
<polygon fill="black" stroke="black" points="390.55,-269.03 392.45,-258.61 384.46,-265.57 390.55,-269.03"/>
</g>
<!-- 3 -->
<g id="node4" class="node">
<title>3</title>
<polygon fill="none" stroke="black" points="92,-118 92,-164 166,-164 166,-118 92,-118"/>
<text text-anchor="middle" x="129" y="-148.8" font-family="Courier,monospace" font-size="14.00">0..1</text>
<polyline fill="none" stroke="black" points="92,-141 166,-141 "/>
<text text-anchor="middle" x="129" y="-125.8" font-family="Courier,monospace" font-size="14.00">(10,20)</text>
</g>
<!-- 1&#45;&gt;3 -->
<g id="edge3" class="edge">
<title>1&#45;&gt;3</title>
<path fill="none" stroke="black" d="M233.95,-212.34C214.97,-199.62 190.96,-183.53 170.69,-169.95"/>
<polygon fill="black" stroke="black" points="172.52,-166.96 162.26,-164.3 168.62,-172.77 172.52,-166.96"/>
</g>
<!-- 4 -->
<g id="node5" class="node">
<title>4</title>
<polygon fill="none" stroke="blue" points="230,-118 230,-164 304,-164 304,-118 230,-118"/>
<text text-anchor="middle" x="267" y="-148.8" font-family="Courier,monospace" font-size="14.00" fill="blue">2..3</text>
<polyline fill="none" stroke="blue" points="230,-141 304,-141 "/>
<text text-anchor="middle" x="267" y="-125.8" font-family="Courier,monospace" font-size="14.00" fill="blue">(50,60)</text>
</g>
<!-- 1&#45;&gt;4 -->
<g id="edge4" class="edge">
<title>1&#45;&gt;4</title>
<path fill="none" stroke="black" d="M267,-212.11C267,-200.75 267,-186.74 267,-174.24"/>
<polygon fill="black" stroke="black" points="270.5,-174.19 267,-164.19 263.5,-174.19 270.5,-174.19"/>
</g>
<!-- 5 -->
<g id="node6" class="node">
<title>5</title>
<polygon fill="none" stroke="red" points="368,-106.5 368,-175.5 442,-175.5 442,-106.5 368,-106.5"/>
<text text-anchor="middle" x="405" y="-160.3" font-family="Courier,monospace" font-size="14.00" fill="red">4..5</text>
<polyline fill="none" stroke="red" points="368,-152.5 442,-152.5 "/>
<text text-anchor="middle" x="405" y="-137.3" font-family="Courier,monospace" font-size="14.00" fill="red">(50,60)</text>
<polyline fill="none" stroke="red" points="368,-129.5 442,-129.5 "/>
<text text-anchor="middle" x="405" y="-114.3" font-family="Courier,monospace" font-size="14.00" fill="red">d(1,20)</text>
</g>
<!-- 2&#45;&gt;5 -->
<g id="edge5" class="edge">
<title>2&#45;&gt;5</title>
<path fill="none" stroke="black" d="M405,-212.11C405,-204.18 405,-194.97 405,-185.88"/>
<polygon fill="black" stroke="black" points="408.5,-185.75 405,-175.75 401.5,-185.75 408.5,-185.75"/>
</g>
<!-- 6 -->
<g id="node7" class="node">
<title>6</title>
<polygon fill="none" stroke="red" points="460,-106.5 460,-175.5 534,-175.5 534,-106.5 460,-106.5"/>
<text text-anchor="middle" x="497" y="-160.3" font-family="Courier,monospace" font-size="14.00" fill="red">6..6</text>
<polyline fill="none" stroke="red" points="460,-152.5 534,-152.5 "/>
<text text-anchor="middle" x="497" y="-137.3" font-family="Courier,monospace" font-size="14.00" fill="red">(70,70)</text>
<polyline fill="none" stroke="red" points="460,-129.5 534,-129.5 "/>
<text text-anchor="middle" x="497" y="-114.3" font-family="Courier,monospace" font-size="14.00" fill="red">d(1,20)</text>
</g>
<!-- 2&#45;&gt;6 -->
<g id="edge6" class="edge">
<title>2&#45;&gt;6</title>
<path fill="none" stroke="black" d="M427.27,-212.11C436,-203.33 446.3,-192.98 456.27,-182.96"/>
<polygon fill="black" stroke="black" points="458.87,-185.3 463.44,-175.75 453.9,-180.37 458.87,-185.3"/>
</g>
<!-- 7 -->
<g id="node8" class="node">
<title>7</title>
<polygon fill="none" stroke="black" points="0,-12 0,-58 74,-58 74,-12 0,-12"/>
<text text-anchor="middle" x="37" y="-42.8" font-family="Courier,monospace" font-size="14.00">0..0</text>
<polyline fill="none" stroke="black" points="0,-35 74,-35 "/>
<text text-anchor="middle" x="37" y="-19.8" font-family="Courier,monospace" font-size="14.00">(10,10)</text>
</g>
<!-- 3&#45;&gt;7 -->
<g id="edge7" class="edge">
<title>3&#45;&gt;7</title>
<path fill="none" stroke="black" d="M109.49,-117.94C96.07,-102.78 78.09,-82.45 63.4,-65.84"/>
<polygon fill="black" stroke="black" points="65.73,-63.19 56.48,-58.02 60.49,-67.83 65.73,-63.19"/>
</g>
<!-- 8 -->
<g id="node9" class="node">
<title>8</title>
<polygon fill="none" stroke="black" points="92,-12 92,-58 166,-58 166,-12 92,-12"/>
<text text-anchor="middle" x="129" y="-42.8" font-family="Courier,monospace" font-size="14.00">1..1</text>
<polyline fill="none" stroke="black" points="92,-35 166,-35 "/>
<text text-anchor="middle" x="129" y="-19.8" font-family="Courier,monospace" font-size="14.00">(20,20)</text>
</g>
<!-- 3&#45;&gt;8 -->
<g id="edge8" class="edge">
<title>3&#45;&gt;8</title>
<path fill="none" stroke="black" d="M129,-117.94C129,-103.47 129,-84.29 129,-68.13"/>
<polygon fill="black" stroke="black" points="132.5,-68.02 129,-58.02 125.5,-68.02 132.5,-68.02"/>
</g>
<!-- 9 -->
<g id="node10" class="node">
<title>9</title>
<polygon fill="none" stroke="red" points="184,-0.5 184,-69.5 258,-69.5 258,-0.5 184,-0.5"/>
<text text-anchor="middle" x="221" y="-54.3" font-family="Courier,monospace" font-size="14.00" fill="red">2..2</text>
<polyline fill="none" stroke="red" points="184,-46.5 258,-46.5 "/>
<text text-anchor="middle" x="221" y="-31.3" font-family="Courier,monospace" font-size="14.00" fill="red">(30,30)</text>
<polyline fill="none" stroke="red" points="184,-23.5 258,-23.5 "/>
<text text-anchor="middle" x="221" y="-8.3" font-family="Courier,monospace" font-size="14.00" fill="red">d(1,20)</text>
</g>
<!-- 4&#45;&gt;9 -->
<g id="edge9" class="edge">
<title>4&#45;&gt;9</title>
<path fill="none" stroke="black" d="M257.24,-117.94C252.28,-106.72 246.06,-92.66 240.19,-79.38"/>
<polygon fill="black" stroke="black" points="243.24,-77.63 235.99,-69.9 236.84,-80.46 243.24,-77.63"/>
</g>
<!-- 10 -->
<g id="node11" class="node">
<title>10</title>
<polygon fill="none" stroke="red" points="276,-0.5 276,-69.5 350,-69.5 350,-0.5 276,-0.5"/>
<text text-anchor="middle" x="313" y="-54.3" font-family="Courier,monospace" font-size="14.00" fill="red">3..3</text>
<polyline fill="none" stroke="red" points="276,-46.5 350,-46.5 "/>
<text text-anchor="middle" x="313" y="-31.3" font-family="Courier,monospace" font-size="14.00" fill="red">(40,40)</text>
<polyline fill="none" stroke="red" points="276,-23.5 350,-23.5 "/>
<text text-anchor="middle" x="313" y="-8.3" font-family="Courier,monospace" font-size="14.00" fill="red">d(1,20)</text>
</g>
<!-- 4&#45;&gt;10 -->
<g id="edge10" class="edge">
<title>4&#45;&gt;10</title>
<path fill="none" stroke="black" d="M276.76,-117.94C281.72,-106.72 287.94,-92.66 293.81,-79.38"/>
<polygon fill="black" stroke="black" points="297.16,-80.46 298.01,-69.9 290.76,-77.63 297.16,-80.46"/>
</g>
<!-- 11 -->
<g id="node12" class="node">
<title>11</title>
<polygon fill="none" stroke="black" points="368,-12 368,-58 442,-58 442,-12 368,-12"/>
<text text-anchor="middle" x="405" y="-42.8" font-family="Courier,monospace" font-size="14.00">4..4</text>
<polyline fill="none" stroke="black" points="368,-35 442,-35 "/>
<text text-anchor="middle" x="405" y="-19.8" font-family="Courier,monospace" font-size="14.00">(50,50)</text>
</g>
<!-- 5&#45;&gt;11 -->
<g id="edge11" class="edge">
<title>5&#45;&gt;11</title>
<path fill="none" stroke="black" d="M405,-106.23C405,-94.03 405,-80.3 405,-68.23"/>
<polygon fill="black" stroke="black" points="408.5,-68.13 405,-58.13 401.5,-68.13 408.5,-68.13"/>
</g>
<!-- 12 -->
<g id="node13" class="node">
<title>12</title>
<polygon fill="none" stroke="black" points="460,-12 460,-58 534,-58 534,-12 460,-12"/>
<text text-anchor="middle" x="497" y="-42.8" font-family="Courier,monospace" font-size="14.00">5..5</text>
<polyline fill="none" stroke="black" points="460,-35 534,-35 "/>
<text text-anchor="middle" x="497" y="-19.8" font-family="Courier,monospace" font-size="14.00">(60,60)</text>
</g>
<!-- 5&#45;&gt;12 -->
<g id="edge12" class="edge">
<title>5&#45;&gt;12</title>
<path fill="none" stroke="black" d="M434.87,-106.23C446.43,-93.17 459.54,-78.35 470.73,-65.7"/>
<polygon fill="black" stroke="black" points="473.42,-67.94 477.42,-58.13 468.17,-63.31 473.42,-67.94"/>
</g>
</g>
</svg>
