<?xml version="1.0" encoding="UTF-8" standalone="no"?>
<!DOCTYPE svg PUBLIC "-//W3C//DTD SVG 1.1//EN"
 "http://www.w3.org/Graphics/SVG/1.1/DTD/svg11.dtd">
<!-- Generated by graphviz version 2.40.1 (20161225.0304)
 -->
<!-- Title: segtree0 Pages: 1 -->
<svg width="548pt" height="340pt"
 viewBox="0.00 0.00 547.81 340.00" xmlns="http://www.w3.org/2000/svg" xmlns:xlink="http://www.w3.org/1999/xlink">
<g id="graph0" class="graph" transform="scale(1 1) rotate(0) translate(4 336)">
<title>segtree0</title>
<polygon fill="#ffffff" stroke="transparent" points="-4,4 -4,-336 543.8096,-336 543.8096,4 -4,4"/>
<!-- 0 -->
<g id="node1" class="node">
<title>0</title>
<polygon fill="none" stroke="#0000ff" points="325,-287.5 325,-331.5 399.8096,-331.5 399.8096,-287.5 325,-287.5"/>
<text text-anchor="middle" x="362.4048" y="-316.3" font-family="Courier,monospace" font-size="14.00" fill="#0000ff">0..6</text>
<polyline fill="none" stroke="#0000ff" points="325,-309.5 399.8096,-309.5 "/>
<text text-anchor="middle" x="362.4048" y="-294.3" font-family="Courier,monospace" font-size="14.00" fill="#0000ff">(10,90)</text>
</g>
<!-- 1 -->
<g id="node2" class="node">
<title>1</title>
<polygon fill="none" stroke="#0000ff" points="232,-206.5 232,-250.5 306.8096,-250.5 306.8096,-206.5 232,-206.5"/>
<text text-anchor="middle" x="269.4048" y="-235.3" font-family="Courier,monospace" font-size="14.00" fill="#0000ff">0..3</text>
<polyline fill="none" stroke="#0000ff" points="232,-228.5 306.8096,-228.5 "/>
<text text-anchor="middle" x="269.4048" y="-213.3" font-family="Courier,monospace" font-size="14.00" fill="#0000ff">(10,60)</text>
</g>
<!-- 0&#45;&gt;1 -->
<g id="edge1" class="edge">
<title>0&#45;&gt;1</title>
<path fill="none" stroke="#000000" d="M336.9921,-287.3664C326.3302,-278.0802 313.7916,-267.1595 302.4284,-257.2625"/>
<polygon fill="#000000" stroke="#000000" points="304.6263,-254.5354 294.7867,-250.6068 300.0288,-259.814 304.6263,-254.5354"/>
</g>
<!-- 2 -->
<g id="node3" class="node">
<title>2</title>
<polygon fill="none" stroke="#0000ff" points="372,-206.5 372,-250.5 446.8096,-250.5 446.8096,-206.5 372,-206.5"/>
<text text-anchor="middle" x="409.4048" y="-235.3" font-family="Courier,monospace" font-size="14.00" fill="#0000ff">4..6</text>
<polyline fill="none" stroke="#0000ff" points="372,-228.5 446.8096,-228.5 "/>
<text text-anchor="middle" x="409.4048" y="-213.3" font-family="Courier,monospace" font-size="14.00" fill="#0000ff">(70,90)</text>
</g>
<!-- 0&#45;&gt;2 -->
<g id="edge2" class="edge">
<title>0&#45;&gt;2</title>
<path fill="none" stroke="#000000" d="M375.2477,-287.3664C380.2734,-278.7052 386.124,-268.6222 391.5483,-259.274"/>
<polygon fill="#000000" stroke="#000000" points="394.5858,-261.0128 396.5774,-250.6068 388.5312,-257.4997 394.5858,-261.0128"/>
</g>
<!-- 3 -->
<g id="node4" class="node">
<title>3</title>
<polygon fill="none" stroke="#000000" points="93,-114.5 93,-158.5 167.8096,-158.5 167.8096,-114.5 93,-114.5"/>
<text text-anchor="middle" x="130.4048" y="-143.3" font-family="Courier,monospace" font-size="14.00" fill="#000000">0..1</text>
<polyline fill="none" stroke="#000000" points="93,-136.5 167.8096,-136.5 "/>
<text text-anchor="middle" x="130.4048" y="-121.3" font-family="Courier,monospace" font-size="14.00" fill="#000000">(10,20)</text>
</g>
<!-- 1&#45;&gt;3 -->
<g id="edge3" class="edge">
<title>1&#45;&gt;3</title>
<path fill="none" stroke="#000000" d="M236.1108,-206.4637C216.9956,-193.8119 192.8106,-177.8046 172.3996,-164.2951"/>
<polygon fill="#000000" stroke="#000000" points="174.1795,-161.276 163.9088,-158.6753 170.316,-167.1133 174.1795,-161.276"/>
</g>
<!-- 4 -->
<g id="node5" class="node">
<title>4</title>
<polygon fill="none" stroke="#0000ff" points="232,-114.5 232,-158.5 306.8096,-158.5 306.8096,-114.5 232,-114.5"/>
<text text-anchor="middle" x="269.4048" y="-143.3" font-family="Courier,monospace" font-size="14.00" fill="#0000ff">2..3</text>
<polyline fill="none" stroke="#0000ff" points="232,-136.5 306.8096,-136.5 "/>
<text text-anchor="middle" x="269.4048" y="-121.3" font-family="Courier,monospace" font-size="14.00" fill="#0000ff">(50,60)</text>
</g>
<!-- 1&#45;&gt;4 -->
<g id="edge4" class="edge">
<title>1&#45;&gt;4</title>
<path fill="none" stroke="#000000" d="M269.4048,-206.2294C269.4048,-195.0418 269.4048,-181.2756 269.4048,-168.9385"/>
<polygon fill="#000000" stroke="#000000" points="272.9049,-168.5655 269.4048,-158.5655 265.9049,-168.5656 272.9049,-168.5655"/>
</g>
<!-- 5 -->
<g id="node6" class="node">
<title>5</title>
<polygon fill="none" stroke="#ff0000" points="372,-103.5 372,-169.5 446.8096,-169.5 446.8096,-103.5 372,-103.5"/>
<text text-anchor="middle" x="409.4048" y="-154.3" font-family="Courier,monospace" font-size="14.00" fill="#ff0000">4..5</text>
<polyline fill="none" stroke="#ff0000" points="372,-147.5 446.8096,-147.5 "/>
<text text-anchor="middle" x="409.4048" y="-132.3" font-family="Courier,monospace" font-size="14.00" fill="#ff0000">(50,60)</text>
<polyline fill="none" stroke="#ff0000" points="372,-125.5 446.8096,-125.5 "/>
<text text-anchor="middle" x="409.4048" y="-110.3" font-family="Courier,monospace" font-size="14.00" fill="#ff0000">d(1,20)</text>
</g>
<!-- 2&#45;&gt;5 -->
<g id="edge5" class="edge">
<title>2&#45;&gt;5</title>
<path fill="none" stroke="#000000" d="M409.4048,-206.2294C409.4048,-198.27 409.4048,-189.0053 409.4048,-179.8787"/>
<polygon fill="#000000" stroke="#000000" points="412.9049,-179.71 409.4048,-169.71 405.9049,-179.7101 412.9049,-179.71"/>
</g>
<!-- 6 -->
<g id="node7" class="node">
<title>6</title>
<polygon fill="none" stroke="#ff0000" points="465,-103.5 465,-169.5 539.8096,-169.5 539.8096,-103.5 465,-103.5"/>
<text text-anchor="middle" x="502.4048" y="-154.3" font-family="Courier,monospace" font-size="14.00" fill="#ff0000">6..6</text>
<polyline fill="none" stroke="#ff0000" points="465,-147.5 539.8096,-147.5 "/>
<text text-anchor="middle" x="502.4048" y="-132.3" font-family="Courier,monospace" font-size="14.00" fill="#ff0000">(70,70)</text>
<polyline fill="none" stroke="#ff0000" points="465,-125.5 539.8096,-125.5 "/>
<text text-anchor="middle" x="502.4048" y="-110.3" font-family="Courier,monospace" font-size="14.00" fill="#ff0000">d(1,20)</text>
</g>
<!-- 2&#45;&gt;6 -->
<g id="edge6" class="edge">
<title>2&#45;&gt;6</title>
<path fill="none" stroke="#000000" d="M431.9175,-206.2294C440.8286,-197.4141 451.3581,-186.9978 461.524,-176.9412"/>
<polygon fill="#000000" stroke="#000000" points="464.186,-179.231 468.8338,-169.71 459.2631,-174.2546 464.186,-179.231"/>
</g>
<!-- 7 -->
<g id="node8" class="node">
<title>7</title>
<polygon fill="none" stroke="#000000" points="0,-11.5 0,-55.5 74.8096,-55.5 74.8096,-11.5 0,-11.5"/>
<text text-anchor="middle" x="37.4048" y="-40.3" font-family="Courier,monospace" font-size="14.00" fill="#000000">0..0</text>
<polyline fill="none" stroke="#000000" points="0,-33.5 74.8096,-33.5 "/>
<text text-anchor="middle" x="37.4048" y="-18.3" font-family="Courier,monospace" font-size="14.00" fill="#000000">(10,10)</text>
</g>
<!-- 3&#45;&gt;7 -->
<g id="edge7" class="edge">
<title>3&#45;&gt;7</title>
<path fill="none" stroke="#000000" d="M110.454,-114.4039C96.9692,-99.4692 79.0047,-79.573 64.2654,-63.2489"/>
<polygon fill="#000000" stroke="#000000" points="66.622,-60.6362 57.3226,-55.5595 61.4265,-65.3273 66.622,-60.6362"/>
</g>
<!-- 8 -->
<g id="node9" class="node">
<title>8</title>
<polygon fill="none" stroke="#000000" points="93,-11.5 93,-55.5 167.8096,-55.5 167.8096,-11.5 93,-11.5"/>
<text text-anchor="middle" x="130.4048" y="-40.3" font-family="Courier,monospace" font-size="14.00" fill="#000000">1..1</text>
<polyline fill="none" stroke="#000000" points="93,-33.5 167.8096,-33.5 "/>
<text text-anchor="middle" x="130.4048" y="-18.3" font-family="Courier,monospace" font-size="14.00" fill="#000000">(20,20)</text>
</g>
<!-- 3&#45;&gt;8 -->
<g id="edge8" class="edge">
<title>3&#45;&gt;8</title>
<path fill="none" stroke="#000000" d="M130.4048,-114.4039C130.4048,-100.2838 130.4048,-81.7288 130.4048,-65.9506"/>
<polygon fill="#000000" stroke="#000000" points="133.9049,-65.5595 130.4048,-55.5595 126.9049,-65.5596 133.9049,-65.5595"/>
</g>
<!-- 9 -->
<g id="node10" class="node">
<title>9</title>
<polygon fill="none" stroke="#ff0000" points="186,-.5 186,-66.5 260.8096,-66.5 260.8096,-.5 186,-.5"/>
<text text-anchor="middle" x="223.4048" y="-51.3" font-family="Courier,monospace" font-size="14.00" fill="#ff0000">2..2</text>
<polyline fill="none" stroke="#ff0000" points="186,-44.5 260.8096,-44.5 "/>
<text text-anchor="middle" x="223.4048" y="-29.3" font-family="Courier,monospace" font-size="14.00" fill="#ff0000">(30,30)</text>
<polyline fill="none" stroke="#ff0000" points="186,-22.5 260.8096,-22.5 "/>
<text text-anchor="middle" x="223.4048" y="-7.3" font-family="Courier,monospace" font-size="14.00" fill="#ff0000">d(1,20)</text>
</g>
<!-- 4&#45;&gt;9 -->
<g id="edge9" class="edge">
<title>4&#45;&gt;9</title>
<path fill="none" stroke="#000000" d="M259.5366,-114.4039C254.5233,-103.1784 248.2581,-89.1499 242.3595,-75.942"/>
<polygon fill="#000000" stroke="#000000" points="245.4259,-74.225 238.1523,-66.5215 239.0344,-77.0796 245.4259,-74.225"/>
</g>
<!-- 10 -->
<g id="node11" class="node">
<title>10</title>
<polygon fill="none" stroke="#ff0000" points="279,-.5 279,-66.5 353.8096,-66.5 353.8096,-.5 279,-.5"/>
<text text-anchor="middle" x="316.4048" y="-51.3" font-family="Courier,monospace" font-size="14.00" fill="#ff0000">3..3</text>
<polyline fill="none" stroke="#ff0000" points="279,-44.5 353.8096,-44.5 "/>
<text text-anchor="middle" x="316.4048" y="-29.3" font-family="Courier,monospace" font-size="14.00" fill="#ff0000">(40,40)</text>
<polyline fill="none" stroke="#ff0000" points="279,-22.5 353.8096,-22.5 "/>
<text text-anchor="middle" x="316.4048" y="-7.3" font-family="Courier,monospace" font-size="14.00" fill="#ff0000">d(1,20)</text>
</g>
<!-- 4&#45;&gt;10 -->
<g id="edge10" class="edge">
<title>4&#45;&gt;10</title>
<path fill="none" stroke="#000000" d="M279.4875,-114.4039C284.6098,-103.1784 291.0112,-89.1499 297.038,-75.942"/>
<polygon fill="#000000" stroke="#000000" points="300.3695,-77.0721 301.3367,-66.5215 294.0012,-74.1661 300.3695,-77.0721"/>
</g>
<!-- 11 -->
<g id="node12" class="node">
<title>11</title>
<polygon fill="none" stroke="#000000" points="372,-11.5 372,-55.5 446.8096,-55.5 446.8096,-11.5 372,-11.5"/>
<text text-anchor="middle" x="409.4048" y="-40.3" font-family="Courier,monospace" font-size="14.00" fill="#000000">4..4</text>
<polyline fill="none" stroke="#000000" points="372,-33.5 446.8096,-33.5 "/>
<text text-anchor="middle" x="409.4048" y="-18.3" font-family="Courier,monospace" font-size="14.00" fill="#000000">(50,50)</text>
</g>
<!-- 5&#45;&gt;11 -->
<g id="edge11" class="edge">
<title>5&#45;&gt;11</title>
<path fill="none" stroke="#000000" d="M409.4048,-103.3432C409.4048,-91.2442 409.4048,-77.5914 409.4048,-65.5871"/>
<polygon fill="#000000" stroke="#000000" points="412.9049,-65.5427 409.4048,-55.5428 405.9049,-65.5428 412.9049,-65.5427"/>
</g>
<!-- 12 -->
<g id="node13" class="node">
<title>12</title>
<polygon fill="none" stroke="#000000" points="465,-11.5 465,-55.5 539.8096,-55.5 539.8096,-11.5 465,-11.5"/>
<text text-anchor="middle" x="502.4048" y="-40.3" font-family="Courier,monospace" font-size="14.00" fill="#000000">5..5</text>
<polyline fill="none" stroke="#000000" points="465,-33.5 539.8096,-33.5 "/>
<text text-anchor="middle" x="502.4048" y="-18.3" font-family="Courier,monospace" font-size="14.00" fill="#000000">(60,60)</text>
</g>
<!-- 5&#45;&gt;12 -->
<g id="edge12" class="edge">
<title>5&#45;&gt;12</title>
<path fill="none" stroke="#000000" d="M439.3425,-103.3432C451.0393,-90.3887 464.3443,-75.653 475.7087,-63.0666"/>
<polygon fill="#000000" stroke="#000000" points="478.3983,-65.3105 482.5021,-55.5428 473.2027,-60.6194 478.3983,-65.3105"/>
</g>
</g>
</svg>
