<?xml version="1.0" encoding="UTF-8" standalone="no"?>
<!DOCTYPE svg PUBLIC "-//W3C//DTD SVG 1.1//EN"
 "http://www.w3.org/Graphics/SVG/1.1/DTD/svg11.dtd">
<!-- Generated by graphviz version 2.42.3 (20191010.1750)
 -->
<!-- Title: segtree0 Pages: 1 -->
<svg width="548pt" height="340pt"
 viewBox="0.00 0.00 547.81 340.00" xmlns="http://www.w3.org/2000/svg" xmlns:xlink="http://www.w3.org/1999/xlink">
<g id="graph0" class="graph" transform="scale(1 1) rotate(0) translate(4 336)">
<title>segtree0</title>
<polygon fill="white" stroke="transparent" points="-4,4 -4,-336 543.81,-336 543.81,4 -4,4"/>
<!-- 0 -->
<g id="node1" class="node">
<title>0</title>
<polygon fill="none" stroke="blue" points="325,-287.5 325,-331.5 399.81,-331.5 399.81,-287.5 325,-287.5"/>
<text text-anchor="middle" x="362.4" y="-316.3" font-family="Courier,monospace" font-size="14.00" fill="blue">0..6</text>
<polyline fill="none" stroke="blue" points="325,-309.5 399.81,-309.5 "/>
<text text-anchor="middle" x="362.4" y="-294.3" font-family="Courier,monospace" font-size="14.00" fill="blue">(10,90)</text>
</g>
<!-- 1 -->
<g id="node2" class="node">
<title>1</title>
<polygon fill="none" stroke="blue" points="232,-206.5 232,-250.5 306.81,-250.5 306.81,-206.5 232,-206.5"/>
<text text-anchor="middle" x="269.4" y="-235.3" font-family="Courier,monospace" font-size="14.00" fill="blue">0..3</text>
<polyline fill="none" stroke="blue" points="232,-228.5 306.81,-228.5 "/>
<text text-anchor="middle" x="269.4" y="-213.3" font-family="Courier,monospace" font-size="14.00" fill="blue">(10,60)</text>
</g>
<!-- 0&#45;&gt;1 -->
<g id="edge1" class="edge">
<title>0&#45;&gt;1</title>
<path fill="none" stroke="black" d="M337.48,-287.33C326.64,-278.12 313.79,-267.2 302.19,-257.35"/>
<polygon fill="black" stroke="black" points="304.28,-254.54 294.4,-250.73 299.75,-259.87 304.28,-254.54"/>
</g>
<!-- 2 -->
<g id="node3" class="node">
<title>2</title>
<polygon fill="none" stroke="blue" points="372,-206.5 372,-250.5 446.81,-250.5 446.81,-206.5 372,-206.5"/>
<text text-anchor="middle" x="409.4" y="-235.3" font-family="Courier,monospace" font-size="14.00" fill="blue">4..6</text>
<polyline fill="none" stroke="blue" points="372,-228.5 446.81,-228.5 "/>
<text text-anchor="middle" x="409.4" y="-213.3" font-family="Courier,monospace" font-size="14.00" fill="blue">(70,90)</text>
</g>
<!-- 0&#45;&gt;2 -->
<g id="edge2" class="edge">
<title>0&#45;&gt;2</title>
<path fill="none" stroke="black" d="M375,-287.33C380.11,-278.74 386.1,-268.66 391.65,-259.35"/>
<polygon fill="black" stroke="black" points="394.67,-261.11 396.77,-250.73 388.65,-257.53 394.67,-261.11"/>
</g>
<!-- 3 -->
<g id="node4" class="node">
<title>3</title>
<polygon fill="none" stroke="black" points="93,-114.5 93,-158.5 167.81,-158.5 167.81,-114.5 93,-114.5"/>
<text text-anchor="middle" x="130.4" y="-143.3" font-family="Courier,monospace" font-size="14.00">0..1</text>
<polyline fill="none" stroke="black" points="93,-136.5 167.81,-136.5 "/>
<text text-anchor="middle" x="130.4" y="-121.3" font-family="Courier,monospace" font-size="14.00">(10,20)</text>
</g>
<!-- 1&#45;&gt;3 -->
<g id="edge3" class="edge">
<title>1&#45;&gt;3</title>
<path fill="none" stroke="black" d="M236.82,-206.4C217.44,-193.85 192.66,-177.81 171.9,-164.37"/>
<polygon fill="black" stroke="black" points="173.57,-161.28 163.27,-158.78 169.76,-167.15 173.57,-161.28"/>
</g>
<!-- 4 -->
<g id="node5" class="node">
<title>4</title>
<polygon fill="none" stroke="blue" points="232,-114.5 232,-158.5 306.81,-158.5 306.81,-114.5 232,-114.5"/>
<text text-anchor="middle" x="269.4" y="-143.3" font-family="Courier,monospace" font-size="14.00" fill="blue">2..3</text>
<polyline fill="none" stroke="blue" points="232,-136.5 306.81,-136.5 "/>
<text text-anchor="middle" x="269.4" y="-121.3" font-family="Courier,monospace" font-size="14.00" fill="blue">(50,60)</text>
</g>
<!-- 1&#45;&gt;4 -->
<g id="edge4" class="edge">
<title>1&#45;&gt;4</title>
<path fill="none" stroke="black" d="M269.4,-206.17C269.4,-195.07 269.4,-181.29 269.4,-169"/>
<polygon fill="black" stroke="black" points="272.9,-168.68 269.4,-158.68 265.9,-168.68 272.9,-168.68"/>
</g>
<!-- 5 -->
<g id="node6" class="node">
<title>5</title>
<polygon fill="none" stroke="red" points="372,-103.5 372,-169.5 446.81,-169.5 446.81,-103.5 372,-103.5"/>
<text text-anchor="middle" x="409.4" y="-154.3" font-family="Courier,monospace" font-size="14.00" fill="red">4..5</text>
<polyline fill="none" stroke="red" points="372,-147.5 446.81,-147.5 "/>
<text text-anchor="middle" x="409.4" y="-132.3" font-family="Courier,monospace" font-size="14.00" fill="red">(50,60)</text>
<polyline fill="none" stroke="red" points="372,-125.5 446.81,-125.5 "/>
<text text-anchor="middle" x="409.4" y="-110.3" font-family="Courier,monospace" font-size="14.00" fill="red">d(1,20)</text>
</g>
<!-- 2&#45;&gt;5 -->
<g id="edge5" class="edge">
<title>2&#45;&gt;5</title>
<path fill="none" stroke="black" d="M409.4,-206.17C409.4,-198.24 409.4,-188.94 409.4,-179.79"/>
<polygon fill="black" stroke="black" points="412.9,-179.6 409.4,-169.6 405.9,-179.6 412.9,-179.6"/>
</g>
<!-- 6 -->
<g id="node7" class="node">
<title>6</title>
<polygon fill="none" stroke="red" points="465,-103.5 465,-169.5 539.81,-169.5 539.81,-103.5 465,-103.5"/>
<text text-anchor="middle" x="502.4" y="-154.3" font-family="Courier,monospace" font-size="14.00" fill="red">6..6</text>
<polyline fill="none" stroke="red" points="465,-147.5 539.81,-147.5 "/>
<text text-anchor="middle" x="502.4" y="-132.3" font-family="Courier,monospace" font-size="14.00" fill="red">(70,70)</text>
<polyline fill="none" stroke="red" points="465,-125.5 539.81,-125.5 "/>
<text text-anchor="middle" x="502.4" y="-110.3" font-family="Courier,monospace" font-size="14.00" fill="red">d(1,20)</text>
</g>
<!-- 2&#45;&gt;6 -->
<g id="edge6" class="edge">
<title>2&#45;&gt;6</title>
<path fill="none" stroke="black" d="M431.44,-206.17C440.52,-197.39 451.34,-186.92 461.75,-176.84"/>
<polygon fill="black" stroke="black" points="464.49,-179.07 469.24,-169.6 459.62,-174.04 464.49,-179.07"/>
</g>
<!-- 7 -->
<g id="node8" class="node">
<title>7</title>
<polygon fill="none" stroke="black" points="0,-11.5 0,-55.5 74.81,-55.5 74.81,-11.5 0,-11.5"/>
<text text-anchor="middle" x="37.4" y="-40.3" font-family="Courier,monospace" font-size="14.00">0..0</text>
<polyline fill="none" stroke="black" points="0,-33.5 74.81,-33.5 "/>
<text text-anchor="middle" x="37.4" y="-18.3" font-family="Courier,monospace" font-size="14.00">(10,10)</text>
</g>
<!-- 3&#45;&gt;7 -->
<g id="edge7" class="edge">
<title>3&#45;&gt;7</title>
<path fill="none" stroke="black" d="M110.68,-114.08C97.03,-99.25 78.7,-79.35 63.79,-63.15"/>
<polygon fill="black" stroke="black" points="66.13,-60.53 56.78,-55.54 60.98,-65.27 66.13,-60.53"/>
</g>
<!-- 8 -->
<g id="node9" class="node">
<title>8</title>
<polygon fill="none" stroke="black" points="93,-11.5 93,-55.5 167.81,-55.5 167.81,-11.5 93,-11.5"/>
<text text-anchor="middle" x="130.4" y="-40.3" font-family="Courier,monospace" font-size="14.00">1..1</text>
<polyline fill="none" stroke="black" points="93,-33.5 167.81,-33.5 "/>
<text text-anchor="middle" x="130.4" y="-18.3" font-family="Courier,monospace" font-size="14.00">(20,20)</text>
</g>
<!-- 3&#45;&gt;8 -->
<g id="edge8" class="edge">
<title>3&#45;&gt;8</title>
<path fill="none" stroke="black" d="M130.4,-114.08C130.4,-100.06 130.4,-81.5 130.4,-65.84"/>
<polygon fill="black" stroke="black" points="133.9,-65.54 130.4,-55.54 126.9,-65.54 133.9,-65.54"/>
</g>
<!-- 9 -->
<g id="node10" class="node">
<title>9</title>
<polygon fill="none" stroke="red" points="186,-0.5 186,-66.5 260.81,-66.5 260.81,-0.5 186,-0.5"/>
<text text-anchor="middle" x="223.4" y="-51.3" font-family="Courier,monospace" font-size="14.00" fill="red">2..2</text>
<polyline fill="none" stroke="red" points="186,-44.5 260.81,-44.5 "/>
<text text-anchor="middle" x="223.4" y="-29.3" font-family="Courier,monospace" font-size="14.00" fill="red">(30,30)</text>
<polyline fill="none" stroke="red" points="186,-22.5 260.81,-22.5 "/>
<text text-anchor="middle" x="223.4" y="-7.3" font-family="Courier,monospace" font-size="14.00" fill="red">d(1,20)</text>
</g>
<!-- 4&#45;&gt;9 -->
<g id="edge9" class="edge">
<title>4&#45;&gt;9</title>
<path fill="none" stroke="black" d="M259.65,-114.08C254.6,-102.99 248.26,-89.06 242.29,-75.97"/>
<polygon fill="black" stroke="black" points="245.37,-74.29 238.04,-66.64 239,-77.19 245.37,-74.29"/>
</g>
<!-- 10 -->
<g id="node11" class="node">
<title>10</title>
<polygon fill="none" stroke="red" points="279,-0.5 279,-66.5 353.81,-66.5 353.81,-0.5 279,-0.5"/>
<text text-anchor="middle" x="316.4" y="-51.3" font-family="Courier,monospace" font-size="14.00" fill="red">3..3</text>
<polyline fill="none" stroke="red" points="279,-44.5 353.81,-44.5 "/>
<text text-anchor="middle" x="316.4" y="-29.3" font-family="Courier,monospace" font-size="14.00" fill="red">(40,40)</text>
<polyline fill="none" stroke="red" points="279,-22.5 353.81,-22.5 "/>
<text text-anchor="middle" x="316.4" y="-7.3" font-family="Courier,monospace" font-size="14.00" fill="red">d(1,20)</text>
</g>
<!-- 4&#45;&gt;10 -->
<g id="edge10" class="edge">
<title>4&#45;&gt;10</title>
<path fill="none" stroke="black" d="M279.37,-114.08C284.53,-102.99 291.01,-89.06 297.11,-75.97"/>
<polygon fill="black" stroke="black" points="300.4,-77.18 301.45,-66.64 294.06,-74.23 300.4,-77.18"/>
</g>
<!-- 11 -->
<g id="node12" class="node">
<title>11</title>
<polygon fill="none" stroke="black" points="372,-11.5 372,-55.5 446.81,-55.5 446.81,-11.5 372,-11.5"/>
<text text-anchor="middle" x="409.4" y="-40.3" font-family="Courier,monospace" font-size="14.00">4..4</text>
<polyline fill="none" stroke="black" points="372,-33.5 446.81,-33.5 "/>
<text text-anchor="middle" x="409.4" y="-18.3" font-family="Courier,monospace" font-size="14.00">(50,50)</text>
</g>
<!-- 5&#45;&gt;11 -->
<g id="edge11" class="edge">
<title>5&#45;&gt;11</title>
<path fill="none" stroke="black" d="M409.4,-103.27C409.4,-91.33 409.4,-77.82 409.4,-65.96"/>
<polygon fill="black" stroke="black" points="412.9,-65.62 409.4,-55.62 405.9,-65.62 412.9,-65.62"/>
</g>
<!-- 12 -->
<g id="node13" class="node">
<title>12</title>
<polygon fill="none" stroke="black" points="465,-11.5 465,-55.5 539.81,-55.5 539.81,-11.5 465,-11.5"/>
<text text-anchor="middle" x="502.4" y="-40.3" font-family="Courier,monospace" font-size="14.00">5..5</text>
<polyline fill="none" stroke="black" points="465,-33.5 539.81,-33.5 "/>
<text text-anchor="middle" x="502.4" y="-18.3" font-family="Courier,monospace" font-size="14.00">(60,60)</text>
</g>
<!-- 5&#45;&gt;12 -->
<g id="edge12" class="edge">
<title>5&#45;&gt;12</title>
<path fill="none" stroke="black" d="M439.09,-103.27C450.97,-90.36 464.55,-75.61 476.08,-63.09"/>
<polygon fill="black" stroke="black" points="478.76,-65.35 482.96,-55.62 473.61,-60.6 478.76,-65.35"/>
</g>
</g>
</svg>
