<?xml version="1.0" encoding="UTF-8" standalone="no"?>
<!DOCTYPE svg PUBLIC "-//W3C//DTD SVG 1.1//EN"
 "http://www.w3.org/Graphics/SVG/1.1/DTD/svg11.dtd">
<!-- Generated by graphviz version 2.48.0 (20210717.1556)
 -->
<!-- Title: segtree0 Pages: 1 -->
<svg width="548pt" height="350pt"
 viewBox="0.00 0.00 548.00 350.00" xmlns="http://www.w3.org/2000/svg" xmlns:xlink="http://www.w3.org/1999/xlink">
<g id="graph0" class="graph" transform="scale(1 1) rotate(0) translate(4 346)">
<title>segtree0</title>
<polygon fill="white" stroke="transparent" points="-4,4 -4,-346 544,-346 544,4 -4,4"/>
<!-- 0 -->
<g id="node1" class="node">
<title>0</title>
<polygon fill="none" stroke="blue" points="325,-295.5 325,-341.5 400,-341.5 400,-295.5 325,-295.5"/>
<text text-anchor="middle" x="362.5" y="-326.3" font-family="Courier,monospace" font-size="14.00" fill="blue">0..6</text>
<polyline fill="none" stroke="blue" points="325,-318.5 400,-318.5 "/>
<text text-anchor="middle" x="362.5" y="-303.3" font-family="Courier,monospace" font-size="14.00" fill="blue">(10,90)</text>
</g>
<!-- 1 -->
<g id="node2" class="node">
<title>1</title>
<polygon fill="none" stroke="blue" points="232,-212.5 232,-258.5 307,-258.5 307,-212.5 232,-212.5"/>
<text text-anchor="middle" x="269.5" y="-243.3" font-family="Courier,monospace" font-size="14.00" fill="blue">0..3</text>
<polyline fill="none" stroke="blue" points="232,-235.5 307,-235.5 "/>
<text text-anchor="middle" x="269.5" y="-220.3" font-family="Courier,monospace" font-size="14.00" fill="blue">(10,60)</text>
</g>
<!-- 0&#45;&gt;1 -->
<g id="edge1" class="edge">
<title>0&#45;&gt;1</title>
<path fill="none" stroke="black" d="M337.09,-295.37C326.43,-286.08 313.89,-275.16 302.52,-265.26"/>
<polygon fill="black" stroke="black" points="304.72,-262.54 294.88,-258.61 300.12,-267.81 304.72,-262.54"/>
</g>
<!-- 2 -->
<g id="node3" class="node">
<title>2</title>
<polygon fill="none" stroke="blue" points="372,-212.5 372,-258.5 447,-258.5 447,-212.5 372,-212.5"/>
<text text-anchor="middle" x="409.5" y="-243.3" font-family="Courier,monospace" font-size="14.00" fill="blue">4..6</text>
<polyline fill="none" stroke="blue" points="372,-235.5 447,-235.5 "/>
<text text-anchor="middle" x="409.5" y="-220.3" font-family="Courier,monospace" font-size="14.00" fill="blue">(70,90)</text>
</g>
<!-- 0&#45;&gt;2 -->
<g id="edge2" class="edge">
<title>0&#45;&gt;2</title>
<path fill="none" stroke="black" d="M375.34,-295.37C380.37,-286.71 386.22,-276.62 391.64,-267.27"/>
<polygon fill="black" stroke="black" points="394.68,-269.01 396.67,-258.61 388.63,-265.5 394.68,-269.01"/>
</g>
<!-- 3 -->
<g id="node4" class="node">
<title>3</title>
<polygon fill="none" stroke="black" points="93,-118 93,-164 168,-164 168,-118 93,-118"/>
<text text-anchor="middle" x="130.5" y="-148.8" font-family="Courier,monospace" font-size="14.00">0..1</text>
<polyline fill="none" stroke="black" points="93,-141 168,-141 "/>
<text text-anchor="middle" x="130.5" y="-125.8" font-family="Courier,monospace" font-size="14.00">(10,20)</text>
</g>
<!-- 1&#45;&gt;3 -->
<g id="edge3" class="edge">
<title>1&#45;&gt;3</title>
<path fill="none" stroke="black" d="M236.21,-212.34C217.09,-199.62 192.91,-183.53 172.49,-169.95"/>
<polygon fill="black" stroke="black" points="174.27,-166.92 164,-164.3 170.39,-172.75 174.27,-166.92"/>
</g>
<!-- 4 -->
<g id="node5" class="node">
<title>4</title>
<polygon fill="none" stroke="blue" points="232,-118 232,-164 307,-164 307,-118 232,-118"/>
<text text-anchor="middle" x="269.5" y="-148.8" font-family="Courier,monospace" font-size="14.00" fill="blue">2..3</text>
<polyline fill="none" stroke="blue" points="232,-141 307,-141 "/>
<text text-anchor="middle" x="269.5" y="-125.8" font-family="Courier,monospace" font-size="14.00" fill="blue">(50,60)</text>
</g>
<!-- 1&#45;&gt;4 -->
<g id="edge4" class="edge">
<title>1&#45;&gt;4</title>
<path fill="none" stroke="black" d="M269.5,-212.11C269.5,-200.75 269.5,-186.74 269.5,-174.24"/>
<polygon fill="black" stroke="black" points="273,-174.19 269.5,-164.19 266,-174.19 273,-174.19"/>
</g>
<!-- 5 -->
<g id="node6" class="node">
<title>5</title>
<polygon fill="none" stroke="red" points="372,-106.5 372,-175.5 447,-175.5 447,-106.5 372,-106.5"/>
<text text-anchor="middle" x="409.5" y="-160.3" font-family="Courier,monospace" font-size="14.00" fill="red">4..5</text>
<polyline fill="none" stroke="red" points="372,-152.5 447,-152.5 "/>
<text text-anchor="middle" x="409.5" y="-137.3" font-family="Courier,monospace" font-size="14.00" fill="red">(50,60)</text>
<polyline fill="none" stroke="red" points="372,-129.5 447,-129.5 "/>
<text text-anchor="middle" x="409.5" y="-114.3" font-family="Courier,monospace" font-size="14.00" fill="red">d(1,20)</text>
</g>
<!-- 2&#45;&gt;5 -->
<g id="edge5" class="edge">
<title>2&#45;&gt;5</title>
<path fill="none" stroke="black" d="M409.5,-212.11C409.5,-204.18 409.5,-194.97 409.5,-185.88"/>
<polygon fill="black" stroke="black" points="413,-185.75 409.5,-175.75 406,-185.75 413,-185.75"/>
</g>
<!-- 6 -->
<g id="node7" class="node">
<title>6</title>
<polygon fill="none" stroke="red" points="465,-106.5 465,-175.5 540,-175.5 540,-106.5 465,-106.5"/>
<text text-anchor="middle" x="502.5" y="-160.3" font-family="Courier,monospace" font-size="14.00" fill="red">6..6</text>
<polyline fill="none" stroke="red" points="465,-152.5 540,-152.5 "/>
<text text-anchor="middle" x="502.5" y="-137.3" font-family="Courier,monospace" font-size="14.00" fill="red">(70,70)</text>
<polyline fill="none" stroke="red" points="465,-129.5 540,-129.5 "/>
<text text-anchor="middle" x="502.5" y="-114.3" font-family="Courier,monospace" font-size="14.00" fill="red">d(1,20)</text>
</g>
<!-- 2&#45;&gt;6 -->
<g id="edge6" class="edge">
<title>2&#45;&gt;6</title>
<path fill="none" stroke="black" d="M432.01,-212.11C440.84,-203.33 451.25,-192.98 461.32,-182.96"/>
<polygon fill="black" stroke="black" points="463.95,-185.28 468.57,-175.75 459.01,-180.32 463.95,-185.28"/>
</g>
<!-- 7 -->
<g id="node8" class="node">
<title>7</title>
<polygon fill="none" stroke="black" points="0,-12 0,-58 75,-58 75,-12 0,-12"/>
<text text-anchor="middle" x="37.5" y="-42.8" font-family="Courier,monospace" font-size="14.00">0..0</text>
<polyline fill="none" stroke="black" points="0,-35 75,-35 "/>
<text text-anchor="middle" x="37.5" y="-19.8" font-family="Courier,monospace" font-size="14.00">(10,10)</text>
</g>
<!-- 3&#45;&gt;7 -->
<g id="edge7" class="edge">
<title>3&#45;&gt;7</title>
<path fill="none" stroke="black" d="M110.78,-117.94C97.21,-102.78 79.04,-82.45 64.19,-65.84"/>
<polygon fill="black" stroke="black" points="66.47,-63.15 57.19,-58.02 61.25,-67.81 66.47,-63.15"/>
</g>
<!-- 8 -->
<g id="node9" class="node">
<title>8</title>
<polygon fill="none" stroke="black" points="93,-12 93,-58 168,-58 168,-12 93,-12"/>
<text text-anchor="middle" x="130.5" y="-42.8" font-family="Courier,monospace" font-size="14.00">1..1</text>
<polyline fill="none" stroke="black" points="93,-35 168,-35 "/>
<text text-anchor="middle" x="130.5" y="-19.8" font-family="Courier,monospace" font-size="14.00">(20,20)</text>
</g>
<!-- 3&#45;&gt;8 -->
<g id="edge8" class="edge">
<title>3&#45;&gt;8</title>
<path fill="none" stroke="black" d="M130.5,-117.94C130.5,-103.47 130.5,-84.29 130.5,-68.13"/>
<polygon fill="black" stroke="black" points="134,-68.02 130.5,-58.02 127,-68.02 134,-68.02"/>
</g>
<!-- 9 -->
<g id="node10" class="node">
<title>9</title>
<polygon fill="none" stroke="red" points="186,-0.5 186,-69.5 261,-69.5 261,-0.5 186,-0.5"/>
<text text-anchor="middle" x="223.5" y="-54.3" font-family="Courier,monospace" font-size="14.00" fill="red">2..2</text>
<polyline fill="none" stroke="red" points="186,-46.5 261,-46.5 "/>
<text text-anchor="middle" x="223.5" y="-31.3" font-family="Courier,monospace" font-size="14.00" fill="red">(30,30)</text>
<polyline fill="none" stroke="red" points="186,-23.5 261,-23.5 "/>
<text text-anchor="middle" x="223.5" y="-8.3" font-family="Courier,monospace" font-size="14.00" fill="red">d(1,20)</text>
</g>
<!-- 4&#45;&gt;9 -->
<g id="edge9" class="edge">
<title>4&#45;&gt;9</title>
<path fill="none" stroke="black" d="M259.74,-117.94C254.78,-106.72 248.56,-92.66 242.69,-79.38"/>
<polygon fill="black" stroke="black" points="245.74,-77.63 238.49,-69.9 239.34,-80.46 245.74,-77.63"/>
</g>
<!-- 10 -->
<g id="node11" class="node">
<title>10</title>
<polygon fill="none" stroke="red" points="279,-0.5 279,-69.5 354,-69.5 354,-0.5 279,-0.5"/>
<text text-anchor="middle" x="316.5" y="-54.3" font-family="Courier,monospace" font-size="14.00" fill="red">3..3</text>
<polyline fill="none" stroke="red" points="279,-46.5 354,-46.5 "/>
<text text-anchor="middle" x="316.5" y="-31.3" font-family="Courier,monospace" font-size="14.00" fill="red">(40,40)</text>
<polyline fill="none" stroke="red" points="279,-23.5 354,-23.5 "/>
<text text-anchor="middle" x="316.5" y="-8.3" font-family="Courier,monospace" font-size="14.00" fill="red">d(1,20)</text>
</g>
<!-- 4&#45;&gt;10 -->
<g id="edge10" class="edge">
<title>4&#45;&gt;10</title>
<path fill="none" stroke="black" d="M279.47,-117.94C284.54,-106.72 290.89,-92.66 296.89,-79.38"/>
<polygon fill="black" stroke="black" points="300.25,-80.45 301.18,-69.9 293.87,-77.57 300.25,-80.45"/>
</g>
<!-- 11 -->
<g id="node12" class="node">
<title>11</title>
<polygon fill="none" stroke="black" points="372,-12 372,-58 447,-58 447,-12 372,-12"/>
<text text-anchor="middle" x="409.5" y="-42.8" font-family="Courier,monospace" font-size="14.00">4..4</text>
<polyline fill="none" stroke="black" points="372,-35 447,-35 "/>
<text text-anchor="middle" x="409.5" y="-19.8" font-family="Courier,monospace" font-size="14.00">(50,50)</text>
</g>
<!-- 5&#45;&gt;11 -->
<g id="edge11" class="edge">
<title>5&#45;&gt;11</title>
<path fill="none" stroke="black" d="M409.5,-106.23C409.5,-94.03 409.5,-80.3 409.5,-68.23"/>
<polygon fill="black" stroke="black" points="413,-68.13 409.5,-58.13 406,-68.13 413,-68.13"/>
</g>
<!-- 12 -->
<g id="node13" class="node">
<title>12</title>
<polygon fill="none" stroke="black" points="465,-12 465,-58 540,-58 540,-12 465,-12"/>
<text text-anchor="middle" x="502.5" y="-42.8" font-family="Courier,monospace" font-size="14.00">5..5</text>
<polyline fill="none" stroke="black" points="465,-35 540,-35 "/>
<text text-anchor="middle" x="502.5" y="-19.8" font-family="Courier,monospace" font-size="14.00">(60,60)</text>
</g>
<!-- 5&#45;&gt;12 -->
<g id="edge12" class="edge">
<title>5&#45;&gt;12</title>
<path fill="none" stroke="black" d="M439.69,-106.23C451.38,-93.17 464.63,-78.35 475.95,-65.7"/>
<polygon fill="black" stroke="black" points="478.65,-67.92 482.71,-58.13 473.43,-63.26 478.65,-67.92"/>
</g>
</g>
</svg>
