<?xml version="1.0" encoding="UTF-8" standalone="no"?>
<!DOCTYPE svg PUBLIC "-//W3C//DTD SVG 1.1//EN"
 "http://www.w3.org/Graphics/SVG/1.1/DTD/svg11.dtd">
<!-- Generated by graphviz version 8.0.5 (20230430.1635)
 -->
<!-- Title: segtree0 Pages: 1 -->
<svg width="630pt" height="365pt"
 viewBox="0.00 0.00 629.88 365.00" xmlns="http://www.w3.org/2000/svg" xmlns:xlink="http://www.w3.org/1999/xlink">
<g id="graph0" class="graph" transform="scale(1 1) rotate(0) translate(4 361)">
<title>segtree0</title>
<polygon fill="white" stroke="none" points="-4,4 -4,-361 625.88,-361 625.88,4 -4,4"/>
<!-- 0 -->
<g id="node1" class="node">
<title>0</title>
<polygon fill="none" stroke="black" points="275.12,-307.5 275.12,-356.5 422.62,-356.5 422.62,-307.5 275.12,-307.5"/>
<text text-anchor="middle" x="312" y="-339.2" font-family="Courier,monospace" font-size="14.00">0..6</text>
<polyline fill="none" stroke="black" points="275.12,-332 348.88,-332"/>
<text text-anchor="middle" x="312" y="-314.7" font-family="Courier,monospace" font-size="14.00">(10,90)</text>
<polyline fill="none" stroke="black" points="348.88,-307.5 348.88,-356.5"/>
<text text-anchor="middle" x="385.75" y="-326.95" font-family="Courier,monospace" font-size="14.00">(50,80)</text>
</g>
<!-- 1 -->
<g id="node2" class="node">
<title>1</title>
<polygon fill="none" stroke="black" points="192.12,-221.5 192.12,-270.5 339.62,-270.5 339.62,-221.5 192.12,-221.5"/>
<text text-anchor="middle" x="229" y="-253.2" font-family="Courier,monospace" font-size="14.00">0..3</text>
<polyline fill="none" stroke="black" points="192.12,-246 265.88,-246"/>
<text text-anchor="middle" x="229" y="-228.7" font-family="Courier,monospace" font-size="14.00">(10,60)</text>
<polyline fill="none" stroke="black" points="265.88,-221.5 265.88,-270.5"/>
<text text-anchor="middle" x="302.75" y="-240.95" font-family="Courier,monospace" font-size="14.00">(50,60)</text>
</g>
<!-- 0&#45;&gt;1 -->
<g id="edge1" class="edge">
<title>0&#45;&gt;1</title>
<path fill="none" stroke="black" d="M325.75,-307.6C316.67,-298.41 306.12,-287.72 296.42,-277.91"/>
<polygon fill="black" stroke="black" points="299.39,-275.93 289.87,-271.27 294.41,-280.85 299.39,-275.93"/>
</g>
<!-- 2 -->
<g id="node3" class="node">
<title>2</title>
<polygon fill="none" stroke="black" points="358.12,-221.5 358.12,-270.5 505.62,-270.5 505.62,-221.5 358.12,-221.5"/>
<text text-anchor="middle" x="395" y="-253.2" font-family="Courier,monospace" font-size="14.00">4..6</text>
<polyline fill="none" stroke="black" points="358.12,-246 431.88,-246"/>
<text text-anchor="middle" x="395" y="-228.7" font-family="Courier,monospace" font-size="14.00">(70,90)</text>
<polyline fill="none" stroke="black" points="431.88,-221.5 431.88,-270.5"/>
<text text-anchor="middle" x="468.75" y="-240.95" font-family="Courier,monospace" font-size="14.00">(70,80)</text>
</g>
<!-- 0&#45;&gt;2 -->
<g id="edge2" class="edge">
<title>0&#45;&gt;2</title>
<path fill="none" stroke="black" d="M372,-307.6C381.08,-298.41 391.63,-287.72 401.33,-277.91"/>
<polygon fill="black" stroke="black" points="403.34,-280.85 407.88,-271.27 398.36,-275.93 403.34,-280.85"/>
</g>
<!-- 3 -->
<g id="node4" class="node">
<title>3</title>
<polygon fill="none" stroke="black" points="75.88,-123.25 75.88,-172.25 173.88,-172.25 173.88,-123.25 75.88,-123.25"/>
<text text-anchor="middle" x="112.75" y="-154.95" font-family="Courier,monospace" font-size="14.00">0..1</text>
<polyline fill="none" stroke="black" points="75.88,-147.75 149.62,-147.75"/>
<text text-anchor="middle" x="112.75" y="-130.45" font-family="Courier,monospace" font-size="14.00">(10,20)</text>
<polyline fill="none" stroke="black" points="149.62,-123.25 149.62,-172.25"/>
<text text-anchor="middle" x="161.75" y="-142.7" font-family="Courier,monospace" font-size="14.00">e</text>
</g>
<!-- 1&#45;&gt;3 -->
<g id="edge3" class="edge">
<title>1&#45;&gt;3</title>
<path fill="none" stroke="black" d="M231.74,-221.7C212.57,-208.62 188.47,-192.16 168,-178.19"/>
<polygon fill="black" stroke="black" points="170.41,-174.92 160.18,-172.17 166.47,-180.7 170.41,-174.92"/>
</g>
<!-- 4 -->
<g id="node5" class="node">
<title>4</title>
<polygon fill="none" stroke="black" points="192.12,-123.25 192.12,-172.25 339.62,-172.25 339.62,-123.25 192.12,-123.25"/>
<text text-anchor="middle" x="229" y="-154.95" font-family="Courier,monospace" font-size="14.00">2..3</text>
<polyline fill="none" stroke="black" points="192.12,-147.75 265.88,-147.75"/>
<text text-anchor="middle" x="229" y="-130.45" font-family="Courier,monospace" font-size="14.00">(50,60)</text>
<polyline fill="none" stroke="black" points="265.88,-123.25 265.88,-172.25"/>
<text text-anchor="middle" x="302.75" y="-142.7" font-family="Courier,monospace" font-size="14.00">(50,60)</text>
</g>
<!-- 1&#45;&gt;4 -->
<g id="edge4" class="edge">
<title>1&#45;&gt;4</title>
<path fill="none" stroke="black" d="M265.88,-221.7C265.88,-210.08 265.88,-195.81 265.88,-182.97"/>
<polygon fill="black" stroke="black" points="269.38,-183.17 265.88,-173.17 262.38,-183.17 269.38,-183.17"/>
</g>
<!-- 5 -->
<g id="node6" class="node">
<title>5</title>
<polygon fill="none" stroke="black" points="358.12,-123.25 358.12,-172.25 505.62,-172.25 505.62,-123.25 358.12,-123.25"/>
<text text-anchor="middle" x="395" y="-154.95" font-family="Courier,monospace" font-size="14.00">4..5</text>
<polyline fill="none" stroke="black" points="358.12,-147.75 431.88,-147.75"/>
<text text-anchor="middle" x="395" y="-130.45" font-family="Courier,monospace" font-size="14.00">(70,80)</text>
<polyline fill="none" stroke="black" points="431.88,-123.25 431.88,-172.25"/>
<text text-anchor="middle" x="468.75" y="-142.7" font-family="Courier,monospace" font-size="14.00">(70,80)</text>
</g>
<!-- 2&#45;&gt;5 -->
<g id="edge5" class="edge">
<title>2&#45;&gt;5</title>
<path fill="none" stroke="black" d="M431.88,-221.7C431.88,-210.08 431.88,-195.81 431.88,-182.97"/>
<polygon fill="black" stroke="black" points="435.38,-183.17 431.88,-173.17 428.38,-183.17 435.38,-183.17"/>
</g>
<!-- 6 -->
<g id="node7" class="node">
<title>6</title>
<polygon fill="none" stroke="red" points="523.88,-111 523.88,-184.5 621.88,-184.5 621.88,-111 523.88,-111"/>
<text text-anchor="middle" x="560.75" y="-167.2" font-family="Courier,monospace" font-size="14.00" fill="red">6..6</text>
<polyline fill="none" stroke="red" points="523.88,-160 597.62,-160"/>
<text text-anchor="middle" x="560.75" y="-142.7" font-family="Courier,monospace" font-size="14.00" fill="red">(70,70)</text>
<polyline fill="none" stroke="red" points="523.88,-135.5 597.62,-135.5"/>
<text text-anchor="middle" x="560.75" y="-118.2" font-family="Courier,monospace" font-size="14.00" fill="red">d(1,20)</text>
<polyline fill="none" stroke="red" points="597.62,-111 597.62,-184.5"/>
<text text-anchor="middle" x="609.75" y="-142.7" font-family="Courier,monospace" font-size="14.00" fill="red">e</text>
</g>
<!-- 2&#45;&gt;6 -->
<g id="edge6" class="edge">
<title>2&#45;&gt;6</title>
<path fill="none" stroke="black" d="M466.01,-221.7C480.86,-211.56 498.68,-199.4 515.47,-187.94"/>
<polygon fill="black" stroke="black" points="516.85,-190.55 523.13,-182.02 512.9,-184.77 516.85,-190.55"/>
</g>
<!-- 7 -->
<g id="node8" class="node">
<title>7</title>
<polygon fill="none" stroke="black" points="0,-12.75 0,-61.75 73.75,-61.75 73.75,-12.75 0,-12.75"/>
<text text-anchor="middle" x="36.88" y="-44.45" font-family="Courier,monospace" font-size="14.00">0..0</text>
<polyline fill="none" stroke="black" points="0,-37.25 73.75,-37.25"/>
<text text-anchor="middle" x="36.88" y="-19.95" font-family="Courier,monospace" font-size="14.00">(10,10)</text>
</g>
<!-- 3&#45;&gt;7 -->
<g id="edge7" class="edge">
<title>3&#45;&gt;7</title>
<path fill="none" stroke="black" d="M106,-123.47C93.24,-107.74 76.24,-86.78 62.29,-69.59"/>
<polygon fill="black" stroke="black" points="64.74,-68.05 55.72,-62.49 59.3,-72.46 64.74,-68.05"/>
</g>
<!-- 8 -->
<g id="node9" class="node">
<title>8</title>
<polygon fill="none" stroke="black" points="92,-12.75 92,-61.75 165.75,-61.75 165.75,-12.75 92,-12.75"/>
<text text-anchor="middle" x="128.88" y="-44.45" font-family="Courier,monospace" font-size="14.00">1..1</text>
<polyline fill="none" stroke="black" points="92,-37.25 165.75,-37.25"/>
<text text-anchor="middle" x="128.88" y="-19.95" font-family="Courier,monospace" font-size="14.00">(20,20)</text>
</g>
<!-- 3&#45;&gt;8 -->
<g id="edge8" class="edge">
<title>3&#45;&gt;8</title>
<path fill="none" stroke="black" d="M125.73,-123.47C126.28,-108.6 127,-89.05 127.61,-72.43"/>
<polygon fill="black" stroke="black" points="131.15,-72.61 128.02,-62.49 124.15,-72.35 131.15,-72.61"/>
</g>
<!-- 9 -->
<g id="node10" class="node">
<title>9</title>
<polygon fill="none" stroke="red" points="199,-0.5 199,-74 272.75,-74 272.75,-0.5 199,-0.5"/>
<text text-anchor="middle" x="235.88" y="-56.7" font-family="Courier,monospace" font-size="14.00" fill="red">2..2</text>
<polyline fill="none" stroke="red" points="199,-49.5 272.75,-49.5"/>
<text text-anchor="middle" x="235.88" y="-32.2" font-family="Courier,monospace" font-size="14.00" fill="red">(30,30)</text>
<polyline fill="none" stroke="red" points="199,-25 272.75,-25"/>
<text text-anchor="middle" x="235.88" y="-7.7" font-family="Courier,monospace" font-size="14.00" fill="red">d(1,20)</text>
</g>
<!-- 4&#45;&gt;9 -->
<g id="edge9" class="edge">
<title>4&#45;&gt;9</title>
<path fill="none" stroke="black" d="M259.44,-123.47C256.29,-112.08 252.38,-97.93 248.65,-84.47"/>
<polygon fill="black" stroke="black" points="251.76,-83.58 245.73,-74.88 245.02,-85.45 251.76,-83.58"/>
</g>
<!-- 10 -->
<g id="node11" class="node">
<title>10</title>
<polygon fill="none" stroke="red" points="291,-0.5 291,-74 364.75,-74 364.75,-0.5 291,-0.5"/>
<text text-anchor="middle" x="327.88" y="-56.7" font-family="Courier,monospace" font-size="14.00" fill="red">3..3</text>
<polyline fill="none" stroke="red" points="291,-49.5 364.75,-49.5"/>
<text text-anchor="middle" x="327.88" y="-32.2" font-family="Courier,monospace" font-size="14.00" fill="red">(40,40)</text>
<polyline fill="none" stroke="red" points="291,-25 364.75,-25"/>
<text text-anchor="middle" x="327.88" y="-7.7" font-family="Courier,monospace" font-size="14.00" fill="red">d(1,20)</text>
</g>
<!-- 4&#45;&gt;10 -->
<g id="edge10" class="edge">
<title>4&#45;&gt;10</title>
<path fill="none" stroke="black" d="M279.18,-123.47C285.88,-111.74 294.25,-97.09 302.15,-83.27"/>
<polygon fill="black" stroke="black" points="305.59,-85.29 307.52,-74.88 299.52,-81.82 305.59,-85.29"/>
</g>
<!-- 11 -->
<g id="node12" class="node">
<title>11</title>
<polygon fill="none" stroke="red" points="391,-0.5 391,-74 464.75,-74 464.75,-0.5 391,-0.5"/>
<text text-anchor="middle" x="427.88" y="-56.7" font-family="Courier,monospace" font-size="14.00" fill="red">4..4</text>
<polyline fill="none" stroke="red" points="391,-49.5 464.75,-49.5"/>
<text text-anchor="middle" x="427.88" y="-32.2" font-family="Courier,monospace" font-size="14.00" fill="red">(50,50)</text>
<polyline fill="none" stroke="red" points="391,-25 464.75,-25"/>
<text text-anchor="middle" x="427.88" y="-7.7" font-family="Courier,monospace" font-size="14.00" fill="red">d(1,20)</text>
</g>
<!-- 5&#45;&gt;11 -->
<g id="edge11" class="edge">
<title>5&#45;&gt;11</title>
<path fill="none" stroke="black" d="M431.02,-123.47C430.6,-112.19 430.09,-98.21 429.59,-84.87"/>
<polygon fill="black" stroke="black" points="433.05,-84.74 429.19,-74.88 426.06,-85 433.05,-84.74"/>
</g>
<!-- 12 -->
<g id="node13" class="node">
<title>12</title>
<polygon fill="none" stroke="red" points="483,-0.5 483,-74 556.75,-74 556.75,-0.5 483,-0.5"/>
<text text-anchor="middle" x="519.88" y="-56.7" font-family="Courier,monospace" font-size="14.00" fill="red">5..5</text>
<polyline fill="none" stroke="red" points="483,-49.5 556.75,-49.5"/>
<text text-anchor="middle" x="519.88" y="-32.2" font-family="Courier,monospace" font-size="14.00" fill="red">(60,60)</text>
<polyline fill="none" stroke="red" points="483,-25 556.75,-25"/>
<text text-anchor="middle" x="519.88" y="-7.7" font-family="Courier,monospace" font-size="14.00" fill="red">d(1,20)</text>
</g>
<!-- 5&#45;&gt;12 -->
<g id="edge12" class="edge">
<title>5&#45;&gt;12</title>
<path fill="none" stroke="black" d="M450.75,-123.47C460.55,-111.4 472.84,-96.24 484.33,-82.07"/>
<polygon fill="black" stroke="black" points="487.4,-84.85 490.98,-74.88 481.96,-80.44 487.4,-84.85"/>
</g>
</g>
</svg>
