<?xml version="1.0" encoding="UTF-8" standalone="no"?>
<!DOCTYPE svg PUBLIC "-//W3C//DTD SVG 1.1//EN"
 "http://www.w3.org/Graphics/SVG/1.1/DTD/svg11.dtd">
<!-- Generated by graphviz version 2.42.3 (20191010.1750)
 -->
<!-- Title: segtree0 Pages: 1 -->
<svg width="636pt" height="340pt"
 viewBox="0.00 0.00 636.01 340.00" xmlns="http://www.w3.org/2000/svg" xmlns:xlink="http://www.w3.org/1999/xlink">
<g id="graph0" class="graph" transform="scale(1 1) rotate(0) translate(4 336)">
<title>segtree0</title>
<polygon fill="white" stroke="transparent" points="-4,4 -4,-336 632.01,-336 632.01,4 -4,4"/>
<!-- 0 -->
<g id="node1" class="node">
<title>0</title>
<polygon fill="none" stroke="black" points="277.6,-287.5 277.6,-331.5 427.21,-331.5 427.21,-287.5 277.6,-287.5"/>
<text text-anchor="middle" x="315" y="-316.3" font-family="Courier,monospace" font-size="14.00">0..6</text>
<polyline fill="none" stroke="black" points="277.6,-309.5 352.4,-309.5 "/>
<text text-anchor="middle" x="315" y="-294.3" font-family="Courier,monospace" font-size="14.00">(10,90)</text>
<polyline fill="none" stroke="black" points="352.4,-287.5 352.4,-331.5 "/>
<text text-anchor="middle" x="389.81" y="-305.3" font-family="Courier,monospace" font-size="14.00">(50,80)</text>
</g>
<!-- 1 -->
<g id="node2" class="node">
<title>1</title>
<polygon fill="none" stroke="black" points="193.6,-206.5 193.6,-250.5 343.21,-250.5 343.21,-206.5 193.6,-206.5"/>
<text text-anchor="middle" x="231" y="-235.3" font-family="Courier,monospace" font-size="14.00">0..3</text>
<polyline fill="none" stroke="black" points="193.6,-228.5 268.4,-228.5 "/>
<text text-anchor="middle" x="231" y="-213.3" font-family="Courier,monospace" font-size="14.00">(10,60)</text>
<polyline fill="none" stroke="black" points="268.4,-206.5 268.4,-250.5 "/>
<text text-anchor="middle" x="305.81" y="-224.3" font-family="Courier,monospace" font-size="14.00">(50,60)</text>
</g>
<!-- 0&#45;&gt;1 -->
<g id="edge1" class="edge">
<title>0&#45;&gt;1</title>
<path fill="none" stroke="black" d="M329.89,-287.33C320.2,-278.21 308.72,-267.41 298.32,-257.63"/>
<polygon fill="black" stroke="black" points="300.66,-255.03 290.98,-250.73 295.86,-260.13 300.66,-255.03"/>
</g>
<!-- 2 -->
<g id="node3" class="node">
<title>2</title>
<polygon fill="none" stroke="black" points="361.6,-206.5 361.6,-250.5 511.21,-250.5 511.21,-206.5 361.6,-206.5"/>
<text text-anchor="middle" x="399" y="-235.3" font-family="Courier,monospace" font-size="14.00">4..6</text>
<polyline fill="none" stroke="black" points="361.6,-228.5 436.4,-228.5 "/>
<text text-anchor="middle" x="399" y="-213.3" font-family="Courier,monospace" font-size="14.00">(70,90)</text>
<polyline fill="none" stroke="black" points="436.4,-206.5 436.4,-250.5 "/>
<text text-anchor="middle" x="473.81" y="-224.3" font-family="Courier,monospace" font-size="14.00">(70,80)</text>
</g>
<!-- 0&#45;&gt;2 -->
<g id="edge2" class="edge">
<title>0&#45;&gt;2</title>
<path fill="none" stroke="black" d="M374.92,-287.33C384.61,-278.21 396.09,-267.41 406.49,-257.63"/>
<polygon fill="black" stroke="black" points="408.95,-260.13 413.83,-250.73 404.15,-255.03 408.95,-260.13"/>
</g>
<!-- 3 -->
<g id="node4" class="node">
<title>3</title>
<polygon fill="none" stroke="black" points="76.8,-114.5 76.8,-158.5 176.01,-158.5 176.01,-114.5 76.8,-114.5"/>
<text text-anchor="middle" x="114.2" y="-143.3" font-family="Courier,monospace" font-size="14.00">0..1</text>
<polyline fill="none" stroke="black" points="76.8,-136.5 151.61,-136.5 "/>
<text text-anchor="middle" x="114.2" y="-121.3" font-family="Courier,monospace" font-size="14.00">(10,20)</text>
<polyline fill="none" stroke="black" points="151.61,-114.5 151.61,-158.5 "/>
<text text-anchor="middle" x="163.81" y="-132.3" font-family="Courier,monospace" font-size="14.00">e</text>
</g>
<!-- 1&#45;&gt;3 -->
<g id="edge3" class="edge">
<title>1&#45;&gt;3</title>
<path fill="none" stroke="black" d="M235.11,-206.4C215.23,-193.8 189.78,-177.67 168.51,-164.19"/>
<polygon fill="black" stroke="black" points="170.3,-161.18 159.98,-158.78 166.55,-167.09 170.3,-161.18"/>
</g>
<!-- 4 -->
<g id="node5" class="node">
<title>4</title>
<polygon fill="none" stroke="black" points="193.6,-114.5 193.6,-158.5 343.21,-158.5 343.21,-114.5 193.6,-114.5"/>
<text text-anchor="middle" x="231" y="-143.3" font-family="Courier,monospace" font-size="14.00">2..3</text>
<polyline fill="none" stroke="black" points="193.6,-136.5 268.4,-136.5 "/>
<text text-anchor="middle" x="231" y="-121.3" font-family="Courier,monospace" font-size="14.00">(50,60)</text>
<polyline fill="none" stroke="black" points="268.4,-114.5 268.4,-158.5 "/>
<text text-anchor="middle" x="305.81" y="-132.3" font-family="Courier,monospace" font-size="14.00">(50,60)</text>
</g>
<!-- 1&#45;&gt;4 -->
<g id="edge4" class="edge">
<title>1&#45;&gt;4</title>
<path fill="none" stroke="black" d="M268.4,-206.17C268.4,-195.07 268.4,-181.29 268.4,-169"/>
<polygon fill="black" stroke="black" points="271.9,-168.68 268.4,-158.68 264.9,-168.68 271.9,-168.68"/>
</g>
<!-- 5 -->
<g id="node6" class="node">
<title>5</title>
<polygon fill="none" stroke="black" points="361.6,-114.5 361.6,-158.5 511.21,-158.5 511.21,-114.5 361.6,-114.5"/>
<text text-anchor="middle" x="399" y="-143.3" font-family="Courier,monospace" font-size="14.00">4..5</text>
<polyline fill="none" stroke="black" points="361.6,-136.5 436.4,-136.5 "/>
<text text-anchor="middle" x="399" y="-121.3" font-family="Courier,monospace" font-size="14.00">(70,80)</text>
<polyline fill="none" stroke="black" points="436.4,-114.5 436.4,-158.5 "/>
<text text-anchor="middle" x="473.81" y="-132.3" font-family="Courier,monospace" font-size="14.00">(70,80)</text>
</g>
<!-- 2&#45;&gt;5 -->
<g id="edge5" class="edge">
<title>2&#45;&gt;5</title>
<path fill="none" stroke="black" d="M436.4,-206.17C436.4,-195.07 436.4,-181.29 436.4,-169"/>
<polygon fill="black" stroke="black" points="439.9,-168.68 436.4,-158.68 432.9,-168.68 439.9,-168.68"/>
</g>
<!-- 6 -->
<g id="node7" class="node">
<title>6</title>
<polygon fill="none" stroke="red" points="528.8,-103.5 528.8,-169.5 628.01,-169.5 628.01,-103.5 528.8,-103.5"/>
<text text-anchor="middle" x="566.2" y="-154.3" font-family="Courier,monospace" font-size="14.00" fill="red">6..6</text>
<polyline fill="none" stroke="red" points="528.8,-147.5 603.61,-147.5 "/>
<text text-anchor="middle" x="566.2" y="-132.3" font-family="Courier,monospace" font-size="14.00" fill="red">(70,70)</text>
<polyline fill="none" stroke="red" points="528.8,-125.5 603.61,-125.5 "/>
<text text-anchor="middle" x="566.2" y="-110.3" font-family="Courier,monospace" font-size="14.00" fill="red">d(1,20)</text>
<polyline fill="none" stroke="red" points="603.61,-103.5 603.61,-169.5 "/>
<text text-anchor="middle" x="615.81" y="-132.3" font-family="Courier,monospace" font-size="14.00" fill="red">e</text>
</g>
<!-- 2&#45;&gt;6 -->
<g id="edge6" class="edge">
<title>2&#45;&gt;6</title>
<path fill="none" stroke="black" d="M469.7,-206.4C484.64,-196.93 502.71,-185.47 519.8,-174.64"/>
<polygon fill="black" stroke="black" points="522.05,-177.36 528.62,-169.05 518.3,-171.45 522.05,-177.36"/>
</g>
<!-- 7 -->
<g id="node8" class="node">
<title>7</title>
<polygon fill="none" stroke="black" points="0,-11.5 0,-55.5 74.81,-55.5 74.81,-11.5 0,-11.5"/>
<text text-anchor="middle" x="37.4" y="-40.3" font-family="Courier,monospace" font-size="14.00">0..0</text>
<polyline fill="none" stroke="black" points="0,-33.5 74.81,-33.5 "/>
<text text-anchor="middle" x="37.4" y="-18.3" font-family="Courier,monospace" font-size="14.00">(10,10)</text>
</g>
<!-- 3&#45;&gt;7 -->
<g id="edge7" class="edge">
<title>3&#45;&gt;7</title>
<path fill="none" stroke="black" d="M107.53,-114.08C94.46,-99.25 76.92,-79.35 62.65,-63.15"/>
<polygon fill="black" stroke="black" points="65.18,-60.73 55.95,-55.54 59.93,-65.36 65.18,-60.73"/>
</g>
<!-- 8 -->
<g id="node9" class="node">
<title>8</title>
<polygon fill="none" stroke="black" points="93,-11.5 93,-55.5 167.81,-55.5 167.81,-11.5 93,-11.5"/>
<text text-anchor="middle" x="130.4" y="-40.3" font-family="Courier,monospace" font-size="14.00">1..1</text>
<polyline fill="none" stroke="black" points="93,-33.5 167.81,-33.5 "/>
<text text-anchor="middle" x="130.4" y="-18.3" font-family="Courier,monospace" font-size="14.00">(20,20)</text>
</g>
<!-- 3&#45;&gt;8 -->
<g id="edge8" class="edge">
<title>3&#45;&gt;8</title>
<path fill="none" stroke="black" d="M127.25,-114.08C127.81,-100.06 128.54,-81.5 129.16,-65.84"/>
<polygon fill="black" stroke="black" points="132.67,-65.67 129.57,-55.54 125.68,-65.4 132.67,-65.67"/>
</g>
<!-- 9 -->
<g id="node10" class="node">
<title>9</title>
<polygon fill="none" stroke="red" points="201,-0.5 201,-66.5 275.81,-66.5 275.81,-0.5 201,-0.5"/>
<text text-anchor="middle" x="238.4" y="-51.3" font-family="Courier,monospace" font-size="14.00" fill="red">2..2</text>
<polyline fill="none" stroke="red" points="201,-44.5 275.81,-44.5 "/>
<text text-anchor="middle" x="238.4" y="-29.3" font-family="Courier,monospace" font-size="14.00" fill="red">(30,30)</text>
<polyline fill="none" stroke="red" points="201,-22.5 275.81,-22.5 "/>
<text text-anchor="middle" x="238.4" y="-7.3" font-family="Courier,monospace" font-size="14.00" fill="red">d(1,20)</text>
</g>
<!-- 4&#45;&gt;9 -->
<g id="edge9" class="edge">
<title>4&#45;&gt;9</title>
<path fill="none" stroke="black" d="M262.04,-114.08C258.78,-103.1 254.69,-89.33 250.84,-76.35"/>
<polygon fill="black" stroke="black" points="254.15,-75.23 247.95,-66.64 247.44,-77.22 254.15,-75.23"/>
</g>
<!-- 10 -->
<g id="node11" class="node">
<title>10</title>
<polygon fill="none" stroke="red" points="294,-0.5 294,-66.5 368.81,-66.5 368.81,-0.5 294,-0.5"/>
<text text-anchor="middle" x="331.4" y="-51.3" font-family="Courier,monospace" font-size="14.00" fill="red">3..3</text>
<polyline fill="none" stroke="red" points="294,-44.5 368.81,-44.5 "/>
<text text-anchor="middle" x="331.4" y="-29.3" font-family="Courier,monospace" font-size="14.00" fill="red">(40,40)</text>
<polyline fill="none" stroke="red" points="294,-22.5 368.81,-22.5 "/>
<text text-anchor="middle" x="331.4" y="-7.3" font-family="Courier,monospace" font-size="14.00" fill="red">d(1,20)</text>
</g>
<!-- 4&#45;&gt;10 -->
<g id="edge10" class="edge">
<title>4&#45;&gt;10</title>
<path fill="none" stroke="black" d="M281.77,-114.08C288.82,-102.78 297.71,-88.52 306.01,-75.21"/>
<polygon fill="black" stroke="black" points="309.03,-76.98 311.36,-66.64 303.1,-73.27 309.03,-76.98"/>
</g>
<!-- 11 -->
<g id="node12" class="node">
<title>11</title>
<polygon fill="none" stroke="red" points="395,-0.5 395,-66.5 469.81,-66.5 469.81,-0.5 395,-0.5"/>
<text text-anchor="middle" x="432.4" y="-51.3" font-family="Courier,monospace" font-size="14.00" fill="red">4..4</text>
<polyline fill="none" stroke="red" points="395,-44.5 469.81,-44.5 "/>
<text text-anchor="middle" x="432.4" y="-29.3" font-family="Courier,monospace" font-size="14.00" fill="red">(50,50)</text>
<polyline fill="none" stroke="red" points="395,-22.5 469.81,-22.5 "/>
<text text-anchor="middle" x="432.4" y="-7.3" font-family="Courier,monospace" font-size="14.00" fill="red">d(1,20)</text>
</g>
<!-- 5&#45;&gt;11 -->
<g id="edge11" class="edge">
<title>5&#45;&gt;11</title>
<path fill="none" stroke="black" d="M435.56,-114.08C435.13,-103.21 434.59,-89.6 434.08,-76.73"/>
<polygon fill="black" stroke="black" points="437.57,-76.49 433.68,-66.64 430.58,-76.77 437.57,-76.49"/>
</g>
<!-- 12 -->
<g id="node13" class="node">
<title>12</title>
<polygon fill="none" stroke="red" points="488,-0.5 488,-66.5 562.81,-66.5 562.81,-0.5 488,-0.5"/>
<text text-anchor="middle" x="525.4" y="-51.3" font-family="Courier,monospace" font-size="14.00" fill="red">5..5</text>
<polyline fill="none" stroke="red" points="488,-44.5 562.81,-44.5 "/>
<text text-anchor="middle" x="525.4" y="-29.3" font-family="Courier,monospace" font-size="14.00" fill="red">(60,60)</text>
<polyline fill="none" stroke="red" points="488,-22.5 562.81,-22.5 "/>
<text text-anchor="middle" x="525.4" y="-7.3" font-family="Courier,monospace" font-size="14.00" fill="red">d(1,20)</text>
</g>
<!-- 5&#45;&gt;12 -->
<g id="edge12" class="edge">
<title>5&#45;&gt;12</title>
<path fill="none" stroke="black" d="M455.28,-114.08C465.43,-102.56 478.28,-87.98 490.2,-74.45"/>
<polygon fill="black" stroke="black" points="493.1,-76.46 497.08,-66.64 487.85,-71.83 493.1,-76.46"/>
</g>
</g>
</svg>
