<?xml version="1.0" encoding="UTF-8" standalone="no"?>
<!DOCTYPE svg PUBLIC "-//W3C//DTD SVG 1.1//EN"
 "http://www.w3.org/Graphics/SVG/1.1/DTD/svg11.dtd">
<!-- Generated by graphviz version 2.40.1 (20161225.0304)
 -->
<!-- Title: segtree0 Pages: 1 -->
<svg width="636pt" height="340pt"
 viewBox="0.00 0.00 636.01 340.00" xmlns="http://www.w3.org/2000/svg" xmlns:xlink="http://www.w3.org/1999/xlink">
<g id="graph0" class="graph" transform="scale(1 1) rotate(0) translate(4 336)">
<title>segtree0</title>
<polygon fill="#ffffff" stroke="transparent" points="-4,4 -4,-336 632.0103,-336 632.0103,4 -4,4"/>
<!-- 0 -->
<g id="node1" class="node">
<title>0</title>
<polygon fill="none" stroke="#000000" points="277.5952,-287.5 277.5952,-331.5 427.2144,-331.5 427.2144,-287.5 277.5952,-287.5"/>
<text text-anchor="middle" x="315" y="-316.3" font-family="Courier,monospace" font-size="14.00" fill="#000000">0..6</text>
<polyline fill="none" stroke="#000000" points="277.5952,-309.5 352.4048,-309.5 "/>
<text text-anchor="middle" x="315" y="-294.3" font-family="Courier,monospace" font-size="14.00" fill="#000000">(10,90)</text>
<polyline fill="none" stroke="#000000" points="352.4048,-287.5 352.4048,-331.5 "/>
<text text-anchor="middle" x="389.8096" y="-305.3" font-family="Courier,monospace" font-size="14.00" fill="#000000">(50,80)</text>
</g>
<!-- 1 -->
<g id="node2" class="node">
<title>1</title>
<polygon fill="none" stroke="#000000" points="193.5952,-206.5 193.5952,-250.5 343.2144,-250.5 343.2144,-206.5 193.5952,-206.5"/>
<text text-anchor="middle" x="231" y="-235.3" font-family="Courier,monospace" font-size="14.00" fill="#000000">0..3</text>
<polyline fill="none" stroke="#000000" points="193.5952,-228.5 268.4048,-228.5 "/>
<text text-anchor="middle" x="231" y="-213.3" font-family="Courier,monospace" font-size="14.00" fill="#000000">(10,60)</text>
<polyline fill="none" stroke="#000000" points="268.4048,-206.5 268.4048,-250.5 "/>
<text text-anchor="middle" x="305.8096" y="-224.3" font-family="Courier,monospace" font-size="14.00" fill="#000000">(50,60)</text>
</g>
<!-- 0&#45;&gt;1 -->
<g id="edge1" class="edge">
<title>0&#45;&gt;1</title>
<path fill="none" stroke="#000000" d="M329.4514,-287.3664C319.9138,-278.1695 308.7138,-267.3694 298.5289,-257.5482"/>
<polygon fill="#000000" stroke="#000000" points="300.9584,-255.0288 291.3304,-250.6068 296.0994,-260.0677 300.9584,-255.0288"/>
</g>
<!-- 2 -->
<g id="node3" class="node">
<title>2</title>
<polygon fill="none" stroke="#000000" points="361.5952,-206.5 361.5952,-250.5 511.2144,-250.5 511.2144,-206.5 361.5952,-206.5"/>
<text text-anchor="middle" x="399" y="-235.3" font-family="Courier,monospace" font-size="14.00" fill="#000000">4..6</text>
<polyline fill="none" stroke="#000000" points="361.5952,-228.5 436.4048,-228.5 "/>
<text text-anchor="middle" x="399" y="-213.3" font-family="Courier,monospace" font-size="14.00" fill="#000000">(70,90)</text>
<polyline fill="none" stroke="#000000" points="436.4048,-206.5 436.4048,-250.5 "/>
<text text-anchor="middle" x="473.8096" y="-224.3" font-family="Courier,monospace" font-size="14.00" fill="#000000">(70,80)</text>
</g>
<!-- 0&#45;&gt;2 -->
<g id="edge2" class="edge">
<title>0&#45;&gt;2</title>
<path fill="none" stroke="#000000" d="M375.3582,-287.3664C384.8957,-278.1695 396.0958,-267.3694 406.2807,-257.5482"/>
<polygon fill="#000000" stroke="#000000" points="408.7102,-260.0677 413.4792,-250.6068 403.8512,-255.0288 408.7102,-260.0677"/>
</g>
<!-- 3 -->
<g id="node4" class="node">
<title>3</title>
<polygon fill="none" stroke="#000000" points="76.7993,-114.5 76.7993,-158.5 176.0103,-158.5 176.0103,-114.5 76.7993,-114.5"/>
<text text-anchor="middle" x="114.2041" y="-143.3" font-family="Courier,monospace" font-size="14.00" fill="#000000">0..1</text>
<polyline fill="none" stroke="#000000" points="76.7993,-136.5 151.6089,-136.5 "/>
<text text-anchor="middle" x="114.2041" y="-121.3" font-family="Courier,monospace" font-size="14.00" fill="#000000">(10,20)</text>
<polyline fill="none" stroke="#000000" points="151.6089,-114.5 151.6089,-158.5 "/>
<text text-anchor="middle" x="163.8096" y="-132.3" font-family="Courier,monospace" font-size="14.00" fill="#000000">e</text>
</g>
<!-- 1&#45;&gt;3 -->
<g id="edge3" class="edge">
<title>1&#45;&gt;3</title>
<path fill="none" stroke="#000000" d="M234.3922,-206.4637C214.7772,-193.7554 189.9368,-177.6616 169.0269,-164.1143"/>
<polygon fill="#000000" stroke="#000000" points="170.9276,-161.1754 160.6319,-158.6753 167.1214,-167.0502 170.9276,-161.1754"/>
</g>
<!-- 4 -->
<g id="node5" class="node">
<title>4</title>
<polygon fill="none" stroke="#000000" points="193.5952,-114.5 193.5952,-158.5 343.2144,-158.5 343.2144,-114.5 193.5952,-114.5"/>
<text text-anchor="middle" x="231" y="-143.3" font-family="Courier,monospace" font-size="14.00" fill="#000000">2..3</text>
<polyline fill="none" stroke="#000000" points="193.5952,-136.5 268.4048,-136.5 "/>
<text text-anchor="middle" x="231" y="-121.3" font-family="Courier,monospace" font-size="14.00" fill="#000000">(50,60)</text>
<polyline fill="none" stroke="#000000" points="268.4048,-114.5 268.4048,-158.5 "/>
<text text-anchor="middle" x="305.8096" y="-132.3" font-family="Courier,monospace" font-size="14.00" fill="#000000">(50,60)</text>
</g>
<!-- 1&#45;&gt;4 -->
<g id="edge4" class="edge">
<title>1&#45;&gt;4</title>
<path fill="none" stroke="#000000" d="M268.4048,-206.2294C268.4048,-195.0418 268.4048,-181.2756 268.4048,-168.9385"/>
<polygon fill="#000000" stroke="#000000" points="271.9049,-168.5655 268.4048,-158.5655 264.9049,-168.5656 271.9049,-168.5655"/>
</g>
<!-- 5 -->
<g id="node6" class="node">
<title>5</title>
<polygon fill="none" stroke="#000000" points="361.5952,-114.5 361.5952,-158.5 511.2144,-158.5 511.2144,-114.5 361.5952,-114.5"/>
<text text-anchor="middle" x="399" y="-143.3" font-family="Courier,monospace" font-size="14.00" fill="#000000">4..5</text>
<polyline fill="none" stroke="#000000" points="361.5952,-136.5 436.4048,-136.5 "/>
<text text-anchor="middle" x="399" y="-121.3" font-family="Courier,monospace" font-size="14.00" fill="#000000">(70,80)</text>
<polyline fill="none" stroke="#000000" points="436.4048,-114.5 436.4048,-158.5 "/>
<text text-anchor="middle" x="473.8096" y="-132.3" font-family="Courier,monospace" font-size="14.00" fill="#000000">(70,80)</text>
</g>
<!-- 2&#45;&gt;5 -->
<g id="edge5" class="edge">
<title>2&#45;&gt;5</title>
<path fill="none" stroke="#000000" d="M436.4048,-206.2294C436.4048,-195.0418 436.4048,-181.2756 436.4048,-168.9385"/>
<polygon fill="#000000" stroke="#000000" points="439.9049,-168.5655 436.4048,-158.5655 432.9049,-168.5656 439.9049,-168.5655"/>
</g>
<!-- 6 -->
<g id="node7" class="node">
<title>6</title>
<polygon fill="none" stroke="#ff0000" points="528.7993,-103.5 528.7993,-169.5 628.0103,-169.5 628.0103,-103.5 528.7993,-103.5"/>
<text text-anchor="middle" x="566.2041" y="-154.3" font-family="Courier,monospace" font-size="14.00" fill="#ff0000">6..6</text>
<polyline fill="none" stroke="#ff0000" points="528.7993,-147.5 603.6089,-147.5 "/>
<text text-anchor="middle" x="566.2041" y="-132.3" font-family="Courier,monospace" font-size="14.00" fill="#ff0000">(70,70)</text>
<polyline fill="none" stroke="#ff0000" points="528.7993,-125.5 603.6089,-125.5 "/>
<text text-anchor="middle" x="566.2041" y="-110.3" font-family="Courier,monospace" font-size="14.00" fill="#ff0000">d(1,20)</text>
<polyline fill="none" stroke="#ff0000" points="603.6089,-103.5 603.6089,-169.5 "/>
<text text-anchor="middle" x="615.8096" y="-132.3" font-family="Courier,monospace" font-size="14.00" fill="#ff0000">e</text>
</g>
<!-- 2&#45;&gt;6 -->
<g id="edge6" class="edge">
<title>2&#45;&gt;6</title>
<path fill="none" stroke="#000000" d="M470.4173,-206.4637C485.2299,-196.8669 503.0223,-185.3393 519.8517,-174.4358"/>
<polygon fill="#000000" stroke="#000000" points="522.0543,-177.1792 528.5437,-168.8044 518.248,-171.3044 522.0543,-177.1792"/>
</g>
<!-- 7 -->
<g id="node8" class="node">
<title>7</title>
<polygon fill="none" stroke="#000000" points="0,-11.5 0,-55.5 74.8096,-55.5 74.8096,-11.5 0,-11.5"/>
<text text-anchor="middle" x="37.4048" y="-40.3" font-family="Courier,monospace" font-size="14.00" fill="#000000">0..0</text>
<polyline fill="none" stroke="#000000" points="0,-33.5 74.8096,-33.5 "/>
<text text-anchor="middle" x="37.4048" y="-18.3" font-family="Courier,monospace" font-size="14.00" fill="#000000">(10,10)</text>
</g>
<!-- 3&#45;&gt;7 -->
<g id="edge7" class="edge">
<title>3&#45;&gt;7</title>
<path fill="none" stroke="#000000" d="M107.3121,-114.4039C94.4073,-99.4692 77.2155,-79.573 63.1101,-63.2489"/>
<polygon fill="#000000" stroke="#000000" points="65.6524,-60.8378 56.4659,-55.5595 60.3558,-65.4145 65.6524,-60.8378"/>
</g>
<!-- 8 -->
<g id="node9" class="node">
<title>8</title>
<polygon fill="none" stroke="#000000" points="93,-11.5 93,-55.5 167.8096,-55.5 167.8096,-11.5 93,-11.5"/>
<text text-anchor="middle" x="130.4048" y="-40.3" font-family="Courier,monospace" font-size="14.00" fill="#000000">1..1</text>
<polyline fill="none" stroke="#000000" points="93,-33.5 167.8096,-33.5 "/>
<text text-anchor="middle" x="130.4048" y="-18.3" font-family="Courier,monospace" font-size="14.00" fill="#000000">(20,20)</text>
</g>
<!-- 3&#45;&gt;8 -->
<g id="edge8" class="edge">
<title>3&#45;&gt;8</title>
<path fill="none" stroke="#000000" d="M127.2629,-114.4039C127.8112,-100.2838 128.5318,-81.7288 129.1446,-65.9506"/>
<polygon fill="#000000" stroke="#000000" points="132.6573,-65.6879 129.5481,-55.5595 125.6626,-65.4162 132.6573,-65.6879"/>
</g>
<!-- 9 -->
<g id="node10" class="node">
<title>9</title>
<polygon fill="none" stroke="#ff0000" points="201,-.5 201,-66.5 275.8096,-66.5 275.8096,-.5 201,-.5"/>
<text text-anchor="middle" x="238.4048" y="-51.3" font-family="Courier,monospace" font-size="14.00" fill="#ff0000">2..2</text>
<polyline fill="none" stroke="#ff0000" points="201,-44.5 275.8096,-44.5 "/>
<text text-anchor="middle" x="238.4048" y="-29.3" font-family="Courier,monospace" font-size="14.00" fill="#ff0000">(30,30)</text>
<polyline fill="none" stroke="#ff0000" points="201,-22.5 275.8096,-22.5 "/>
<text text-anchor="middle" x="238.4048" y="-7.3" font-family="Courier,monospace" font-size="14.00" fill="#ff0000">d(1,20)</text>
</g>
<!-- 4&#45;&gt;9 -->
<g id="edge9" class="edge">
<title>4&#45;&gt;9</title>
<path fill="none" stroke="#000000" d="M261.969,-114.4039C258.7312,-103.2874 254.6927,-89.422 250.8786,-76.3269"/>
<polygon fill="#000000" stroke="#000000" points="254.1796,-75.1438 248.0227,-66.5215 247.4588,-77.1013 254.1796,-75.1438"/>
</g>
<!-- 10 -->
<g id="node11" class="node">
<title>10</title>
<polygon fill="none" stroke="#ff0000" points="294,-.5 294,-66.5 368.8096,-66.5 368.8096,-.5 294,-.5"/>
<text text-anchor="middle" x="331.4048" y="-51.3" font-family="Courier,monospace" font-size="14.00" fill="#ff0000">3..3</text>
<polyline fill="none" stroke="#ff0000" points="294,-44.5 368.8096,-44.5 "/>
<text text-anchor="middle" x="331.4048" y="-29.3" font-family="Courier,monospace" font-size="14.00" fill="#ff0000">(40,40)</text>
<polyline fill="none" stroke="#ff0000" points="294,-22.5 368.8096,-22.5 "/>
<text text-anchor="middle" x="331.4048" y="-7.3" font-family="Courier,monospace" font-size="14.00" fill="#ff0000">d(1,20)</text>
</g>
<!-- 4&#45;&gt;10 -->
<g id="edge10" class="edge">
<title>4&#45;&gt;10</title>
<path fill="none" stroke="#000000" d="M281.9199,-114.4039C288.9193,-102.9604 297.7004,-88.604 305.9151,-75.1736"/>
<polygon fill="#000000" stroke="#000000" points="308.975,-76.8785 311.2072,-66.5215 303.0035,-73.226 308.975,-76.8785"/>
</g>
<!-- 11 -->
<g id="node12" class="node">
<title>11</title>
<polygon fill="none" stroke="#ff0000" points="395,-.5 395,-66.5 469.8096,-66.5 469.8096,-.5 395,-.5"/>
<text text-anchor="middle" x="432.4048" y="-51.3" font-family="Courier,monospace" font-size="14.00" fill="#ff0000">4..4</text>
<polyline fill="none" stroke="#ff0000" points="395,-44.5 469.8096,-44.5 "/>
<text text-anchor="middle" x="432.4048" y="-29.3" font-family="Courier,monospace" font-size="14.00" fill="#ff0000">(50,50)</text>
<polyline fill="none" stroke="#ff0000" points="395,-22.5 469.8096,-22.5 "/>
<text text-anchor="middle" x="432.4048" y="-7.3" font-family="Courier,monospace" font-size="14.00" fill="#ff0000">d(1,20)</text>
</g>
<!-- 5&#45;&gt;11 -->
<g id="edge11" class="edge">
<title>5&#45;&gt;11</title>
<path fill="none" stroke="#000000" d="M435.5467,-114.4039C435.1192,-103.3964 434.5871,-89.6936 434.0829,-76.7123"/>
<polygon fill="#000000" stroke="#000000" points="437.5727,-76.3781 433.6872,-66.5215 430.578,-76.6498 437.5727,-76.3781"/>
</g>
<!-- 12 -->
<g id="node13" class="node">
<title>12</title>
<polygon fill="none" stroke="#ff0000" points="488,-.5 488,-66.5 562.8096,-66.5 562.8096,-.5 488,-.5"/>
<text text-anchor="middle" x="525.4048" y="-51.3" font-family="Courier,monospace" font-size="14.00" fill="#ff0000">5..5</text>
<polyline fill="none" stroke="#ff0000" points="488,-44.5 562.8096,-44.5 "/>
<text text-anchor="middle" x="525.4048" y="-29.3" font-family="Courier,monospace" font-size="14.00" fill="#ff0000">(60,60)</text>
<polyline fill="none" stroke="#ff0000" points="488,-22.5 562.8096,-22.5 "/>
<text text-anchor="middle" x="525.4048" y="-7.3" font-family="Courier,monospace" font-size="14.00" fill="#ff0000">d(1,20)</text>
</g>
<!-- 5&#45;&gt;12 -->
<g id="edge12" class="edge">
<title>5&#45;&gt;12</title>
<path fill="none" stroke="#000000" d="M455.4975,-114.4039C465.5739,-102.7424 478.2641,-88.056 490.0578,-74.4072"/>
<polygon fill="#000000" stroke="#000000" points="492.9818,-76.3765 496.8716,-66.5215 487.6852,-71.7998 492.9818,-76.3765"/>
</g>
</g>
</svg>
