<?xml version="1.0" encoding="UTF-8" standalone="no"?>
<!DOCTYPE svg PUBLIC "-//W3C//DTD SVG 1.1//EN"
 "http://www.w3.org/Graphics/SVG/1.1/DTD/svg11.dtd">
<!-- Generated by graphviz version 7.1.0 (20230121.1956)
 -->
<!-- Title: segtree0 Pages: 1 -->
<svg width="633pt" height="350pt"
 viewBox="0.00 0.00 632.50 350.00" xmlns="http://www.w3.org/2000/svg" xmlns:xlink="http://www.w3.org/1999/xlink">
<g id="graph0" class="graph" transform="scale(1 1) rotate(0) translate(4 346)">
<title>segtree0</title>
<polygon fill="white" stroke="none" points="-4,4 -4,-346 628.5,-346 628.5,4 -4,4"/>
<!-- 0 -->
<g id="node1" class="node">
<title>0</title>
<polygon fill="none" stroke="black" points="276,-295.5 276,-341.5 424,-341.5 424,-295.5 276,-295.5"/>
<text text-anchor="middle" x="313" y="-326.3" font-family="Courier,monospace" font-size="14.00">0..6</text>
<polyline fill="none" stroke="black" points="276,-318.5 350,-318.5"/>
<text text-anchor="middle" x="313" y="-303.3" font-family="Courier,monospace" font-size="14.00">(10,90)</text>
<polyline fill="none" stroke="black" points="350,-295.5 350,-341.5"/>
<text text-anchor="middle" x="387" y="-314.8" font-family="Courier,monospace" font-size="14.00">(50,80)</text>
</g>
<!-- 1 -->
<g id="node2" class="node">
<title>1</title>
<polygon fill="none" stroke="black" points="193,-212.5 193,-258.5 341,-258.5 341,-212.5 193,-212.5"/>
<text text-anchor="middle" x="230" y="-243.3" font-family="Courier,monospace" font-size="14.00">0..3</text>
<polyline fill="none" stroke="black" points="193,-235.5 267,-235.5"/>
<text text-anchor="middle" x="230" y="-220.3" font-family="Courier,monospace" font-size="14.00">(10,60)</text>
<polyline fill="none" stroke="black" points="267,-212.5 267,-258.5"/>
<text text-anchor="middle" x="304" y="-231.8" font-family="Courier,monospace" font-size="14.00">(50,60)</text>
</g>
<!-- 0&#45;&gt;1 -->
<g id="edge1" class="edge">
<title>0&#45;&gt;1</title>
<path fill="none" stroke="black" d="M327.76,-295.79C318.45,-286.71 307.49,-276.02 297.46,-266.22"/>
<polygon fill="black" stroke="black" points="299.99,-263.8 290.39,-259.32 295.1,-268.81 299.99,-263.8"/>
</g>
<!-- 2 -->
<g id="node3" class="node">
<title>2</title>
<polygon fill="none" stroke="black" points="359,-212.5 359,-258.5 507,-258.5 507,-212.5 359,-212.5"/>
<text text-anchor="middle" x="396" y="-243.3" font-family="Courier,monospace" font-size="14.00">4..6</text>
<polyline fill="none" stroke="black" points="359,-235.5 433,-235.5"/>
<text text-anchor="middle" x="396" y="-220.3" font-family="Courier,monospace" font-size="14.00">(70,90)</text>
<polyline fill="none" stroke="black" points="433,-212.5 433,-258.5"/>
<text text-anchor="middle" x="470" y="-231.8" font-family="Courier,monospace" font-size="14.00">(70,80)</text>
</g>
<!-- 0&#45;&gt;2 -->
<g id="edge2" class="edge">
<title>0&#45;&gt;2</title>
<path fill="none" stroke="black" d="M372.24,-295.79C381.55,-286.71 392.51,-276.02 402.54,-266.22"/>
<polygon fill="black" stroke="black" points="404.9,-268.81 409.61,-259.32 400.01,-263.8 404.9,-268.81"/>
</g>
<!-- 3 -->
<g id="node4" class="node">
<title>3</title>
<polygon fill="none" stroke="black" points="75.5,-118 75.5,-164 174.5,-164 174.5,-118 75.5,-118"/>
<text text-anchor="middle" x="112.5" y="-148.8" font-family="Courier,monospace" font-size="14.00">0..1</text>
<polyline fill="none" stroke="black" points="75.5,-141 149.5,-141"/>
<text text-anchor="middle" x="112.5" y="-125.8" font-family="Courier,monospace" font-size="14.00">(10,20)</text>
<polyline fill="none" stroke="black" points="149.5,-118 149.5,-164"/>
<text text-anchor="middle" x="162" y="-137.3" font-family="Courier,monospace" font-size="14.00">e</text>
</g>
<!-- 1&#45;&gt;3 -->
<g id="edge3" class="edge">
<title>1&#45;&gt;3</title>
<path fill="none" stroke="black" d="M233.35,-212.58C213.81,-199.85 188.99,-183.68 168.04,-170.04"/>
<polygon fill="black" stroke="black" points="169.97,-167.12 159.68,-164.59 166.15,-172.98 169.97,-167.12"/>
</g>
<!-- 4 -->
<g id="node5" class="node">
<title>4</title>
<polygon fill="none" stroke="black" points="193,-118 193,-164 341,-164 341,-118 193,-118"/>
<text text-anchor="middle" x="230" y="-148.8" font-family="Courier,monospace" font-size="14.00">2..3</text>
<polyline fill="none" stroke="black" points="193,-141 267,-141"/>
<text text-anchor="middle" x="230" y="-125.8" font-family="Courier,monospace" font-size="14.00">(50,60)</text>
<polyline fill="none" stroke="black" points="267,-118 267,-164"/>
<text text-anchor="middle" x="304" y="-137.3" font-family="Courier,monospace" font-size="14.00">(50,60)</text>
</g>
<!-- 1&#45;&gt;4 -->
<g id="edge4" class="edge">
<title>1&#45;&gt;4</title>
<path fill="none" stroke="black" d="M267,-212.58C267,-201.4 267,-187.58 267,-175.14"/>
<polygon fill="black" stroke="black" points="270.5,-175.28 267,-165.28 263.5,-175.28 270.5,-175.28"/>
</g>
<!-- 5 -->
<g id="node6" class="node">
<title>5</title>
<polygon fill="none" stroke="black" points="359,-118 359,-164 507,-164 507,-118 359,-118"/>
<text text-anchor="middle" x="396" y="-148.8" font-family="Courier,monospace" font-size="14.00">4..5</text>
<polyline fill="none" stroke="black" points="359,-141 433,-141"/>
<text text-anchor="middle" x="396" y="-125.8" font-family="Courier,monospace" font-size="14.00">(70,80)</text>
<polyline fill="none" stroke="black" points="433,-118 433,-164"/>
<text text-anchor="middle" x="470" y="-137.3" font-family="Courier,monospace" font-size="14.00">(70,80)</text>
</g>
<!-- 2&#45;&gt;5 -->
<g id="edge5" class="edge">
<title>2&#45;&gt;5</title>
<path fill="none" stroke="black" d="M433,-212.58C433,-201.4 433,-187.58 433,-175.14"/>
<polygon fill="black" stroke="black" points="436.5,-175.28 433,-165.28 429.5,-175.28 436.5,-175.28"/>
</g>
<!-- 6 -->
<g id="node7" class="node">
<title>6</title>
<polygon fill="none" stroke="red" points="525.5,-106.5 525.5,-175.5 624.5,-175.5 624.5,-106.5 525.5,-106.5"/>
<text text-anchor="middle" x="562.5" y="-160.3" font-family="Courier,monospace" font-size="14.00" fill="red">6..6</text>
<polyline fill="none" stroke="red" points="525.5,-152.5 599.5,-152.5"/>
<text text-anchor="middle" x="562.5" y="-137.3" font-family="Courier,monospace" font-size="14.00" fill="red">(70,70)</text>
<polyline fill="none" stroke="red" points="525.5,-129.5 599.5,-129.5"/>
<text text-anchor="middle" x="562.5" y="-114.3" font-family="Courier,monospace" font-size="14.00" fill="red">d(1,20)</text>
<polyline fill="none" stroke="red" points="599.5,-106.5 599.5,-175.5"/>
<text text-anchor="middle" x="612" y="-137.3" font-family="Courier,monospace" font-size="14.00" fill="red">e</text>
</g>
<!-- 2&#45;&gt;6 -->
<g id="edge6" class="edge">
<title>2&#45;&gt;6</title>
<path fill="none" stroke="black" d="M466.65,-212.58C481.53,-202.89 499.47,-191.2 516.43,-180.16"/>
<polygon fill="black" stroke="black" points="517.99,-183.32 524.45,-174.93 514.17,-177.45 517.99,-183.32"/>
</g>
<!-- 7 -->
<g id="node8" class="node">
<title>7</title>
<polygon fill="none" stroke="black" points="0,-12 0,-58 74,-58 74,-12 0,-12"/>
<text text-anchor="middle" x="37" y="-42.8" font-family="Courier,monospace" font-size="14.00">0..0</text>
<polyline fill="none" stroke="black" points="0,-35 74,-35"/>
<text text-anchor="middle" x="37" y="-19.8" font-family="Courier,monospace" font-size="14.00">(10,10)</text>
</g>
<!-- 3&#45;&gt;7 -->
<g id="edge7" class="edge">
<title>3&#45;&gt;7</title>
<path fill="none" stroke="black" d="M106.55,-118.2C93.88,-103.22 76.88,-83.13 62.86,-66.56"/>
<polygon fill="black" stroke="black" points="65.53,-64.3 56.4,-58.93 60.19,-68.82 65.53,-64.3"/>
</g>
<!-- 8 -->
<g id="node9" class="node">
<title>8</title>
<polygon fill="none" stroke="black" points="92,-12 92,-58 166,-58 166,-12 92,-12"/>
<text text-anchor="middle" x="129" y="-42.8" font-family="Courier,monospace" font-size="14.00">1..1</text>
<polyline fill="none" stroke="black" points="92,-35 166,-35"/>
<text text-anchor="middle" x="129" y="-19.8" font-family="Courier,monospace" font-size="14.00">(20,20)</text>
</g>
<!-- 3&#45;&gt;8 -->
<g id="edge8" class="edge">
<title>3&#45;&gt;8</title>
<path fill="none" stroke="black" d="M125.84,-118.2C126.39,-103.92 127.12,-84.98 127.74,-68.88"/>
<polygon fill="black" stroke="black" points="131.22,-69.41 128.1,-59.29 124.22,-69.14 131.22,-69.41"/>
</g>
<!-- 9 -->
<g id="node10" class="node">
<title>9</title>
<polygon fill="none" stroke="red" points="200,-0.5 200,-69.5 274,-69.5 274,-0.5 200,-0.5"/>
<text text-anchor="middle" x="237" y="-54.3" font-family="Courier,monospace" font-size="14.00" fill="red">2..2</text>
<polyline fill="none" stroke="red" points="200,-46.5 274,-46.5"/>
<text text-anchor="middle" x="237" y="-31.3" font-family="Courier,monospace" font-size="14.00" fill="red">(30,30)</text>
<polyline fill="none" stroke="red" points="200,-23.5 274,-23.5"/>
<text text-anchor="middle" x="237" y="-8.3" font-family="Courier,monospace" font-size="14.00" fill="red">d(1,20)</text>
</g>
<!-- 4&#45;&gt;9 -->
<g id="edge9" class="edge">
<title>4&#45;&gt;9</title>
<path fill="none" stroke="black" d="M260.71,-118.2C257.52,-107.12 253.51,-93.25 249.71,-80.08"/>
<polygon fill="black" stroke="black" points="253.14,-79.34 247.01,-70.7 246.42,-81.28 253.14,-79.34"/>
</g>
<!-- 10 -->
<g id="node11" class="node">
<title>10</title>
<polygon fill="none" stroke="red" points="292,-0.5 292,-69.5 366,-69.5 366,-0.5 292,-0.5"/>
<text text-anchor="middle" x="329" y="-54.3" font-family="Courier,monospace" font-size="14.00" fill="red">3..3</text>
<polyline fill="none" stroke="red" points="292,-46.5 366,-46.5"/>
<text text-anchor="middle" x="329" y="-31.3" font-family="Courier,monospace" font-size="14.00" fill="red">(40,40)</text>
<polyline fill="none" stroke="red" points="292,-23.5 366,-23.5"/>
<text text-anchor="middle" x="329" y="-8.3" font-family="Courier,monospace" font-size="14.00" fill="red">d(1,20)</text>
</g>
<!-- 4&#45;&gt;10 -->
<g id="edge10" class="edge">
<title>4&#45;&gt;10</title>
<path fill="none" stroke="black" d="M280,-118.2C286.8,-106.79 295.37,-92.42 303.43,-78.89"/>
<polygon fill="black" stroke="black" points="306.29,-80.93 308.4,-70.55 300.28,-77.34 306.29,-80.93"/>
</g>
<!-- 11 -->
<g id="node12" class="node">
<title>11</title>
<polygon fill="none" stroke="red" points="392,-0.5 392,-69.5 466,-69.5 466,-0.5 392,-0.5"/>
<text text-anchor="middle" x="429" y="-54.3" font-family="Courier,monospace" font-size="14.00" fill="red">4..4</text>
<polyline fill="none" stroke="red" points="392,-46.5 466,-46.5"/>
<text text-anchor="middle" x="429" y="-31.3" font-family="Courier,monospace" font-size="14.00" fill="red">(50,50)</text>
<polyline fill="none" stroke="red" points="392,-23.5 466,-23.5"/>
<text text-anchor="middle" x="429" y="-8.3" font-family="Courier,monospace" font-size="14.00" fill="red">d(1,20)</text>
</g>
<!-- 5&#45;&gt;11 -->
<g id="edge11" class="edge">
<title>5&#45;&gt;11</title>
<path fill="none" stroke="black" d="M432.16,-118.2C431.74,-107.23 431.21,-93.53 430.71,-80.47"/>
<polygon fill="black" stroke="black" points="434.22,-80.62 430.34,-70.76 427.22,-80.89 434.22,-80.62"/>
</g>
<!-- 12 -->
<g id="node13" class="node">
<title>12</title>
<polygon fill="none" stroke="red" points="484,-0.5 484,-69.5 558,-69.5 558,-0.5 484,-0.5"/>
<text text-anchor="middle" x="521" y="-54.3" font-family="Courier,monospace" font-size="14.00" fill="red">5..5</text>
<polyline fill="none" stroke="red" points="484,-46.5 558,-46.5"/>
<text text-anchor="middle" x="521" y="-31.3" font-family="Courier,monospace" font-size="14.00" fill="red">(60,60)</text>
<polyline fill="none" stroke="red" points="484,-23.5 558,-23.5"/>
<text text-anchor="middle" x="521" y="-8.3" font-family="Courier,monospace" font-size="14.00" fill="red">d(1,20)</text>
</g>
<!-- 5&#45;&gt;12 -->
<g id="edge12" class="edge">
<title>5&#45;&gt;12</title>
<path fill="none" stroke="black" d="M451.45,-118.2C461.38,-106.46 473.97,-91.58 485.71,-77.71"/>
<polygon fill="black" stroke="black" points="488.1,-80.3 491.89,-70.4 482.76,-75.78 488.1,-80.3"/>
</g>
</g>
</svg>
