<?xml version="1.0" encoding="UTF-8" standalone="no"?>
<!DOCTYPE svg PUBLIC "-//W3C//DTD SVG 1.1//EN"
 "http://www.w3.org/Graphics/SVG/1.1/DTD/svg11.dtd">
<!-- Generated by graphviz version 2.48.0 (20210717.1556)
 -->
<!-- Title: segtree0 Pages: 1 -->
<svg width="639pt" height="350pt"
 viewBox="0.00 0.00 638.50 350.00" xmlns="http://www.w3.org/2000/svg" xmlns:xlink="http://www.w3.org/1999/xlink">
<g id="graph0" class="graph" transform="scale(1 1) rotate(0) translate(4 346)">
<title>segtree0</title>
<polygon fill="white" stroke="transparent" points="-4,4 -4,-346 634.5,-346 634.5,4 -4,4"/>
<!-- 0 -->
<g id="node1" class="node">
<title>0</title>
<polygon fill="none" stroke="black" points="278.5,-295.5 278.5,-341.5 428.5,-341.5 428.5,-295.5 278.5,-295.5"/>
<text text-anchor="middle" x="316" y="-326.3" font-family="Courier,monospace" font-size="14.00">0..6</text>
<polyline fill="none" stroke="black" points="278.5,-318.5 353.5,-318.5 "/>
<text text-anchor="middle" x="316" y="-303.3" font-family="Courier,monospace" font-size="14.00">(10,90)</text>
<polyline fill="none" stroke="black" points="353.5,-295.5 353.5,-341.5 "/>
<text text-anchor="middle" x="391" y="-314.8" font-family="Courier,monospace" font-size="14.00">(50,80)</text>
</g>
<!-- 1 -->
<g id="node2" class="node">
<title>1</title>
<polygon fill="none" stroke="black" points="194.5,-212.5 194.5,-258.5 344.5,-258.5 344.5,-212.5 194.5,-212.5"/>
<text text-anchor="middle" x="232" y="-243.3" font-family="Courier,monospace" font-size="14.00">0..3</text>
<polyline fill="none" stroke="black" points="194.5,-235.5 269.5,-235.5 "/>
<text text-anchor="middle" x="232" y="-220.3" font-family="Courier,monospace" font-size="14.00">(10,60)</text>
<polyline fill="none" stroke="black" points="269.5,-212.5 269.5,-258.5 "/>
<text text-anchor="middle" x="307" y="-231.8" font-family="Courier,monospace" font-size="14.00">(50,60)</text>
</g>
<!-- 0&#45;&gt;1 -->
<g id="edge1" class="edge">
<title>0&#45;&gt;1</title>
<path fill="none" stroke="black" d="M330.55,-295.37C321.01,-286.17 309.81,-275.37 299.62,-265.55"/>
<polygon fill="black" stroke="black" points="302.05,-263.03 292.43,-258.61 297.19,-268.07 302.05,-263.03"/>
</g>
<!-- 2 -->
<g id="node3" class="node">
<title>2</title>
<polygon fill="none" stroke="black" points="362.5,-212.5 362.5,-258.5 512.5,-258.5 512.5,-212.5 362.5,-212.5"/>
<text text-anchor="middle" x="400" y="-243.3" font-family="Courier,monospace" font-size="14.00">4..6</text>
<polyline fill="none" stroke="black" points="362.5,-235.5 437.5,-235.5 "/>
<text text-anchor="middle" x="400" y="-220.3" font-family="Courier,monospace" font-size="14.00">(70,90)</text>
<polyline fill="none" stroke="black" points="437.5,-212.5 437.5,-258.5 "/>
<text text-anchor="middle" x="475" y="-231.8" font-family="Courier,monospace" font-size="14.00">(70,80)</text>
</g>
<!-- 0&#45;&gt;2 -->
<g id="edge2" class="edge">
<title>0&#45;&gt;2</title>
<path fill="none" stroke="black" d="M376.45,-295.37C385.99,-286.17 397.19,-275.37 407.38,-265.55"/>
<polygon fill="black" stroke="black" points="409.81,-268.07 414.57,-258.61 404.95,-263.03 409.81,-268.07"/>
</g>
<!-- 3 -->
<g id="node4" class="node">
<title>3</title>
<polygon fill="none" stroke="black" points="76.5,-118 76.5,-164 176.5,-164 176.5,-118 76.5,-118"/>
<text text-anchor="middle" x="114" y="-148.8" font-family="Courier,monospace" font-size="14.00">0..1</text>
<polyline fill="none" stroke="black" points="76.5,-141 151.5,-141 "/>
<text text-anchor="middle" x="114" y="-125.8" font-family="Courier,monospace" font-size="14.00">(10,20)</text>
<polyline fill="none" stroke="black" points="151.5,-118 151.5,-164 "/>
<text text-anchor="middle" x="164" y="-137.3" font-family="Courier,monospace" font-size="14.00">e</text>
</g>
<!-- 1&#45;&gt;3 -->
<g id="edge3" class="edge">
<title>1&#45;&gt;3</title>
<path fill="none" stroke="black" d="M235.25,-212.34C215.49,-199.57 190.48,-183.39 169.42,-169.76"/>
<polygon fill="black" stroke="black" points="171.27,-166.79 160.97,-164.3 167.46,-172.67 171.27,-166.79"/>
</g>
<!-- 4 -->
<g id="node5" class="node">
<title>4</title>
<polygon fill="none" stroke="black" points="194.5,-118 194.5,-164 344.5,-164 344.5,-118 194.5,-118"/>
<text text-anchor="middle" x="232" y="-148.8" font-family="Courier,monospace" font-size="14.00">2..3</text>
<polyline fill="none" stroke="black" points="194.5,-141 269.5,-141 "/>
<text text-anchor="middle" x="232" y="-125.8" font-family="Courier,monospace" font-size="14.00">(50,60)</text>
<polyline fill="none" stroke="black" points="269.5,-118 269.5,-164 "/>
<text text-anchor="middle" x="307" y="-137.3" font-family="Courier,monospace" font-size="14.00">(50,60)</text>
</g>
<!-- 1&#45;&gt;4 -->
<g id="edge4" class="edge">
<title>1&#45;&gt;4</title>
<path fill="none" stroke="black" d="M269.5,-212.11C269.5,-200.75 269.5,-186.74 269.5,-174.24"/>
<polygon fill="black" stroke="black" points="273,-174.19 269.5,-164.19 266,-174.19 273,-174.19"/>
</g>
<!-- 5 -->
<g id="node6" class="node">
<title>5</title>
<polygon fill="none" stroke="black" points="362.5,-118 362.5,-164 512.5,-164 512.5,-118 362.5,-118"/>
<text text-anchor="middle" x="400" y="-148.8" font-family="Courier,monospace" font-size="14.00">4..5</text>
<polyline fill="none" stroke="black" points="362.5,-141 437.5,-141 "/>
<text text-anchor="middle" x="400" y="-125.8" font-family="Courier,monospace" font-size="14.00">(70,80)</text>
<polyline fill="none" stroke="black" points="437.5,-118 437.5,-164 "/>
<text text-anchor="middle" x="475" y="-137.3" font-family="Courier,monospace" font-size="14.00">(70,80)</text>
</g>
<!-- 2&#45;&gt;5 -->
<g id="edge5" class="edge">
<title>2&#45;&gt;5</title>
<path fill="none" stroke="black" d="M437.5,-212.11C437.5,-200.75 437.5,-186.74 437.5,-174.24"/>
<polygon fill="black" stroke="black" points="441,-174.19 437.5,-164.19 434,-174.19 441,-174.19"/>
</g>
<!-- 6 -->
<g id="node7" class="node">
<title>6</title>
<polygon fill="none" stroke="red" points="530.5,-106.5 530.5,-175.5 630.5,-175.5 630.5,-106.5 530.5,-106.5"/>
<text text-anchor="middle" x="568" y="-160.3" font-family="Courier,monospace" font-size="14.00" fill="red">6..6</text>
<polyline fill="none" stroke="red" points="530.5,-152.5 605.5,-152.5 "/>
<text text-anchor="middle" x="568" y="-137.3" font-family="Courier,monospace" font-size="14.00" fill="red">(70,70)</text>
<polyline fill="none" stroke="red" points="530.5,-129.5 605.5,-129.5 "/>
<text text-anchor="middle" x="568" y="-114.3" font-family="Courier,monospace" font-size="14.00" fill="red">d(1,20)</text>
<polyline fill="none" stroke="red" points="605.5,-106.5 605.5,-175.5 "/>
<text text-anchor="middle" x="618" y="-137.3" font-family="Courier,monospace" font-size="14.00" fill="red">e</text>
</g>
<!-- 2&#45;&gt;6 -->
<g id="edge6" class="edge">
<title>2&#45;&gt;6</title>
<path fill="none" stroke="black" d="M471.75,-212.34C486.67,-202.69 504.59,-191.1 521.53,-180.14"/>
<polygon fill="black" stroke="black" points="523.79,-182.85 530.29,-174.48 519.99,-176.97 523.79,-182.85"/>
</g>
<!-- 7 -->
<g id="node8" class="node">
<title>7</title>
<polygon fill="none" stroke="black" points="0,-12 0,-58 75,-58 75,-12 0,-12"/>
<text text-anchor="middle" x="37.5" y="-42.8" font-family="Courier,monospace" font-size="14.00">0..0</text>
<polyline fill="none" stroke="black" points="0,-35 75,-35 "/>
<text text-anchor="middle" x="37.5" y="-19.8" font-family="Courier,monospace" font-size="14.00">(10,10)</text>
</g>
<!-- 3&#45;&gt;7 -->
<g id="edge7" class="edge">
<title>3&#45;&gt;7</title>
<path fill="none" stroke="black" d="M107.63,-117.94C94.65,-102.78 77.25,-82.45 63.04,-65.84"/>
<polygon fill="black" stroke="black" points="65.51,-63.35 56.35,-58.02 60.19,-67.9 65.51,-63.35"/>
</g>
<!-- 8 -->
<g id="node9" class="node">
<title>8</title>
<polygon fill="none" stroke="black" points="93,-12 93,-58 168,-58 168,-12 93,-12"/>
<text text-anchor="middle" x="130.5" y="-42.8" font-family="Courier,monospace" font-size="14.00">1..1</text>
<polyline fill="none" stroke="black" points="93,-35 168,-35 "/>
<text text-anchor="middle" x="130.5" y="-19.8" font-family="Courier,monospace" font-size="14.00">(20,20)</text>
</g>
<!-- 3&#45;&gt;8 -->
<g id="edge8" class="edge">
<title>3&#45;&gt;8</title>
<path fill="none" stroke="black" d="M127.35,-117.94C127.91,-103.47 128.64,-84.29 129.26,-68.13"/>
<polygon fill="black" stroke="black" points="132.77,-68.15 129.65,-58.02 125.77,-67.88 132.77,-68.15"/>
</g>
<!-- 9 -->
<g id="node10" class="node">
<title>9</title>
<polygon fill="none" stroke="red" points="202,-0.5 202,-69.5 277,-69.5 277,-0.5 202,-0.5"/>
<text text-anchor="middle" x="239.5" y="-54.3" font-family="Courier,monospace" font-size="14.00" fill="red">2..2</text>
<polyline fill="none" stroke="red" points="202,-46.5 277,-46.5 "/>
<text text-anchor="middle" x="239.5" y="-31.3" font-family="Courier,monospace" font-size="14.00" fill="red">(30,30)</text>
<polyline fill="none" stroke="red" points="202,-23.5 277,-23.5 "/>
<text text-anchor="middle" x="239.5" y="-8.3" font-family="Courier,monospace" font-size="14.00" fill="red">d(1,20)</text>
</g>
<!-- 4&#45;&gt;9 -->
<g id="edge9" class="edge">
<title>4&#45;&gt;9</title>
<path fill="none" stroke="black" d="M263.14,-117.94C259.93,-106.83 255.92,-92.94 252.13,-79.77"/>
<polygon fill="black" stroke="black" points="255.41,-78.54 249.28,-69.9 248.69,-80.48 255.41,-78.54"/>
</g>
<!-- 10 -->
<g id="node11" class="node">
<title>10</title>
<polygon fill="none" stroke="red" points="295,-0.5 295,-69.5 370,-69.5 370,-0.5 295,-0.5"/>
<text text-anchor="middle" x="332.5" y="-54.3" font-family="Courier,monospace" font-size="14.00" fill="red">3..3</text>
<polyline fill="none" stroke="red" points="295,-46.5 370,-46.5 "/>
<text text-anchor="middle" x="332.5" y="-31.3" font-family="Courier,monospace" font-size="14.00" fill="red">(40,40)</text>
<polyline fill="none" stroke="red" points="295,-23.5 370,-23.5 "/>
<text text-anchor="middle" x="332.5" y="-8.3" font-family="Courier,monospace" font-size="14.00" fill="red">d(1,20)</text>
</g>
<!-- 4&#45;&gt;10 -->
<g id="edge10" class="edge">
<title>4&#45;&gt;10</title>
<path fill="none" stroke="black" d="M282.86,-117.94C289.79,-106.5 298.51,-92.12 306.69,-78.61"/>
<polygon fill="black" stroke="black" points="309.78,-80.27 311.96,-69.9 303.79,-76.64 309.78,-80.27"/>
</g>
<!-- 11 -->
<g id="node12" class="node">
<title>11</title>
<polygon fill="none" stroke="red" points="396,-0.5 396,-69.5 471,-69.5 471,-0.5 396,-0.5"/>
<text text-anchor="middle" x="433.5" y="-54.3" font-family="Courier,monospace" font-size="14.00" fill="red">4..4</text>
<polyline fill="none" stroke="red" points="396,-46.5 471,-46.5 "/>
<text text-anchor="middle" x="433.5" y="-31.3" font-family="Courier,monospace" font-size="14.00" fill="red">(50,50)</text>
<polyline fill="none" stroke="red" points="396,-23.5 471,-23.5 "/>
<text text-anchor="middle" x="433.5" y="-8.3" font-family="Courier,monospace" font-size="14.00" fill="red">d(1,20)</text>
</g>
<!-- 5&#45;&gt;11 -->
<g id="edge11" class="edge">
<title>5&#45;&gt;11</title>
<path fill="none" stroke="black" d="M436.65,-117.94C436.23,-106.93 435.7,-93.21 435.2,-80.16"/>
<polygon fill="black" stroke="black" points="438.69,-79.76 434.8,-69.9 431.69,-80.03 438.69,-79.76"/>
</g>
<!-- 12 -->
<g id="node13" class="node">
<title>12</title>
<polygon fill="none" stroke="red" points="489,-0.5 489,-69.5 564,-69.5 564,-0.5 489,-0.5"/>
<text text-anchor="middle" x="526.5" y="-54.3" font-family="Courier,monospace" font-size="14.00" fill="red">5..5</text>
<polyline fill="none" stroke="red" points="489,-46.5 564,-46.5 "/>
<text text-anchor="middle" x="526.5" y="-31.3" font-family="Courier,monospace" font-size="14.00" fill="red">(60,60)</text>
<polyline fill="none" stroke="red" points="489,-23.5 564,-23.5 "/>
<text text-anchor="middle" x="526.5" y="-8.3" font-family="Courier,monospace" font-size="14.00" fill="red">d(1,20)</text>
</g>
<!-- 5&#45;&gt;12 -->
<g id="edge12" class="edge">
<title>5&#45;&gt;12</title>
<path fill="none" stroke="black" d="M456.37,-117.94C466.36,-106.28 478.95,-91.57 490.69,-77.84"/>
<polygon fill="black" stroke="black" points="493.65,-79.77 497.49,-69.9 488.33,-75.22 493.65,-79.77"/>
</g>
</g>
</svg>
