<?xml version="1.0" encoding="UTF-8" standalone="no"?>
<!DOCTYPE svg PUBLIC "-//W3C//DTD SVG 1.1//EN"
 "http://www.w3.org/Graphics/SVG/1.1/DTD/svg11.dtd">
<!-- Generated by graphviz version 2.44.1 (20200629.0846)
 -->
<!-- Title: segtree0 Pages: 1 -->
<svg width="633pt" height="350pt"
 viewBox="0.00 0.00 632.50 350.00" xmlns="http://www.w3.org/2000/svg" xmlns:xlink="http://www.w3.org/1999/xlink">
<g id="graph0" class="graph" transform="scale(1 1) rotate(0) translate(4 346)">
<title>segtree0</title>
<polygon fill="white" stroke="transparent" points="-4,4 -4,-346 628.5,-346 628.5,4 -4,4"/>
<!-- 0 -->
<g id="node1" class="node">
<title>0</title>
<polygon fill="none" stroke="black" points="276,-295.5 276,-341.5 424,-341.5 424,-295.5 276,-295.5"/>
<text text-anchor="middle" x="313" y="-326.3" font-family="Courier,monospace" font-size="14.00">0..6</text>
<polyline fill="none" stroke="black" points="276,-318.5 350,-318.5 "/>
<text text-anchor="middle" x="313" y="-303.3" font-family="Courier,monospace" font-size="14.00">(10,90)</text>
<polyline fill="none" stroke="black" points="350,-295.5 350,-341.5 "/>
<text text-anchor="middle" x="387" y="-314.8" font-family="Courier,monospace" font-size="14.00">(50,80)</text>
</g>
<!-- 1 -->
<g id="node2" class="node">
<title>1</title>
<polygon fill="none" stroke="black" points="193,-212.5 193,-258.5 341,-258.5 341,-212.5 193,-212.5"/>
<text text-anchor="middle" x="230" y="-243.3" font-family="Courier,monospace" font-size="14.00">0..3</text>
<polyline fill="none" stroke="black" points="193,-235.5 267,-235.5 "/>
<text text-anchor="middle" x="230" y="-220.3" font-family="Courier,monospace" font-size="14.00">(10,60)</text>
<polyline fill="none" stroke="black" points="267,-212.5 267,-258.5 "/>
<text text-anchor="middle" x="304" y="-231.8" font-family="Courier,monospace" font-size="14.00">(50,60)</text>
</g>
<!-- 0&#45;&gt;1 -->
<g id="edge1" class="edge">
<title>0&#45;&gt;1</title>
<path fill="none" stroke="black" d="M327.32,-295.37C317.99,-286.26 307.04,-275.58 297.06,-265.83"/>
<polygon fill="black" stroke="black" points="299.25,-263.09 289.65,-258.61 294.36,-268.1 299.25,-263.09"/>
</g>
<!-- 2 -->
<g id="node3" class="node">
<title>2</title>
<polygon fill="none" stroke="black" points="359,-212.5 359,-258.5 507,-258.5 507,-212.5 359,-212.5"/>
<text text-anchor="middle" x="396" y="-243.3" font-family="Courier,monospace" font-size="14.00">4..6</text>
<polyline fill="none" stroke="black" points="359,-235.5 433,-235.5 "/>
<text text-anchor="middle" x="396" y="-220.3" font-family="Courier,monospace" font-size="14.00">(70,90)</text>
<polyline fill="none" stroke="black" points="433,-212.5 433,-258.5 "/>
<text text-anchor="middle" x="470" y="-231.8" font-family="Courier,monospace" font-size="14.00">(70,80)</text>
</g>
<!-- 0&#45;&gt;2 -->
<g id="edge2" class="edge">
<title>0&#45;&gt;2</title>
<path fill="none" stroke="black" d="M372.68,-295.37C382.01,-286.26 392.96,-275.58 402.94,-265.83"/>
<polygon fill="black" stroke="black" points="405.64,-268.1 410.35,-258.61 400.75,-263.09 405.64,-268.1"/>
</g>
<!-- 3 -->
<g id="node4" class="node">
<title>3</title>
<polygon fill="none" stroke="black" points="75.5,-118 75.5,-164 174.5,-164 174.5,-118 75.5,-118"/>
<text text-anchor="middle" x="112.5" y="-148.8" font-family="Courier,monospace" font-size="14.00">0..1</text>
<polyline fill="none" stroke="black" points="75.5,-141 149.5,-141 "/>
<text text-anchor="middle" x="112.5" y="-125.8" font-family="Courier,monospace" font-size="14.00">(10,20)</text>
<polyline fill="none" stroke="black" points="149.5,-118 149.5,-164 "/>
<text text-anchor="middle" x="162" y="-137.3" font-family="Courier,monospace" font-size="14.00">e</text>
</g>
<!-- 1&#45;&gt;3 -->
<g id="edge3" class="edge">
<title>1&#45;&gt;3</title>
<path fill="none" stroke="black" d="M232.99,-212.34C213.37,-199.57 188.53,-183.39 167.62,-169.76"/>
<polygon fill="black" stroke="black" points="169.52,-166.82 159.23,-164.3 165.7,-172.69 169.52,-166.82"/>
</g>
<!-- 4 -->
<g id="node5" class="node">
<title>4</title>
<polygon fill="none" stroke="black" points="193,-118 193,-164 341,-164 341,-118 193,-118"/>
<text text-anchor="middle" x="230" y="-148.8" font-family="Courier,monospace" font-size="14.00">2..3</text>
<polyline fill="none" stroke="black" points="193,-141 267,-141 "/>
<text text-anchor="middle" x="230" y="-125.8" font-family="Courier,monospace" font-size="14.00">(50,60)</text>
<polyline fill="none" stroke="black" points="267,-118 267,-164 "/>
<text text-anchor="middle" x="304" y="-137.3" font-family="Courier,monospace" font-size="14.00">(50,60)</text>
</g>
<!-- 1&#45;&gt;4 -->
<g id="edge4" class="edge">
<title>1&#45;&gt;4</title>
<path fill="none" stroke="black" d="M267,-212.11C267,-200.75 267,-186.74 267,-174.24"/>
<polygon fill="black" stroke="black" points="270.5,-174.19 267,-164.19 263.5,-174.19 270.5,-174.19"/>
</g>
<!-- 5 -->
<g id="node6" class="node">
<title>5</title>
<polygon fill="none" stroke="black" points="359,-118 359,-164 507,-164 507,-118 359,-118"/>
<text text-anchor="middle" x="396" y="-148.8" font-family="Courier,monospace" font-size="14.00">4..5</text>
<polyline fill="none" stroke="black" points="359,-141 433,-141 "/>
<text text-anchor="middle" x="396" y="-125.8" font-family="Courier,monospace" font-size="14.00">(70,80)</text>
<polyline fill="none" stroke="black" points="433,-118 433,-164 "/>
<text text-anchor="middle" x="470" y="-137.3" font-family="Courier,monospace" font-size="14.00">(70,80)</text>
</g>
<!-- 2&#45;&gt;5 -->
<g id="edge5" class="edge">
<title>2&#45;&gt;5</title>
<path fill="none" stroke="black" d="M433,-212.11C433,-200.75 433,-186.74 433,-174.24"/>
<polygon fill="black" stroke="black" points="436.5,-174.19 433,-164.19 429.5,-174.19 436.5,-174.19"/>
</g>
<!-- 6 -->
<g id="node7" class="node">
<title>6</title>
<polygon fill="none" stroke="red" points="525.5,-106.5 525.5,-175.5 624.5,-175.5 624.5,-106.5 525.5,-106.5"/>
<text text-anchor="middle" x="562.5" y="-160.3" font-family="Courier,monospace" font-size="14.00" fill="red">6..6</text>
<polyline fill="none" stroke="red" points="525.5,-152.5 599.5,-152.5 "/>
<text text-anchor="middle" x="562.5" y="-137.3" font-family="Courier,monospace" font-size="14.00" fill="red">(70,70)</text>
<polyline fill="none" stroke="red" points="525.5,-129.5 599.5,-129.5 "/>
<text text-anchor="middle" x="562.5" y="-114.3" font-family="Courier,monospace" font-size="14.00" fill="red">d(1,20)</text>
<polyline fill="none" stroke="red" points="599.5,-106.5 599.5,-175.5 "/>
<text text-anchor="middle" x="612" y="-137.3" font-family="Courier,monospace" font-size="14.00" fill="red">e</text>
</g>
<!-- 2&#45;&gt;6 -->
<g id="edge6" class="edge">
<title>2&#45;&gt;6</title>
<path fill="none" stroke="black" d="M467.01,-212.34C481.89,-202.65 499.79,-191 516.68,-179.99"/>
<polygon fill="black" stroke="black" points="518.94,-182.69 525.41,-174.3 515.12,-176.83 518.94,-182.69"/>
</g>
<!-- 7 -->
<g id="node8" class="node">
<title>7</title>
<polygon fill="none" stroke="black" points="0,-12 0,-58 74,-58 74,-12 0,-12"/>
<text text-anchor="middle" x="37" y="-42.8" font-family="Courier,monospace" font-size="14.00">0..0</text>
<polyline fill="none" stroke="black" points="0,-35 74,-35 "/>
<text text-anchor="middle" x="37" y="-19.8" font-family="Courier,monospace" font-size="14.00">(10,10)</text>
</g>
<!-- 3&#45;&gt;7 -->
<g id="edge7" class="edge">
<title>3&#45;&gt;7</title>
<path fill="none" stroke="black" d="M106.34,-117.94C93.5,-102.78 76.31,-82.45 62.25,-65.84"/>
<polygon fill="black" stroke="black" points="64.77,-63.4 55.64,-58.02 59.42,-67.92 64.77,-63.4"/>
</g>
<!-- 8 -->
<g id="node9" class="node">
<title>8</title>
<polygon fill="none" stroke="black" points="92,-12 92,-58 166,-58 166,-12 92,-12"/>
<text text-anchor="middle" x="129" y="-42.8" font-family="Courier,monospace" font-size="14.00">1..1</text>
<polyline fill="none" stroke="black" points="92,-35 166,-35 "/>
<text text-anchor="middle" x="129" y="-19.8" font-family="Courier,monospace" font-size="14.00">(20,20)</text>
</g>
<!-- 3&#45;&gt;8 -->
<g id="edge8" class="edge">
<title>3&#45;&gt;8</title>
<path fill="none" stroke="black" d="M125.85,-117.94C126.41,-103.47 127.14,-84.29 127.76,-68.13"/>
<polygon fill="black" stroke="black" points="131.27,-68.15 128.15,-58.02 124.27,-67.88 131.27,-68.15"/>
</g>
<!-- 9 -->
<g id="node10" class="node">
<title>9</title>
<polygon fill="none" stroke="red" points="200,-0.5 200,-69.5 274,-69.5 274,-0.5 200,-0.5"/>
<text text-anchor="middle" x="237" y="-54.3" font-family="Courier,monospace" font-size="14.00" fill="red">2..2</text>
<polyline fill="none" stroke="red" points="200,-46.5 274,-46.5 "/>
<text text-anchor="middle" x="237" y="-31.3" font-family="Courier,monospace" font-size="14.00" fill="red">(30,30)</text>
<polyline fill="none" stroke="red" points="200,-23.5 274,-23.5 "/>
<text text-anchor="middle" x="237" y="-8.3" font-family="Courier,monospace" font-size="14.00" fill="red">d(1,20)</text>
</g>
<!-- 4&#45;&gt;9 -->
<g id="edge9" class="edge">
<title>4&#45;&gt;9</title>
<path fill="none" stroke="black" d="M260.64,-117.94C257.43,-106.83 253.42,-92.94 249.63,-79.77"/>
<polygon fill="black" stroke="black" points="252.91,-78.54 246.78,-69.9 246.19,-80.48 252.91,-78.54"/>
</g>
<!-- 10 -->
<g id="node11" class="node">
<title>10</title>
<polygon fill="none" stroke="red" points="292,-0.5 292,-69.5 366,-69.5 366,-0.5 292,-0.5"/>
<text text-anchor="middle" x="329" y="-54.3" font-family="Courier,monospace" font-size="14.00" fill="red">3..3</text>
<polyline fill="none" stroke="red" points="292,-46.5 366,-46.5 "/>
<text text-anchor="middle" x="329" y="-31.3" font-family="Courier,monospace" font-size="14.00" fill="red">(40,40)</text>
<polyline fill="none" stroke="red" points="292,-23.5 366,-23.5 "/>
<text text-anchor="middle" x="329" y="-8.3" font-family="Courier,monospace" font-size="14.00" fill="red">d(1,20)</text>
</g>
<!-- 4&#45;&gt;10 -->
<g id="edge10" class="edge">
<title>4&#45;&gt;10</title>
<path fill="none" stroke="black" d="M280.15,-117.94C286.97,-106.5 295.55,-92.12 303.6,-78.61"/>
<polygon fill="black" stroke="black" points="306.68,-80.28 308.79,-69.9 300.66,-76.7 306.68,-80.28"/>
</g>
<!-- 11 -->
<g id="node12" class="node">
<title>11</title>
<polygon fill="none" stroke="red" points="392,-0.5 392,-69.5 466,-69.5 466,-0.5 392,-0.5"/>
<text text-anchor="middle" x="429" y="-54.3" font-family="Courier,monospace" font-size="14.00" fill="red">4..4</text>
<polyline fill="none" stroke="red" points="392,-46.5 466,-46.5 "/>
<text text-anchor="middle" x="429" y="-31.3" font-family="Courier,monospace" font-size="14.00" fill="red">(50,50)</text>
<polyline fill="none" stroke="red" points="392,-23.5 466,-23.5 "/>
<text text-anchor="middle" x="429" y="-8.3" font-family="Courier,monospace" font-size="14.00" fill="red">d(1,20)</text>
</g>
<!-- 5&#45;&gt;11 -->
<g id="edge11" class="edge">
<title>5&#45;&gt;11</title>
<path fill="none" stroke="black" d="M432.15,-117.94C431.73,-106.93 431.2,-93.21 430.7,-80.16"/>
<polygon fill="black" stroke="black" points="434.19,-79.76 430.3,-69.9 427.19,-80.03 434.19,-79.76"/>
</g>
<!-- 12 -->
<g id="node13" class="node">
<title>12</title>
<polygon fill="none" stroke="red" points="484,-0.5 484,-69.5 558,-69.5 558,-0.5 484,-0.5"/>
<text text-anchor="middle" x="521" y="-54.3" font-family="Courier,monospace" font-size="14.00" fill="red">5..5</text>
<polyline fill="none" stroke="red" points="484,-46.5 558,-46.5 "/>
<text text-anchor="middle" x="521" y="-31.3" font-family="Courier,monospace" font-size="14.00" fill="red">(60,60)</text>
<polyline fill="none" stroke="red" points="484,-23.5 558,-23.5 "/>
<text text-anchor="middle" x="521" y="-8.3" font-family="Courier,monospace" font-size="14.00" fill="red">d(1,20)</text>
</g>
<!-- 5&#45;&gt;12 -->
<g id="edge12" class="edge">
<title>5&#45;&gt;12</title>
<path fill="none" stroke="black" d="M451.66,-117.94C461.53,-106.28 473.98,-91.57 485.6,-77.84"/>
<polygon fill="black" stroke="black" points="488.53,-79.8 492.31,-69.9 483.18,-75.27 488.53,-79.8"/>
</g>
</g>
</svg>
