<?xml version="1.0" encoding="UTF-8" standalone="no"?>
<!DOCTYPE svg PUBLIC "-//W3C//DTD SVG 1.1//EN"
 "http://www.w3.org/Graphics/SVG/1.1/DTD/svg11.dtd">
<!-- Generated by graphviz version 8.0.5 (20230430.1635)
 -->
<!-- Title: segtree0 Pages: 1 -->
<svg width="542pt" height="390pt"
 viewBox="0.00 0.00 541.75 389.50" xmlns="http://www.w3.org/2000/svg" xmlns:xlink="http://www.w3.org/1999/xlink">
<g id="graph0" class="graph" transform="scale(1 1) rotate(0) translate(4 385.5)">
<title>segtree0</title>
<polygon fill="white" stroke="none" points="-4,4 -4,-385.5 537.75,-385.5 537.75,4 -4,4"/>
<!-- 0 -->
<g id="node1" class="node">
<title>0</title>
<polygon fill="none" stroke="blue" points="317.88,-332 317.88,-381 399.88,-381 399.88,-332 317.88,-332"/>
<text text-anchor="middle" x="358.88" y="-363.7" font-family="Courier,monospace" font-size="14.00" fill="blue">0..6</text>
<polyline fill="none" stroke="blue" points="317.88,-356.5 399.88,-356.5"/>
<text text-anchor="middle" x="358.88" y="-339.2" font-family="Courier,monospace" font-size="14.00" fill="blue">(20,100)</text>
</g>
<!-- 1 -->
<g id="node2" class="node">
<title>1</title>
<polygon fill="none" stroke="red" points="230,-221.5 230,-295 303.75,-295 303.75,-221.5 230,-221.5"/>
<text text-anchor="middle" x="266.88" y="-277.7" font-family="Courier,monospace" font-size="14.00" fill="red">0..3</text>
<polyline fill="none" stroke="red" points="230,-270.5 303.75,-270.5"/>
<text text-anchor="middle" x="266.88" y="-253.2" font-family="Courier,monospace" font-size="14.00" fill="red">(10,60)</text>
<polyline fill="none" stroke="red" points="230,-246 303.75,-246"/>
<text text-anchor="middle" x="266.88" y="-228.7" font-family="Courier,monospace" font-size="14.00" fill="red">d(1,10)</text>
</g>
<!-- 0&#45;&gt;1 -->
<g id="edge1" class="edge">
<title>0&#45;&gt;1</title>
<path fill="none" stroke="black" d="M336.6,-332.2C328.04,-323.24 317.97,-312.71 308.19,-302.47"/>
<polygon fill="black" stroke="black" points="311.23,-300.55 301.79,-295.74 306.17,-305.38 311.23,-300.55"/>
</g>
<!-- 2 -->
<g id="node3" class="node">
<title>2</title>
<polygon fill="none" stroke="red" points="368,-221.5 368,-295 441.75,-295 441.75,-221.5 368,-221.5"/>
<text text-anchor="middle" x="404.88" y="-277.7" font-family="Courier,monospace" font-size="14.00" fill="red">4..6</text>
<polyline fill="none" stroke="red" points="368,-270.5 441.75,-270.5"/>
<text text-anchor="middle" x="404.88" y="-253.2" font-family="Courier,monospace" font-size="14.00" fill="red">(70,90)</text>
<polyline fill="none" stroke="red" points="368,-246 441.75,-246"/>
<text text-anchor="middle" x="404.88" y="-228.7" font-family="Courier,monospace" font-size="14.00" fill="red">d(1,10)</text>
</g>
<!-- 0&#45;&gt;2 -->
<g id="edge2" class="edge">
<title>0&#45;&gt;2</title>
<path fill="none" stroke="black" d="M370.01,-332.2C374,-323.86 378.64,-314.15 383.21,-304.58"/>
<polygon fill="black" stroke="black" points="386.76,-306.27 387.92,-295.74 380.45,-303.25 386.76,-306.27"/>
</g>
<!-- 3 -->
<g id="node4" class="node">
<title>3</title>
<polygon fill="none" stroke="black" points="92,-123.25 92,-172.25 165.75,-172.25 165.75,-123.25 92,-123.25"/>
<text text-anchor="middle" x="128.88" y="-154.95" font-family="Courier,monospace" font-size="14.00">0..1</text>
<polyline fill="none" stroke="black" points="92,-147.75 165.75,-147.75"/>
<text text-anchor="middle" x="128.88" y="-130.45" font-family="Courier,monospace" font-size="14.00">(10,20)</text>
</g>
<!-- 1&#45;&gt;3 -->
<g id="edge3" class="edge">
<title>1&#45;&gt;3</title>
<path fill="none" stroke="black" d="M230.26,-228.46C210.78,-213.15 186.85,-194.33 167.14,-178.83"/>
<polygon fill="black" stroke="black" points="169.71,-175.62 159.69,-172.19 165.38,-181.12 169.71,-175.62"/>
</g>
<!-- 4 -->
<g id="node5" class="node">
<title>4</title>
<polygon fill="none" stroke="black" points="230,-123.25 230,-172.25 303.75,-172.25 303.75,-123.25 230,-123.25"/>
<text text-anchor="middle" x="266.88" y="-154.95" font-family="Courier,monospace" font-size="14.00">2..3</text>
<polyline fill="none" stroke="black" points="230,-147.75 303.75,-147.75"/>
<text text-anchor="middle" x="266.88" y="-130.45" font-family="Courier,monospace" font-size="14.00">(50,60)</text>
</g>
<!-- 1&#45;&gt;4 -->
<g id="edge4" class="edge">
<title>1&#45;&gt;4</title>
<path fill="none" stroke="black" d="M266.88,-221.72C266.88,-209.23 266.88,-195.23 266.88,-182.86"/>
<polygon fill="black" stroke="black" points="270.38,-183.04 266.88,-173.04 263.38,-183.04 270.38,-183.04"/>
</g>
<!-- 5 -->
<g id="node6" class="node">
<title>5</title>
<polygon fill="none" stroke="black" points="368,-123.25 368,-172.25 441.75,-172.25 441.75,-123.25 368,-123.25"/>
<text text-anchor="middle" x="404.88" y="-154.95" font-family="Courier,monospace" font-size="14.00">4..5</text>
<polyline fill="none" stroke="black" points="368,-147.75 441.75,-147.75"/>
<text text-anchor="middle" x="404.88" y="-130.45" font-family="Courier,monospace" font-size="14.00">(70,80)</text>
</g>
<!-- 2&#45;&gt;5 -->
<g id="edge5" class="edge">
<title>2&#45;&gt;5</title>
<path fill="none" stroke="black" d="M404.88,-221.72C404.88,-209.23 404.88,-195.23 404.88,-182.86"/>
<polygon fill="black" stroke="black" points="408.38,-183.04 404.88,-173.04 401.38,-183.04 408.38,-183.04"/>
</g>
<!-- 6 -->
<g id="node7" class="node">
<title>6</title>
<polygon fill="none" stroke="red" points="460,-111 460,-184.5 533.75,-184.5 533.75,-111 460,-111"/>
<text text-anchor="middle" x="496.88" y="-167.2" font-family="Courier,monospace" font-size="14.00" fill="red">6..6</text>
<polyline fill="none" stroke="red" points="460,-160 533.75,-160"/>
<text text-anchor="middle" x="496.88" y="-142.7" font-family="Courier,monospace" font-size="14.00" fill="red">(70,70)</text>
<polyline fill="none" stroke="red" points="460,-135.5 533.75,-135.5"/>
<text text-anchor="middle" x="496.88" y="-118.2" font-family="Courier,monospace" font-size="14.00" fill="red">d(1,20)</text>
</g>
<!-- 2&#45;&gt;6 -->
<g id="edge6" class="edge">
<title>2&#45;&gt;6</title>
<path fill="none" stroke="black" d="M435,-221.72C442.86,-212.45 451.43,-202.34 459.62,-192.69"/>
<polygon fill="black" stroke="black" points="462.89,-195.25 466.68,-185.36 457.55,-190.72 462.89,-195.25"/>
</g>
<!-- 7 -->
<g id="node8" class="node">
<title>7</title>
<polygon fill="none" stroke="black" points="0,-12.75 0,-61.75 73.75,-61.75 73.75,-12.75 0,-12.75"/>
<text text-anchor="middle" x="36.88" y="-44.45" font-family="Courier,monospace" font-size="14.00">0..0</text>
<polyline fill="none" stroke="black" points="0,-37.25 73.75,-37.25"/>
<text text-anchor="middle" x="36.88" y="-19.95" font-family="Courier,monospace" font-size="14.00">(10,10)</text>
</g>
<!-- 3&#45;&gt;7 -->
<g id="edge7" class="edge">
<title>3&#45;&gt;7</title>
<path fill="none" stroke="black" d="M109.14,-123.47C95.8,-107.74 78.03,-86.78 63.45,-69.59"/>
<polygon fill="black" stroke="black" points="65.72,-67.85 56.58,-62.49 60.38,-72.38 65.72,-67.85"/>
</g>
<!-- 8 -->
<g id="node9" class="node">
<title>8</title>
<polygon fill="none" stroke="black" points="92,-12.75 92,-61.75 165.75,-61.75 165.75,-12.75 92,-12.75"/>
<text text-anchor="middle" x="128.88" y="-44.45" font-family="Courier,monospace" font-size="14.00">1..1</text>
<polyline fill="none" stroke="black" points="92,-37.25 165.75,-37.25"/>
<text text-anchor="middle" x="128.88" y="-19.95" font-family="Courier,monospace" font-size="14.00">(20,20)</text>
</g>
<!-- 3&#45;&gt;8 -->
<g id="edge8" class="edge">
<title>3&#45;&gt;8</title>
<path fill="none" stroke="black" d="M128.88,-123.47C128.88,-108.6 128.88,-89.05 128.88,-72.43"/>
<polygon fill="black" stroke="black" points="132.38,-72.49 128.88,-62.49 125.38,-72.49 132.38,-72.49"/>
</g>
<!-- 9 -->
<g id="node10" class="node">
<title>9</title>
<polygon fill="none" stroke="red" points="184,-0.5 184,-74 257.75,-74 257.75,-0.5 184,-0.5"/>
<text text-anchor="middle" x="220.88" y="-56.7" font-family="Courier,monospace" font-size="14.00" fill="red">2..2</text>
<polyline fill="none" stroke="red" points="184,-49.5 257.75,-49.5"/>
<text text-anchor="middle" x="220.88" y="-32.2" font-family="Courier,monospace" font-size="14.00" fill="red">(30,30)</text>
<polyline fill="none" stroke="red" points="184,-25 257.75,-25"/>
<text text-anchor="middle" x="220.88" y="-7.7" font-family="Courier,monospace" font-size="14.00" fill="red">d(1,20)</text>
</g>
<!-- 4&#45;&gt;9 -->
<g id="edge9" class="edge">
<title>4&#45;&gt;9</title>
<path fill="none" stroke="black" d="M257.01,-123.47C252.08,-111.85 245.94,-97.37 240.13,-83.67"/>
<polygon fill="black" stroke="black" points="243.1,-82.72 235.98,-74.88 236.66,-85.45 243.1,-82.72"/>
</g>
<!-- 10 -->
<g id="node11" class="node">
<title>10</title>
<polygon fill="none" stroke="red" points="276,-0.5 276,-74 349.75,-74 349.75,-0.5 276,-0.5"/>
<text text-anchor="middle" x="312.88" y="-56.7" font-family="Courier,monospace" font-size="14.00" fill="red">3..3</text>
<polyline fill="none" stroke="red" points="276,-49.5 349.75,-49.5"/>
<text text-anchor="middle" x="312.88" y="-32.2" font-family="Courier,monospace" font-size="14.00" fill="red">(40,40)</text>
<polyline fill="none" stroke="red" points="276,-25 349.75,-25"/>
<text text-anchor="middle" x="312.88" y="-7.7" font-family="Courier,monospace" font-size="14.00" fill="red">d(1,20)</text>
</g>
<!-- 4&#45;&gt;10 -->
<g id="edge10" class="edge">
<title>4&#45;&gt;10</title>
<path fill="none" stroke="black" d="M276.74,-123.47C281.67,-111.85 287.81,-97.37 293.62,-83.67"/>
<polygon fill="black" stroke="black" points="297.09,-85.45 297.77,-74.88 290.65,-82.72 297.09,-85.45"/>
</g>
<!-- 11 -->
<g id="node12" class="node">
<title>11</title>
<polygon fill="none" stroke="red" points="368,-0.5 368,-74 441.75,-74 441.75,-0.5 368,-0.5"/>
<text text-anchor="middle" x="404.88" y="-56.7" font-family="Courier,monospace" font-size="14.00" fill="red">4..4</text>
<polyline fill="none" stroke="red" points="368,-49.5 441.75,-49.5"/>
<text text-anchor="middle" x="404.88" y="-32.2" font-family="Courier,monospace" font-size="14.00" fill="red">(50,50)</text>
<polyline fill="none" stroke="red" points="368,-25 441.75,-25"/>
<text text-anchor="middle" x="404.88" y="-7.7" font-family="Courier,monospace" font-size="14.00" fill="red">d(1,20)</text>
</g>
<!-- 5&#45;&gt;11 -->
<g id="edge11" class="edge">
<title>5&#45;&gt;11</title>
<path fill="none" stroke="black" d="M404.88,-123.47C404.88,-112.19 404.88,-98.21 404.88,-84.87"/>
<polygon fill="black" stroke="black" points="408.38,-84.88 404.88,-74.88 401.38,-84.88 408.38,-84.88"/>
</g>
<!-- 12 -->
<g id="node13" class="node">
<title>12</title>
<polygon fill="none" stroke="red" points="460,-0.5 460,-74 533.75,-74 533.75,-0.5 460,-0.5"/>
<text text-anchor="middle" x="496.88" y="-56.7" font-family="Courier,monospace" font-size="14.00" fill="red">5..5</text>
<polyline fill="none" stroke="red" points="460,-49.5 533.75,-49.5"/>
<text text-anchor="middle" x="496.88" y="-32.2" font-family="Courier,monospace" font-size="14.00" fill="red">(60,60)</text>
<polyline fill="none" stroke="red" points="460,-25 533.75,-25"/>
<text text-anchor="middle" x="496.88" y="-7.7" font-family="Courier,monospace" font-size="14.00" fill="red">d(1,20)</text>
</g>
<!-- 5&#45;&gt;12 -->
<g id="edge12" class="edge">
<title>5&#45;&gt;12</title>
<path fill="none" stroke="black" d="M424.61,-123.47C434.85,-111.4 447.7,-96.24 459.72,-82.07"/>
<polygon fill="black" stroke="black" points="462.87,-84.77 466.67,-74.88 457.53,-80.24 462.87,-84.77"/>
</g>
</g>
</svg>
