<?xml version="1.0" encoding="UTF-8" standalone="no"?>
<!DOCTYPE svg PUBLIC "-//W3C//DTD SVG 1.1//EN"
 "http://www.w3.org/Graphics/SVG/1.1/DTD/svg11.dtd">
<!-- Generated by graphviz version 2.48.0 (20210717.1556)
 -->
<!-- Title: segtree0 Pages: 1 -->
<svg width="548pt" height="373pt"
 viewBox="0.00 0.00 548.00 373.00" xmlns="http://www.w3.org/2000/svg" xmlns:xlink="http://www.w3.org/1999/xlink">
<g id="graph0" class="graph" transform="scale(1 1) rotate(0) translate(4 369)">
<title>segtree0</title>
<polygon fill="white" stroke="transparent" points="-4,4 -4,-369 544,-369 544,4 -4,4"/>
<!-- 0 -->
<g id="node1" class="node">
<title>0</title>
<polygon fill="none" stroke="blue" points="320.5,-318.5 320.5,-364.5 404.5,-364.5 404.5,-318.5 320.5,-318.5"/>
<text text-anchor="middle" x="362.5" y="-349.3" font-family="Courier,monospace" font-size="14.00" fill="blue">0..6</text>
<polyline fill="none" stroke="blue" points="320.5,-341.5 404.5,-341.5 "/>
<text text-anchor="middle" x="362.5" y="-326.3" font-family="Courier,monospace" font-size="14.00" fill="blue">(20,100)</text>
</g>
<!-- 1 -->
<g id="node2" class="node">
<title>1</title>
<polygon fill="none" stroke="red" points="232,-212.5 232,-281.5 307,-281.5 307,-212.5 232,-212.5"/>
<text text-anchor="middle" x="269.5" y="-266.3" font-family="Courier,monospace" font-size="14.00" fill="red">0..3</text>
<polyline fill="none" stroke="red" points="232,-258.5 307,-258.5 "/>
<text text-anchor="middle" x="269.5" y="-243.3" font-family="Courier,monospace" font-size="14.00" fill="red">(10,60)</text>
<polyline fill="none" stroke="red" points="232,-235.5 307,-235.5 "/>
<text text-anchor="middle" x="269.5" y="-220.3" font-family="Courier,monospace" font-size="14.00" fill="red">d(1,10)</text>
</g>
<!-- 0&#45;&gt;1 -->
<g id="edge1" class="edge">
<title>0&#45;&gt;1</title>
<path fill="none" stroke="black" d="M339.99,-318.11C331.16,-309.33 320.75,-298.98 310.68,-288.96"/>
<polygon fill="black" stroke="black" points="312.99,-286.32 303.43,-281.75 308.05,-291.28 312.99,-286.32"/>
</g>
<!-- 2 -->
<g id="node3" class="node">
<title>2</title>
<polygon fill="none" stroke="red" points="372,-212.5 372,-281.5 447,-281.5 447,-212.5 372,-212.5"/>
<text text-anchor="middle" x="409.5" y="-266.3" font-family="Courier,monospace" font-size="14.00" fill="red">4..6</text>
<polyline fill="none" stroke="red" points="372,-258.5 447,-258.5 "/>
<text text-anchor="middle" x="409.5" y="-243.3" font-family="Courier,monospace" font-size="14.00" fill="red">(70,90)</text>
<polyline fill="none" stroke="red" points="372,-235.5 447,-235.5 "/>
<text text-anchor="middle" x="409.5" y="-220.3" font-family="Courier,monospace" font-size="14.00" fill="red">d(1,10)</text>
</g>
<!-- 0&#45;&gt;2 -->
<g id="edge2" class="edge">
<title>0&#45;&gt;2</title>
<path fill="none" stroke="black" d="M373.88,-318.11C378.08,-309.84 382.99,-300.18 387.8,-290.71"/>
<polygon fill="black" stroke="black" points="390.94,-292.25 392.35,-281.75 384.7,-289.08 390.94,-292.25"/>
</g>
<!-- 3 -->
<g id="node4" class="node">
<title>3</title>
<polygon fill="none" stroke="black" points="93,-118 93,-164 168,-164 168,-118 93,-118"/>
<text text-anchor="middle" x="130.5" y="-148.8" font-family="Courier,monospace" font-size="14.00">0..1</text>
<polyline fill="none" stroke="black" points="93,-141 168,-141 "/>
<text text-anchor="middle" x="130.5" y="-125.8" font-family="Courier,monospace" font-size="14.00">(10,20)</text>
</g>
<!-- 1&#45;&gt;3 -->
<g id="edge3" class="edge">
<title>1&#45;&gt;3</title>
<path fill="none" stroke="black" d="M231.88,-217.86C212.19,-203.12 188.13,-185.12 168.39,-170.35"/>
<polygon fill="black" stroke="black" points="170.32,-167.42 160.22,-164.23 166.13,-173.03 170.32,-167.42"/>
</g>
<!-- 4 -->
<g id="node5" class="node">
<title>4</title>
<polygon fill="none" stroke="black" points="232,-118 232,-164 307,-164 307,-118 232,-118"/>
<text text-anchor="middle" x="269.5" y="-148.8" font-family="Courier,monospace" font-size="14.00">2..3</text>
<polyline fill="none" stroke="black" points="232,-141 307,-141 "/>
<text text-anchor="middle" x="269.5" y="-125.8" font-family="Courier,monospace" font-size="14.00">(50,60)</text>
</g>
<!-- 1&#45;&gt;4 -->
<g id="edge4" class="edge">
<title>1&#45;&gt;4</title>
<path fill="none" stroke="black" d="M269.5,-212.23C269.5,-200.03 269.5,-186.3 269.5,-174.23"/>
<polygon fill="black" stroke="black" points="273,-174.13 269.5,-164.13 266,-174.13 273,-174.13"/>
</g>
<!-- 5 -->
<g id="node6" class="node">
<title>5</title>
<polygon fill="none" stroke="black" points="372,-118 372,-164 447,-164 447,-118 372,-118"/>
<text text-anchor="middle" x="409.5" y="-148.8" font-family="Courier,monospace" font-size="14.00">4..5</text>
<polyline fill="none" stroke="black" points="372,-141 447,-141 "/>
<text text-anchor="middle" x="409.5" y="-125.8" font-family="Courier,monospace" font-size="14.00">(70,80)</text>
</g>
<!-- 2&#45;&gt;5 -->
<g id="edge5" class="edge">
<title>2&#45;&gt;5</title>
<path fill="none" stroke="black" d="M409.5,-212.23C409.5,-200.03 409.5,-186.3 409.5,-174.23"/>
<polygon fill="black" stroke="black" points="413,-174.13 409.5,-164.13 406,-174.13 413,-174.13"/>
</g>
<!-- 6 -->
<g id="node7" class="node">
<title>6</title>
<polygon fill="none" stroke="red" points="465,-106.5 465,-175.5 540,-175.5 540,-106.5 465,-106.5"/>
<text text-anchor="middle" x="502.5" y="-160.3" font-family="Courier,monospace" font-size="14.00" fill="red">6..6</text>
<polyline fill="none" stroke="red" points="465,-152.5 540,-152.5 "/>
<text text-anchor="middle" x="502.5" y="-137.3" font-family="Courier,monospace" font-size="14.00" fill="red">(70,70)</text>
<polyline fill="none" stroke="red" points="465,-129.5 540,-129.5 "/>
<text text-anchor="middle" x="502.5" y="-114.3" font-family="Courier,monospace" font-size="14.00" fill="red">d(1,20)</text>
</g>
<!-- 2&#45;&gt;6 -->
<g id="edge6" class="edge">
<title>2&#45;&gt;6</title>
<path fill="none" stroke="black" d="M439.69,-212.23C447.98,-202.97 457.06,-192.82 465.67,-183.18"/>
<polygon fill="black" stroke="black" points="468.4,-185.38 472.46,-175.6 463.18,-180.72 468.4,-185.38"/>
</g>
<!-- 7 -->
<g id="node8" class="node">
<title>7</title>
<polygon fill="none" stroke="black" points="0,-12 0,-58 75,-58 75,-12 0,-12"/>
<text text-anchor="middle" x="37.5" y="-42.8" font-family="Courier,monospace" font-size="14.00">0..0</text>
<polyline fill="none" stroke="black" points="0,-35 75,-35 "/>
<text text-anchor="middle" x="37.5" y="-19.8" font-family="Courier,monospace" font-size="14.00">(10,10)</text>
</g>
<!-- 3&#45;&gt;7 -->
<g id="edge7" class="edge">
<title>3&#45;&gt;7</title>
<path fill="none" stroke="black" d="M110.78,-117.94C97.21,-102.78 79.04,-82.45 64.19,-65.84"/>
<polygon fill="black" stroke="black" points="66.47,-63.15 57.19,-58.02 61.25,-67.81 66.47,-63.15"/>
</g>
<!-- 8 -->
<g id="node9" class="node">
<title>8</title>
<polygon fill="none" stroke="black" points="93,-12 93,-58 168,-58 168,-12 93,-12"/>
<text text-anchor="middle" x="130.5" y="-42.8" font-family="Courier,monospace" font-size="14.00">1..1</text>
<polyline fill="none" stroke="black" points="93,-35 168,-35 "/>
<text text-anchor="middle" x="130.5" y="-19.8" font-family="Courier,monospace" font-size="14.00">(20,20)</text>
</g>
<!-- 3&#45;&gt;8 -->
<g id="edge8" class="edge">
<title>3&#45;&gt;8</title>
<path fill="none" stroke="black" d="M130.5,-117.94C130.5,-103.47 130.5,-84.29 130.5,-68.13"/>
<polygon fill="black" stroke="black" points="134,-68.02 130.5,-58.02 127,-68.02 134,-68.02"/>
</g>
<!-- 9 -->
<g id="node10" class="node">
<title>9</title>
<polygon fill="none" stroke="red" points="186,-0.5 186,-69.5 261,-69.5 261,-0.5 186,-0.5"/>
<text text-anchor="middle" x="223.5" y="-54.3" font-family="Courier,monospace" font-size="14.00" fill="red">2..2</text>
<polyline fill="none" stroke="red" points="186,-46.5 261,-46.5 "/>
<text text-anchor="middle" x="223.5" y="-31.3" font-family="Courier,monospace" font-size="14.00" fill="red">(30,30)</text>
<polyline fill="none" stroke="red" points="186,-23.5 261,-23.5 "/>
<text text-anchor="middle" x="223.5" y="-8.3" font-family="Courier,monospace" font-size="14.00" fill="red">d(1,20)</text>
</g>
<!-- 4&#45;&gt;9 -->
<g id="edge9" class="edge">
<title>4&#45;&gt;9</title>
<path fill="none" stroke="black" d="M259.74,-117.94C254.78,-106.72 248.56,-92.66 242.69,-79.38"/>
<polygon fill="black" stroke="black" points="245.74,-77.63 238.49,-69.9 239.34,-80.46 245.74,-77.63"/>
</g>
<!-- 10 -->
<g id="node11" class="node">
<title>10</title>
<polygon fill="none" stroke="red" points="279,-0.5 279,-69.5 354,-69.5 354,-0.5 279,-0.5"/>
<text text-anchor="middle" x="316.5" y="-54.3" font-family="Courier,monospace" font-size="14.00" fill="red">3..3</text>
<polyline fill="none" stroke="red" points="279,-46.5 354,-46.5 "/>
<text text-anchor="middle" x="316.5" y="-31.3" font-family="Courier,monospace" font-size="14.00" fill="red">(40,40)</text>
<polyline fill="none" stroke="red" points="279,-23.5 354,-23.5 "/>
<text text-anchor="middle" x="316.5" y="-8.3" font-family="Courier,monospace" font-size="14.00" fill="red">d(1,20)</text>
</g>
<!-- 4&#45;&gt;10 -->
<g id="edge10" class="edge">
<title>4&#45;&gt;10</title>
<path fill="none" stroke="black" d="M279.47,-117.94C284.54,-106.72 290.89,-92.66 296.89,-79.38"/>
<polygon fill="black" stroke="black" points="300.25,-80.45 301.18,-69.9 293.87,-77.57 300.25,-80.45"/>
</g>
<!-- 11 -->
<g id="node12" class="node">
<title>11</title>
<polygon fill="none" stroke="red" points="372,-0.5 372,-69.5 447,-69.5 447,-0.5 372,-0.5"/>
<text text-anchor="middle" x="409.5" y="-54.3" font-family="Courier,monospace" font-size="14.00" fill="red">4..4</text>
<polyline fill="none" stroke="red" points="372,-46.5 447,-46.5 "/>
<text text-anchor="middle" x="409.5" y="-31.3" font-family="Courier,monospace" font-size="14.00" fill="red">(50,50)</text>
<polyline fill="none" stroke="red" points="372,-23.5 447,-23.5 "/>
<text text-anchor="middle" x="409.5" y="-8.3" font-family="Courier,monospace" font-size="14.00" fill="red">d(1,20)</text>
</g>
<!-- 5&#45;&gt;11 -->
<g id="edge11" class="edge">
<title>5&#45;&gt;11</title>
<path fill="none" stroke="black" d="M409.5,-117.94C409.5,-106.93 409.5,-93.21 409.5,-80.16"/>
<polygon fill="black" stroke="black" points="413,-79.9 409.5,-69.9 406,-79.9 413,-79.9"/>
</g>
<!-- 12 -->
<g id="node13" class="node">
<title>12</title>
<polygon fill="none" stroke="red" points="465,-0.5 465,-69.5 540,-69.5 540,-0.5 465,-0.5"/>
<text text-anchor="middle" x="502.5" y="-54.3" font-family="Courier,monospace" font-size="14.00" fill="red">5..5</text>
<polyline fill="none" stroke="red" points="465,-46.5 540,-46.5 "/>
<text text-anchor="middle" x="502.5" y="-31.3" font-family="Courier,monospace" font-size="14.00" fill="red">(60,60)</text>
<polyline fill="none" stroke="red" points="465,-23.5 540,-23.5 "/>
<text text-anchor="middle" x="502.5" y="-8.3" font-family="Courier,monospace" font-size="14.00" fill="red">d(1,20)</text>
</g>
<!-- 5&#45;&gt;12 -->
<g id="edge12" class="edge">
<title>5&#45;&gt;12</title>
<path fill="none" stroke="black" d="M429.22,-117.94C439.75,-106.17 453.05,-91.29 465.43,-77.46"/>
<polygon fill="black" stroke="black" points="468.13,-79.69 472.19,-69.9 462.91,-75.02 468.13,-79.69"/>
</g>
</g>
</svg>
