<?xml version="1.0" encoding="UTF-8" standalone="no"?>
<!DOCTYPE svg PUBLIC "-//W3C//DTD SVG 1.1//EN"
 "http://www.w3.org/Graphics/SVG/1.1/DTD/svg11.dtd">
<!-- Generated by graphviz version 2.40.1 (20161225.0304)
 -->
<!-- Title: segtree0 Pages: 1 -->
<svg width="548pt" height="362pt"
 viewBox="0.00 0.00 547.81 362.00" xmlns="http://www.w3.org/2000/svg" xmlns:xlink="http://www.w3.org/1999/xlink">
<g id="graph0" class="graph" transform="scale(1 1) rotate(0) translate(4 358)">
<title>segtree0</title>
<polygon fill="#ffffff" stroke="transparent" points="-4,4 -4,-358 543.8096,-358 543.8096,4 -4,4"/>
<!-- 0 -->
<g id="node1" class="node">
<title>0</title>
<polygon fill="none" stroke="#0000ff" points="320.7993,-309.5 320.7993,-353.5 404.0103,-353.5 404.0103,-309.5 320.7993,-309.5"/>
<text text-anchor="middle" x="362.4048" y="-338.3" font-family="Courier,monospace" font-size="14.00" fill="#0000ff">0..6</text>
<polyline fill="none" stroke="#0000ff" points="320.7993,-331.5 404.0103,-331.5 "/>
<text text-anchor="middle" x="362.4048" y="-316.3" font-family="Courier,monospace" font-size="14.00" fill="#0000ff">(60,300)</text>
</g>
<!-- 1 -->
<g id="node2" class="node">
<title>1</title>
<polygon fill="none" stroke="#ff0000" points="232,-206.5 232,-272.5 306.8096,-272.5 306.8096,-206.5 232,-206.5"/>
<text text-anchor="middle" x="269.4048" y="-257.3" font-family="Courier,monospace" font-size="14.00" fill="#ff0000">0..3</text>
<polyline fill="none" stroke="#ff0000" points="232,-250.5 306.8096,-250.5 "/>
<text text-anchor="middle" x="269.4048" y="-235.3" font-family="Courier,monospace" font-size="14.00" fill="#ff0000">(10,60)</text>
<polyline fill="none" stroke="#ff0000" points="232,-228.5 306.8096,-228.5 "/>
<text text-anchor="middle" x="269.4048" y="-213.3" font-family="Courier,monospace" font-size="14.00" fill="#ff0000">d(3,30)</text>
</g>
<!-- 0&#45;&gt;1 -->
<g id="edge1" class="edge">
<title>0&#45;&gt;1</title>
<path fill="none" stroke="#000000" d="M339.8921,-309.2294C330.981,-300.4141 320.4515,-289.9978 310.2856,-279.9412"/>
<polygon fill="#000000" stroke="#000000" points="312.5465,-277.2546 302.9758,-272.71 307.6236,-282.231 312.5465,-277.2546"/>
</g>
<!-- 2 -->
<g id="node3" class="node">
<title>2</title>
<polygon fill="none" stroke="#ff0000" points="372,-206.5 372,-272.5 446.8096,-272.5 446.8096,-206.5 372,-206.5"/>
<text text-anchor="middle" x="409.4048" y="-257.3" font-family="Courier,monospace" font-size="14.00" fill="#ff0000">4..6</text>
<polyline fill="none" stroke="#ff0000" points="372,-250.5 446.8096,-250.5 "/>
<text text-anchor="middle" x="409.4048" y="-235.3" font-family="Courier,monospace" font-size="14.00" fill="#ff0000">(70,90)</text>
<polyline fill="none" stroke="#ff0000" points="372,-228.5 446.8096,-228.5 "/>
<text text-anchor="middle" x="409.4048" y="-213.3" font-family="Courier,monospace" font-size="14.00" fill="#ff0000">d(3,30)</text>
</g>
<!-- 0&#45;&gt;2 -->
<g id="edge2" class="edge">
<title>0&#45;&gt;2</title>
<path fill="none" stroke="#000000" d="M373.7822,-309.2294C378.0233,-300.9276 382.9898,-291.2059 387.8451,-281.702"/>
<polygon fill="#000000" stroke="#000000" points="391.0062,-283.2076 392.4388,-272.71 384.7725,-280.023 391.0062,-283.2076"/>
</g>
<!-- 3 -->
<g id="node4" class="node">
<title>3</title>
<polygon fill="none" stroke="#000000" points="93,-114.5 93,-158.5 167.8096,-158.5 167.8096,-114.5 93,-114.5"/>
<text text-anchor="middle" x="130.4048" y="-143.3" font-family="Courier,monospace" font-size="14.00" fill="#000000">0..1</text>
<polyline fill="none" stroke="#000000" points="93,-136.5 167.8096,-136.5 "/>
<text text-anchor="middle" x="130.4048" y="-121.3" font-family="Courier,monospace" font-size="14.00" fill="#000000">(10,20)</text>
</g>
<!-- 1&#45;&gt;3 -->
<g id="edge3" class="edge">
<title>1&#45;&gt;3</title>
<path fill="none" stroke="#000000" d="M231.7894,-211.6267C212.0911,-197.0301 188.0299,-179.2006 168.2917,-164.5745"/>
<polygon fill="#000000" stroke="#000000" points="170.2409,-161.6626 160.1225,-158.521 166.0733,-167.2868 170.2409,-161.6626"/>
</g>
<!-- 4 -->
<g id="node5" class="node">
<title>4</title>
<polygon fill="none" stroke="#000000" points="232,-114.5 232,-158.5 306.8096,-158.5 306.8096,-114.5 232,-114.5"/>
<text text-anchor="middle" x="269.4048" y="-143.3" font-family="Courier,monospace" font-size="14.00" fill="#000000">2..3</text>
<polyline fill="none" stroke="#000000" points="232,-136.5 306.8096,-136.5 "/>
<text text-anchor="middle" x="269.4048" y="-121.3" font-family="Courier,monospace" font-size="14.00" fill="#000000">(50,60)</text>
</g>
<!-- 1&#45;&gt;4 -->
<g id="edge4" class="edge">
<title>1&#45;&gt;4</title>
<path fill="none" stroke="#000000" d="M269.4048,-206.3432C269.4048,-194.2442 269.4048,-180.5914 269.4048,-168.5871"/>
<polygon fill="#000000" stroke="#000000" points="272.9049,-168.5427 269.4048,-158.5428 265.9049,-168.5428 272.9049,-168.5427"/>
</g>
<!-- 5 -->
<g id="node6" class="node">
<title>5</title>
<polygon fill="none" stroke="#000000" points="372,-114.5 372,-158.5 446.8096,-158.5 446.8096,-114.5 372,-114.5"/>
<text text-anchor="middle" x="409.4048" y="-143.3" font-family="Courier,monospace" font-size="14.00" fill="#000000">4..5</text>
<polyline fill="none" stroke="#000000" points="372,-136.5 446.8096,-136.5 "/>
<text text-anchor="middle" x="409.4048" y="-121.3" font-family="Courier,monospace" font-size="14.00" fill="#000000">(70,80)</text>
</g>
<!-- 2&#45;&gt;5 -->
<g id="edge5" class="edge">
<title>2&#45;&gt;5</title>
<path fill="none" stroke="#000000" d="M409.4048,-206.3432C409.4048,-194.2442 409.4048,-180.5914 409.4048,-168.5871"/>
<polygon fill="#000000" stroke="#000000" points="412.9049,-168.5427 409.4048,-158.5428 405.9049,-168.5428 412.9049,-168.5427"/>
</g>
<!-- 6 -->
<g id="node7" class="node">
<title>6</title>
<polygon fill="none" stroke="#ff0000" points="465,-103.5 465,-169.5 539.8096,-169.5 539.8096,-103.5 465,-103.5"/>
<text text-anchor="middle" x="502.4048" y="-154.3" font-family="Courier,monospace" font-size="14.00" fill="#ff0000">6..6</text>
<polyline fill="none" stroke="#ff0000" points="465,-147.5 539.8096,-147.5 "/>
<text text-anchor="middle" x="502.4048" y="-132.3" font-family="Courier,monospace" font-size="14.00" fill="#ff0000">(70,70)</text>
<polyline fill="none" stroke="#ff0000" points="465,-125.5 539.8096,-125.5 "/>
<text text-anchor="middle" x="502.4048" y="-110.3" font-family="Courier,monospace" font-size="14.00" fill="#ff0000">d(1,20)</text>
</g>
<!-- 2&#45;&gt;6 -->
<g id="edge6" class="edge">
<title>2&#45;&gt;6</title>
<path fill="none" stroke="#000000" d="M439.3425,-206.3432C447.7222,-197.0624 456.9274,-186.8674 465.6531,-177.2035"/>
<polygon fill="#000000" stroke="#000000" points="468.4193,-179.3625 472.5232,-169.5947 463.2238,-174.6713 468.4193,-179.3625"/>
</g>
<!-- 7 -->
<g id="node8" class="node">
<title>7</title>
<polygon fill="none" stroke="#000000" points="0,-11.5 0,-55.5 74.8096,-55.5 74.8096,-11.5 0,-11.5"/>
<text text-anchor="middle" x="37.4048" y="-40.3" font-family="Courier,monospace" font-size="14.00" fill="#000000">0..0</text>
<polyline fill="none" stroke="#000000" points="0,-33.5 74.8096,-33.5 "/>
<text text-anchor="middle" x="37.4048" y="-18.3" font-family="Courier,monospace" font-size="14.00" fill="#000000">(10,10)</text>
</g>
<!-- 3&#45;&gt;7 -->
<g id="edge7" class="edge">
<title>3&#45;&gt;7</title>
<path fill="none" stroke="#000000" d="M110.454,-114.4039C96.9692,-99.4692 79.0047,-79.573 64.2654,-63.2489"/>
<polygon fill="#000000" stroke="#000000" points="66.622,-60.6362 57.3226,-55.5595 61.4265,-65.3273 66.622,-60.6362"/>
</g>
<!-- 8 -->
<g id="node9" class="node">
<title>8</title>
<polygon fill="none" stroke="#000000" points="93,-11.5 93,-55.5 167.8096,-55.5 167.8096,-11.5 93,-11.5"/>
<text text-anchor="middle" x="130.4048" y="-40.3" font-family="Courier,monospace" font-size="14.00" fill="#000000">1..1</text>
<polyline fill="none" stroke="#000000" points="93,-33.5 167.8096,-33.5 "/>
<text text-anchor="middle" x="130.4048" y="-18.3" font-family="Courier,monospace" font-size="14.00" fill="#000000">(20,20)</text>
</g>
<!-- 3&#45;&gt;8 -->
<g id="edge8" class="edge">
<title>3&#45;&gt;8</title>
<path fill="none" stroke="#000000" d="M130.4048,-114.4039C130.4048,-100.2838 130.4048,-81.7288 130.4048,-65.9506"/>
<polygon fill="#000000" stroke="#000000" points="133.9049,-65.5595 130.4048,-55.5595 126.9049,-65.5596 133.9049,-65.5595"/>
</g>
<!-- 9 -->
<g id="node10" class="node">
<title>9</title>
<polygon fill="none" stroke="#ff0000" points="186,-.5 186,-66.5 260.8096,-66.5 260.8096,-.5 186,-.5"/>
<text text-anchor="middle" x="223.4048" y="-51.3" font-family="Courier,monospace" font-size="14.00" fill="#ff0000">2..2</text>
<polyline fill="none" stroke="#ff0000" points="186,-44.5 260.8096,-44.5 "/>
<text text-anchor="middle" x="223.4048" y="-29.3" font-family="Courier,monospace" font-size="14.00" fill="#ff0000">(30,30)</text>
<polyline fill="none" stroke="#ff0000" points="186,-22.5 260.8096,-22.5 "/>
<text text-anchor="middle" x="223.4048" y="-7.3" font-family="Courier,monospace" font-size="14.00" fill="#ff0000">d(1,20)</text>
</g>
<!-- 4&#45;&gt;9 -->
<g id="edge9" class="edge">
<title>4&#45;&gt;9</title>
<path fill="none" stroke="#000000" d="M259.5366,-114.4039C254.5233,-103.1784 248.2581,-89.1499 242.3595,-75.942"/>
<polygon fill="#000000" stroke="#000000" points="245.4259,-74.225 238.1523,-66.5215 239.0344,-77.0796 245.4259,-74.225"/>
</g>
<!-- 10 -->
<g id="node11" class="node">
<title>10</title>
<polygon fill="none" stroke="#ff0000" points="279,-.5 279,-66.5 353.8096,-66.5 353.8096,-.5 279,-.5"/>
<text text-anchor="middle" x="316.4048" y="-51.3" font-family="Courier,monospace" font-size="14.00" fill="#ff0000">3..3</text>
<polyline fill="none" stroke="#ff0000" points="279,-44.5 353.8096,-44.5 "/>
<text text-anchor="middle" x="316.4048" y="-29.3" font-family="Courier,monospace" font-size="14.00" fill="#ff0000">(40,40)</text>
<polyline fill="none" stroke="#ff0000" points="279,-22.5 353.8096,-22.5 "/>
<text text-anchor="middle" x="316.4048" y="-7.3" font-family="Courier,monospace" font-size="14.00" fill="#ff0000">d(1,20)</text>
</g>
<!-- 4&#45;&gt;10 -->
<g id="edge10" class="edge">
<title>4&#45;&gt;10</title>
<path fill="none" stroke="#000000" d="M279.4875,-114.4039C284.6098,-103.1784 291.0112,-89.1499 297.038,-75.942"/>
<polygon fill="#000000" stroke="#000000" points="300.3695,-77.0721 301.3367,-66.5215 294.0012,-74.1661 300.3695,-77.0721"/>
</g>
<!-- 11 -->
<g id="node12" class="node">
<title>11</title>
<polygon fill="none" stroke="#ff0000" points="372,-.5 372,-66.5 446.8096,-66.5 446.8096,-.5 372,-.5"/>
<text text-anchor="middle" x="409.4048" y="-51.3" font-family="Courier,monospace" font-size="14.00" fill="#ff0000">4..4</text>
<polyline fill="none" stroke="#ff0000" points="372,-44.5 446.8096,-44.5 "/>
<text text-anchor="middle" x="409.4048" y="-29.3" font-family="Courier,monospace" font-size="14.00" fill="#ff0000">(50,50)</text>
<polyline fill="none" stroke="#ff0000" points="372,-22.5 446.8096,-22.5 "/>
<text text-anchor="middle" x="409.4048" y="-7.3" font-family="Courier,monospace" font-size="14.00" fill="#ff0000">d(1,20)</text>
</g>
<!-- 5&#45;&gt;11 -->
<g id="edge11" class="edge">
<title>5&#45;&gt;11</title>
<path fill="none" stroke="#000000" d="M409.4048,-114.4039C409.4048,-103.3964 409.4048,-89.6936 409.4048,-76.7123"/>
<polygon fill="#000000" stroke="#000000" points="412.9049,-76.5215 409.4048,-66.5215 405.9049,-76.5215 412.9049,-76.5215"/>
</g>
<!-- 12 -->
<g id="node13" class="node">
<title>12</title>
<polygon fill="none" stroke="#ff0000" points="465,-.5 465,-66.5 539.8096,-66.5 539.8096,-.5 465,-.5"/>
<text text-anchor="middle" x="502.4048" y="-51.3" font-family="Courier,monospace" font-size="14.00" fill="#ff0000">5..5</text>
<polyline fill="none" stroke="#ff0000" points="465,-44.5 539.8096,-44.5 "/>
<text text-anchor="middle" x="502.4048" y="-29.3" font-family="Courier,monospace" font-size="14.00" fill="#ff0000">(60,60)</text>
<polyline fill="none" stroke="#ff0000" points="465,-22.5 539.8096,-22.5 "/>
<text text-anchor="middle" x="502.4048" y="-7.3" font-family="Courier,monospace" font-size="14.00" fill="#ff0000">d(1,20)</text>
</g>
<!-- 5&#45;&gt;12 -->
<g id="edge12" class="edge">
<title>5&#45;&gt;12</title>
<path fill="none" stroke="#000000" d="M429.3556,-114.4039C439.9833,-102.6335 453.3936,-87.7813 465.8145,-74.0248"/>
<polygon fill="#000000" stroke="#000000" points="468.4854,-76.2893 472.5893,-66.5215 463.2899,-71.5981 468.4854,-76.2893"/>
</g>
</g>
</svg>
