<?xml version="1.0" encoding="UTF-8" standalone="no"?>
<!DOCTYPE svg PUBLIC "-//W3C//DTD SVG 1.1//EN"
 "http://www.w3.org/Graphics/SVG/1.1/DTD/svg11.dtd">
<!-- Generated by graphviz version 7.1.0 (20230121.1956)
 -->
<!-- Title: segtree0 Pages: 1 -->
<svg width="542pt" height="373pt"
 viewBox="0.00 0.00 542.00 373.00" xmlns="http://www.w3.org/2000/svg" xmlns:xlink="http://www.w3.org/1999/xlink">
<g id="graph0" class="graph" transform="scale(1 1) rotate(0) translate(4 369)">
<title>segtree0</title>
<polygon fill="white" stroke="none" points="-4,4 -4,-369 538,-369 538,4 -4,4"/>
<!-- 0 -->
<g id="node1" class="node">
<title>0</title>
<polygon fill="none" stroke="blue" points="317.5,-318.5 317.5,-364.5 400.5,-364.5 400.5,-318.5 317.5,-318.5"/>
<text text-anchor="middle" x="359" y="-349.3" font-family="Courier,monospace" font-size="14.00" fill="blue">0..6</text>
<polyline fill="none" stroke="blue" points="317.5,-341.5 400.5,-341.5"/>
<text text-anchor="middle" x="359" y="-326.3" font-family="Courier,monospace" font-size="14.00" fill="blue">(60,300)</text>
</g>
<!-- 1 -->
<g id="node2" class="node">
<title>1</title>
<polygon fill="none" stroke="red" points="230,-212.5 230,-281.5 304,-281.5 304,-212.5 230,-212.5"/>
<text text-anchor="middle" x="267" y="-266.3" font-family="Courier,monospace" font-size="14.00" fill="red">0..3</text>
<polyline fill="none" stroke="red" points="230,-258.5 304,-258.5"/>
<text text-anchor="middle" x="267" y="-243.3" font-family="Courier,monospace" font-size="14.00" fill="red">(10,60)</text>
<polyline fill="none" stroke="red" points="230,-235.5 304,-235.5"/>
<text text-anchor="middle" x="267" y="-220.3" font-family="Courier,monospace" font-size="14.00" fill="red">d(3,30)</text>
</g>
<!-- 0&#45;&gt;1 -->
<g id="edge1" class="edge">
<title>0&#45;&gt;1</title>
<path fill="none" stroke="black" d="M337.2,-318.58C328.48,-309.81 318.13,-299.41 308.1,-289.33"/>
<polygon fill="black" stroke="black" points="310.77,-287.04 301.23,-282.42 305.8,-291.98 310.77,-287.04"/>
</g>
<!-- 2 -->
<g id="node3" class="node">
<title>2</title>
<polygon fill="none" stroke="red" points="368,-212.5 368,-281.5 442,-281.5 442,-212.5 368,-212.5"/>
<text text-anchor="middle" x="405" y="-266.3" font-family="Courier,monospace" font-size="14.00" fill="red">4..6</text>
<polyline fill="none" stroke="red" points="368,-258.5 442,-258.5"/>
<text text-anchor="middle" x="405" y="-243.3" font-family="Courier,monospace" font-size="14.00" fill="red">(70,90)</text>
<polyline fill="none" stroke="red" points="368,-235.5 442,-235.5"/>
<text text-anchor="middle" x="405" y="-220.3" font-family="Courier,monospace" font-size="14.00" fill="red">d(3,30)</text>
</g>
<!-- 0&#45;&gt;2 -->
<g id="edge2" class="edge">
<title>0&#45;&gt;2</title>
<path fill="none" stroke="black" d="M369.9,-318.58C373.96,-310.42 378.72,-300.84 383.4,-291.43"/>
<polygon fill="black" stroke="black" points="386.42,-293.21 387.74,-282.7 380.16,-290.1 386.42,-293.21"/>
</g>
<!-- 3 -->
<g id="node4" class="node">
<title>3</title>
<polygon fill="none" stroke="black" points="92,-118 92,-164 166,-164 166,-118 92,-118"/>
<text text-anchor="middle" x="129" y="-148.8" font-family="Courier,monospace" font-size="14.00">0..1</text>
<polyline fill="none" stroke="black" points="92,-141 166,-141"/>
<text text-anchor="middle" x="129" y="-125.8" font-family="Courier,monospace" font-size="14.00">(10,20)</text>
</g>
<!-- 1&#45;&gt;3 -->
<g id="edge3" class="edge">
<title>1&#45;&gt;3</title>
<path fill="none" stroke="black" d="M230.02,-218.13C210.44,-203.38 186.45,-185.3 166.76,-170.46"/>
<polygon fill="black" stroke="black" points="169.07,-167.81 158.98,-164.59 164.85,-173.4 169.07,-167.81"/>
</g>
<!-- 4 -->
<g id="node5" class="node">
<title>4</title>
<polygon fill="none" stroke="black" points="230,-118 230,-164 304,-164 304,-118 230,-118"/>
<text text-anchor="middle" x="267" y="-148.8" font-family="Courier,monospace" font-size="14.00">2..3</text>
<polyline fill="none" stroke="black" points="230,-141 304,-141"/>
<text text-anchor="middle" x="267" y="-125.8" font-family="Courier,monospace" font-size="14.00">(50,60)</text>
</g>
<!-- 1&#45;&gt;4 -->
<g id="edge4" class="edge">
<title>1&#45;&gt;4</title>
<path fill="none" stroke="black" d="M267,-212.52C267,-200.59 267,-187.15 267,-175.24"/>
<polygon fill="black" stroke="black" points="270.5,-175.45 267,-165.45 263.5,-175.45 270.5,-175.45"/>
</g>
<!-- 5 -->
<g id="node6" class="node">
<title>5</title>
<polygon fill="none" stroke="black" points="368,-118 368,-164 442,-164 442,-118 368,-118"/>
<text text-anchor="middle" x="405" y="-148.8" font-family="Courier,monospace" font-size="14.00">4..5</text>
<polyline fill="none" stroke="black" points="368,-141 442,-141"/>
<text text-anchor="middle" x="405" y="-125.8" font-family="Courier,monospace" font-size="14.00">(70,80)</text>
</g>
<!-- 2&#45;&gt;5 -->
<g id="edge5" class="edge">
<title>2&#45;&gt;5</title>
<path fill="none" stroke="black" d="M405,-212.52C405,-200.59 405,-187.15 405,-175.24"/>
<polygon fill="black" stroke="black" points="408.5,-175.45 405,-165.45 401.5,-175.45 408.5,-175.45"/>
</g>
<!-- 6 -->
<g id="node7" class="node">
<title>6</title>
<polygon fill="none" stroke="red" points="460,-106.5 460,-175.5 534,-175.5 534,-106.5 460,-106.5"/>
<text text-anchor="middle" x="497" y="-160.3" font-family="Courier,monospace" font-size="14.00" fill="red">6..6</text>
<polyline fill="none" stroke="red" points="460,-152.5 534,-152.5"/>
<text text-anchor="middle" x="497" y="-137.3" font-family="Courier,monospace" font-size="14.00" fill="red">(70,70)</text>
<polyline fill="none" stroke="red" points="460,-129.5 534,-129.5"/>
<text text-anchor="middle" x="497" y="-114.3" font-family="Courier,monospace" font-size="14.00" fill="red">d(1,20)</text>
</g>
<!-- 2&#45;&gt;6 -->
<g id="edge6" class="edge">
<title>2&#45;&gt;6</title>
<path fill="none" stroke="black" d="M434.62,-212.52C442.66,-203.43 451.47,-193.47 459.87,-183.97"/>
<polygon fill="black" stroke="black" points="462.43,-186.36 466.44,-176.55 457.19,-181.72 462.43,-186.36"/>
</g>
<!-- 7 -->
<g id="node8" class="node">
<title>7</title>
<polygon fill="none" stroke="black" points="0,-12 0,-58 74,-58 74,-12 0,-12"/>
<text text-anchor="middle" x="37" y="-42.8" font-family="Courier,monospace" font-size="14.00">0..0</text>
<polyline fill="none" stroke="black" points="0,-35 74,-35"/>
<text text-anchor="middle" x="37" y="-19.8" font-family="Courier,monospace" font-size="14.00">(10,10)</text>
</g>
<!-- 3&#45;&gt;7 -->
<g id="edge7" class="edge">
<title>3&#45;&gt;7</title>
<path fill="none" stroke="black" d="M109.71,-118.2C96.34,-103.08 78.36,-82.76 63.63,-66.1"/>
<polygon fill="black" stroke="black" points="66.51,-64.08 57.26,-58.91 61.27,-68.72 66.51,-64.08"/>
</g>
<!-- 8 -->
<g id="node9" class="node">
<title>8</title>
<polygon fill="none" stroke="black" points="92,-12 92,-58 166,-58 166,-12 92,-12"/>
<text text-anchor="middle" x="129" y="-42.8" font-family="Courier,monospace" font-size="14.00">1..1</text>
<polyline fill="none" stroke="black" points="92,-35 166,-35"/>
<text text-anchor="middle" x="129" y="-19.8" font-family="Courier,monospace" font-size="14.00">(20,20)</text>
</g>
<!-- 3&#45;&gt;8 -->
<g id="edge8" class="edge">
<title>3&#45;&gt;8</title>
<path fill="none" stroke="black" d="M129,-118.2C129,-103.92 129,-84.98 129,-68.88"/>
<polygon fill="black" stroke="black" points="132.5,-69.29 129,-59.29 125.5,-69.29 132.5,-69.29"/>
</g>
<!-- 9 -->
<g id="node10" class="node">
<title>9</title>
<polygon fill="none" stroke="red" points="184,-0.5 184,-69.5 258,-69.5 258,-0.5 184,-0.5"/>
<text text-anchor="middle" x="221" y="-54.3" font-family="Courier,monospace" font-size="14.00" fill="red">2..2</text>
<polyline fill="none" stroke="red" points="184,-46.5 258,-46.5"/>
<text text-anchor="middle" x="221" y="-31.3" font-family="Courier,monospace" font-size="14.00" fill="red">(30,30)</text>
<polyline fill="none" stroke="red" points="184,-23.5 258,-23.5"/>
<text text-anchor="middle" x="221" y="-8.3" font-family="Courier,monospace" font-size="14.00" fill="red">d(1,20)</text>
</g>
<!-- 4&#45;&gt;9 -->
<g id="edge9" class="edge">
<title>4&#45;&gt;9</title>
<path fill="none" stroke="black" d="M257.36,-118.2C252.41,-107.01 246.2,-92.97 240.32,-79.68"/>
<polygon fill="black" stroke="black" points="243.56,-78.36 236.32,-70.63 237.16,-81.19 243.56,-78.36"/>
</g>
<!-- 10 -->
<g id="node11" class="node">
<title>10</title>
<polygon fill="none" stroke="red" points="276,-0.5 276,-69.5 350,-69.5 350,-0.5 276,-0.5"/>
<text text-anchor="middle" x="313" y="-54.3" font-family="Courier,monospace" font-size="14.00" fill="red">3..3</text>
<polyline fill="none" stroke="red" points="276,-46.5 350,-46.5"/>
<text text-anchor="middle" x="313" y="-31.3" font-family="Courier,monospace" font-size="14.00" fill="red">(40,40)</text>
<polyline fill="none" stroke="red" points="276,-23.5 350,-23.5"/>
<text text-anchor="middle" x="313" y="-8.3" font-family="Courier,monospace" font-size="14.00" fill="red">d(1,20)</text>
</g>
<!-- 4&#45;&gt;10 -->
<g id="edge10" class="edge">
<title>4&#45;&gt;10</title>
<path fill="none" stroke="black" d="M276.64,-118.2C281.59,-107.01 287.8,-92.97 293.68,-79.68"/>
<polygon fill="black" stroke="black" points="296.84,-81.19 297.68,-70.63 290.44,-78.36 296.84,-81.19"/>
</g>
<!-- 11 -->
<g id="node12" class="node">
<title>11</title>
<polygon fill="none" stroke="red" points="368,-0.5 368,-69.5 442,-69.5 442,-0.5 368,-0.5"/>
<text text-anchor="middle" x="405" y="-54.3" font-family="Courier,monospace" font-size="14.00" fill="red">4..4</text>
<polyline fill="none" stroke="red" points="368,-46.5 442,-46.5"/>
<text text-anchor="middle" x="405" y="-31.3" font-family="Courier,monospace" font-size="14.00" fill="red">(50,50)</text>
<polyline fill="none" stroke="red" points="368,-23.5 442,-23.5"/>
<text text-anchor="middle" x="405" y="-8.3" font-family="Courier,monospace" font-size="14.00" fill="red">d(1,20)</text>
</g>
<!-- 5&#45;&gt;11 -->
<g id="edge11" class="edge">
<title>5&#45;&gt;11</title>
<path fill="none" stroke="black" d="M405,-118.2C405,-107.23 405,-93.53 405,-80.47"/>
<polygon fill="black" stroke="black" points="408.5,-80.76 405,-70.76 401.5,-80.76 408.5,-80.76"/>
</g>
<!-- 12 -->
<g id="node13" class="node">
<title>12</title>
<polygon fill="none" stroke="red" points="460,-0.5 460,-69.5 534,-69.5 534,-0.5 460,-0.5"/>
<text text-anchor="middle" x="497" y="-54.3" font-family="Courier,monospace" font-size="14.00" fill="red">5..5</text>
<polyline fill="none" stroke="red" points="460,-46.5 534,-46.5"/>
<text text-anchor="middle" x="497" y="-31.3" font-family="Courier,monospace" font-size="14.00" fill="red">(60,60)</text>
<polyline fill="none" stroke="red" points="460,-23.5 534,-23.5"/>
<text text-anchor="middle" x="497" y="-8.3" font-family="Courier,monospace" font-size="14.00" fill="red">d(1,20)</text>
</g>
<!-- 5&#45;&gt;12 -->
<g id="edge12" class="edge">
<title>5&#45;&gt;12</title>
<path fill="none" stroke="black" d="M424.29,-118.2C434.67,-106.46 447.84,-91.58 460.1,-77.71"/>
<polygon fill="black" stroke="black" points="462.58,-80.19 466.59,-70.38 457.34,-75.55 462.58,-80.19"/>
</g>
</g>
</svg>
