<?xml version="1.0" encoding="UTF-8" standalone="no"?>
<!DOCTYPE svg PUBLIC "-//W3C//DTD SVG 1.1//EN"
 "http://www.w3.org/Graphics/SVG/1.1/DTD/svg11.dtd">
<!-- Generated by graphviz version 7.1.0 (20230121.1956)
 -->
<!-- Title: dep_graph Pages: 1 -->
<svg width="2480pt" height="476pt"
 viewBox="0.00 0.00 2480.08 476.00" xmlns="http://www.w3.org/2000/svg" xmlns:xlink="http://www.w3.org/1999/xlink">
<g id="graph0" class="graph" transform="scale(1 1) rotate(0) translate(4 472)">
<title>dep_graph</title>
<polygon fill="white" stroke="none" points="-4,4 -4,-472 2476.08,-472 2476.08,4 -4,4"/>
<!-- show battery percentage -->
<g id="node1" class="node">
<title>show battery percentage</title>
<ellipse fill="none" stroke="black" cx="1174.64" cy="-450" rx="96.68" ry="18"/>
<text text-anchor="middle" x="1174.64" y="-446.3" font-family="Times,serif" font-size="14.00">show battery percentage</text>
</g>
<!-- join wifi network -->
<g id="node2" class="node">
<title>join wifi network</title>
<ellipse fill="none" stroke="black" cx="1361.64" cy="-450" rx="72.29" ry="18"/>
<text text-anchor="middle" x="1361.64" y="-446.3" font-family="Times,serif" font-size="14.00">join wifi network</text>
</g>
<!-- update system -->
<g id="node3" class="node">
<title>update system</title>
<ellipse fill="none" stroke="black" cx="249.64" cy="-378" rx="61.99" ry="18"/>
<text text-anchor="middle" x="249.64" y="-374.3" font-family="Times,serif" font-size="14.00">update system</text>
</g>
<!-- join wifi network&#45;&gt;update system -->
<g id="edge1" class="edge">
<title>join wifi network&#45;&gt;update system</title>
<path fill="none" stroke="black" d="M1310.43,-437C1300.59,-435.05 1290.33,-433.26 1280.64,-432 923.81,-385.67 492.58,-379.41 323.09,-378.87"/>
<polygon fill="black" stroke="black" points="323.35,-375.37 313.34,-378.84 323.33,-382.37 323.35,-375.37"/>
</g>
<!-- install chrome -->
<g id="node8" class="node">
<title>install chrome</title>
<ellipse fill="none" stroke="black" cx="1604.64" cy="-378" rx="61.99" ry="18"/>
<text text-anchor="middle" x="1604.64" y="-374.3" font-family="Times,serif" font-size="14.00">install chrome</text>
</g>
<!-- join wifi network&#45;&gt;install chrome -->
<g id="edge3" class="edge">
<title>join wifi network&#45;&gt;install chrome</title>
<path fill="none" stroke="black" d="M1407.64,-435.75C1448.39,-424.01 1507.93,-406.86 1550.88,-394.49"/>
<polygon fill="black" stroke="black" points="1551.6,-397.92 1560.24,-391.79 1549.66,-391.2 1551.6,-397.92"/>
</g>
<!-- terminal.app preferences -->
<g id="node10" class="node">
<title>terminal.app preferences</title>
<ellipse fill="#f9e79f" stroke="#f9e79f" cx="1425.64" cy="-378" rx="98.58" ry="18"/>
<text text-anchor="middle" x="1425.64" y="-374.3" font-family="Times,serif" font-size="14.00">terminal.app preferences</text>
</g>
<!-- join wifi network&#45;&gt;terminal.app preferences -->
<g id="edge5" class="edge">
<title>join wifi network&#45;&gt;terminal.app preferences</title>
<path fill="none" stroke="black" d="M1377.14,-432.05C1384.76,-423.71 1394.11,-413.49 1402.56,-404.25"/>
<polygon fill="black" stroke="black" points="1405.11,-406.65 1409.27,-396.91 1399.94,-401.92 1405.11,-406.65"/>
</g>
<!-- install xcode cmdline tools -->
<g id="node11" class="node">
<title>install xcode cmdline tools</title>
<ellipse fill="#f9e79f" stroke="#f9e79f" cx="1163.64" cy="-378" rx="106.68" ry="18"/>
<text text-anchor="middle" x="1163.64" y="-374.3" font-family="Times,serif" font-size="14.00">install xcode cmdline tools</text>
</g>
<!-- join wifi network&#45;&gt;install xcode cmdline tools -->
<g id="edge6" class="edge">
<title>join wifi network&#45;&gt;install xcode cmdline tools</title>
<path fill="none" stroke="black" d="M1321.1,-434.67C1291.62,-424.24 1251.37,-410.01 1218.94,-398.55"/>
<polygon fill="black" stroke="black" points="1220.29,-395.32 1209.7,-395.28 1217.96,-401.92 1220.29,-395.32"/>
</g>
<!-- install dropbox -->
<g id="node29" class="node">
<title>install dropbox</title>
<ellipse fill="#aed6f1" stroke="#aed6f1" cx="1765.64" cy="-378" rx="63.89" ry="18"/>
<text text-anchor="middle" x="1765.64" y="-374.3" font-family="Times,serif" font-size="14.00">install dropbox</text>
</g>
<!-- join wifi network&#45;&gt;install dropbox -->
<g id="edge23" class="edge">
<title>join wifi network&#45;&gt;install dropbox</title>
<path fill="none" stroke="black" d="M1414.72,-437.44C1424.01,-435.53 1433.6,-433.65 1442.64,-432 1545.73,-413.23 1572.37,-413.73 1675.64,-396 1684.56,-394.47 1693.95,-392.78 1703.17,-391.08"/>
<polygon fill="black" stroke="black" points="1703.62,-394.56 1712.81,-389.28 1702.34,-387.67 1703.62,-394.56"/>
</g>
<!-- install pathogen -->
<g id="node35" class="node">
<title>install pathogen</title>
<ellipse fill="#f5b7b1" stroke="#f5b7b1" cx="1307.64" cy="-90" rx="66.89" ry="18"/>
<text text-anchor="middle" x="1307.64" y="-86.3" font-family="Times,serif" font-size="14.00">install pathogen</text>
</g>
<!-- join wifi network&#45;&gt;install pathogen -->
<g id="edge30" class="edge">
<title>join wifi network&#45;&gt;install pathogen</title>
<path fill="none" stroke="black" d="M1344.21,-432.37C1334.98,-422.61 1324.22,-409.56 1317.64,-396 1299.99,-359.61 1298.64,-347.45 1298.64,-307 1298.64,-307 1298.64,-307 1298.64,-233 1298.64,-193.66 1302.13,-148.32 1304.76,-119.66"/>
<polygon fill="black" stroke="black" points="1308.22,-120.26 1305.68,-109.97 1301.25,-119.6 1308.22,-120.26"/>
</g>
<!-- system preferences -->
<g id="node5" class="node">
<title>system preferences</title>
<ellipse fill="none" stroke="black" cx="78.64" cy="-306" rx="78.79" ry="18"/>
<text text-anchor="middle" x="78.64" y="-302.3" font-family="Times,serif" font-size="14.00">system preferences</text>
</g>
<!-- update system&#45;&gt;system preferences -->
<g id="edge2" class="edge">
<title>update system&#45;&gt;system preferences</title>
<path fill="none" stroke="black" d="M215.04,-362.83C189.51,-352.38 154.46,-338.04 126.29,-326.5"/>
<polygon fill="black" stroke="black" points="127.84,-323.36 117.26,-322.81 125.19,-329.84 127.84,-323.36"/>
</g>
<!-- install ntfs drivers -->
<g id="node25" class="node">
<title>install ntfs drivers</title>
<ellipse fill="#aed6f1" stroke="#aed6f1" cx="249.64" cy="-306" rx="74.99" ry="18"/>
<text text-anchor="middle" x="249.64" y="-302.3" font-family="Times,serif" font-size="14.00">install ntfs drivers</text>
</g>
<!-- update system&#45;&gt;install ntfs drivers -->
<g id="edge18" class="edge">
<title>update system&#45;&gt;install ntfs drivers</title>
<path fill="none" stroke="black" d="M249.64,-359.7C249.64,-352.41 249.64,-343.73 249.64,-335.54"/>
<polygon fill="black" stroke="black" points="253.14,-335.62 249.64,-325.62 246.14,-335.62 253.14,-335.62"/>
</g>
<!-- remove useless apps from dock -->
<g id="node4" class="node">
<title>remove useless apps from dock</title>
<ellipse fill="none" stroke="black" cx="1574.64" cy="-450" rx="122.68" ry="18"/>
<text text-anchor="middle" x="1574.64" y="-446.3" font-family="Times,serif" font-size="14.00">remove useless apps from dock</text>
</g>
<!-- finder preferences and view -->
<g id="node6" class="node">
<title>finder preferences and view</title>
<ellipse fill="none" stroke="black" cx="1824.64" cy="-450" rx="109.38" ry="18"/>
<text text-anchor="middle" x="1824.64" y="-446.3" font-family="Times,serif" font-size="14.00">finder preferences and view</text>
</g>
<!-- textedit preferences -->
<g id="node7" class="node">
<title>textedit preferences</title>
<ellipse fill="none" stroke="black" cx="2031.64" cy="-450" rx="79.89" ry="18"/>
<text text-anchor="middle" x="2031.64" y="-446.3" font-family="Times,serif" font-size="14.00">textedit preferences</text>
</g>
<!-- sync chrome -->
<g id="node9" class="node">
<title>sync chrome</title>
<ellipse fill="none" stroke="black" cx="1595.64" cy="-306" rx="55.79" ry="18"/>
<text text-anchor="middle" x="1595.64" y="-302.3" font-family="Times,serif" font-size="14.00">sync chrome</text>
</g>
<!-- install chrome&#45;&gt;sync chrome -->
<g id="edge4" class="edge">
<title>install chrome&#45;&gt;sync chrome</title>
<path fill="none" stroke="black" d="M1602.42,-359.7C1601.47,-352.32 1600.34,-343.52 1599.28,-335.25"/>
<polygon fill="black" stroke="black" points="1602.78,-335.08 1598.04,-325.61 1595.84,-335.97 1602.78,-335.08"/>
</g>
<!-- dotfiles -->
<g id="node12" class="node">
<title>dotfiles</title>
<ellipse fill="#f9e79f" stroke="#f9e79f" cx="1415.64" cy="-306" rx="37.09" ry="18"/>
<text text-anchor="middle" x="1415.64" y="-302.3" font-family="Times,serif" font-size="14.00">dotfiles</text>
</g>
<!-- terminal.app preferences&#45;&gt;dotfiles -->
<g id="edge7" class="edge">
<title>terminal.app preferences&#45;&gt;dotfiles</title>
<path fill="none" stroke="black" d="M1423.17,-359.7C1422.12,-352.32 1420.86,-343.52 1419.68,-335.25"/>
<polygon fill="black" stroke="black" points="1423.18,-335.01 1418.3,-325.6 1416.25,-336 1423.18,-335.01"/>
</g>
<!-- install xcode cmdline tools&#45;&gt;dotfiles -->
<g id="edge8" class="edge">
<title>install xcode cmdline tools&#45;&gt;dotfiles</title>
<path fill="none" stroke="black" d="M1217.39,-362.07C1263.84,-349.17 1330.06,-330.77 1372.95,-318.86"/>
<polygon fill="black" stroke="black" points="1373.7,-322.28 1382.4,-316.23 1371.83,-315.54 1373.7,-322.28"/>
</g>
<!-- install brew -->
<g id="node15" class="node">
<title>install brew</title>
<ellipse fill="#f9e79f" stroke="#f9e79f" cx="861.64" cy="-306" rx="51.99" ry="18"/>
<text text-anchor="middle" x="861.64" y="-302.3" font-family="Times,serif" font-size="14.00">install brew</text>
</g>
<!-- install xcode cmdline tools&#45;&gt;install brew -->
<g id="edge10" class="edge">
<title>install xcode cmdline tools&#45;&gt;install brew</title>
<path fill="none" stroke="black" d="M1102.53,-362.83C1047.45,-350.07 967.29,-331.49 914.81,-319.32"/>
<polygon fill="black" stroke="black" points="915.74,-315.95 905.2,-317.1 914.15,-322.76 915.74,-315.95"/>
</g>
<!-- add __git_ps1 -->
<g id="node14" class="node">
<title>add __git_ps1</title>
<ellipse fill="#f9e79f" stroke="#f9e79f" cx="1396.64" cy="-234" rx="60.39" ry="18"/>
<text text-anchor="middle" x="1396.64" y="-230.3" font-family="Times,serif" font-size="14.00">add __git_ps1</text>
</g>
<!-- dotfiles&#45;&gt;add __git_ps1 -->
<g id="edge9" class="edge">
<title>dotfiles&#45;&gt;add __git_ps1</title>
<path fill="none" stroke="black" d="M1410.95,-287.7C1408.92,-280.24 1406.5,-271.32 1404.23,-262.97"/>
<polygon fill="black" stroke="black" points="1407.68,-262.3 1401.68,-253.57 1400.92,-264.13 1407.68,-262.3"/>
</g>
<!-- get vim plugins -->
<g id="node36" class="node">
<title>get vim plugins</title>
<ellipse fill="#f5b7b1" stroke="#f5b7b1" cx="1541.64" cy="-234" rx="66.09" ry="18"/>
<text text-anchor="middle" x="1541.64" y="-230.3" font-family="Times,serif" font-size="14.00">get vim plugins</text>
</g>
<!-- dotfiles&#45;&gt;get vim plugins -->
<g id="edge31" class="edge">
<title>dotfiles&#45;&gt;get vim plugins</title>
<path fill="none" stroke="black" d="M1439.34,-291.83C1457.48,-281.76 1482.84,-267.67 1503.78,-256.04"/>
<polygon fill="black" stroke="black" points="1505.29,-259.2 1512.33,-251.29 1501.89,-253.08 1505.29,-259.2"/>
</g>
<!-- add to .env -->
<g id="node13" class="node">
<title>add to .env</title>
<ellipse fill="#f9e79f" stroke="#f9e79f" cx="2179.64" cy="-450" rx="50.09" ry="18"/>
<text text-anchor="middle" x="2179.64" y="-446.3" font-family="Times,serif" font-size="14.00">add to .env</text>
</g>
<!-- install tmux -->
<g id="node16" class="node">
<title>install tmux</title>
<ellipse fill="#f9e79f" stroke="#f9e79f" cx="574.64" cy="-234" rx="53.09" ry="18"/>
<text text-anchor="middle" x="574.64" y="-230.3" font-family="Times,serif" font-size="14.00">install tmux</text>
</g>
<!-- install brew&#45;&gt;install tmux -->
<g id="edge11" class="edge">
<title>install brew&#45;&gt;install tmux</title>
<path fill="none" stroke="black" d="M818.81,-295.4C773.46,-285.12 699.84,-268.1 636.64,-252 633.07,-251.09 629.39,-250.13 625.69,-249.16"/>
<polygon fill="black" stroke="black" points="626.64,-245.78 616.07,-246.58 624.83,-252.55 626.64,-245.78"/>
</g>
<!-- install mactex -->
<g id="node17" class="node">
<title>install mactex</title>
<ellipse fill="#a9dfbf" stroke="#a9dfbf" cx="861.64" cy="-234" rx="60.39" ry="18"/>
<text text-anchor="middle" x="861.64" y="-230.3" font-family="Times,serif" font-size="14.00">install mactex</text>
</g>
<!-- install brew&#45;&gt;install mactex -->
<g id="edge12" class="edge">
<title>install brew&#45;&gt;install mactex</title>
<path fill="none" stroke="black" d="M861.64,-287.7C861.64,-280.41 861.64,-271.73 861.64,-263.54"/>
<polygon fill="black" stroke="black" points="865.14,-263.62 861.64,-253.62 858.14,-263.62 865.14,-263.62"/>
</g>
<!-- install useful programs -->
<g id="node18" class="node">
<title>install useful programs</title>
<ellipse fill="#a9dfbf" stroke="#a9dfbf" cx="1032.64" cy="-234" rx="92.08" ry="18"/>
<text text-anchor="middle" x="1032.64" y="-230.3" font-family="Times,serif" font-size="14.00">install useful programs</text>
</g>
<!-- install brew&#45;&gt;install useful programs -->
<g id="edge13" class="edge">
<title>install brew&#45;&gt;install useful programs</title>
<path fill="none" stroke="black" d="M894.21,-291.67C919.47,-281.33 954.9,-266.83 983.59,-255.08"/>
<polygon fill="black" stroke="black" points="984.89,-258.33 992.82,-251.3 982.24,-251.85 984.89,-258.33"/>
</g>
<!-- install python3 -->
<g id="node19" class="node">
<title>install python3</title>
<ellipse fill="#a9dfbf" stroke="#a9dfbf" cx="1206.64" cy="-234" rx="63.89" ry="18"/>
<text text-anchor="middle" x="1206.64" y="-230.3" font-family="Times,serif" font-size="14.00">install python3</text>
</g>
<!-- install brew&#45;&gt;install python3 -->
<g id="edge14" class="edge">
<title>install brew&#45;&gt;install python3</title>
<path fill="none" stroke="black" d="M906.99,-296.69C961.06,-286.65 1054.13,-269 1133.64,-252 1138.42,-250.98 1143.38,-249.89 1148.34,-248.78"/>
<polygon fill="black" stroke="black" points="1148.73,-252.28 1157.71,-246.65 1147.18,-245.45 1148.73,-252.28"/>
</g>
<!-- install nginx -->
<g id="node31" class="node">
<title>install nginx</title>
<ellipse fill="#d2b4de" stroke="#d2b4de" cx="448.64" cy="-234" rx="54.69" ry="18"/>
<text text-anchor="middle" x="448.64" y="-230.3" font-family="Times,serif" font-size="14.00">install nginx</text>
</g>
<!-- install brew&#45;&gt;install nginx -->
<g id="edge25" class="edge">
<title>install brew&#45;&gt;install nginx</title>
<path fill="none" stroke="black" d="M812.79,-299.29C745.02,-290.98 618.84,-274.1 512.64,-252 508.58,-251.15 504.38,-250.21 500.18,-249.21"/>
<polygon fill="black" stroke="black" points="501.13,-245.84 490.58,-246.83 499.44,-252.63 501.13,-245.84"/>
</g>
<!-- brew install vim -->
<g id="node34" class="node">
<title>brew install vim</title>
<ellipse fill="#f5b7b1" stroke="#f5b7b1" cx="714.64" cy="-234" rx="68.79" ry="18"/>
<text text-anchor="middle" x="714.64" y="-230.3" font-family="Times,serif" font-size="14.00">brew install vim</text>
</g>
<!-- install brew&#45;&gt;brew install vim -->
<g id="edge29" class="edge">
<title>install brew&#45;&gt;brew install vim</title>
<path fill="none" stroke="black" d="M831.9,-290.83C810.41,-280.6 781.08,-266.64 757.13,-255.23"/>
<polygon fill="black" stroke="black" points="758.8,-252.15 748.26,-251.01 755.79,-258.47 758.8,-252.15"/>
</g>
<!-- pip3 install virtualenv -->
<g id="node20" class="node">
<title>pip3 install virtualenv</title>
<ellipse fill="#a9dfbf" stroke="#a9dfbf" cx="1163.64" cy="-162" rx="88.28" ry="18"/>
<text text-anchor="middle" x="1163.64" y="-158.3" font-family="Times,serif" font-size="14.00">pip3 install virtualenv</text>
</g>
<!-- install python3&#45;&gt;pip3 install virtualenv -->
<g id="edge15" class="edge">
<title>install python3&#45;&gt;pip3 install virtualenv</title>
<path fill="none" stroke="black" d="M1196.23,-216.05C1191.45,-208.26 1185.65,-198.82 1180.28,-190.08"/>
<polygon fill="black" stroke="black" points="1183.26,-188.25 1175.05,-181.56 1177.3,-191.92 1183.26,-188.25"/>
</g>
<!-- create virtualenv -->
<g id="node21" class="node">
<title>create virtualenv</title>
<ellipse fill="#a9dfbf" stroke="#a9dfbf" cx="1153.64" cy="-90" rx="69.59" ry="18"/>
<text text-anchor="middle" x="1153.64" y="-86.3" font-family="Times,serif" font-size="14.00">create virtualenv</text>
</g>
<!-- pip3 install virtualenv&#45;&gt;create virtualenv -->
<g id="edge16" class="edge">
<title>pip3 install virtualenv&#45;&gt;create virtualenv</title>
<path fill="none" stroke="black" d="M1161.17,-143.7C1160.12,-136.32 1158.86,-127.52 1157.68,-119.25"/>
<polygon fill="black" stroke="black" points="1161.18,-119.01 1156.3,-109.6 1154.25,-120 1161.18,-119.01"/>
</g>
<!-- pip install common packages -->
<g id="node22" class="node">
<title>pip install common packages</title>
<ellipse fill="#a9dfbf" stroke="#a9dfbf" cx="1083.64" cy="-18" rx="114.28" ry="18"/>
<text text-anchor="middle" x="1083.64" y="-14.3" font-family="Times,serif" font-size="14.00">pip install common packages</text>
</g>
<!-- create virtualenv&#45;&gt;pip install common packages -->
<g id="edge17" class="edge">
<title>create virtualenv&#45;&gt;pip install common packages</title>
<path fill="none" stroke="black" d="M1136.7,-72.05C1128.4,-63.75 1118.23,-53.58 1109.02,-44.38"/>
<polygon fill="black" stroke="black" points="1111.53,-41.94 1101.99,-37.35 1106.58,-46.89 1111.53,-41.94"/>
</g>
<!-- install youcompleteme -->
<g id="node37" class="node">
<title>install youcompleteme</title>
<ellipse fill="#f5b7b1" stroke="#f5b7b1" cx="1307.64" cy="-18" rx="91.78" ry="18"/>
<text text-anchor="middle" x="1307.64" y="-14.3" font-family="Times,serif" font-size="14.00">install youcompleteme</text>
</g>
<!-- create virtualenv&#45;&gt;install youcompleteme -->
<g id="edge33" class="edge">
<title>create virtualenv&#45;&gt;install youcompleteme</title>
<path fill="none" stroke="black" d="M1187.06,-73.81C1209.02,-63.83 1238.04,-50.64 1262.1,-39.7"/>
<polygon fill="black" stroke="black" points="1263.39,-42.96 1271.04,-35.64 1260.49,-36.59 1263.39,-42.96"/>
</g>
<!-- backup data -->
<g id="node23" class="node">
<title>backup data</title>
<ellipse fill="#aed6f1" stroke="#aed6f1" cx="395.64" cy="-306" rx="53.09" ry="18"/>
<text text-anchor="middle" x="395.64" y="-302.3" font-family="Times,serif" font-size="14.00">backup data</text>
</g>
<!-- transfer data from external disk -->
<g id="node26" class="node">
<title>transfer data from external disk</title>
<ellipse fill="#aed6f1" stroke="#aed6f1" cx="249.64" cy="-234" rx="122.38" ry="18"/>
<text text-anchor="middle" x="249.64" y="-230.3" font-family="Times,serif" font-size="14.00">transfer data from external disk</text>
</g>
<!-- backup data&#45;&gt;transfer data from external disk -->
<g id="edge19" class="edge">
<title>backup data&#45;&gt;transfer data from external disk</title>
<path fill="none" stroke="black" d="M365.75,-290.67C345.27,-280.85 317.75,-267.65 294.64,-256.57"/>
<polygon fill="black" stroke="black" points="296.27,-253.47 285.74,-252.31 293.24,-259.79 296.27,-253.47"/>
</g>
<!-- backup: push commits to git -->
<g id="node24" class="node">
<title>backup: push commits to git</title>
<ellipse fill="#aed6f1" stroke="#aed6f1" cx="2359.64" cy="-450" rx="112.38" ry="18"/>
<text text-anchor="middle" x="2359.64" y="-446.3" font-family="Times,serif" font-size="14.00">backup: push commits to git</text>
</g>
<!-- install ntfs drivers&#45;&gt;transfer data from external disk -->
<g id="edge20" class="edge">
<title>install ntfs drivers&#45;&gt;transfer data from external disk</title>
<path fill="none" stroke="black" d="M249.64,-287.7C249.64,-280.41 249.64,-271.73 249.64,-263.54"/>
<polygon fill="black" stroke="black" points="253.14,-263.62 249.64,-253.62 246.14,-263.62 253.14,-263.62"/>
</g>
<!-- add profile pic -->
<g id="node27" class="node">
<title>add profile pic</title>
<ellipse fill="#aed6f1" stroke="#aed6f1" cx="241.64" cy="-162" rx="62.29" ry="18"/>
<text text-anchor="middle" x="241.64" y="-158.3" font-family="Times,serif" font-size="14.00">add profile pic</text>
</g>
<!-- transfer data from external disk&#45;&gt;add profile pic -->
<g id="edge21" class="edge">
<title>transfer data from external disk&#45;&gt;add profile pic</title>
<path fill="none" stroke="black" d="M247.67,-215.7C246.83,-208.41 245.84,-199.73 244.9,-191.54"/>
<polygon fill="black" stroke="black" points="248.38,-191.15 243.77,-181.61 241.43,-191.94 248.38,-191.15"/>
</g>
<!-- add wallpapers -->
<g id="node28" class="node">
<title>add wallpapers</title>
<ellipse fill="#aed6f1" stroke="#aed6f1" cx="97.64" cy="-162" rx="63.89" ry="18"/>
<text text-anchor="middle" x="97.64" y="-158.3" font-family="Times,serif" font-size="14.00">add wallpapers</text>
</g>
<!-- transfer data from external disk&#45;&gt;add wallpapers -->
<g id="edge22" class="edge">
<title>transfer data from external disk&#45;&gt;add wallpapers</title>
<path fill="none" stroke="black" d="M213.62,-216.41C191.62,-206.28 163.37,-193.27 140.26,-182.63"/>
<polygon fill="black" stroke="black" points="141.96,-179.56 131.42,-178.55 139.04,-185.92 141.96,-179.56"/>
</g>
<!-- serve websites with nginx -->
<g id="node33" class="node">
<title>serve websites with nginx</title>
<ellipse fill="#d2b4de" stroke="#d2b4de" cx="392.64" cy="-90" rx="102.88" ry="18"/>
<text text-anchor="middle" x="392.64" y="-86.3" font-family="Times,serif" font-size="14.00">serve websites with nginx</text>
</g>
<!-- transfer data from external disk&#45;&gt;serve websites with nginx -->
<g id="edge28" class="edge">
<title>transfer data from external disk&#45;&gt;serve websites with nginx</title>
<path fill="none" stroke="black" d="M271.58,-215.81C283.99,-205.77 299.6,-192.62 312.64,-180 333.59,-159.73 355.6,-134.95 371.23,-116.69"/>
<polygon fill="black" stroke="black" points="373.78,-119.08 377.58,-109.2 368.44,-114.56 373.78,-119.08"/>
</g>
<!-- use symlinks with dropbox -->
<g id="node30" class="node">
<title>use symlinks with dropbox</title>
<ellipse fill="#aed6f1" stroke="#aed6f1" cx="1775.64" cy="-306" rx="106.68" ry="18"/>
<text text-anchor="middle" x="1775.64" y="-302.3" font-family="Times,serif" font-size="14.00">use symlinks with dropbox</text>
</g>
<!-- install dropbox&#45;&gt;use symlinks with dropbox -->
<g id="edge24" class="edge">
<title>install dropbox&#45;&gt;use symlinks with dropbox</title>
<path fill="none" stroke="black" d="M1768.11,-359.7C1769.17,-352.32 1770.43,-343.52 1771.61,-335.25"/>
<polygon fill="black" stroke="black" points="1775.04,-336 1772.99,-325.6 1768.11,-335.01 1775.04,-336"/>
</g>
<!-- enable nginx autoindex -->
<g id="node32" class="node">
<title>enable nginx autoindex</title>
<ellipse fill="#d2b4de" stroke="#d2b4de" cx="452.64" cy="-162" rx="92.88" ry="18"/>
<text text-anchor="middle" x="452.64" y="-158.3" font-family="Times,serif" font-size="14.00">enable nginx autoindex</text>
</g>
<!-- install nginx&#45;&gt;enable nginx autoindex -->
<g id="edge26" class="edge">
<title>install nginx&#45;&gt;enable nginx autoindex</title>
<path fill="none" stroke="black" d="M449.63,-215.7C450.05,-208.41 450.54,-199.73 451.01,-191.54"/>
<polygon fill="black" stroke="black" points="454.5,-191.8 451.58,-181.62 447.51,-191.4 454.5,-191.8"/>
</g>
<!-- enable nginx autoindex&#45;&gt;serve websites with nginx -->
<g id="edge27" class="edge">
<title>enable nginx autoindex&#45;&gt;serve websites with nginx</title>
<path fill="none" stroke="black" d="M438.12,-144.05C431.15,-135.92 422.64,-126 414.88,-116.94"/>
<polygon fill="black" stroke="black" points="417.6,-114.74 408.44,-109.42 412.29,-119.29 417.6,-114.74"/>
</g>
<!-- fix vim locale error -->
<g id="node38" class="node">
<title>fix vim locale error</title>
<ellipse fill="#f5b7b1" stroke="#f5b7b1" cx="714.64" cy="-162" rx="79.89" ry="18"/>
<text text-anchor="middle" x="714.64" y="-158.3" font-family="Times,serif" font-size="14.00">fix vim locale error</text>
</g>
<!-- brew install vim&#45;&gt;fix vim locale error -->
<g id="edge34" class="edge">
<title>brew install vim&#45;&gt;fix vim locale error</title>
<path fill="none" stroke="black" d="M714.64,-215.7C714.64,-208.41 714.64,-199.73 714.64,-191.54"/>
<polygon fill="black" stroke="black" points="718.14,-191.62 714.64,-181.62 711.14,-191.62 718.14,-191.62"/>
</g>
<!-- install pathogen&#45;&gt;install youcompleteme -->
<g id="edge32" class="edge">
<title>install pathogen&#45;&gt;install youcompleteme</title>
<path fill="none" stroke="black" d="M1307.64,-71.7C1307.64,-64.41 1307.64,-55.73 1307.64,-47.54"/>
<polygon fill="black" stroke="black" points="1311.14,-47.62 1307.64,-37.62 1304.14,-47.62 1311.14,-47.62"/>
</g>
</g>
</svg>
