<?xml version="1.0" encoding="UTF-8" standalone="no"?>
<!DOCTYPE svg PUBLIC "-//W3C//DTD SVG 1.1//EN"
 "http://www.w3.org/Graphics/SVG/1.1/DTD/svg11.dtd">
<!-- Generated by graphviz version 12.0.0 (20240704.0754)
 -->
<!-- Title: dep_graph Pages: 1 -->
<svg width="2717pt" height="476pt"
 viewBox="0.00 0.00 2717.50 476.00" xmlns="http://www.w3.org/2000/svg" xmlns:xlink="http://www.w3.org/1999/xlink">
<g id="graph0" class="graph" transform="scale(1 1) rotate(0) translate(4 472)">
<title>dep_graph</title>
<polygon fill="white" stroke="none" points="-4,4 -4,-472 2713.5,-472 2713.5,4 -4,4"/>
<!-- show battery percentage -->
<g id="node1" class="node">
<title>show battery percentage</title>
<ellipse fill="none" stroke="black" cx="1357.12" cy="-450" rx="101" ry="18"/>
<text text-anchor="middle" x="1357.12" y="-444.95" font-family="Times,serif" font-size="14.00">show battery percentage</text>
</g>
<!-- join wifi network -->
<g id="node2" class="node">
<title>join wifi network</title>
<ellipse fill="none" stroke="black" cx="1551.12" cy="-450" rx="75.41" ry="18"/>
<text text-anchor="middle" x="1551.12" y="-444.95" font-family="Times,serif" font-size="14.00">join wifi network</text>
</g>
<!-- update system -->
<g id="node3" class="node">
<title>update system</title>
<ellipse fill="none" stroke="black" cx="1443.12" cy="-378" rx="64.15" ry="18"/>
<text text-anchor="middle" x="1443.12" y="-372.95" font-family="Times,serif" font-size="14.00">update system</text>
</g>
<!-- join wifi network&#45;&gt;update system -->
<g id="edge1" class="edge">
<title>join wifi network&#45;&gt;update system</title>
<path fill="none" stroke="black" d="M1525.8,-432.59C1511.35,-423.22 1493.03,-411.34 1477.31,-401.16"/>
<polygon fill="black" stroke="black" points="1479.48,-398.39 1469.18,-395.89 1475.67,-404.27 1479.48,-398.39"/>
</g>
<!-- install chrome -->
<g id="node8" class="node">
<title>install chrome</title>
<ellipse fill="none" stroke="black" cx="1660.12" cy="-378" rx="64.15" ry="18"/>
<text text-anchor="middle" x="1660.12" y="-372.95" font-family="Times,serif" font-size="14.00">install chrome</text>
</g>
<!-- join wifi network&#45;&gt;install chrome -->
<g id="edge3" class="edge">
<title>join wifi network&#45;&gt;install chrome</title>
<path fill="none" stroke="black" d="M1576.68,-432.59C1591.37,-423.15 1610.02,-411.17 1625.96,-400.94"/>
<polygon fill="black" stroke="black" points="1627.68,-403.99 1634.2,-395.65 1623.9,-398.1 1627.68,-403.99"/>
</g>
<!-- install xcode cmdline tools -->
<g id="node10" class="node">
<title>install xcode cmdline tools</title>
<ellipse fill="#f9e79f" stroke="#f9e79f" cx="1159.12" cy="-378" rx="111.23" ry="18"/>
<text text-anchor="middle" x="1159.12" y="-372.95" font-family="Times,serif" font-size="14.00">install xcode cmdline tools</text>
</g>
<!-- join wifi network&#45;&gt;install xcode cmdline tools -->
<g id="edge5" class="edge">
<title>join wifi network&#45;&gt;install xcode cmdline tools</title>
<path fill="none" stroke="black" d="M1495.59,-437.52C1486.1,-435.63 1476.34,-433.72 1467.12,-432 1392.94,-418.11 1308.45,-403.67 1246.74,-393.38"/>
<polygon fill="black" stroke="black" points="1247.43,-389.94 1236.99,-391.75 1246.28,-396.85 1247.43,-389.94"/>
</g>
<!-- install dropbox -->
<g id="node29" class="node">
<title>install dropbox</title>
<ellipse fill="#aed6f1" stroke="#aed6f1" cx="1864.12" cy="-378" rx="66.71" ry="18"/>
<text text-anchor="middle" x="1864.12" y="-372.95" font-family="Times,serif" font-size="14.00">install dropbox</text>
</g>
<!-- join wifi network&#45;&gt;install dropbox -->
<g id="edge23" class="edge">
<title>join wifi network&#45;&gt;install dropbox</title>
<path fill="none" stroke="black" d="M1604.93,-436.97C1659.91,-424.67 1745.15,-405.61 1802.73,-392.73"/>
<polygon fill="black" stroke="black" points="1803.39,-396.17 1812.38,-390.57 1801.86,-389.34 1803.39,-396.17"/>
</g>
<!-- system preferences -->
<g id="node5" class="node">
<title>system preferences</title>
<ellipse fill="none" stroke="black" cx="1443.12" cy="-306" rx="82.06" ry="18"/>
<text text-anchor="middle" x="1443.12" y="-300.95" font-family="Times,serif" font-size="14.00">system preferences</text>
</g>
<!-- update system&#45;&gt;system preferences -->
<g id="edge2" class="edge">
<title>update system&#45;&gt;system preferences</title>
<path fill="none" stroke="black" d="M1443.12,-359.7C1443.12,-352.41 1443.12,-343.73 1443.12,-335.54"/>
<polygon fill="black" stroke="black" points="1446.62,-335.62 1443.12,-325.62 1439.62,-335.62 1446.62,-335.62"/>
</g>
<!-- install ntfs drivers -->
<g id="node25" class="node">
<title>install ntfs drivers</title>
<ellipse fill="#aed6f1" stroke="#aed6f1" cx="1265.12" cy="-306" rx="77.97" ry="18"/>
<text text-anchor="middle" x="1265.12" y="-300.95" font-family="Times,serif" font-size="14.00">install ntfs drivers</text>
</g>
<!-- update system&#45;&gt;install ntfs drivers -->
<g id="edge18" class="edge">
<title>update system&#45;&gt;install ntfs drivers</title>
<path fill="none" stroke="black" d="M1407.1,-362.83C1380.32,-352.3 1343.48,-337.81 1314.03,-326.24"/>
<polygon fill="black" stroke="black" points="1315.55,-323.07 1304.96,-322.67 1312.99,-329.58 1315.55,-323.07"/>
</g>
<!-- remove useless apps from dock -->
<g id="node4" class="node">
<title>remove useless apps from dock</title>
<ellipse fill="none" stroke="black" cx="1773.12" cy="-450" rx="128.63" ry="18"/>
<text text-anchor="middle" x="1773.12" y="-444.95" font-family="Times,serif" font-size="14.00">remove useless apps from dock</text>
</g>
<!-- finder preferences and view -->
<g id="node6" class="node">
<title>finder preferences and view</title>
<ellipse fill="none" stroke="black" cx="2034.12" cy="-450" rx="114.3" ry="18"/>
<text text-anchor="middle" x="2034.12" y="-444.95" font-family="Times,serif" font-size="14.00">finder preferences and view</text>
</g>
<!-- textedit preferences -->
<g id="node7" class="node">
<title>textedit preferences</title>
<ellipse fill="none" stroke="black" cx="2250.12" cy="-450" rx="83.6" ry="18"/>
<text text-anchor="middle" x="2250.12" y="-444.95" font-family="Times,serif" font-size="14.00">textedit preferences</text>
</g>
<!-- sync chrome -->
<g id="node9" class="node">
<title>sync chrome</title>
<ellipse fill="none" stroke="black" cx="1731.12" cy="-306" rx="58.52" ry="18"/>
<text text-anchor="middle" x="1731.12" y="-300.95" font-family="Times,serif" font-size="14.00">sync chrome</text>
</g>
<!-- install chrome&#45;&gt;sync chrome -->
<g id="edge4" class="edge">
<title>install chrome&#45;&gt;sync chrome</title>
<path fill="none" stroke="black" d="M1676.95,-360.41C1685.7,-351.78 1696.57,-341.06 1706.28,-331.5"/>
<polygon fill="black" stroke="black" points="1708.68,-334.05 1713.34,-324.53 1703.76,-329.06 1708.68,-334.05"/>
</g>
<!-- install brew -->
<g id="node11" class="node">
<title>install brew</title>
<ellipse fill="#f9e79f" stroke="#f9e79f" cx="651.12" cy="-306" rx="54.42" ry="18"/>
<text text-anchor="middle" x="651.12" y="-300.95" font-family="Times,serif" font-size="14.00">install brew</text>
</g>
<!-- install xcode cmdline tools&#45;&gt;install brew -->
<g id="edge6" class="edge">
<title>install xcode cmdline tools&#45;&gt;install brew</title>
<path fill="none" stroke="black" d="M1076.37,-365.6C974.19,-351.52 802.79,-327.9 711.93,-315.38"/>
<polygon fill="black" stroke="black" points="712.61,-311.94 702.23,-314.04 711.66,-318.87 712.61,-311.94"/>
</g>
<!-- dotfiles -->
<g id="node14" class="node">
<title>dotfiles</title>
<ellipse fill="#f9e79f" stroke="#f9e79f" cx="909.12" cy="-162" rx="38.56" ry="18"/>
<text text-anchor="middle" x="909.12" y="-156.95" font-family="Times,serif" font-size="14.00">dotfiles</text>
</g>
<!-- install xcode cmdline tools&#45;&gt;dotfiles -->
<g id="edge10" class="edge">
<title>install xcode cmdline tools&#45;&gt;dotfiles</title>
<path fill="none" stroke="black" d="M1162.93,-359.59C1168.97,-326.9 1176.62,-256.04 1140.12,-216 1088.39,-159.25 1045.74,-198.16 971.12,-180 965.09,-178.53 958.75,-176.9 952.53,-175.24"/>
<polygon fill="black" stroke="black" points="953.56,-171.9 942.99,-172.66 951.73,-178.65 953.56,-171.9"/>
</g>
<!-- install tmux -->
<g id="node12" class="node">
<title>install tmux</title>
<ellipse fill="#f9e79f" stroke="#f9e79f" cx="723.12" cy="-234" rx="55.45" ry="18"/>
<text text-anchor="middle" x="723.12" y="-228.95" font-family="Times,serif" font-size="14.00">install tmux</text>
</g>
<!-- install brew&#45;&gt;install tmux -->
<g id="edge7" class="edge">
<title>install brew&#45;&gt;install tmux</title>
<path fill="none" stroke="black" d="M667.82,-288.76C676.91,-279.93 688.33,-268.83 698.42,-259.01"/>
<polygon fill="black" stroke="black" points="700.7,-261.68 705.43,-252.2 695.82,-256.66 700.7,-261.68"/>
</g>
<!-- install and setup iTerm2 -->
<g id="node13" class="node">
<title>install and setup iTerm2</title>
<ellipse fill="#f9e79f" stroke="#f9e79f" cx="898.12" cy="-234" rx="101.51" ry="18"/>
<text text-anchor="middle" x="898.12" y="-228.95" font-family="Times,serif" font-size="14.00">install and setup iTerm2</text>
</g>
<!-- install brew&#45;&gt;install and setup iTerm2 -->
<g id="edge8" class="edge">
<title>install brew&#45;&gt;install and setup iTerm2</title>
<path fill="none" stroke="black" d="M691.63,-293.52C730.58,-282.48 790.01,-265.64 835.13,-252.85"/>
<polygon fill="black" stroke="black" points="835.86,-256.28 844.52,-250.19 833.95,-249.55 835.86,-256.28"/>
</g>
<!-- install mactex -->
<g id="node17" class="node">
<title>install mactex</title>
<ellipse fill="#a9dfbf" stroke="#a9dfbf" cx="63.12" cy="-234" rx="63.12" ry="18"/>
<text text-anchor="middle" x="63.12" y="-228.95" font-family="Times,serif" font-size="14.00">install mactex</text>
</g>
<!-- install brew&#45;&gt;install mactex -->
<g id="edge12" class="edge">
<title>install brew&#45;&gt;install mactex</title>
<path fill="none" stroke="black" d="M597.82,-301.74C504,-295.51 303.45,-279.98 136.12,-252 130.94,-251.13 125.58,-250.12 120.22,-249.02"/>
<polygon fill="black" stroke="black" points="121.28,-245.67 110.77,-246.99 119.81,-252.51 121.28,-245.67"/>
</g>
<!-- install useful programs -->
<g id="node18" class="node">
<title>install useful programs</title>
<ellipse fill="#a9dfbf" stroke="#a9dfbf" cx="241.12" cy="-234" rx="96.39" ry="18"/>
<text text-anchor="middle" x="241.12" y="-228.95" font-family="Times,serif" font-size="14.00">install useful programs</text>
</g>
<!-- install brew&#45;&gt;install useful programs -->
<g id="edge13" class="edge">
<title>install brew&#45;&gt;install useful programs</title>
<path fill="none" stroke="black" d="M603.69,-296.9C534.77,-285.13 406.01,-263.15 321.95,-248.8"/>
<polygon fill="black" stroke="black" points="322.59,-245.36 312.14,-247.13 321.41,-252.26 322.59,-245.36"/>
</g>
<!-- install python3 -->
<g id="node19" class="node">
<title>install python3</title>
<ellipse fill="#a9dfbf" stroke="#a9dfbf" cx="422.12" cy="-234" rx="66.19" ry="18"/>
<text text-anchor="middle" x="422.12" y="-228.95" font-family="Times,serif" font-size="14.00">install python3</text>
</g>
<!-- install brew&#45;&gt;install python3 -->
<g id="edge14" class="edge">
<title>install brew&#45;&gt;install python3</title>
<path fill="none" stroke="black" d="M612.02,-293.05C574.49,-281.58 517.52,-264.16 475.77,-251.4"/>
<polygon fill="black" stroke="black" points="476.99,-248.11 466.41,-248.54 474.95,-254.81 476.99,-248.11"/>
</g>
<!-- install nginx -->
<g id="node31" class="node">
<title>install nginx</title>
<ellipse fill="#d2b4de" stroke="#d2b4de" cx="1074.12" cy="-234" rx="56.98" ry="18"/>
<text text-anchor="middle" x="1074.12" y="-228.95" font-family="Times,serif" font-size="14.00">install nginx</text>
</g>
<!-- install brew&#45;&gt;install nginx -->
<g id="edge25" class="edge">
<title>install brew&#45;&gt;install nginx</title>
<path fill="none" stroke="black" d="M702.12,-299.22C771.83,-290.92 900.62,-274.15 1009.12,-252 1013.13,-251.18 1017.26,-250.27 1021.4,-249.3"/>
<polygon fill="black" stroke="black" points="1021.96,-252.77 1030.85,-247.01 1020.31,-245.97 1021.96,-252.77"/>
</g>
<!-- brew install vim -->
<g id="node34" class="node">
<title>brew install vim</title>
<ellipse fill="#f5b7b1" stroke="#f5b7b1" cx="578.12" cy="-234" rx="71.82" ry="18"/>
<text text-anchor="middle" x="578.12" y="-228.95" font-family="Times,serif" font-size="14.00">brew install vim</text>
</g>
<!-- install brew&#45;&gt;brew install vim -->
<g id="edge29" class="edge">
<title>install brew&#45;&gt;brew install vim</title>
<path fill="none" stroke="black" d="M634.19,-288.76C625.18,-280.12 613.9,-269.3 603.83,-259.65"/>
<polygon fill="black" stroke="black" points="606.46,-257.32 596.82,-252.93 601.61,-262.37 606.46,-257.32"/>
</g>
<!-- install and setup iTerm2&#45;&gt;dotfiles -->
<g id="edge9" class="edge">
<title>install and setup iTerm2&#45;&gt;dotfiles</title>
<path fill="none" stroke="black" d="M900.84,-215.7C902,-208.32 903.38,-199.52 904.68,-191.25"/>
<polygon fill="black" stroke="black" points="908.11,-192.02 906.2,-181.6 901.19,-190.93 908.11,-192.02"/>
</g>
<!-- add __git_ps1 -->
<g id="node16" class="node">
<title>add __git_ps1</title>
<ellipse fill="#f9e79f" stroke="#f9e79f" cx="783.12" cy="-90" rx="63.12" ry="18"/>
<text text-anchor="middle" x="783.12" y="-84.95" font-family="Times,serif" font-size="14.00">add __git_ps1</text>
</g>
<!-- dotfiles&#45;&gt;add __git_ps1 -->
<g id="edge11" class="edge">
<title>dotfiles&#45;&gt;add __git_ps1</title>
<path fill="none" stroke="black" d="M885.13,-147.67C866.96,-137.58 841.67,-123.53 820.81,-111.94"/>
<polygon fill="black" stroke="black" points="822.75,-109.01 812.31,-107.21 819.35,-115.13 822.75,-109.01"/>
</g>
<!-- get vim plugins -->
<g id="node35" class="node">
<title>get vim plugins</title>
<ellipse fill="#f5b7b1" stroke="#f5b7b1" cx="933.12" cy="-90" rx="69.26" ry="18"/>
<text text-anchor="middle" x="933.12" y="-84.95" font-family="Times,serif" font-size="14.00">get vim plugins</text>
</g>
<!-- dotfiles&#45;&gt;get vim plugins -->
<g id="edge30" class="edge">
<title>dotfiles&#45;&gt;get vim plugins</title>
<path fill="none" stroke="black" d="M914.93,-144.05C917.52,-136.52 920.63,-127.44 923.54,-118.94"/>
<polygon fill="black" stroke="black" points="926.78,-120.3 926.71,-109.71 920.16,-118.03 926.78,-120.3"/>
</g>
<!-- add to .env -->
<g id="node15" class="node">
<title>add to .env</title>
<ellipse fill="#f9e79f" stroke="#f9e79f" cx="2404.12" cy="-450" rx="52.38" ry="18"/>
<text text-anchor="middle" x="2404.12" y="-444.95" font-family="Times,serif" font-size="14.00">add to .env</text>
</g>
<!-- pip3 install virtualenv -->
<g id="node20" class="node">
<title>pip3 install virtualenv</title>
<ellipse fill="#a9dfbf" stroke="#a9dfbf" cx="403.12" cy="-162" rx="92.3" ry="18"/>
<text text-anchor="middle" x="403.12" y="-156.95" font-family="Times,serif" font-size="14.00">pip3 install virtualenv</text>
</g>
<!-- install python3&#45;&gt;pip3 install virtualenv -->
<g id="edge15" class="edge">
<title>install python3&#45;&gt;pip3 install virtualenv</title>
<path fill="none" stroke="black" d="M417.43,-215.7C415.4,-208.24 412.98,-199.32 410.71,-190.97"/>
<polygon fill="black" stroke="black" points="414.16,-190.3 408.16,-181.57 407.4,-192.13 414.16,-190.3"/>
</g>
<!-- create virtualenv -->
<g id="node21" class="node">
<title>create virtualenv</title>
<ellipse fill="#a9dfbf" stroke="#a9dfbf" cx="403.12" cy="-90" rx="72.85" ry="18"/>
<text text-anchor="middle" x="403.12" y="-84.95" font-family="Times,serif" font-size="14.00">create virtualenv</text>
</g>
<!-- pip3 install virtualenv&#45;&gt;create virtualenv -->
<g id="edge16" class="edge">
<title>pip3 install virtualenv&#45;&gt;create virtualenv</title>
<path fill="none" stroke="black" d="M403.12,-143.7C403.12,-136.41 403.12,-127.73 403.12,-119.54"/>
<polygon fill="black" stroke="black" points="406.62,-119.62 403.12,-109.62 399.62,-119.62 406.62,-119.62"/>
</g>
<!-- pip install common packages -->
<g id="node22" class="node">
<title>pip install common packages</title>
<ellipse fill="#a9dfbf" stroke="#a9dfbf" cx="286.12" cy="-18" rx="119.93" ry="18"/>
<text text-anchor="middle" x="286.12" y="-12.95" font-family="Times,serif" font-size="14.00">pip install common packages</text>
</g>
<!-- create virtualenv&#45;&gt;pip install common packages -->
<g id="edge17" class="edge">
<title>create virtualenv&#45;&gt;pip install common packages</title>
<path fill="none" stroke="black" d="M376.28,-72.94C360.83,-63.7 341.16,-51.93 324.14,-41.74"/>
<polygon fill="black" stroke="black" points="326.15,-38.87 315.77,-36.74 322.56,-44.88 326.15,-38.87"/>
</g>
<!-- install youcompleteme -->
<g id="node36" class="node">
<title>install youcompleteme</title>
<ellipse fill="#f5b7b1" stroke="#f5b7b1" cx="520.12" cy="-18" rx="95.88" ry="18"/>
<text text-anchor="middle" x="520.12" y="-12.95" font-family="Times,serif" font-size="14.00">install youcompleteme</text>
</g>
<!-- create virtualenv&#45;&gt;install youcompleteme -->
<g id="edge31" class="edge">
<title>create virtualenv&#45;&gt;install youcompleteme</title>
<path fill="none" stroke="black" d="M429.97,-72.94C445.64,-63.56 465.66,-51.58 482.85,-41.3"/>
<polygon fill="black" stroke="black" points="484.51,-44.39 491.29,-36.25 480.92,-38.38 484.51,-44.39"/>
</g>
<!-- backup data -->
<g id="node23" class="node">
<title>backup data</title>
<ellipse fill="#aed6f1" stroke="#aed6f1" cx="1599.12" cy="-306" rx="55.45" ry="18"/>
<text text-anchor="middle" x="1599.12" y="-300.95" font-family="Times,serif" font-size="14.00">backup data</text>
</g>
<!-- transfer data from external disk -->
<g id="node26" class="node">
<title>transfer data from external disk</title>
<ellipse fill="#aed6f1" stroke="#aed6f1" cx="1315.12" cy="-234" rx="128.12" ry="18"/>
<text text-anchor="middle" x="1315.12" y="-228.95" font-family="Times,serif" font-size="14.00">transfer data from external disk</text>
</g>
<!-- backup data&#45;&gt;transfer data from external disk -->
<g id="edge19" class="edge">
<title>backup data&#45;&gt;transfer data from external disk</title>
<path fill="none" stroke="black" d="M1557.19,-293.91C1549.52,-291.92 1541.59,-289.88 1534.12,-288 1486.07,-275.9 1431.95,-262.8 1389.53,-252.65"/>
<polygon fill="black" stroke="black" points="1390.46,-249.27 1379.92,-250.35 1388.83,-256.08 1390.46,-249.27"/>
</g>
<!-- backup: push commits to git -->
<g id="node24" class="node">
<title>backup: push commits to git</title>
<ellipse fill="#aed6f1" stroke="#aed6f1" cx="2592.12" cy="-450" rx="117.37" ry="18"/>
<text text-anchor="middle" x="2592.12" y="-444.95" font-family="Times,serif" font-size="14.00">backup: push commits to git</text>
</g>
<!-- install ntfs drivers&#45;&gt;transfer data from external disk -->
<g id="edge20" class="edge">
<title>install ntfs drivers&#45;&gt;transfer data from external disk</title>
<path fill="none" stroke="black" d="M1277.23,-288.05C1282.91,-280.09 1289.83,-270.41 1296.19,-261.51"/>
<polygon fill="black" stroke="black" points="1298.94,-263.68 1301.9,-253.51 1293.24,-259.61 1298.94,-263.68"/>
</g>
<!-- add profile pic -->
<g id="node27" class="node">
<title>add profile pic</title>
<ellipse fill="#aed6f1" stroke="#aed6f1" cx="1312.12" cy="-162" rx="65.17" ry="18"/>
<text text-anchor="middle" x="1312.12" y="-156.95" font-family="Times,serif" font-size="14.00">add profile pic</text>
</g>
<!-- transfer data from external disk&#45;&gt;add profile pic -->
<g id="edge21" class="edge">
<title>transfer data from external disk&#45;&gt;add profile pic</title>
<path fill="none" stroke="black" d="M1314.38,-215.7C1314.07,-208.41 1313.7,-199.73 1313.35,-191.54"/>
<polygon fill="black" stroke="black" points="1316.85,-191.46 1312.92,-181.62 1309.85,-191.76 1316.85,-191.46"/>
</g>
<!-- add wallpapers -->
<g id="node28" class="node">
<title>add wallpapers</title>
<ellipse fill="#aed6f1" stroke="#aed6f1" cx="1462.12" cy="-162" rx="66.71" ry="18"/>
<text text-anchor="middle" x="1462.12" y="-156.95" font-family="Times,serif" font-size="14.00">add wallpapers</text>
</g>
<!-- transfer data from external disk&#45;&gt;add wallpapers -->
<g id="edge22" class="edge">
<title>transfer data from external disk&#45;&gt;add wallpapers</title>
<path fill="none" stroke="black" d="M1350.33,-216.23C1371.21,-206.29 1397.8,-193.63 1419.82,-183.15"/>
<polygon fill="black" stroke="black" points="1421.32,-186.31 1428.84,-178.85 1418.31,-179.99 1421.32,-186.31"/>
</g>
<!-- serve websites with nginx -->
<g id="node33" class="node">
<title>serve websites with nginx</title>
<ellipse fill="#d2b4de" stroke="#d2b4de" cx="1186.12" cy="-90" rx="107.14" ry="18"/>
<text text-anchor="middle" x="1186.12" y="-84.95" font-family="Times,serif" font-size="14.00">serve websites with nginx</text>
</g>
<!-- transfer data from external disk&#45;&gt;serve websites with nginx -->
<g id="edge28" class="edge">
<title>transfer data from external disk&#45;&gt;serve websites with nginx</title>
<path fill="none" stroke="black" d="M1284.24,-216.1C1269.12,-206.81 1251.37,-194.27 1238.12,-180 1221.23,-161.8 1207.37,-137.18 1198.22,-118.45"/>
<polygon fill="black" stroke="black" points="1201.46,-117.12 1194.03,-109.56 1195.13,-120.1 1201.46,-117.12"/>
</g>
<!-- use symlinks with dropbox -->
<g id="node30" class="node">
<title>use symlinks with dropbox</title>
<ellipse fill="#aed6f1" stroke="#aed6f1" cx="1919.12" cy="-306" rx="111.74" ry="18"/>
<text text-anchor="middle" x="1919.12" y="-300.95" font-family="Times,serif" font-size="14.00">use symlinks with dropbox</text>
</g>
<!-- install dropbox&#45;&gt;use symlinks with dropbox -->
<g id="edge24" class="edge">
<title>install dropbox&#45;&gt;use symlinks with dropbox</title>
<path fill="none" stroke="black" d="M1877.44,-360.05C1883.76,-352.01 1891.46,-342.2 1898.52,-333.23"/>
<polygon fill="black" stroke="black" points="1901.19,-335.49 1904.61,-325.47 1895.68,-331.17 1901.19,-335.49"/>
</g>
<!-- enable nginx autoindex -->
<g id="node32" class="node">
<title>enable nginx autoindex</title>
<ellipse fill="#d2b4de" stroke="#d2b4de" cx="1077.12" cy="-162" rx="97.41" ry="18"/>
<text text-anchor="middle" x="1077.12" y="-156.95" font-family="Times,serif" font-size="14.00">enable nginx autoindex</text>
</g>
<!-- install nginx&#45;&gt;enable nginx autoindex -->
<g id="edge26" class="edge">
<title>install nginx&#45;&gt;enable nginx autoindex</title>
<path fill="none" stroke="black" d="M1074.86,-215.7C1075.18,-208.41 1075.55,-199.73 1075.9,-191.54"/>
<polygon fill="black" stroke="black" points="1079.39,-191.76 1076.33,-181.62 1072.4,-191.46 1079.39,-191.76"/>
</g>
<!-- enable nginx autoindex&#45;&gt;serve websites with nginx -->
<g id="edge27" class="edge">
<title>enable nginx autoindex&#45;&gt;serve websites with nginx</title>
<path fill="none" stroke="black" d="M1103.23,-144.23C1117.42,-135.12 1135.17,-123.72 1150.6,-113.82"/>
<polygon fill="black" stroke="black" points="1152.05,-117.04 1158.58,-108.69 1148.27,-111.15 1152.05,-117.04"/>
</g>
<!-- fix vim locale error -->
<g id="node37" class="node">
<title>fix vim locale error</title>
<ellipse fill="#f5b7b1" stroke="#f5b7b1" cx="597.12" cy="-162" rx="83.6" ry="18"/>
<text text-anchor="middle" x="597.12" y="-156.95" font-family="Times,serif" font-size="14.00">fix vim locale error</text>
</g>
<!-- brew install vim&#45;&gt;fix vim locale error -->
<g id="edge32" class="edge">
<title>brew install vim&#45;&gt;fix vim locale error</title>
<path fill="none" stroke="black" d="M582.82,-215.7C584.84,-208.24 587.26,-199.32 589.53,-190.97"/>
<polygon fill="black" stroke="black" points="592.84,-192.13 592.08,-181.57 586.09,-190.3 592.84,-192.13"/>
</g>
</g>
</svg>
