<?xml version="1.0" encoding="UTF-8" standalone="no"?>
<!DOCTYPE svg PUBLIC "-//W3C//DTD SVG 1.1//EN"
 "http://www.w3.org/Graphics/SVG/1.1/DTD/svg11.dtd">
<!-- Generated by graphviz version 2.48.0 (20210717.1556)
 -->
<!-- Title: dep_graph Pages: 1 -->
<svg width="2435pt" height="476pt"
 viewBox="0.00 0.00 2434.68 476.00" xmlns="http://www.w3.org/2000/svg" xmlns:xlink="http://www.w3.org/1999/xlink">
<g id="graph0" class="graph" transform="scale(1 1) rotate(0) translate(4 472)">
<title>dep_graph</title>
<polygon fill="white" stroke="transparent" points="-4,4 -4,-472 2430.68,-472 2430.68,4 -4,4"/>
<!-- show battery percentage -->
<g id="node1" class="node">
<title>show battery percentage</title>
<ellipse fill="none" stroke="black" cx="1105.94" cy="-450" rx="99.38" ry="18"/>
<text text-anchor="middle" x="1105.94" y="-446.3" font-family="Times,serif" font-size="14.00">show battery percentage</text>
</g>
<!-- join wifi network -->
<g id="node2" class="node">
<title>join wifi network</title>
<ellipse fill="none" stroke="black" cx="1296.94" cy="-450" rx="73.39" ry="18"/>
<text text-anchor="middle" x="1296.94" y="-446.3" font-family="Times,serif" font-size="14.00">join wifi network</text>
</g>
<!-- update system -->
<g id="node3" class="node">
<title>update system</title>
<ellipse fill="none" stroke="black" cx="254.94" cy="-378" rx="62.29" ry="18"/>
<text text-anchor="middle" x="254.94" y="-374.3" font-family="Times,serif" font-size="14.00">update system</text>
</g>
<!-- join wifi network&#45;&gt;update system -->
<g id="edge1" class="edge">
<title>join wifi network&#45;&gt;update system</title>
<path fill="none" stroke="black" d="M1244.89,-437.12C1234.68,-435.14 1224.01,-433.3 1213.94,-432 884.85,-389.44 487.89,-381.02 327.44,-379.38"/>
<polygon fill="black" stroke="black" points="327.25,-375.88 317.22,-379.28 327.19,-382.88 327.25,-375.88"/>
</g>
<!-- install chrome -->
<g id="node8" class="node">
<title>install chrome</title>
<ellipse fill="none" stroke="black" cx="1542.94" cy="-378" rx="62.29" ry="18"/>
<text text-anchor="middle" x="1542.94" y="-374.3" font-family="Times,serif" font-size="14.00">install chrome</text>
</g>
<!-- join wifi network&#45;&gt;install chrome -->
<g id="edge3" class="edge">
<title>join wifi network&#45;&gt;install chrome</title>
<path fill="none" stroke="black" d="M1342.93,-435.92C1384.73,-424.02 1446.39,-406.48 1490.18,-394.01"/>
<polygon fill="black" stroke="black" points="1491.41,-397.3 1500.07,-391.2 1489.49,-390.57 1491.41,-397.3"/>
</g>
<!-- terminal.app preferences -->
<g id="node10" class="node">
<title>terminal.app preferences</title>
<ellipse fill="#f9e79f" stroke="#f9e79f" cx="1361.94" cy="-378" rx="100.98" ry="18"/>
<text text-anchor="middle" x="1361.94" y="-374.3" font-family="Times,serif" font-size="14.00">terminal.app preferences</text>
</g>
<!-- join wifi network&#45;&gt;terminal.app preferences -->
<g id="edge5" class="edge">
<title>join wifi network&#45;&gt;terminal.app preferences</title>
<path fill="none" stroke="black" d="M1312.68,-432.05C1320.66,-423.46 1330.5,-412.86 1339.29,-403.4"/>
<polygon fill="black" stroke="black" points="1342.11,-405.5 1346.35,-395.79 1336.98,-400.74 1342.11,-405.5"/>
</g>
<!-- install xcode cmdline tools -->
<g id="node11" class="node">
<title>install xcode cmdline tools</title>
<ellipse fill="#f9e79f" stroke="#f9e79f" cx="1095.94" cy="-378" rx="108.58" ry="18"/>
<text text-anchor="middle" x="1095.94" y="-374.3" font-family="Times,serif" font-size="14.00">install xcode cmdline tools</text>
</g>
<!-- join wifi network&#45;&gt;install xcode cmdline tools -->
<g id="edge6" class="edge">
<title>join wifi network&#45;&gt;install xcode cmdline tools</title>
<path fill="none" stroke="black" d="M1256.27,-434.83C1225.68,-424.18 1183.46,-409.48 1150.02,-397.83"/>
<polygon fill="black" stroke="black" points="1150.99,-394.47 1140.4,-394.48 1148.69,-401.08 1150.99,-394.47"/>
</g>
<!-- install dropbox -->
<g id="node29" class="node">
<title>install dropbox</title>
<ellipse fill="#aed6f1" stroke="#aed6f1" cx="1707.94" cy="-378" rx="65.79" ry="18"/>
<text text-anchor="middle" x="1707.94" y="-374.3" font-family="Times,serif" font-size="14.00">install dropbox</text>
</g>
<!-- join wifi network&#45;&gt;install dropbox -->
<g id="edge23" class="edge">
<title>join wifi network&#45;&gt;install dropbox</title>
<path fill="none" stroke="black" d="M1350.24,-437.53C1359.78,-435.6 1369.64,-433.68 1378.94,-432 1482.93,-413.27 1509.72,-413.4 1613.94,-396 1624.11,-394.3 1634.88,-392.43 1645.36,-390.56"/>
<polygon fill="black" stroke="black" points="1646.06,-393.99 1655.29,-388.78 1644.83,-387.1 1646.06,-393.99"/>
</g>
<!-- install pathogen -->
<g id="node35" class="node">
<title>install pathogen</title>
<ellipse fill="#f5b7b1" stroke="#f5b7b1" cx="1242.94" cy="-90" rx="68.79" ry="18"/>
<text text-anchor="middle" x="1242.94" y="-86.3" font-family="Times,serif" font-size="14.00">install pathogen</text>
</g>
<!-- join wifi network&#45;&gt;install pathogen -->
<g id="edge30" class="edge">
<title>join wifi network&#45;&gt;install pathogen</title>
<path fill="none" stroke="black" d="M1279.11,-432.44C1269.66,-422.7 1258.66,-409.65 1251.94,-396 1234.09,-359.71 1232.94,-347.45 1232.94,-307 1232.94,-307 1232.94,-307 1232.94,-233 1232.94,-192.9 1236.96,-146.58 1239.9,-118.04"/>
<polygon fill="black" stroke="black" points="1243.39,-118.34 1240.97,-108.02 1236.43,-117.6 1243.39,-118.34"/>
</g>
<!-- system preferences -->
<g id="node5" class="node">
<title>system preferences</title>
<ellipse fill="none" stroke="black" cx="79.94" cy="-306" rx="79.89" ry="18"/>
<text text-anchor="middle" x="79.94" y="-302.3" font-family="Times,serif" font-size="14.00">system preferences</text>
</g>
<!-- update system&#45;&gt;system preferences -->
<g id="edge2" class="edge">
<title>update system&#45;&gt;system preferences</title>
<path fill="none" stroke="black" d="M219.95,-363C193.24,-352.32 156.18,-337.5 126.9,-325.78"/>
<polygon fill="black" stroke="black" points="127.88,-322.41 117.3,-321.94 125.28,-328.9 127.88,-322.41"/>
</g>
<!-- install ntfs drivers -->
<g id="node25" class="node">
<title>install ntfs drivers</title>
<ellipse fill="#aed6f1" stroke="#aed6f1" cx="254.94" cy="-306" rx="76.89" ry="18"/>
<text text-anchor="middle" x="254.94" y="-302.3" font-family="Times,serif" font-size="14.00">install ntfs drivers</text>
</g>
<!-- update system&#45;&gt;install ntfs drivers -->
<g id="edge18" class="edge">
<title>update system&#45;&gt;install ntfs drivers</title>
<path fill="none" stroke="black" d="M254.94,-359.7C254.94,-351.98 254.94,-342.71 254.94,-334.11"/>
<polygon fill="black" stroke="black" points="258.44,-334.1 254.94,-324.1 251.44,-334.1 258.44,-334.1"/>
</g>
<!-- remove useless apps from dock -->
<g id="node4" class="node">
<title>remove useless apps from dock</title>
<ellipse fill="none" stroke="black" cx="1512.94" cy="-450" rx="124.58" ry="18"/>
<text text-anchor="middle" x="1512.94" y="-446.3" font-family="Times,serif" font-size="14.00">remove useless apps from dock</text>
</g>
<!-- finder preferences and view -->
<g id="node6" class="node">
<title>finder preferences and view</title>
<ellipse fill="none" stroke="black" cx="1767.94" cy="-450" rx="111.58" ry="18"/>
<text text-anchor="middle" x="1767.94" y="-446.3" font-family="Times,serif" font-size="14.00">finder preferences and view</text>
</g>
<!-- textedit preferences -->
<g id="node7" class="node">
<title>textedit preferences</title>
<ellipse fill="none" stroke="black" cx="1979.94" cy="-450" rx="81.79" ry="18"/>
<text text-anchor="middle" x="1979.94" y="-446.3" font-family="Times,serif" font-size="14.00">textedit preferences</text>
</g>
<!-- sync chrome -->
<g id="node9" class="node">
<title>sync chrome</title>
<ellipse fill="none" stroke="black" cx="1533.94" cy="-306" rx="57.39" ry="18"/>
<text text-anchor="middle" x="1533.94" y="-302.3" font-family="Times,serif" font-size="14.00">sync chrome</text>
</g>
<!-- install chrome&#45;&gt;sync chrome -->
<g id="edge4" class="edge">
<title>install chrome&#45;&gt;sync chrome</title>
<path fill="none" stroke="black" d="M1540.72,-359.7C1539.73,-351.98 1538.53,-342.71 1537.43,-334.11"/>
<polygon fill="black" stroke="black" points="1540.89,-333.58 1536.14,-324.1 1533.95,-334.47 1540.89,-333.58"/>
</g>
<!-- dotfiles -->
<g id="node12" class="node">
<title>dotfiles</title>
<ellipse fill="#f9e79f" stroke="#f9e79f" cx="1351.94" cy="-306" rx="37.89" ry="18"/>
<text text-anchor="middle" x="1351.94" y="-302.3" font-family="Times,serif" font-size="14.00">dotfiles</text>
</g>
<!-- terminal.app preferences&#45;&gt;dotfiles -->
<g id="edge7" class="edge">
<title>terminal.app preferences&#45;&gt;dotfiles</title>
<path fill="none" stroke="black" d="M1359.47,-359.7C1358.37,-351.98 1357.04,-342.71 1355.82,-334.11"/>
<polygon fill="black" stroke="black" points="1359.27,-333.51 1354.39,-324.1 1352.34,-334.5 1359.27,-333.51"/>
</g>
<!-- install xcode cmdline tools&#45;&gt;dotfiles -->
<g id="edge8" class="edge">
<title>install xcode cmdline tools&#45;&gt;dotfiles</title>
<path fill="none" stroke="black" d="M1149.61,-362.33C1197.49,-349.23 1266.6,-330.34 1310.39,-318.36"/>
<polygon fill="black" stroke="black" points="1311.41,-321.71 1320.13,-315.7 1309.57,-314.96 1311.41,-321.71"/>
</g>
<!-- install brew -->
<g id="node15" class="node">
<title>install brew</title>
<ellipse fill="#f9e79f" stroke="#f9e79f" cx="864.94" cy="-306" rx="53.09" ry="18"/>
<text text-anchor="middle" x="864.94" y="-302.3" font-family="Times,serif" font-size="14.00">install brew</text>
</g>
<!-- install xcode cmdline tools&#45;&gt;install brew -->
<g id="edge10" class="edge">
<title>install xcode cmdline tools&#45;&gt;install brew</title>
<path fill="none" stroke="black" d="M1046.39,-361.98C1007.08,-350.07 952.45,-333.52 913.42,-321.69"/>
<polygon fill="black" stroke="black" points="913.94,-318.19 903.36,-318.64 911.91,-324.89 913.94,-318.19"/>
</g>
<!-- add __git_ps1 -->
<g id="node14" class="node">
<title>add __git_ps1</title>
<ellipse fill="#f9e79f" stroke="#f9e79f" cx="1332.94" cy="-234" rx="61.99" ry="18"/>
<text text-anchor="middle" x="1332.94" y="-230.3" font-family="Times,serif" font-size="14.00">add __git_ps1</text>
</g>
<!-- dotfiles&#45;&gt;add __git_ps1 -->
<g id="edge9" class="edge">
<title>dotfiles&#45;&gt;add __git_ps1</title>
<path fill="none" stroke="black" d="M1347.34,-288.05C1345.23,-280.26 1342.67,-270.82 1340.29,-262.08"/>
<polygon fill="black" stroke="black" points="1343.63,-261.01 1337.63,-252.28 1336.87,-262.84 1343.63,-261.01"/>
</g>
<!-- get vim plugins -->
<g id="node36" class="node">
<title>get vim plugins</title>
<ellipse fill="#f5b7b1" stroke="#f5b7b1" cx="1479.94" cy="-234" rx="67.69" ry="18"/>
<text text-anchor="middle" x="1479.94" y="-230.3" font-family="Times,serif" font-size="14.00">get vim plugins</text>
</g>
<!-- dotfiles&#45;&gt;get vim plugins -->
<g id="edge31" class="edge">
<title>dotfiles&#45;&gt;get vim plugins</title>
<path fill="none" stroke="black" d="M1375.72,-292C1394.57,-281.69 1421.25,-267.1 1442.9,-255.26"/>
<polygon fill="black" stroke="black" points="1444.74,-258.24 1451.83,-250.37 1441.38,-252.1 1444.74,-258.24"/>
</g>
<!-- add to .env -->
<g id="node13" class="node">
<title>add to .env</title>
<ellipse fill="#f9e79f" stroke="#f9e79f" cx="2130.94" cy="-450" rx="50.89" ry="18"/>
<text text-anchor="middle" x="2130.94" y="-446.3" font-family="Times,serif" font-size="14.00">add to .env</text>
</g>
<!-- install tmux -->
<g id="node16" class="node">
<title>install tmux</title>
<ellipse fill="#f9e79f" stroke="#f9e79f" cx="585.94" cy="-234" rx="53.89" ry="18"/>
<text text-anchor="middle" x="585.94" y="-230.3" font-family="Times,serif" font-size="14.00">install tmux</text>
</g>
<!-- install brew&#45;&gt;install tmux -->
<g id="edge11" class="edge">
<title>install brew&#45;&gt;install tmux</title>
<path fill="none" stroke="black" d="M822.44,-294.99C778.63,-284.59 708.38,-267.66 647.94,-252 643.93,-250.96 639.78,-249.86 635.61,-248.75"/>
<polygon fill="black" stroke="black" points="636.49,-245.36 625.92,-246.14 634.67,-252.12 636.49,-245.36"/>
</g>
<!-- install java -->
<g id="node17" class="node">
<title>install java</title>
<ellipse fill="#a9dfbf" stroke="#a9dfbf" cx="864.94" cy="-234" rx="50.89" ry="18"/>
<text text-anchor="middle" x="864.94" y="-230.3" font-family="Times,serif" font-size="14.00">install java</text>
</g>
<!-- install brew&#45;&gt;install java -->
<g id="edge12" class="edge">
<title>install brew&#45;&gt;install java</title>
<path fill="none" stroke="black" d="M864.94,-287.7C864.94,-279.98 864.94,-270.71 864.94,-262.11"/>
<polygon fill="black" stroke="black" points="868.44,-262.1 864.94,-252.1 861.44,-262.1 868.44,-262.1"/>
</g>
<!-- install mactex -->
<g id="node18" class="node">
<title>install mactex</title>
<ellipse fill="#a9dfbf" stroke="#a9dfbf" cx="994.94" cy="-234" rx="61.99" ry="18"/>
<text text-anchor="middle" x="994.94" y="-230.3" font-family="Times,serif" font-size="14.00">install mactex</text>
</g>
<!-- install brew&#45;&gt;install mactex -->
<g id="edge13" class="edge">
<title>install brew&#45;&gt;install mactex</title>
<path fill="none" stroke="black" d="M892.2,-290.33C911.26,-280.06 936.96,-266.22 957.89,-254.95"/>
<polygon fill="black" stroke="black" points="959.68,-257.96 966.83,-250.14 956.36,-251.8 959.68,-257.96"/>
</g>
<!-- install python3 -->
<g id="node19" class="node">
<title>install python3</title>
<ellipse fill="#a9dfbf" stroke="#a9dfbf" cx="1139.94" cy="-234" rx="64.99" ry="18"/>
<text text-anchor="middle" x="1139.94" y="-230.3" font-family="Times,serif" font-size="14.00">install python3</text>
</g>
<!-- install brew&#45;&gt;install python3 -->
<g id="edge14" class="edge">
<title>install brew&#45;&gt;install python3</title>
<path fill="none" stroke="black" d="M906.11,-294.52C953.41,-282.48 1031.26,-262.66 1084.02,-249.23"/>
<polygon fill="black" stroke="black" points="1085.07,-252.58 1093.89,-246.72 1083.34,-245.8 1085.07,-252.58"/>
</g>
<!-- install nginx -->
<g id="node31" class="node">
<title>install nginx</title>
<ellipse fill="#d2b4de" stroke="#d2b4de" cx="457.94" cy="-234" rx="55.79" ry="18"/>
<text text-anchor="middle" x="457.94" y="-230.3" font-family="Times,serif" font-size="14.00">install nginx</text>
</g>
<!-- install brew&#45;&gt;install nginx -->
<g id="edge25" class="edge">
<title>install brew&#45;&gt;install nginx</title>
<path fill="none" stroke="black" d="M815.67,-298.97C748.95,-290.44 626.33,-273.47 522.94,-252 518.26,-251.03 513.42,-249.93 508.58,-248.78"/>
<polygon fill="black" stroke="black" points="509.26,-245.34 498.71,-246.34 507.58,-252.13 509.26,-245.34"/>
</g>
<!-- brew install vim -->
<g id="node34" class="node">
<title>brew install vim</title>
<ellipse fill="#f5b7b1" stroke="#f5b7b1" cx="726.94" cy="-234" rx="69.59" ry="18"/>
<text text-anchor="middle" x="726.94" y="-230.3" font-family="Times,serif" font-size="14.00">brew install vim</text>
</g>
<!-- install brew&#45;&gt;brew install vim -->
<g id="edge29" class="edge">
<title>install brew&#45;&gt;brew install vim</title>
<path fill="none" stroke="black" d="M836.68,-290.67C816.31,-280.33 788.55,-266.25 766.05,-254.83"/>
<polygon fill="black" stroke="black" points="767.58,-251.69 757.08,-250.29 764.41,-257.93 767.58,-251.69"/>
</g>
<!-- pip3 install virtualenv -->
<g id="node20" class="node">
<title>pip3 install virtualenv</title>
<ellipse fill="#a9dfbf" stroke="#a9dfbf" cx="1094.94" cy="-162" rx="90.18" ry="18"/>
<text text-anchor="middle" x="1094.94" y="-158.3" font-family="Times,serif" font-size="14.00">pip3 install virtualenv</text>
</g>
<!-- install python3&#45;&gt;pip3 install virtualenv -->
<g id="edge15" class="edge">
<title>install python3&#45;&gt;pip3 install virtualenv</title>
<path fill="none" stroke="black" d="M1129.05,-216.05C1123.82,-207.92 1117.44,-198 1111.62,-188.94"/>
<polygon fill="black" stroke="black" points="1114.4,-186.79 1106.05,-180.28 1108.51,-190.58 1114.4,-186.79"/>
</g>
<!-- create virtualenv -->
<g id="node21" class="node">
<title>create virtualenv</title>
<ellipse fill="#a9dfbf" stroke="#a9dfbf" cx="1084.94" cy="-90" rx="71.49" ry="18"/>
<text text-anchor="middle" x="1084.94" y="-86.3" font-family="Times,serif" font-size="14.00">create virtualenv</text>
</g>
<!-- pip3 install virtualenv&#45;&gt;create virtualenv -->
<g id="edge16" class="edge">
<title>pip3 install virtualenv&#45;&gt;create virtualenv</title>
<path fill="none" stroke="black" d="M1092.47,-143.7C1091.37,-135.98 1090.04,-126.71 1088.82,-118.11"/>
<polygon fill="black" stroke="black" points="1092.27,-117.51 1087.39,-108.1 1085.34,-118.5 1092.27,-117.51"/>
</g>
<!-- pip install common packages -->
<g id="node22" class="node">
<title>pip install common packages</title>
<ellipse fill="#a9dfbf" stroke="#a9dfbf" cx="1014.94" cy="-18" rx="116.18" ry="18"/>
<text text-anchor="middle" x="1014.94" y="-14.3" font-family="Times,serif" font-size="14.00">pip install common packages</text>
</g>
<!-- create virtualenv&#45;&gt;pip install common packages -->
<g id="edge17" class="edge">
<title>create virtualenv&#45;&gt;pip install common packages</title>
<path fill="none" stroke="black" d="M1068.35,-72.41C1059.59,-63.65 1048.68,-52.73 1039,-43.06"/>
<polygon fill="black" stroke="black" points="1041.45,-40.55 1031.9,-35.96 1036.5,-45.5 1041.45,-40.55"/>
</g>
<!-- install youcompleteme -->
<g id="node37" class="node">
<title>install youcompleteme</title>
<ellipse fill="#f5b7b1" stroke="#f5b7b1" cx="1242.94" cy="-18" rx="93.68" ry="18"/>
<text text-anchor="middle" x="1242.94" y="-14.3" font-family="Times,serif" font-size="14.00">install youcompleteme</text>
</g>
<!-- create virtualenv&#45;&gt;install youcompleteme -->
<g id="edge33" class="edge">
<title>create virtualenv&#45;&gt;install youcompleteme</title>
<path fill="none" stroke="black" d="M1118.84,-73.98C1141.99,-63.72 1172.93,-50.02 1198.12,-38.86"/>
<polygon fill="black" stroke="black" points="1199.73,-41.97 1207.46,-34.72 1196.9,-35.57 1199.73,-41.97"/>
</g>
<!-- backup data -->
<g id="node23" class="node">
<title>backup data</title>
<ellipse fill="#aed6f1" stroke="#aed6f1" cx="403.94" cy="-306" rx="54.69" ry="18"/>
<text text-anchor="middle" x="403.94" y="-302.3" font-family="Times,serif" font-size="14.00">backup data</text>
</g>
<!-- transfer data from external disk -->
<g id="node26" class="node">
<title>transfer data from external disk</title>
<ellipse fill="#aed6f1" stroke="#aed6f1" cx="254.94" cy="-234" rx="124.58" ry="18"/>
<text text-anchor="middle" x="254.94" y="-230.3" font-family="Times,serif" font-size="14.00">transfer data from external disk</text>
</g>
<!-- backup data&#45;&gt;transfer data from external disk -->
<g id="edge19" class="edge">
<title>backup data&#45;&gt;transfer data from external disk</title>
<path fill="none" stroke="black" d="M373.79,-290.83C352.32,-280.75 323.12,-267.03 299.04,-255.72"/>
<polygon fill="black" stroke="black" points="300.29,-252.44 289.75,-251.35 297.32,-258.77 300.29,-252.44"/>
</g>
<!-- backup: push commits to git -->
<g id="node24" class="node">
<title>backup: push commits to git</title>
<ellipse fill="#aed6f1" stroke="#aed6f1" cx="2312.94" cy="-450" rx="113.98" ry="18"/>
<text text-anchor="middle" x="2312.94" y="-446.3" font-family="Times,serif" font-size="14.00">backup: push commits to git</text>
</g>
<!-- install ntfs drivers&#45;&gt;transfer data from external disk -->
<g id="edge20" class="edge">
<title>install ntfs drivers&#45;&gt;transfer data from external disk</title>
<path fill="none" stroke="black" d="M254.94,-287.7C254.94,-279.98 254.94,-270.71 254.94,-262.11"/>
<polygon fill="black" stroke="black" points="258.44,-262.1 254.94,-252.1 251.44,-262.1 258.44,-262.1"/>
</g>
<!-- add profile pic -->
<g id="node27" class="node">
<title>add profile pic</title>
<ellipse fill="#aed6f1" stroke="#aed6f1" cx="246.94" cy="-162" rx="63.09" ry="18"/>
<text text-anchor="middle" x="246.94" y="-158.3" font-family="Times,serif" font-size="14.00">add profile pic</text>
</g>
<!-- transfer data from external disk&#45;&gt;add profile pic -->
<g id="edge21" class="edge">
<title>transfer data from external disk&#45;&gt;add profile pic</title>
<path fill="none" stroke="black" d="M252.97,-215.7C252.08,-207.98 251.02,-198.71 250.04,-190.11"/>
<polygon fill="black" stroke="black" points="253.51,-189.64 248.9,-180.1 246.56,-190.44 253.51,-189.64"/>
</g>
<!-- add wallpapers -->
<g id="node28" class="node">
<title>add wallpapers</title>
<ellipse fill="#aed6f1" stroke="#aed6f1" cx="99.94" cy="-162" rx="65.79" ry="18"/>
<text text-anchor="middle" x="99.94" y="-158.3" font-family="Times,serif" font-size="14.00">add wallpapers</text>
</g>
<!-- transfer data from external disk&#45;&gt;add wallpapers -->
<g id="edge22" class="edge">
<title>transfer data from external disk&#45;&gt;add wallpapers</title>
<path fill="none" stroke="black" d="M218.6,-216.59C195.62,-206.21 165.82,-192.75 141.84,-181.92"/>
<polygon fill="black" stroke="black" points="143.18,-178.69 132.63,-177.76 140.3,-185.07 143.18,-178.69"/>
</g>
<!-- serve websites with nginx -->
<g id="node33" class="node">
<title>serve websites with nginx</title>
<ellipse fill="#d2b4de" stroke="#d2b4de" cx="399.94" cy="-90" rx="105.08" ry="18"/>
<text text-anchor="middle" x="399.94" y="-86.3" font-family="Times,serif" font-size="14.00">serve websites with nginx</text>
</g>
<!-- transfer data from external disk&#45;&gt;serve websites with nginx -->
<g id="edge28" class="edge">
<title>transfer data from external disk&#45;&gt;serve websites with nginx</title>
<path fill="none" stroke="black" d="M276.92,-216.06C289.58,-206 305.58,-192.75 318.94,-180 340.44,-159.49 363.05,-134.3 378.9,-115.96"/>
<polygon fill="black" stroke="black" points="381.83,-117.92 385.68,-108.06 376.51,-113.37 381.83,-117.92"/>
</g>
<!-- use symlinks with dropbox -->
<g id="node30" class="node">
<title>use symlinks with dropbox</title>
<ellipse fill="#aed6f1" stroke="#aed6f1" cx="1717.94" cy="-306" rx="109.38" ry="18"/>
<text text-anchor="middle" x="1717.94" y="-302.3" font-family="Times,serif" font-size="14.00">use symlinks with dropbox</text>
</g>
<!-- install dropbox&#45;&gt;use symlinks with dropbox -->
<g id="edge24" class="edge">
<title>install dropbox&#45;&gt;use symlinks with dropbox</title>
<path fill="none" stroke="black" d="M1710.41,-359.7C1711.52,-351.98 1712.84,-342.71 1714.07,-334.11"/>
<polygon fill="black" stroke="black" points="1717.55,-334.5 1715.5,-324.1 1710.62,-333.51 1717.55,-334.5"/>
</g>
<!-- enable nginx autoindex -->
<g id="node32" class="node">
<title>enable nginx autoindex</title>
<ellipse fill="#d2b4de" stroke="#d2b4de" cx="461.94" cy="-162" rx="95.58" ry="18"/>
<text text-anchor="middle" x="461.94" y="-158.3" font-family="Times,serif" font-size="14.00">enable nginx autoindex</text>
</g>
<!-- install nginx&#45;&gt;enable nginx autoindex -->
<g id="edge26" class="edge">
<title>install nginx&#45;&gt;enable nginx autoindex</title>
<path fill="none" stroke="black" d="M458.93,-215.7C459.37,-207.98 459.9,-198.71 460.39,-190.11"/>
<polygon fill="black" stroke="black" points="463.89,-190.29 460.97,-180.1 456.9,-189.89 463.89,-190.29"/>
</g>
<!-- enable nginx autoindex&#45;&gt;serve websites with nginx -->
<g id="edge27" class="edge">
<title>enable nginx autoindex&#45;&gt;serve websites with nginx</title>
<path fill="none" stroke="black" d="M446.93,-144.05C439.43,-135.58 430.21,-125.17 421.92,-115.82"/>
<polygon fill="black" stroke="black" points="424.49,-113.44 415.24,-108.28 419.25,-118.08 424.49,-113.44"/>
</g>
<!-- fix vim locale error -->
<g id="node38" class="node">
<title>fix vim locale error</title>
<ellipse fill="#f5b7b1" stroke="#f5b7b1" cx="726.94" cy="-162" rx="80.69" ry="18"/>
<text text-anchor="middle" x="726.94" y="-158.3" font-family="Times,serif" font-size="14.00">fix vim locale error</text>
</g>
<!-- brew install vim&#45;&gt;fix vim locale error -->
<g id="edge34" class="edge">
<title>brew install vim&#45;&gt;fix vim locale error</title>
<path fill="none" stroke="black" d="M726.94,-215.7C726.94,-207.98 726.94,-198.71 726.94,-190.11"/>
<polygon fill="black" stroke="black" points="730.44,-190.1 726.94,-180.1 723.44,-190.1 730.44,-190.1"/>
</g>
<!-- install pathogen&#45;&gt;install youcompleteme -->
<g id="edge32" class="edge">
<title>install pathogen&#45;&gt;install youcompleteme</title>
<path fill="none" stroke="black" d="M1242.94,-71.7C1242.94,-63.98 1242.94,-54.71 1242.94,-46.11"/>
<polygon fill="black" stroke="black" points="1246.44,-46.1 1242.94,-36.1 1239.44,-46.1 1246.44,-46.1"/>
</g>
</g>
</svg>
