<?xml version="1.0" encoding="UTF-8" standalone="no"?>
<!DOCTYPE svg PUBLIC "-//W3C//DTD SVG 1.1//EN"
 "http://www.w3.org/Graphics/SVG/1.1/DTD/svg11.dtd">
<!-- Generated by graphviz version 2.44.1 (20200629.0846)
 -->
<!-- Title: dep_graph Pages: 1 -->
<svg width="2391pt" height="476pt"
 viewBox="0.00 0.00 2391.08 476.00" xmlns="http://www.w3.org/2000/svg" xmlns:xlink="http://www.w3.org/1999/xlink">
<g id="graph0" class="graph" transform="scale(1 1) rotate(0) translate(4 472)">
<title>dep_graph</title>
<polygon fill="white" stroke="transparent" points="-4,4 -4,-472 2387.08,-472 2387.08,4 -4,4"/>
<!-- show battery percentage -->
<g id="node1" class="node">
<title>show battery percentage</title>
<ellipse fill="none" stroke="black" cx="1089.64" cy="-450" rx="96.68" ry="18"/>
<text text-anchor="middle" x="1089.64" y="-446.3" font-family="Times,serif" font-size="14.00">show battery percentage</text>
</g>
<!-- join wifi network -->
<g id="node2" class="node">
<title>join wifi network</title>
<ellipse fill="none" stroke="black" cx="1275.64" cy="-450" rx="71.49" ry="18"/>
<text text-anchor="middle" x="1275.64" y="-446.3" font-family="Times,serif" font-size="14.00">join wifi network</text>
</g>
<!-- update system -->
<g id="node3" class="node">
<title>update system</title>
<ellipse fill="none" stroke="black" cx="249.64" cy="-378" rx="61.99" ry="18"/>
<text text-anchor="middle" x="249.64" y="-374.3" font-family="Times,serif" font-size="14.00">update system</text>
</g>
<!-- join wifi network&#45;&gt;update system -->
<g id="edge1" class="edge">
<title>join wifi network&#45;&gt;update system</title>
<path fill="none" stroke="black" d="M1225.49,-437.11C1215.64,-435.13 1205.35,-433.3 1195.64,-432 871.37,-388.72 479.98,-380.7 321.48,-379.27"/>
<polygon fill="black" stroke="black" points="321.41,-375.77 311.38,-379.19 321.35,-382.77 321.41,-375.77"/>
</g>
<!-- install chrome -->
<g id="node8" class="node">
<title>install chrome</title>
<ellipse fill="none" stroke="black" cx="1518.64" cy="-378" rx="61.99" ry="18"/>
<text text-anchor="middle" x="1518.64" y="-374.3" font-family="Times,serif" font-size="14.00">install chrome</text>
</g>
<!-- join wifi network&#45;&gt;install chrome -->
<g id="edge3" class="edge">
<title>join wifi network&#45;&gt;install chrome</title>
<path fill="none" stroke="black" d="M1320.78,-436C1362.04,-424.11 1423.05,-406.54 1466.4,-394.05"/>
<polygon fill="black" stroke="black" points="1467.55,-397.36 1476.19,-391.23 1465.61,-390.63 1467.55,-397.36"/>
</g>
<!-- terminal.app preferences -->
<g id="node10" class="node">
<title>terminal.app preferences</title>
<ellipse fill="#f9e79f" stroke="#f9e79f" cx="1339.64" cy="-378" rx="98.58" ry="18"/>
<text text-anchor="middle" x="1339.64" y="-374.3" font-family="Times,serif" font-size="14.00">terminal.app preferences</text>
</g>
<!-- join wifi network&#45;&gt;terminal.app preferences -->
<g id="edge5" class="edge">
<title>join wifi network&#45;&gt;terminal.app preferences</title>
<path fill="none" stroke="black" d="M1291.14,-432.05C1299,-423.46 1308.69,-412.86 1317.34,-403.4"/>
<polygon fill="black" stroke="black" points="1320.13,-405.53 1324.29,-395.79 1314.96,-400.81 1320.13,-405.53"/>
</g>
<!-- install xcode cmdline tools -->
<g id="node11" class="node">
<title>install xcode cmdline tools</title>
<ellipse fill="#f9e79f" stroke="#f9e79f" cx="1077.64" cy="-378" rx="106.68" ry="18"/>
<text text-anchor="middle" x="1077.64" y="-374.3" font-family="Times,serif" font-size="14.00">install xcode cmdline tools</text>
</g>
<!-- join wifi network&#45;&gt;install xcode cmdline tools -->
<g id="edge6" class="edge">
<title>join wifi network&#45;&gt;install xcode cmdline tools</title>
<path fill="none" stroke="black" d="M1236.05,-435C1205.85,-424.33 1163.95,-409.51 1130.83,-397.8"/>
<polygon fill="black" stroke="black" points="1131.89,-394.47 1121.3,-394.43 1129.56,-401.07 1131.89,-394.47"/>
</g>
<!-- install dropbox -->
<g id="node29" class="node">
<title>install dropbox</title>
<ellipse fill="#aed6f1" stroke="#aed6f1" cx="1679.64" cy="-378" rx="63.89" ry="18"/>
<text text-anchor="middle" x="1679.64" y="-374.3" font-family="Times,serif" font-size="14.00">install dropbox</text>
</g>
<!-- join wifi network&#45;&gt;install dropbox -->
<g id="edge23" class="edge">
<title>join wifi network&#45;&gt;install dropbox</title>
<path fill="none" stroke="black" d="M1327.63,-437.51C1336.94,-435.58 1346.56,-433.66 1355.64,-432 1459.15,-413.06 1485.93,-413.77 1589.64,-396 1599.07,-394.39 1609.03,-392.59 1618.75,-390.79"/>
<polygon fill="black" stroke="black" points="1619.58,-394.2 1628.77,-388.92 1618.3,-387.32 1619.58,-394.2"/>
</g>
<!-- install pathogen -->
<g id="node35" class="node">
<title>install pathogen</title>
<ellipse fill="#f5b7b1" stroke="#f5b7b1" cx="1221.64" cy="-90" rx="66.89" ry="18"/>
<text text-anchor="middle" x="1221.64" y="-86.3" font-family="Times,serif" font-size="14.00">install pathogen</text>
</g>
<!-- join wifi network&#45;&gt;install pathogen -->
<g id="edge30" class="edge">
<title>join wifi network&#45;&gt;install pathogen</title>
<path fill="none" stroke="black" d="M1258.21,-432.37C1248.98,-422.61 1238.22,-409.56 1231.64,-396 1213.99,-359.61 1212.64,-347.45 1212.64,-307 1212.64,-307 1212.64,-307 1212.64,-233 1212.64,-192.92 1216.26,-146.59 1218.91,-118.05"/>
<polygon fill="black" stroke="black" points="1222.4,-118.31 1219.86,-108.03 1215.43,-117.65 1222.4,-118.31"/>
</g>
<!-- system preferences -->
<g id="node5" class="node">
<title>system preferences</title>
<ellipse fill="none" stroke="black" cx="78.64" cy="-306" rx="78.79" ry="18"/>
<text text-anchor="middle" x="78.64" y="-302.3" font-family="Times,serif" font-size="14.00">system preferences</text>
</g>
<!-- update system&#45;&gt;system preferences -->
<g id="edge2" class="edge">
<title>update system&#45;&gt;system preferences</title>
<path fill="none" stroke="black" d="M215.45,-363C189.44,-352.36 153.38,-337.6 124.82,-325.9"/>
<polygon fill="black" stroke="black" points="126.02,-322.61 115.44,-322.06 123.37,-329.09 126.02,-322.61"/>
</g>
<!-- install ntfs drivers -->
<g id="node25" class="node">
<title>install ntfs drivers</title>
<ellipse fill="#aed6f1" stroke="#aed6f1" cx="249.64" cy="-306" rx="74.99" ry="18"/>
<text text-anchor="middle" x="249.64" y="-302.3" font-family="Times,serif" font-size="14.00">install ntfs drivers</text>
</g>
<!-- update system&#45;&gt;install ntfs drivers -->
<g id="edge18" class="edge">
<title>update system&#45;&gt;install ntfs drivers</title>
<path fill="none" stroke="black" d="M249.64,-359.7C249.64,-351.98 249.64,-342.71 249.64,-334.11"/>
<polygon fill="black" stroke="black" points="253.14,-334.1 249.64,-324.1 246.14,-334.1 253.14,-334.1"/>
</g>
<!-- remove useless apps from dock -->
<g id="node4" class="node">
<title>remove useless apps from dock</title>
<ellipse fill="none" stroke="black" cx="1487.64" cy="-450" rx="122.68" ry="18"/>
<text text-anchor="middle" x="1487.64" y="-446.3" font-family="Times,serif" font-size="14.00">remove useless apps from dock</text>
</g>
<!-- finder preferences and view -->
<g id="node6" class="node">
<title>finder preferences and view</title>
<ellipse fill="none" stroke="black" cx="1736.64" cy="-450" rx="108.58" ry="18"/>
<text text-anchor="middle" x="1736.64" y="-446.3" font-family="Times,serif" font-size="14.00">finder preferences and view</text>
</g>
<!-- textedit preferences -->
<g id="node7" class="node">
<title>textedit preferences</title>
<ellipse fill="none" stroke="black" cx="1942.64" cy="-450" rx="79.89" ry="18"/>
<text text-anchor="middle" x="1942.64" y="-446.3" font-family="Times,serif" font-size="14.00">textedit preferences</text>
</g>
<!-- sync chrome -->
<g id="node9" class="node">
<title>sync chrome</title>
<ellipse fill="none" stroke="black" cx="1509.64" cy="-306" rx="55.79" ry="18"/>
<text text-anchor="middle" x="1509.64" y="-302.3" font-family="Times,serif" font-size="14.00">sync chrome</text>
</g>
<!-- install chrome&#45;&gt;sync chrome -->
<g id="edge4" class="edge">
<title>install chrome&#45;&gt;sync chrome</title>
<path fill="none" stroke="black" d="M1516.42,-359.7C1515.43,-351.98 1514.23,-342.71 1513.13,-334.11"/>
<polygon fill="black" stroke="black" points="1516.59,-333.58 1511.84,-324.1 1509.65,-334.47 1516.59,-333.58"/>
</g>
<!-- dotfiles -->
<g id="node12" class="node">
<title>dotfiles</title>
<ellipse fill="#f9e79f" stroke="#f9e79f" cx="1329.64" cy="-306" rx="36.29" ry="18"/>
<text text-anchor="middle" x="1329.64" y="-302.3" font-family="Times,serif" font-size="14.00">dotfiles</text>
</g>
<!-- terminal.app preferences&#45;&gt;dotfiles -->
<g id="edge7" class="edge">
<title>terminal.app preferences&#45;&gt;dotfiles</title>
<path fill="none" stroke="black" d="M1337.17,-359.7C1336.07,-351.98 1334.74,-342.71 1333.52,-334.11"/>
<polygon fill="black" stroke="black" points="1336.97,-333.51 1332.09,-324.1 1330.04,-334.5 1336.97,-333.51"/>
</g>
<!-- install xcode cmdline tools&#45;&gt;dotfiles -->
<g id="edge8" class="edge">
<title>install xcode cmdline tools&#45;&gt;dotfiles</title>
<path fill="none" stroke="black" d="M1130.47,-362.33C1177.64,-349.22 1245.74,-330.31 1288.83,-318.34"/>
<polygon fill="black" stroke="black" points="1289.99,-321.65 1298.69,-315.6 1288.12,-314.9 1289.99,-321.65"/>
</g>
<!-- install brew -->
<g id="node15" class="node">
<title>install brew</title>
<ellipse fill="#f9e79f" stroke="#f9e79f" cx="850.64" cy="-306" rx="51.99" ry="18"/>
<text text-anchor="middle" x="850.64" y="-302.3" font-family="Times,serif" font-size="14.00">install brew</text>
</g>
<!-- install xcode cmdline tools&#45;&gt;install brew -->
<g id="edge10" class="edge">
<title>install xcode cmdline tools&#45;&gt;install brew</title>
<path fill="none" stroke="black" d="M1028.95,-361.98C990.2,-350.04 936.3,-333.41 897.93,-321.58"/>
<polygon fill="black" stroke="black" points="898.62,-318.13 888.04,-318.53 896.56,-324.82 898.62,-318.13"/>
</g>
<!-- add __git_ps1 -->
<g id="node14" class="node">
<title>add __git_ps1</title>
<ellipse fill="#f9e79f" stroke="#f9e79f" cx="1310.64" cy="-234" rx="60.39" ry="18"/>
<text text-anchor="middle" x="1310.64" y="-230.3" font-family="Times,serif" font-size="14.00">add __git_ps1</text>
</g>
<!-- dotfiles&#45;&gt;add __git_ps1 -->
<g id="edge9" class="edge">
<title>dotfiles&#45;&gt;add __git_ps1</title>
<path fill="none" stroke="black" d="M1325.04,-288.05C1322.93,-280.26 1320.37,-270.82 1317.99,-262.08"/>
<polygon fill="black" stroke="black" points="1321.33,-261.01 1315.33,-252.28 1314.57,-262.84 1321.33,-261.01"/>
</g>
<!-- get vim plugins -->
<g id="node36" class="node">
<title>get vim plugins</title>
<ellipse fill="#f5b7b1" stroke="#f5b7b1" cx="1455.64" cy="-234" rx="66.09" ry="18"/>
<text text-anchor="middle" x="1455.64" y="-230.3" font-family="Times,serif" font-size="14.00">get vim plugins</text>
</g>
<!-- dotfiles&#45;&gt;get vim plugins -->
<g id="edge31" class="edge">
<title>dotfiles&#45;&gt;get vim plugins</title>
<path fill="none" stroke="black" d="M1353.05,-292C1371.6,-281.69 1397.87,-267.1 1419.18,-255.26"/>
<polygon fill="black" stroke="black" points="1420.93,-258.29 1427.97,-250.37 1417.53,-252.17 1420.93,-258.29"/>
</g>
<!-- add to .env -->
<g id="node13" class="node">
<title>add to .env</title>
<ellipse fill="#f9e79f" stroke="#f9e79f" cx="2090.64" cy="-450" rx="50.09" ry="18"/>
<text text-anchor="middle" x="2090.64" y="-446.3" font-family="Times,serif" font-size="14.00">add to .env</text>
</g>
<!-- install tmux -->
<g id="node16" class="node">
<title>install tmux</title>
<ellipse fill="#f9e79f" stroke="#f9e79f" cx="574.64" cy="-234" rx="53.09" ry="18"/>
<text text-anchor="middle" x="574.64" y="-230.3" font-family="Times,serif" font-size="14.00">install tmux</text>
</g>
<!-- install brew&#45;&gt;install tmux -->
<g id="edge11" class="edge">
<title>install brew&#45;&gt;install tmux</title>
<path fill="none" stroke="black" d="M809.14,-295.04C765.97,-284.61 696.46,-267.6 636.64,-252 632.57,-250.94 628.36,-249.82 624.13,-248.69"/>
<polygon fill="black" stroke="black" points="624.86,-245.26 614.29,-246.03 623.03,-252.02 624.86,-245.26"/>
</g>
<!-- install java -->
<g id="node17" class="node">
<title>install java</title>
<ellipse fill="#a9dfbf" stroke="#a9dfbf" cx="850.64" cy="-234" rx="49.29" ry="18"/>
<text text-anchor="middle" x="850.64" y="-230.3" font-family="Times,serif" font-size="14.00">install java</text>
</g>
<!-- install brew&#45;&gt;install java -->
<g id="edge12" class="edge">
<title>install brew&#45;&gt;install java</title>
<path fill="none" stroke="black" d="M850.64,-287.7C850.64,-279.98 850.64,-270.71 850.64,-262.11"/>
<polygon fill="black" stroke="black" points="854.14,-262.1 850.64,-252.1 847.14,-262.1 854.14,-262.1"/>
</g>
<!-- install mactex -->
<g id="node18" class="node">
<title>install mactex</title>
<ellipse fill="#a9dfbf" stroke="#a9dfbf" cx="978.64" cy="-234" rx="60.39" ry="18"/>
<text text-anchor="middle" x="978.64" y="-230.3" font-family="Times,serif" font-size="14.00">install mactex</text>
</g>
<!-- install brew&#45;&gt;install mactex -->
<g id="edge13" class="edge">
<title>install brew&#45;&gt;install mactex</title>
<path fill="none" stroke="black" d="M877.16,-290.5C895.92,-280.24 921.3,-266.36 941.99,-255.05"/>
<polygon fill="black" stroke="black" points="943.73,-258.08 950.83,-250.21 940.37,-251.94 943.73,-258.08"/>
</g>
<!-- install python3 -->
<g id="node19" class="node">
<title>install python3</title>
<ellipse fill="#a9dfbf" stroke="#a9dfbf" cx="1120.64" cy="-234" rx="63.89" ry="18"/>
<text text-anchor="middle" x="1120.64" y="-230.3" font-family="Times,serif" font-size="14.00">install python3</text>
</g>
<!-- install brew&#45;&gt;install python3 -->
<g id="edge14" class="edge">
<title>install brew&#45;&gt;install python3</title>
<path fill="none" stroke="black" d="M891.06,-294.52C937.5,-282.48 1013.94,-262.66 1065.74,-249.23"/>
<polygon fill="black" stroke="black" points="1066.63,-252.62 1075.43,-246.72 1064.87,-245.84 1066.63,-252.62"/>
</g>
<!-- install nginx -->
<g id="node31" class="node">
<title>install nginx</title>
<ellipse fill="#d2b4de" stroke="#d2b4de" cx="448.64" cy="-234" rx="54.69" ry="18"/>
<text text-anchor="middle" x="448.64" y="-230.3" font-family="Times,serif" font-size="14.00">install nginx</text>
</g>
<!-- install brew&#45;&gt;install nginx -->
<g id="edge25" class="edge">
<title>install brew&#45;&gt;install nginx</title>
<path fill="none" stroke="black" d="M802.5,-299.06C736.68,-290.56 615.08,-273.58 512.64,-252 508.03,-251.03 503.26,-249.93 498.5,-248.78"/>
<polygon fill="black" stroke="black" points="499.33,-245.38 488.78,-246.34 497.63,-252.17 499.33,-245.38"/>
</g>
<!-- brew install vim -->
<g id="node34" class="node">
<title>brew install vim</title>
<ellipse fill="#f5b7b1" stroke="#f5b7b1" cx="714.64" cy="-234" rx="68.79" ry="18"/>
<text text-anchor="middle" x="714.64" y="-230.3" font-family="Times,serif" font-size="14.00">brew install vim</text>
</g>
<!-- install brew&#45;&gt;brew install vim -->
<g id="edge29" class="edge">
<title>install brew&#45;&gt;brew install vim</title>
<path fill="none" stroke="black" d="M822.79,-290.67C802.8,-280.38 775.6,-266.37 753.47,-254.99"/>
<polygon fill="black" stroke="black" points="754.83,-251.75 744.34,-250.29 751.63,-257.97 754.83,-251.75"/>
</g>
<!-- pip3 install virtualenv -->
<g id="node20" class="node">
<title>pip3 install virtualenv</title>
<ellipse fill="#a9dfbf" stroke="#a9dfbf" cx="1077.64" cy="-162" rx="88.28" ry="18"/>
<text text-anchor="middle" x="1077.64" y="-158.3" font-family="Times,serif" font-size="14.00">pip3 install virtualenv</text>
</g>
<!-- install python3&#45;&gt;pip3 install virtualenv -->
<g id="edge15" class="edge">
<title>install python3&#45;&gt;pip3 install virtualenv</title>
<path fill="none" stroke="black" d="M1110.23,-216.05C1105.24,-207.92 1099.14,-198 1093.58,-188.94"/>
<polygon fill="black" stroke="black" points="1096.47,-186.96 1088.25,-180.28 1090.51,-190.63 1096.47,-186.96"/>
</g>
<!-- create virtualenv -->
<g id="node21" class="node">
<title>create virtualenv</title>
<ellipse fill="#a9dfbf" stroke="#a9dfbf" cx="1067.64" cy="-90" rx="69.59" ry="18"/>
<text text-anchor="middle" x="1067.64" y="-86.3" font-family="Times,serif" font-size="14.00">create virtualenv</text>
</g>
<!-- pip3 install virtualenv&#45;&gt;create virtualenv -->
<g id="edge16" class="edge">
<title>pip3 install virtualenv&#45;&gt;create virtualenv</title>
<path fill="none" stroke="black" d="M1075.17,-143.7C1074.07,-135.98 1072.74,-126.71 1071.52,-118.11"/>
<polygon fill="black" stroke="black" points="1074.97,-117.51 1070.09,-108.1 1068.04,-118.5 1074.97,-117.51"/>
</g>
<!-- pip install common packages -->
<g id="node22" class="node">
<title>pip install common packages</title>
<ellipse fill="#a9dfbf" stroke="#a9dfbf" cx="997.64" cy="-18" rx="114.28" ry="18"/>
<text text-anchor="middle" x="997.64" y="-14.3" font-family="Times,serif" font-size="14.00">pip install common packages</text>
</g>
<!-- create virtualenv&#45;&gt;pip install common packages -->
<g id="edge17" class="edge">
<title>create virtualenv&#45;&gt;pip install common packages</title>
<path fill="none" stroke="black" d="M1051.05,-72.41C1042.29,-63.65 1031.38,-52.73 1021.7,-43.06"/>
<polygon fill="black" stroke="black" points="1024.15,-40.55 1014.6,-35.96 1019.2,-45.5 1024.15,-40.55"/>
</g>
<!-- install youcompleteme -->
<g id="node37" class="node">
<title>install youcompleteme</title>
<ellipse fill="#f5b7b1" stroke="#f5b7b1" cx="1221.64" cy="-18" rx="91.78" ry="18"/>
<text text-anchor="middle" x="1221.64" y="-14.3" font-family="Times,serif" font-size="14.00">install youcompleteme</text>
</g>
<!-- create virtualenv&#45;&gt;install youcompleteme -->
<g id="edge33" class="edge">
<title>create virtualenv&#45;&gt;install youcompleteme</title>
<path fill="none" stroke="black" d="M1100.68,-73.98C1123.25,-63.72 1153.4,-50.02 1177.95,-38.86"/>
<polygon fill="black" stroke="black" points="1179.4,-42.04 1187.06,-34.72 1176.51,-35.67 1179.4,-42.04"/>
</g>
<!-- backup data -->
<g id="node23" class="node">
<title>backup data</title>
<ellipse fill="#aed6f1" stroke="#aed6f1" cx="395.64" cy="-306" rx="53.09" ry="18"/>
<text text-anchor="middle" x="395.64" y="-302.3" font-family="Times,serif" font-size="14.00">backup data</text>
</g>
<!-- transfer data from external disk -->
<g id="node26" class="node">
<title>transfer data from external disk</title>
<ellipse fill="#aed6f1" stroke="#aed6f1" cx="249.64" cy="-234" rx="122.38" ry="18"/>
<text text-anchor="middle" x="249.64" y="-230.3" font-family="Times,serif" font-size="14.00">transfer data from external disk</text>
</g>
<!-- backup data&#45;&gt;transfer data from external disk -->
<g id="edge19" class="edge">
<title>backup data&#45;&gt;transfer data from external disk</title>
<path fill="none" stroke="black" d="M366.1,-290.83C345.06,-280.75 316.45,-267.03 292.86,-255.72"/>
<polygon fill="black" stroke="black" points="294.28,-252.52 283.75,-251.35 291.26,-258.83 294.28,-252.52"/>
</g>
<!-- backup: push commits to git -->
<g id="node24" class="node">
<title>backup: push commits to git</title>
<ellipse fill="#aed6f1" stroke="#aed6f1" cx="2270.64" cy="-450" rx="112.38" ry="18"/>
<text text-anchor="middle" x="2270.64" y="-446.3" font-family="Times,serif" font-size="14.00">backup: push commits to git</text>
</g>
<!-- install ntfs drivers&#45;&gt;transfer data from external disk -->
<g id="edge20" class="edge">
<title>install ntfs drivers&#45;&gt;transfer data from external disk</title>
<path fill="none" stroke="black" d="M249.64,-287.7C249.64,-279.98 249.64,-270.71 249.64,-262.11"/>
<polygon fill="black" stroke="black" points="253.14,-262.1 249.64,-252.1 246.14,-262.1 253.14,-262.1"/>
</g>
<!-- add profile pic -->
<g id="node27" class="node">
<title>add profile pic</title>
<ellipse fill="#aed6f1" stroke="#aed6f1" cx="241.64" cy="-162" rx="61.99" ry="18"/>
<text text-anchor="middle" x="241.64" y="-158.3" font-family="Times,serif" font-size="14.00">add profile pic</text>
</g>
<!-- transfer data from external disk&#45;&gt;add profile pic -->
<g id="edge21" class="edge">
<title>transfer data from external disk&#45;&gt;add profile pic</title>
<path fill="none" stroke="black" d="M247.67,-215.7C246.78,-207.98 245.72,-198.71 244.74,-190.11"/>
<polygon fill="black" stroke="black" points="248.21,-189.64 243.6,-180.1 241.26,-190.44 248.21,-189.64"/>
</g>
<!-- add wallpapers -->
<g id="node28" class="node">
<title>add wallpapers</title>
<ellipse fill="#aed6f1" stroke="#aed6f1" cx="98.64" cy="-162" rx="63.89" ry="18"/>
<text text-anchor="middle" x="98.64" y="-158.3" font-family="Times,serif" font-size="14.00">add wallpapers</text>
</g>
<!-- transfer data from external disk&#45;&gt;add wallpapers -->
<g id="edge22" class="edge">
<title>transfer data from external disk&#45;&gt;add wallpapers</title>
<path fill="none" stroke="black" d="M214.24,-216.59C191.87,-206.22 162.88,-192.78 139.53,-181.95"/>
<polygon fill="black" stroke="black" points="140.78,-178.67 130.23,-177.64 137.83,-185.02 140.78,-178.67"/>
</g>
<!-- serve websites with nginx -->
<g id="node33" class="node">
<title>serve websites with nginx</title>
<ellipse fill="#d2b4de" stroke="#d2b4de" cx="392.64" cy="-90" rx="102.88" ry="18"/>
<text text-anchor="middle" x="392.64" y="-86.3" font-family="Times,serif" font-size="14.00">serve websites with nginx</text>
</g>
<!-- transfer data from external disk&#45;&gt;serve websites with nginx -->
<g id="edge28" class="edge">
<title>transfer data from external disk&#45;&gt;serve websites with nginx</title>
<path fill="none" stroke="black" d="M271.28,-216.04C283.75,-205.97 299.5,-192.72 312.64,-180 333.88,-159.45 356.21,-134.27 371.86,-115.94"/>
<polygon fill="black" stroke="black" points="374.76,-117.93 378.56,-108.04 369.42,-113.4 374.76,-117.93"/>
</g>
<!-- use symlinks with dropbox -->
<g id="node30" class="node">
<title>use symlinks with dropbox</title>
<ellipse fill="#aed6f1" stroke="#aed6f1" cx="1689.64" cy="-306" rx="106.68" ry="18"/>
<text text-anchor="middle" x="1689.64" y="-302.3" font-family="Times,serif" font-size="14.00">use symlinks with dropbox</text>
</g>
<!-- install dropbox&#45;&gt;use symlinks with dropbox -->
<g id="edge24" class="edge">
<title>install dropbox&#45;&gt;use symlinks with dropbox</title>
<path fill="none" stroke="black" d="M1682.11,-359.7C1683.22,-351.98 1684.54,-342.71 1685.77,-334.11"/>
<polygon fill="black" stroke="black" points="1689.25,-334.5 1687.2,-324.1 1682.32,-333.51 1689.25,-334.5"/>
</g>
<!-- enable nginx autoindex -->
<g id="node32" class="node">
<title>enable nginx autoindex</title>
<ellipse fill="#d2b4de" stroke="#d2b4de" cx="452.64" cy="-162" rx="92.88" ry="18"/>
<text text-anchor="middle" x="452.64" y="-158.3" font-family="Times,serif" font-size="14.00">enable nginx autoindex</text>
</g>
<!-- install nginx&#45;&gt;enable nginx autoindex -->
<g id="edge26" class="edge">
<title>install nginx&#45;&gt;enable nginx autoindex</title>
<path fill="none" stroke="black" d="M449.63,-215.7C450.07,-207.98 450.6,-198.71 451.09,-190.11"/>
<polygon fill="black" stroke="black" points="454.59,-190.29 451.67,-180.1 447.6,-189.89 454.59,-190.29"/>
</g>
<!-- enable nginx autoindex&#45;&gt;serve websites with nginx -->
<g id="edge27" class="edge">
<title>enable nginx autoindex&#45;&gt;serve websites with nginx</title>
<path fill="none" stroke="black" d="M438.12,-144.05C430.93,-135.67 422.11,-125.38 414.15,-116.1"/>
<polygon fill="black" stroke="black" points="416.62,-113.59 407.45,-108.28 411.3,-118.15 416.62,-113.59"/>
</g>
<!-- fix vim locale error -->
<g id="node38" class="node">
<title>fix vim locale error</title>
<ellipse fill="#f5b7b1" stroke="#f5b7b1" cx="714.64" cy="-162" rx="79.09" ry="18"/>
<text text-anchor="middle" x="714.64" y="-158.3" font-family="Times,serif" font-size="14.00">fix vim locale error</text>
</g>
<!-- brew install vim&#45;&gt;fix vim locale error -->
<g id="edge34" class="edge">
<title>brew install vim&#45;&gt;fix vim locale error</title>
<path fill="none" stroke="black" d="M714.64,-215.7C714.64,-207.98 714.64,-198.71 714.64,-190.11"/>
<polygon fill="black" stroke="black" points="718.14,-190.1 714.64,-180.1 711.14,-190.1 718.14,-190.1"/>
</g>
<!-- install pathogen&#45;&gt;install youcompleteme -->
<g id="edge32" class="edge">
<title>install pathogen&#45;&gt;install youcompleteme</title>
<path fill="none" stroke="black" d="M1221.64,-71.7C1221.64,-63.98 1221.64,-54.71 1221.64,-46.11"/>
<polygon fill="black" stroke="black" points="1225.14,-46.1 1221.64,-36.1 1218.14,-46.1 1225.14,-46.1"/>
</g>
</g>
</svg>
