<?xml version="1.0" encoding="UTF-8" standalone="no"?>
<!DOCTYPE svg PUBLIC "-//W3C//DTD SVG 1.1//EN"
 "http://www.w3.org/Graphics/SVG/1.1/DTD/svg11.dtd">
<!-- Generated by graphviz version 2.40.1 (20161225.0304)
 -->
<!-- Title: dep_graph Pages: 1 -->
<svg width="2366pt" height="476pt"
 viewBox="0.00 0.00 2365.95 476.00" xmlns="http://www.w3.org/2000/svg" xmlns:xlink="http://www.w3.org/1999/xlink">
<g id="graph0" class="graph" transform="scale(1 1) rotate(0) translate(4 472)">
<title>dep_graph</title>
<polygon fill="#ffffff" stroke="transparent" points="-4,4 -4,-472 2361.9545,-472 2361.9545,4 -4,4"/>
<!-- show battery percentage -->
<g id="node1" class="node">
<title>show battery percentage</title>
<ellipse fill="none" stroke="#000000" cx="1075.6289" cy="-450" rx="96.0913" ry="18"/>
<text text-anchor="middle" x="1075.6289" y="-445.8" font-family="Times,serif" font-size="14.00" fill="#000000">show battery percentage</text>
</g>
<!-- join wifi network -->
<g id="node2" class="node">
<title>join wifi network</title>
<ellipse fill="none" stroke="#000000" cx="1260.6289" cy="-450" rx="71.0531" ry="18"/>
<text text-anchor="middle" x="1260.6289" y="-445.8" font-family="Times,serif" font-size="14.00" fill="#000000">join wifi network</text>
</g>
<!-- update system -->
<g id="node3" class="node">
<title>update system</title>
<ellipse fill="none" stroke="#000000" cx="247.6289" cy="-378" rx="60.4117" ry="18"/>
<text text-anchor="middle" x="247.6289" y="-373.8" font-family="Times,serif" font-size="14.00" fill="#000000">update system</text>
</g>
<!-- join wifi network&#45;&gt;update system -->
<g id="edge1" class="edge">
<title>join wifi network&#45;&gt;update system</title>
<path fill="none" stroke="#000000" d="M1210.0739,-437.3142C1200.3535,-435.2479 1190.2154,-433.3467 1180.6289,-432 1014.0831,-408.6041 505.427,-387.688 317.9663,-380.5781"/>
<polygon fill="#000000" stroke="#000000" points="318.0745,-377.0798 307.9495,-380.1998 317.8102,-384.0748 318.0745,-377.0798"/>
</g>
<!-- install chrome -->
<g id="node8" class="node">
<title>install chrome</title>
<ellipse fill="none" stroke="#000000" cx="1499.6289" cy="-378" rx="60.4031" ry="18"/>
<text text-anchor="middle" x="1499.6289" y="-373.8" font-family="Times,serif" font-size="14.00" fill="#000000">install chrome</text>
</g>
<!-- join wifi network&#45;&gt;install chrome -->
<g id="edge3" class="edge">
<title>join wifi network&#45;&gt;install chrome</title>
<path fill="none" stroke="#000000" d="M1306.4277,-436.2029C1346.5822,-424.1061 1404.9513,-406.5221 1447.0131,-393.8508"/>
<polygon fill="#000000" stroke="#000000" points="1448.2317,-397.1391 1456.7971,-390.9033 1446.2125,-390.4367 1448.2317,-397.1391"/>
</g>
<!-- terminal.app preferences -->
<g id="node10" class="node">
<title>terminal.app preferences</title>
<ellipse fill="#f9e79f" stroke="#f9e79f" cx="1323.6289" cy="-378" rx="97.5189" ry="18"/>
<text text-anchor="middle" x="1323.6289" y="-373.8" font-family="Times,serif" font-size="14.00" fill="#000000">terminal.app preferences</text>
</g>
<!-- join wifi network&#45;&gt;terminal.app preferences -->
<g id="edge5" class="edge">
<title>join wifi network&#45;&gt;terminal.app preferences</title>
<path fill="none" stroke="#000000" d="M1276.202,-432.2022C1283.7742,-423.5483 1293.0127,-412.99 1301.3174,-403.4988"/>
<polygon fill="#000000" stroke="#000000" points="1304.0656,-405.6731 1308.0167,-395.8425 1298.7976,-401.0636 1304.0656,-405.6731"/>
</g>
<!-- install xcode cmdline tools -->
<g id="node11" class="node">
<title>install xcode cmdline tools</title>
<ellipse fill="#f9e79f" stroke="#f9e79f" cx="1064.6289" cy="-378" rx="105.3139" ry="18"/>
<text text-anchor="middle" x="1064.6289" y="-373.8" font-family="Times,serif" font-size="14.00" fill="#000000">install xcode cmdline tools</text>
</g>
<!-- join wifi network&#45;&gt;install xcode cmdline tools -->
<g id="edge6" class="edge">
<title>join wifi network&#45;&gt;install xcode cmdline tools</title>
<path fill="none" stroke="#000000" d="M1220.0176,-435.0816C1190.7522,-424.331 1150.9443,-409.7077 1118.9473,-397.9537"/>
<polygon fill="#000000" stroke="#000000" points="1119.8818,-394.5684 1109.2883,-394.4055 1117.4681,-401.1391 1119.8818,-394.5684"/>
</g>
<!-- install dropbox -->
<g id="node29" class="node">
<title>install dropbox</title>
<ellipse fill="#aed6f1" stroke="#aed6f1" cx="1659.6289" cy="-378" rx="63.319" ry="18"/>
<text text-anchor="middle" x="1659.6289" y="-373.8" font-family="Times,serif" font-size="14.00" fill="#000000">install dropbox</text>
</g>
<!-- join wifi network&#45;&gt;install dropbox -->
<g id="edge23" class="edge">
<title>join wifi network&#45;&gt;install dropbox</title>
<path fill="none" stroke="#000000" d="M1313.0276,-437.7005C1322.2055,-435.6921 1331.68,-433.7114 1340.6289,-432 1441.3916,-412.7302 1467.624,-413.9566 1568.6289,-396 1578.2615,-394.2875 1588.4469,-392.3742 1598.3803,-390.4517"/>
<polygon fill="#000000" stroke="#000000" points="1599.0565,-393.8858 1608.1999,-388.5333 1597.7143,-387.0157 1599.0565,-393.8858"/>
</g>
<!-- install pathogen -->
<g id="node35" class="node">
<title>install pathogen</title>
<ellipse fill="#f5b7b1" stroke="#f5b7b1" cx="1206.6289" cy="-90" rx="66.2004" ry="18"/>
<text text-anchor="middle" x="1206.6289" y="-85.8" font-family="Times,serif" font-size="14.00" fill="#000000">install pathogen</text>
</g>
<!-- join wifi network&#45;&gt;install pathogen -->
<g id="edge30" class="edge">
<title>join wifi network&#45;&gt;install pathogen</title>
<path fill="none" stroke="#000000" d="M1242.756,-432.5259C1233.6211,-422.6216 1223.0958,-409.5294 1216.6289,-396 1198.9985,-359.1153 1197.6289,-346.8816 1197.6289,-306 1197.6289,-306 1197.6289,-306 1197.6289,-234 1197.6289,-193.7977 1201.1664,-147.4047 1203.8058,-118.385"/>
<polygon fill="#000000" stroke="#000000" points="1207.3153,-118.4457 1204.7641,-108.1626 1200.3459,-117.7923 1207.3153,-118.4457"/>
</g>
<!-- system preferences -->
<g id="node5" class="node">
<title>system preferences</title>
<ellipse fill="none" stroke="#000000" cx="77.6289" cy="-306" rx="77.7581" ry="18"/>
<text text-anchor="middle" x="77.6289" y="-301.8" font-family="Times,serif" font-size="14.00" fill="#000000">system preferences</text>
</g>
<!-- update system&#45;&gt;system preferences -->
<g id="edge2" class="edge">
<title>update system&#45;&gt;system preferences</title>
<path fill="none" stroke="#000000" d="M212.8167,-363.256C187.3565,-352.4728 152.5368,-337.7257 124.6119,-325.8987"/>
<polygon fill="#000000" stroke="#000000" points="125.6219,-322.5255 115.0487,-321.8484 122.8919,-328.9712 125.6219,-322.5255"/>
</g>
<!-- install ntfs drivers -->
<g id="node25" class="node">
<title>install ntfs drivers</title>
<ellipse fill="#aed6f1" stroke="#aed6f1" cx="247.6289" cy="-306" rx="73.9344" ry="18"/>
<text text-anchor="middle" x="247.6289" y="-301.8" font-family="Times,serif" font-size="14.00" fill="#000000">install ntfs drivers</text>
</g>
<!-- update system&#45;&gt;install ntfs drivers -->
<g id="edge18" class="edge">
<title>update system&#45;&gt;install ntfs drivers</title>
<path fill="none" stroke="#000000" d="M247.6289,-359.8314C247.6289,-352.131 247.6289,-342.9743 247.6289,-334.4166"/>
<polygon fill="#000000" stroke="#000000" points="251.129,-334.4132 247.6289,-324.4133 244.129,-334.4133 251.129,-334.4132"/>
</g>
<!-- remove useless apps from dock -->
<g id="node4" class="node">
<title>remove useless apps from dock</title>
<ellipse fill="none" stroke="#000000" cx="1470.6289" cy="-450" rx="121.2245" ry="18"/>
<text text-anchor="middle" x="1470.6289" y="-445.8" font-family="Times,serif" font-size="14.00" fill="#000000">remove useless apps from dock</text>
</g>
<!-- finder preferences and view -->
<g id="node6" class="node">
<title>finder preferences and view</title>
<ellipse fill="none" stroke="#000000" cx="1717.6289" cy="-450" rx="108.1517" ry="18"/>
<text text-anchor="middle" x="1717.6289" y="-445.8" font-family="Times,serif" font-size="14.00" fill="#000000">finder preferences and view</text>
</g>
<!-- textedit preferences -->
<g id="node7" class="node">
<title>textedit preferences</title>
<ellipse fill="none" stroke="#000000" cx="1923.6289" cy="-450" rx="79.6701" ry="18"/>
<text text-anchor="middle" x="1923.6289" y="-445.8" font-family="Times,serif" font-size="14.00" fill="#000000">textedit preferences</text>
</g>
<!-- sync chrome -->
<g id="node9" class="node">
<title>sync chrome</title>
<ellipse fill="none" stroke="#000000" cx="1490.6289" cy="-306" rx="55.0906" ry="18"/>
<text text-anchor="middle" x="1490.6289" y="-301.8" font-family="Times,serif" font-size="14.00" fill="#000000">sync chrome</text>
</g>
<!-- install chrome&#45;&gt;sync chrome -->
<g id="edge4" class="edge">
<title>install chrome&#45;&gt;sync chrome</title>
<path fill="none" stroke="#000000" d="M1497.3578,-359.8314C1496.3953,-352.131 1495.2507,-342.9743 1494.181,-334.4166"/>
<polygon fill="#000000" stroke="#000000" points="1497.644,-333.9019 1492.9306,-324.4133 1490.698,-334.7702 1497.644,-333.9019"/>
</g>
<!-- dotfiles -->
<g id="node12" class="node">
<title>dotfiles</title>
<ellipse fill="#f9e79f" stroke="#f9e79f" cx="1314.6289" cy="-306" rx="36.2992" ry="18"/>
<text text-anchor="middle" x="1314.6289" y="-301.8" font-family="Times,serif" font-size="14.00" fill="#000000">dotfiles</text>
</g>
<!-- terminal.app preferences&#45;&gt;dotfiles -->
<g id="edge7" class="edge">
<title>terminal.app preferences&#45;&gt;dotfiles</title>
<path fill="none" stroke="#000000" d="M1321.3578,-359.8314C1320.3953,-352.131 1319.2507,-342.9743 1318.181,-334.4166"/>
<polygon fill="#000000" stroke="#000000" points="1321.644,-333.9019 1316.9306,-324.4133 1314.698,-334.7702 1321.644,-333.9019"/>
</g>
<!-- install xcode cmdline tools&#45;&gt;dotfiles -->
<g id="edge8" class="edge">
<title>install xcode cmdline tools&#45;&gt;dotfiles</title>
<path fill="none" stroke="#000000" d="M1118.5674,-362.4657C1165.0782,-349.0706 1231.244,-330.0149 1273.5592,-317.8281"/>
<polygon fill="#000000" stroke="#000000" points="1274.6132,-321.1669 1283.2539,-315.036 1272.6759,-314.4403 1274.6132,-321.1669"/>
</g>
<!-- install brew -->
<g id="node15" class="node">
<title>install brew</title>
<ellipse fill="#f9e79f" stroke="#f9e79f" cx="840.6289" cy="-306" rx="51.725" ry="18"/>
<text text-anchor="middle" x="840.6289" y="-301.8" font-family="Times,serif" font-size="14.00" fill="#000000">install brew</text>
</g>
<!-- install xcode cmdline tools&#45;&gt;install brew -->
<g id="edge10" class="edge">
<title>install xcode cmdline tools&#45;&gt;install brew</title>
<path fill="none" stroke="#000000" d="M1015.1939,-362.1102C977.4657,-349.9832 925.7914,-333.3737 888.465,-321.3759"/>
<polygon fill="#000000" stroke="#000000" points="889.4137,-318.0045 878.8223,-318.2764 887.2716,-324.6687 889.4137,-318.0045"/>
</g>
<!-- add __git_ps1 -->
<g id="node14" class="node">
<title>add __git_ps1</title>
<ellipse fill="#f9e79f" stroke="#f9e79f" cx="1295.6289" cy="-234" rx="59.9445" ry="18"/>
<text text-anchor="middle" x="1295.6289" y="-229.8" font-family="Times,serif" font-size="14.00" fill="#000000">add __git_ps1</text>
</g>
<!-- dotfiles&#45;&gt;add __git_ps1 -->
<g id="edge9" class="edge">
<title>dotfiles&#45;&gt;add __git_ps1</title>
<path fill="none" stroke="#000000" d="M1309.8344,-287.8314C1307.78,-280.0463 1305.3329,-270.7729 1303.0534,-262.1347"/>
<polygon fill="#000000" stroke="#000000" points="1306.4238,-261.1892 1300.488,-252.4133 1299.6555,-262.9753 1306.4238,-261.1892"/>
</g>
<!-- get vim plugins -->
<g id="node36" class="node">
<title>get vim plugins</title>
<ellipse fill="#f5b7b1" stroke="#f5b7b1" cx="1438.6289" cy="-234" rx="65.265" ry="18"/>
<text text-anchor="middle" x="1438.6289" y="-229.8" font-family="Times,serif" font-size="14.00" fill="#000000">get vim plugins</text>
</g>
<!-- dotfiles&#45;&gt;get vim plugins -->
<g id="edge31" class="edge">
<title>dotfiles&#45;&gt;get vim plugins</title>
<path fill="none" stroke="#000000" d="M1338.2443,-292.2879C1356.1177,-281.9097 1381.0078,-267.4574 1401.5316,-255.5404"/>
<polygon fill="#000000" stroke="#000000" points="1403.4289,-258.486 1410.3193,-250.4379 1399.9139,-252.4325 1403.4289,-258.486"/>
</g>
<!-- add to .env -->
<g id="node13" class="node">
<title>add to .env</title>
<ellipse fill="#f9e79f" stroke="#f9e79f" cx="2070.6289" cy="-450" rx="49.3113" ry="18"/>
<text text-anchor="middle" x="2070.6289" y="-445.8" font-family="Times,serif" font-size="14.00" fill="#000000">add to .env</text>
</g>
<!-- install tmux -->
<g id="node16" class="node">
<title>install tmux</title>
<ellipse fill="#f9e79f" stroke="#f9e79f" cx="568.6289" cy="-234" rx="52.2268" ry="18"/>
<text text-anchor="middle" x="568.6289" y="-229.8" font-family="Times,serif" font-size="14.00" fill="#000000">install tmux</text>
</g>
<!-- install brew&#45;&gt;install tmux -->
<g id="edge11" class="edge">
<title>install brew&#45;&gt;install tmux</title>
<path fill="none" stroke="#000000" d="M798.0737,-295.592C755.3733,-285.035 687.7751,-268.0138 629.6289,-252 625.7866,-250.9418 621.8152,-249.8242 617.8274,-248.6849"/>
<polygon fill="#000000" stroke="#000000" points="618.524,-245.2431 607.9454,-245.8301 616.5811,-251.9681 618.524,-245.2431"/>
</g>
<!-- install java -->
<g id="node17" class="node">
<title>install java</title>
<ellipse fill="#a9dfbf" stroke="#a9dfbf" cx="840.6289" cy="-234" rx="48.8268" ry="18"/>
<text text-anchor="middle" x="840.6289" y="-229.8" font-family="Times,serif" font-size="14.00" fill="#000000">install java</text>
</g>
<!-- install brew&#45;&gt;install java -->
<g id="edge12" class="edge">
<title>install brew&#45;&gt;install java</title>
<path fill="none" stroke="#000000" d="M840.6289,-287.8314C840.6289,-280.131 840.6289,-270.9743 840.6289,-262.4166"/>
<polygon fill="#000000" stroke="#000000" points="844.129,-262.4132 840.6289,-252.4133 837.129,-262.4133 844.129,-262.4132"/>
</g>
<!-- install mactex -->
<g id="node18" class="node">
<title>install mactex</title>
<ellipse fill="#a9dfbf" stroke="#a9dfbf" cx="966.6289" cy="-234" rx="59.434" ry="18"/>
<text text-anchor="middle" x="966.6289" y="-229.8" font-family="Times,serif" font-size="14.00" fill="#000000">install mactex</text>
</g>
<!-- install brew&#45;&gt;install mactex -->
<g id="edge13" class="edge">
<title>install brew&#45;&gt;install mactex</title>
<path fill="none" stroke="#000000" d="M867.6591,-290.5542C885.844,-280.1628 910.0421,-266.3353 929.9589,-254.9543"/>
<polygon fill="#000000" stroke="#000000" points="931.8257,-257.9187 938.7717,-249.9184 928.3527,-251.841 931.8257,-257.9187"/>
</g>
<!-- install python3 -->
<g id="node19" class="node">
<title>install python3</title>
<ellipse fill="#a9dfbf" stroke="#a9dfbf" cx="1106.6289" cy="-234" rx="62.8431" ry="18"/>
<text text-anchor="middle" x="1106.6289" y="-229.8" font-family="Times,serif" font-size="14.00" fill="#000000">install python3</text>
</g>
<!-- install brew&#45;&gt;install python3 -->
<g id="edge14" class="edge">
<title>install brew&#45;&gt;install python3</title>
<path fill="none" stroke="#000000" d="M881.6085,-294.9078C926.9678,-282.6301 1000.3357,-262.7711 1050.896,-249.0856"/>
<polygon fill="#000000" stroke="#000000" points="1051.9508,-252.4261 1060.689,-246.4349 1050.1218,-245.6693 1051.9508,-252.4261"/>
</g>
<!-- install nginx -->
<g id="node31" class="node">
<title>install nginx</title>
<ellipse fill="#d2b4de" stroke="#d2b4de" cx="444.6289" cy="-234" rx="54.1561" ry="18"/>
<text text-anchor="middle" x="444.6289" y="-229.8" font-family="Times,serif" font-size="14.00" fill="#000000">install nginx</text>
</g>
<!-- install brew&#45;&gt;install nginx -->
<g id="edge25" class="edge">
<title>install brew&#45;&gt;install nginx</title>
<path fill="none" stroke="#000000" d="M791.7565,-299.9064C726.5425,-291.3587 607.6625,-274.3202 507.6289,-252 503.3286,-251.0405 498.8873,-249.9592 494.4461,-248.8151"/>
<polygon fill="#000000" stroke="#000000" points="495.3432,-245.432 484.7787,-246.2326 493.5366,-252.1949 495.3432,-245.432"/>
</g>
<!-- brew install vim -->
<g id="node34" class="node">
<title>brew install vim</title>
<ellipse fill="#f5b7b1" stroke="#f5b7b1" cx="706.6289" cy="-234" rx="67.6615" ry="18"/>
<text text-anchor="middle" x="706.6289" y="-229.8" font-family="Times,serif" font-size="14.00" fill="#000000">brew install vim</text>
</g>
<!-- install brew&#45;&gt;brew install vim -->
<g id="edge29" class="edge">
<title>install brew&#45;&gt;brew install vim</title>
<path fill="none" stroke="#000000" d="M812.211,-290.7307C792.851,-280.3283 766.9714,-266.4228 745.6799,-254.9826"/>
<polygon fill="#000000" stroke="#000000" points="747.3338,-251.8981 736.8682,-250.248 744.0205,-258.0643 747.3338,-251.8981"/>
</g>
<!-- pip3 install virtualenv -->
<g id="node20" class="node">
<title>pip3 install virtualenv</title>
<ellipse fill="#a9dfbf" stroke="#a9dfbf" cx="1062.6289" cy="-162" rx="87.9412" ry="18"/>
<text text-anchor="middle" x="1062.6289" y="-157.8" font-family="Times,serif" font-size="14.00" fill="#000000">pip3 install virtualenv</text>
</g>
<!-- install python3&#45;&gt;pip3 install virtualenv -->
<g id="edge15" class="edge">
<title>install python3&#45;&gt;pip3 install virtualenv</title>
<path fill="none" stroke="#000000" d="M1095.7525,-216.2022C1090.7137,-207.9569 1084.6184,-197.9828 1079.0373,-188.8501"/>
<polygon fill="#000000" stroke="#000000" points="1081.8869,-186.8009 1073.6858,-180.0931 1075.9139,-190.451 1081.8869,-186.8009"/>
</g>
<!-- create virtualenv -->
<g id="node21" class="node">
<title>create virtualenv</title>
<ellipse fill="#a9dfbf" stroke="#a9dfbf" cx="1052.6289" cy="-90" rx="69.0476" ry="18"/>
<text text-anchor="middle" x="1052.6289" y="-85.8" font-family="Times,serif" font-size="14.00" fill="#000000">create virtualenv</text>
</g>
<!-- pip3 install virtualenv&#45;&gt;create virtualenv -->
<g id="edge16" class="edge">
<title>pip3 install virtualenv&#45;&gt;create virtualenv</title>
<path fill="none" stroke="#000000" d="M1060.1055,-143.8314C1059.036,-136.131 1057.7643,-126.9743 1056.5757,-118.4166"/>
<polygon fill="#000000" stroke="#000000" points="1060.0288,-117.8367 1055.1863,-108.4133 1053.0954,-118.7997 1060.0288,-117.8367"/>
</g>
<!-- pip install common packages -->
<g id="node22" class="node">
<title>pip install common packages</title>
<ellipse fill="#a9dfbf" stroke="#a9dfbf" cx="985.6289" cy="-18" rx="113.0229" ry="18"/>
<text text-anchor="middle" x="985.6289" y="-13.8" font-family="Times,serif" font-size="14.00" fill="#000000">pip install common packages</text>
</g>
<!-- create virtualenv&#45;&gt;pip install common packages -->
<g id="edge17" class="edge">
<title>create virtualenv&#45;&gt;pip install common packages</title>
<path fill="none" stroke="#000000" d="M1036.0671,-72.2022C1027.9336,-63.4617 1017.9924,-52.7786 1009.0924,-43.2144"/>
<polygon fill="#000000" stroke="#000000" points="1011.607,-40.7789 1002.2324,-35.8425 1006.4825,-45.5476 1011.607,-40.7789"/>
</g>
<!-- install youcompleteme -->
<g id="node37" class="node">
<title>install youcompleteme</title>
<ellipse fill="#f5b7b1" stroke="#f5b7b1" cx="1206.6289" cy="-18" rx="90.3297" ry="18"/>
<text text-anchor="middle" x="1206.6289" y="-13.8" font-family="Times,serif" font-size="14.00" fill="#000000">install youcompleteme</text>
</g>
<!-- create virtualenv&#45;&gt;install youcompleteme -->
<g id="edge33" class="edge">
<title>create virtualenv&#45;&gt;install youcompleteme</title>
<path fill="none" stroke="#000000" d="M1086.4249,-74.1993C1108.5453,-63.8573 1137.6992,-50.2269 1161.7555,-38.9798"/>
<polygon fill="#000000" stroke="#000000" points="1163.4611,-42.0461 1171.0376,-34.6401 1160.4963,-35.7049 1163.4611,-42.0461"/>
</g>
<!-- backup data -->
<g id="node23" class="node">
<title>backup data</title>
<ellipse fill="#aed6f1" stroke="#aed6f1" cx="392.6289" cy="-306" rx="52.668" ry="18"/>
<text text-anchor="middle" x="392.6289" y="-301.8" font-family="Times,serif" font-size="14.00" fill="#000000">backup data</text>
</g>
<!-- transfer data from external disk -->
<g id="node26" class="node">
<title>transfer data from external disk</title>
<ellipse fill="#aed6f1" stroke="#aed6f1" cx="247.6289" cy="-234" rx="121.1899" ry="18"/>
<text text-anchor="middle" x="247.6289" y="-229.8" font-family="Times,serif" font-size="14.00" fill="#000000">transfer data from external disk</text>
</g>
<!-- backup data&#45;&gt;transfer data from external disk -->
<g id="edge19" class="edge">
<title>backup data&#45;&gt;transfer data from external disk</title>
<path fill="none" stroke="#000000" d="M362.5848,-291.0816C342.098,-280.9088 314.6277,-267.2683 291.678,-255.8726"/>
<polygon fill="#000000" stroke="#000000" points="292.9929,-252.6178 282.4797,-251.3052 289.8796,-258.8875 292.9929,-252.6178"/>
</g>
<!-- backup: push commits to git -->
<g id="node24" class="node">
<title>backup: push commits to git</title>
<ellipse fill="#aed6f1" stroke="#aed6f1" cx="2247.6289" cy="-450" rx="110.1514" ry="18"/>
<text text-anchor="middle" x="2247.6289" y="-445.8" font-family="Times,serif" font-size="14.00" fill="#000000">backup: push commits to git</text>
</g>
<!-- install ntfs drivers&#45;&gt;transfer data from external disk -->
<g id="edge20" class="edge">
<title>install ntfs drivers&#45;&gt;transfer data from external disk</title>
<path fill="none" stroke="#000000" d="M247.6289,-287.8314C247.6289,-280.131 247.6289,-270.9743 247.6289,-262.4166"/>
<polygon fill="#000000" stroke="#000000" points="251.129,-262.4132 247.6289,-252.4133 244.129,-262.4133 251.129,-262.4132"/>
</g>
<!-- add profile pic -->
<g id="node27" class="node">
<title>add profile pic</title>
<ellipse fill="#aed6f1" stroke="#aed6f1" cx="239.6289" cy="-162" rx="61.3804" ry="18"/>
<text text-anchor="middle" x="239.6289" y="-157.8" font-family="Times,serif" font-size="14.00" fill="#000000">add profile pic</text>
</g>
<!-- transfer data from external disk&#45;&gt;add profile pic -->
<g id="edge21" class="edge">
<title>transfer data from external disk&#45;&gt;add profile pic</title>
<path fill="none" stroke="#000000" d="M245.6102,-215.8314C244.7546,-208.131 243.7372,-198.9743 242.7863,-190.4166"/>
<polygon fill="#000000" stroke="#000000" points="246.2578,-189.9656 241.6748,-180.4133 239.3007,-190.7386 246.2578,-189.9656"/>
</g>
<!-- add wallpapers -->
<g id="node28" class="node">
<title>add wallpapers</title>
<ellipse fill="#aed6f1" stroke="#aed6f1" cx="96.6289" cy="-162" rx="63.2845" ry="18"/>
<text text-anchor="middle" x="96.6289" y="-157.8" font-family="Times,serif" font-size="14.00" fill="#000000">add wallpapers</text>
</g>
<!-- transfer data from external disk&#45;&gt;add wallpapers -->
<g id="edge22" class="edge">
<title>transfer data from external disk&#45;&gt;add wallpapers</title>
<path fill="none" stroke="#000000" d="M211.4607,-216.7542C189.4522,-206.2601 161.2573,-192.8162 138.3136,-181.8761"/>
<polygon fill="#000000" stroke="#000000" points="139.692,-178.6559 129.1592,-177.5111 136.6792,-184.9744 139.692,-178.6559"/>
</g>
<!-- serve websites with nginx -->
<g id="node33" class="node">
<title>serve websites with nginx</title>
<ellipse fill="#d2b4de" stroke="#d2b4de" cx="389.6289" cy="-90" rx="101.9397" ry="18"/>
<text text-anchor="middle" x="389.6289" y="-85.8" font-family="Times,serif" font-size="14.00" fill="#000000">serve websites with nginx</text>
</g>
<!-- transfer data from external disk&#45;&gt;serve websites with nginx -->
<g id="edge28" class="edge">
<title>transfer data from external disk&#45;&gt;serve websites with nginx</title>
<path fill="none" stroke="#000000" d="M269.4672,-216.1561C281.6281,-205.9324 296.8472,-192.6532 309.6289,-180 330.5006,-159.3381 352.5565,-134.2503 368.2115,-115.8163"/>
<polygon fill="#000000" stroke="#000000" points="371.1548,-117.7554 374.9267,-107.8547 365.8039,-113.2422 371.1548,-117.7554"/>
</g>
<!-- use symlinks with dropbox -->
<g id="node30" class="node">
<title>use symlinks with dropbox</title>
<ellipse fill="#aed6f1" stroke="#aed6f1" cx="1669.6289" cy="-306" rx="105.833" ry="18"/>
<text text-anchor="middle" x="1669.6289" y="-301.8" font-family="Times,serif" font-size="14.00" fill="#000000">use symlinks with dropbox</text>
</g>
<!-- install dropbox&#45;&gt;use symlinks with dropbox -->
<g id="edge24" class="edge">
<title>install dropbox&#45;&gt;use symlinks with dropbox</title>
<path fill="none" stroke="#000000" d="M1662.1524,-359.8314C1663.2219,-352.131 1664.4936,-342.9743 1665.6822,-334.4166"/>
<polygon fill="#000000" stroke="#000000" points="1669.1625,-334.7997 1667.0715,-324.4133 1662.229,-333.8367 1669.1625,-334.7997"/>
</g>
<!-- enable nginx autoindex -->
<g id="node32" class="node">
<title>enable nginx autoindex</title>
<ellipse fill="#d2b4de" stroke="#d2b4de" cx="449.6289" cy="-162" rx="92.7429" ry="18"/>
<text text-anchor="middle" x="449.6289" y="-157.8" font-family="Times,serif" font-size="14.00" fill="#000000">enable nginx autoindex</text>
</g>
<!-- install nginx&#45;&gt;enable nginx autoindex -->
<g id="edge26" class="edge">
<title>install nginx&#45;&gt;enable nginx autoindex</title>
<path fill="none" stroke="#000000" d="M445.8906,-215.8314C446.4254,-208.131 447.0613,-198.9743 447.6556,-190.4166"/>
<polygon fill="#000000" stroke="#000000" points="451.149,-190.6317 448.3502,-180.4133 444.1658,-190.1467 451.149,-190.6317"/>
</g>
<!-- enable nginx autoindex&#45;&gt;serve websites with nginx -->
<g id="edge27" class="edge">
<title>enable nginx autoindex&#45;&gt;serve websites with nginx</title>
<path fill="none" stroke="#000000" d="M434.7975,-144.2022C427.658,-135.6348 418.963,-125.2009 411.1155,-115.7839"/>
<polygon fill="#000000" stroke="#000000" points="413.5884,-113.2841 404.4977,-107.8425 408.2108,-117.7654 413.5884,-113.2841"/>
</g>
<!-- fix vim locale error -->
<g id="node38" class="node">
<title>fix vim locale error</title>
<ellipse fill="#f5b7b1" stroke="#f5b7b1" cx="706.6289" cy="-162" rx="78.2599" ry="18"/>
<text text-anchor="middle" x="706.6289" y="-157.8" font-family="Times,serif" font-size="14.00" fill="#000000">fix vim locale error</text>
</g>
<!-- brew install vim&#45;&gt;fix vim locale error -->
<g id="edge34" class="edge">
<title>brew install vim&#45;&gt;fix vim locale error</title>
<path fill="none" stroke="#000000" d="M706.6289,-215.8314C706.6289,-208.131 706.6289,-198.9743 706.6289,-190.4166"/>
<polygon fill="#000000" stroke="#000000" points="710.129,-190.4132 706.6289,-180.4133 703.129,-190.4133 710.129,-190.4132"/>
</g>
<!-- install pathogen&#45;&gt;install youcompleteme -->
<g id="edge32" class="edge">
<title>install pathogen&#45;&gt;install youcompleteme</title>
<path fill="none" stroke="#000000" d="M1206.6289,-71.8314C1206.6289,-64.131 1206.6289,-54.9743 1206.6289,-46.4166"/>
<polygon fill="#000000" stroke="#000000" points="1210.129,-46.4132 1206.6289,-36.4133 1203.129,-46.4133 1210.129,-46.4132"/>
</g>
</g>
</svg>
