<?xml version="1.0" encoding="UTF-8" standalone="no"?>
<!DOCTYPE svg PUBLIC "-//W3C//DTD SVG 1.1//EN"
 "http://www.w3.org/Graphics/SVG/1.1/DTD/svg11.dtd">
<!-- Generated by graphviz version 8.0.5 (20230430.1635)
 -->
<!-- Title: dep_graph Pages: 1 -->
<svg width="2579pt" height="476pt"
 viewBox="0.00 0.00 2579.43 476.00" xmlns="http://www.w3.org/2000/svg" xmlns:xlink="http://www.w3.org/1999/xlink">
<g id="graph0" class="graph" transform="scale(1 1) rotate(0) translate(4 472)">
<title>dep_graph</title>
<polygon fill="white" stroke="none" points="-4,4 -4,-472 2575.43,-472 2575.43,4 -4,4"/>
<!-- show battery percentage -->
<g id="node1" class="node">
<title>show battery percentage</title>
<ellipse fill="none" stroke="black" cx="1219.06" cy="-450" rx="101" ry="18"/>
<text text-anchor="middle" x="1219.06" y="-444.95" font-family="Times,serif" font-size="14.00">show battery percentage</text>
</g>
<!-- join wifi network -->
<g id="node2" class="node">
<title>join wifi network</title>
<ellipse fill="none" stroke="black" cx="1413.06" cy="-450" rx="75.41" ry="18"/>
<text text-anchor="middle" x="1413.06" y="-444.95" font-family="Times,serif" font-size="14.00">join wifi network</text>
</g>
<!-- update system -->
<g id="node3" class="node">
<title>update system</title>
<ellipse fill="none" stroke="black" cx="260.06" cy="-378" rx="64.15" ry="18"/>
<text text-anchor="middle" x="260.06" y="-372.95" font-family="Times,serif" font-size="14.00">update system</text>
</g>
<!-- join wifi network&#45;&gt;update system -->
<g id="edge1" class="edge">
<title>join wifi network&#45;&gt;update system</title>
<path fill="none" stroke="black" d="M1359.48,-436.91C1349.42,-434.99 1338.95,-433.24 1329.06,-432 958.35,-385.56 510.53,-379.38 335.4,-378.86"/>
<polygon fill="black" stroke="black" points="335.52,-375.36 325.52,-378.83 335.51,-382.36 335.52,-375.36"/>
</g>
<!-- install chrome -->
<g id="node8" class="node">
<title>install chrome</title>
<ellipse fill="none" stroke="black" cx="1664.06" cy="-378" rx="64.15" ry="18"/>
<text text-anchor="middle" x="1664.06" y="-372.95" font-family="Times,serif" font-size="14.00">install chrome</text>
</g>
<!-- join wifi network&#45;&gt;install chrome -->
<g id="edge3" class="edge">
<title>join wifi network&#45;&gt;install chrome</title>
<path fill="none" stroke="black" d="M1460.86,-435.67C1503.17,-423.87 1564.91,-406.65 1609.22,-394.29"/>
<polygon fill="black" stroke="black" points="1610.11,-397.4 1618.8,-391.34 1608.23,-390.66 1610.11,-397.4"/>
</g>
<!-- terminal.app preferences -->
<g id="node10" class="node">
<title>terminal.app preferences</title>
<ellipse fill="#f9e79f" stroke="#f9e79f" cx="1479.06" cy="-378" rx="103.04" ry="18"/>
<text text-anchor="middle" x="1479.06" y="-372.95" font-family="Times,serif" font-size="14.00">terminal.app preferences</text>
</g>
<!-- join wifi network&#45;&gt;terminal.app preferences -->
<g id="edge5" class="edge">
<title>join wifi network&#45;&gt;terminal.app preferences</title>
<path fill="none" stroke="black" d="M1429.04,-432.05C1437.06,-423.54 1446.94,-413.07 1455.79,-403.68"/>
<polygon fill="black" stroke="black" points="1457.92,-406.47 1462.23,-396.79 1452.82,-401.66 1457.92,-406.47"/>
</g>
<!-- install xcode cmdline tools -->
<g id="node11" class="node">
<title>install xcode cmdline tools</title>
<ellipse fill="#f9e79f" stroke="#f9e79f" cx="1209.06" cy="-378" rx="111.23" ry="18"/>
<text text-anchor="middle" x="1209.06" y="-372.95" font-family="Times,serif" font-size="14.00">install xcode cmdline tools</text>
</g>
<!-- join wifi network&#45;&gt;install xcode cmdline tools -->
<g id="edge6" class="edge">
<title>join wifi network&#45;&gt;install xcode cmdline tools</title>
<path fill="none" stroke="black" d="M1371.29,-434.67C1340.65,-424.15 1298.72,-409.77 1265.17,-398.25"/>
<polygon fill="black" stroke="black" points="1266.64,-394.71 1256.04,-394.78 1264.36,-401.33 1266.64,-394.71"/>
</g>
<!-- install dropbox -->
<g id="node29" class="node">
<title>install dropbox</title>
<ellipse fill="#aed6f1" stroke="#aed6f1" cx="1832.06" cy="-378" rx="66.71" ry="18"/>
<text text-anchor="middle" x="1832.06" y="-372.95" font-family="Times,serif" font-size="14.00">install dropbox</text>
</g>
<!-- join wifi network&#45;&gt;install dropbox -->
<g id="edge23" class="edge">
<title>join wifi network&#45;&gt;install dropbox</title>
<path fill="none" stroke="black" d="M1468.11,-437.44C1477.74,-435.54 1487.68,-433.65 1497.06,-432 1603.29,-413.3 1630.63,-413.5 1737.06,-396 1747,-394.37 1757.51,-392.56 1767.77,-390.76"/>
<polygon fill="black" stroke="black" points="1768.11,-394.07 1777.35,-388.88 1766.89,-387.18 1768.11,-394.07"/>
</g>
<!-- install pathogen -->
<g id="node35" class="node">
<title>install pathogen</title>
<ellipse fill="#f5b7b1" stroke="#f5b7b1" cx="1358.06" cy="-90" rx="69.78" ry="18"/>
<text text-anchor="middle" x="1358.06" y="-84.95" font-family="Times,serif" font-size="14.00">install pathogen</text>
</g>
<!-- join wifi network&#45;&gt;install pathogen -->
<g id="edge30" class="edge">
<title>join wifi network&#45;&gt;install pathogen</title>
<path fill="none" stroke="black" d="M1394.82,-432.51C1385.16,-422.79 1373.91,-409.74 1367.06,-396 1349.01,-359.8 1348.06,-347.45 1348.06,-307 1348.06,-307 1348.06,-307 1348.06,-233 1348.06,-193.47 1351.96,-147.9 1354.89,-119.27"/>
<polygon fill="black" stroke="black" points="1358.47,-119.77 1356.04,-109.46 1351.5,-119.04 1358.47,-119.77"/>
</g>
<!-- system preferences -->
<g id="node5" class="node">
<title>system preferences</title>
<ellipse fill="none" stroke="black" cx="82.06" cy="-306" rx="82.06" ry="18"/>
<text text-anchor="middle" x="82.06" y="-300.95" font-family="Times,serif" font-size="14.00">system preferences</text>
</g>
<!-- update system&#45;&gt;system preferences -->
<g id="edge2" class="edge">
<title>update system&#45;&gt;system preferences</title>
<path fill="none" stroke="black" d="M224.04,-362.83C197.23,-352.29 160.34,-337.79 130.88,-326.2"/>
<polygon fill="black" stroke="black" points="132.39,-322.64 121.8,-322.24 129.83,-329.15 132.39,-322.64"/>
</g>
<!-- install ntfs drivers -->
<g id="node25" class="node">
<title>install ntfs drivers</title>
<ellipse fill="#aed6f1" stroke="#aed6f1" cx="260.06" cy="-306" rx="77.97" ry="18"/>
<text text-anchor="middle" x="260.06" y="-300.95" font-family="Times,serif" font-size="14.00">install ntfs drivers</text>
</g>
<!-- update system&#45;&gt;install ntfs drivers -->
<g id="edge18" class="edge">
<title>update system&#45;&gt;install ntfs drivers</title>
<path fill="none" stroke="black" d="M260.06,-359.7C260.06,-352.24 260.06,-343.32 260.06,-334.97"/>
<polygon fill="black" stroke="black" points="263.56,-335.1 260.06,-325.1 256.56,-335.1 263.56,-335.1"/>
</g>
<!-- remove useless apps from dock -->
<g id="node4" class="node">
<title>remove useless apps from dock</title>
<ellipse fill="none" stroke="black" cx="1635.06" cy="-450" rx="128.63" ry="18"/>
<text text-anchor="middle" x="1635.06" y="-444.95" font-family="Times,serif" font-size="14.00">remove useless apps from dock</text>
</g>
<!-- finder preferences and view -->
<g id="node6" class="node">
<title>finder preferences and view</title>
<ellipse fill="none" stroke="black" cx="1896.06" cy="-450" rx="114.3" ry="18"/>
<text text-anchor="middle" x="1896.06" y="-444.95" font-family="Times,serif" font-size="14.00">finder preferences and view</text>
</g>
<!-- textedit preferences -->
<g id="node7" class="node">
<title>textedit preferences</title>
<ellipse fill="none" stroke="black" cx="2112.06" cy="-450" rx="83.6" ry="18"/>
<text text-anchor="middle" x="2112.06" y="-444.95" font-family="Times,serif" font-size="14.00">textedit preferences</text>
</g>
<!-- sync chrome -->
<g id="node9" class="node">
<title>sync chrome</title>
<ellipse fill="none" stroke="black" cx="1654.06" cy="-306" rx="58.52" ry="18"/>
<text text-anchor="middle" x="1654.06" y="-300.95" font-family="Times,serif" font-size="14.00">sync chrome</text>
</g>
<!-- install chrome&#45;&gt;sync chrome -->
<g id="edge4" class="edge">
<title>install chrome&#45;&gt;sync chrome</title>
<path fill="none" stroke="black" d="M1661.59,-359.7C1660.52,-352.24 1659.25,-343.32 1658.05,-334.97"/>
<polygon fill="black" stroke="black" points="1661.38,-334.51 1656.5,-325.1 1654.45,-335.5 1661.38,-334.51"/>
</g>
<!-- dotfiles -->
<g id="node12" class="node">
<title>dotfiles</title>
<ellipse fill="#f9e79f" stroke="#f9e79f" cx="1469.06" cy="-306" rx="38.56" ry="18"/>
<text text-anchor="middle" x="1469.06" y="-300.95" font-family="Times,serif" font-size="14.00">dotfiles</text>
</g>
<!-- terminal.app preferences&#45;&gt;dotfiles -->
<g id="edge7" class="edge">
<title>terminal.app preferences&#45;&gt;dotfiles</title>
<path fill="none" stroke="black" d="M1476.59,-359.7C1475.52,-352.24 1474.25,-343.32 1473.05,-334.97"/>
<polygon fill="black" stroke="black" points="1476.38,-334.51 1471.5,-325.1 1469.45,-335.5 1476.38,-334.51"/>
</g>
<!-- install xcode cmdline tools&#45;&gt;dotfiles -->
<g id="edge8" class="edge">
<title>install xcode cmdline tools&#45;&gt;dotfiles</title>
<path fill="none" stroke="black" d="M1264.84,-361.98C1313.08,-348.99 1381.84,-330.48 1425.96,-318.6"/>
<polygon fill="black" stroke="black" points="1426.6,-321.79 1435.35,-315.81 1424.78,-315.03 1426.6,-321.79"/>
</g>
<!-- install brew -->
<g id="node15" class="node">
<title>install brew</title>
<ellipse fill="#f9e79f" stroke="#f9e79f" cx="895.06" cy="-306" rx="54.42" ry="18"/>
<text text-anchor="middle" x="895.06" y="-300.95" font-family="Times,serif" font-size="14.00">install brew</text>
</g>
<!-- install xcode cmdline tools&#45;&gt;install brew -->
<g id="edge10" class="edge">
<title>install xcode cmdline tools&#45;&gt;install brew</title>
<path fill="none" stroke="black" d="M1145.52,-362.83C1088.06,-350.03 1004.35,-331.36 949.79,-319.2"/>
<polygon fill="black" stroke="black" points="950.81,-315.62 940.29,-316.86 949.29,-322.45 950.81,-315.62"/>
</g>
<!-- add __git_ps1 -->
<g id="node14" class="node">
<title>add __git_ps1</title>
<ellipse fill="#f9e79f" stroke="#f9e79f" cx="1449.06" cy="-234" rx="63.12" ry="18"/>
<text text-anchor="middle" x="1449.06" y="-228.95" font-family="Times,serif" font-size="14.00">add __git_ps1</text>
</g>
<!-- dotfiles&#45;&gt;add __git_ps1 -->
<g id="edge9" class="edge">
<title>dotfiles&#45;&gt;add __git_ps1</title>
<path fill="none" stroke="black" d="M1464.12,-287.7C1461.96,-280.15 1459.38,-271.12 1456.97,-262.68"/>
<polygon fill="black" stroke="black" points="1460.06,-261.76 1453.95,-253.1 1453.33,-263.68 1460.06,-261.76"/>
</g>
<!-- get vim plugins -->
<g id="node36" class="node">
<title>get vim plugins</title>
<ellipse fill="#f5b7b1" stroke="#f5b7b1" cx="1599.06" cy="-234" rx="69.26" ry="18"/>
<text text-anchor="middle" x="1599.06" y="-228.95" font-family="Times,serif" font-size="14.00">get vim plugins</text>
</g>
<!-- dotfiles&#45;&gt;get vim plugins -->
<g id="edge31" class="edge">
<title>dotfiles&#45;&gt;get vim plugins</title>
<path fill="none" stroke="black" d="M1493.51,-291.83C1512.39,-281.67 1538.87,-267.41 1560.58,-255.72"/>
<polygon fill="black" stroke="black" points="1562.03,-258.37 1569.18,-250.55 1558.71,-252.21 1562.03,-258.37"/>
</g>
<!-- add to .env -->
<g id="node13" class="node">
<title>add to .env</title>
<ellipse fill="#f9e79f" stroke="#f9e79f" cx="2266.06" cy="-450" rx="52.38" ry="18"/>
<text text-anchor="middle" x="2266.06" y="-444.95" font-family="Times,serif" font-size="14.00">add to .env</text>
</g>
<!-- install tmux -->
<g id="node16" class="node">
<title>install tmux</title>
<ellipse fill="#f9e79f" stroke="#f9e79f" cx="597.06" cy="-234" rx="55.45" ry="18"/>
<text text-anchor="middle" x="597.06" y="-228.95" font-family="Times,serif" font-size="14.00">install tmux</text>
</g>
<!-- install brew&#45;&gt;install tmux -->
<g id="edge11" class="edge">
<title>install brew&#45;&gt;install tmux</title>
<path fill="none" stroke="black" d="M850.52,-295.42C803.36,-285.16 726.79,-268.17 661.06,-252 657.2,-251.05 653.23,-250.05 649.23,-249.03"/>
<polygon fill="black" stroke="black" points="650.22,-245.41 639.66,-246.29 648.46,-252.19 650.22,-245.41"/>
</g>
<!-- install mactex -->
<g id="node17" class="node">
<title>install mactex</title>
<ellipse fill="#a9dfbf" stroke="#a9dfbf" cx="895.06" cy="-234" rx="63.12" ry="18"/>
<text text-anchor="middle" x="895.06" y="-228.95" font-family="Times,serif" font-size="14.00">install mactex</text>
</g>
<!-- install brew&#45;&gt;install mactex -->
<g id="edge12" class="edge">
<title>install brew&#45;&gt;install mactex</title>
<path fill="none" stroke="black" d="M895.06,-287.7C895.06,-280.24 895.06,-271.32 895.06,-262.97"/>
<polygon fill="black" stroke="black" points="898.56,-263.1 895.06,-253.1 891.56,-263.1 898.56,-263.1"/>
</g>
<!-- install useful programs -->
<g id="node18" class="node">
<title>install useful programs</title>
<ellipse fill="#a9dfbf" stroke="#a9dfbf" cx="1073.06" cy="-234" rx="96.39" ry="18"/>
<text text-anchor="middle" x="1073.06" y="-228.95" font-family="Times,serif" font-size="14.00">install useful programs</text>
</g>
<!-- install brew&#45;&gt;install useful programs -->
<g id="edge13" class="edge">
<title>install brew&#45;&gt;install useful programs</title>
<path fill="none" stroke="black" d="M928.96,-291.67C955.6,-281.19 993.11,-266.44 1023.18,-254.62"/>
<polygon fill="black" stroke="black" points="1024.04,-257.65 1032.06,-250.73 1021.48,-251.13 1024.04,-257.65"/>
</g>
<!-- install python3 -->
<g id="node19" class="node">
<title>install python3</title>
<ellipse fill="#a9dfbf" stroke="#a9dfbf" cx="1254.06" cy="-234" rx="66.19" ry="18"/>
<text text-anchor="middle" x="1254.06" y="-228.95" font-family="Times,serif" font-size="14.00">install python3</text>
</g>
<!-- install brew&#45;&gt;install python3 -->
<g id="edge14" class="edge">
<title>install brew&#45;&gt;install python3</title>
<path fill="none" stroke="black" d="M942.23,-296.69C998.48,-286.65 1095.31,-269 1178.06,-252 1183.31,-250.92 1188.75,-249.77 1194.2,-248.6"/>
<polygon fill="black" stroke="black" points="1194.62,-251.87 1203.65,-246.32 1193.13,-245.03 1194.62,-251.87"/>
</g>
<!-- install nginx -->
<g id="node31" class="node">
<title>install nginx</title>
<ellipse fill="#d2b4de" stroke="#d2b4de" cx="467.06" cy="-234" rx="56.98" ry="18"/>
<text text-anchor="middle" x="467.06" y="-228.95" font-family="Times,serif" font-size="14.00">install nginx</text>
</g>
<!-- install brew&#45;&gt;install nginx -->
<g id="edge25" class="edge">
<title>install brew&#45;&gt;install nginx</title>
<path fill="none" stroke="black" d="M844.11,-299.28C773.76,-290.99 643.12,-274.16 533.06,-252 528.69,-251.12 524.17,-250.13 519.65,-249.08"/>
<polygon fill="black" stroke="black" points="520.7,-245.49 510.16,-246.56 519.06,-252.3 520.7,-245.49"/>
</g>
<!-- brew install vim -->
<g id="node34" class="node">
<title>brew install vim</title>
<ellipse fill="#f5b7b1" stroke="#f5b7b1" cx="742.06" cy="-234" rx="71.82" ry="18"/>
<text text-anchor="middle" x="742.06" y="-228.95" font-family="Times,serif" font-size="14.00">brew install vim</text>
</g>
<!-- install brew&#45;&gt;brew install vim -->
<g id="edge29" class="edge">
<title>install brew&#45;&gt;brew install vim</title>
<path fill="none" stroke="black" d="M864.1,-290.83C841.54,-280.51 810.66,-266.39 785.61,-254.93"/>
<polygon fill="black" stroke="black" points="787.18,-251.34 776.63,-250.36 784.27,-257.7 787.18,-251.34"/>
</g>
<!-- pip3 install virtualenv -->
<g id="node20" class="node">
<title>pip3 install virtualenv</title>
<ellipse fill="#a9dfbf" stroke="#a9dfbf" cx="1208.06" cy="-162" rx="92.3" ry="18"/>
<text text-anchor="middle" x="1208.06" y="-156.95" font-family="Times,serif" font-size="14.00">pip3 install virtualenv</text>
</g>
<!-- install python3&#45;&gt;pip3 install virtualenv -->
<g id="edge15" class="edge">
<title>install python3&#45;&gt;pip3 install virtualenv</title>
<path fill="none" stroke="black" d="M1242.92,-216.05C1237.64,-208.01 1231.19,-198.2 1225.29,-189.23"/>
<polygon fill="black" stroke="black" points="1227.83,-187.71 1219.41,-181.28 1221.98,-191.55 1227.83,-187.71"/>
</g>
<!-- create virtualenv -->
<g id="node21" class="node">
<title>create virtualenv</title>
<ellipse fill="#a9dfbf" stroke="#a9dfbf" cx="1197.06" cy="-90" rx="72.85" ry="18"/>
<text text-anchor="middle" x="1197.06" y="-84.95" font-family="Times,serif" font-size="14.00">create virtualenv</text>
</g>
<!-- pip3 install virtualenv&#45;&gt;create virtualenv -->
<g id="edge16" class="edge">
<title>pip3 install virtualenv&#45;&gt;create virtualenv</title>
<path fill="none" stroke="black" d="M1205.34,-143.7C1204.17,-136.24 1202.77,-127.32 1201.45,-118.97"/>
<polygon fill="black" stroke="black" points="1204.76,-118.44 1199.75,-109.1 1197.84,-119.53 1204.76,-118.44"/>
</g>
<!-- pip install common packages -->
<g id="node22" class="node">
<title>pip install common packages</title>
<ellipse fill="#a9dfbf" stroke="#a9dfbf" cx="1124.06" cy="-18" rx="119.93" ry="18"/>
<text text-anchor="middle" x="1124.06" y="-12.95" font-family="Times,serif" font-size="14.00">pip install common packages</text>
</g>
<!-- create virtualenv&#45;&gt;pip install common packages -->
<g id="edge17" class="edge">
<title>create virtualenv&#45;&gt;pip install common packages</title>
<path fill="none" stroke="black" d="M1179.39,-72.05C1170.55,-63.58 1159.69,-53.17 1149.94,-43.82"/>
<polygon fill="black" stroke="black" points="1152.72,-41.67 1143.08,-37.28 1147.87,-46.72 1152.72,-41.67"/>
</g>
<!-- install youcompleteme -->
<g id="node37" class="node">
<title>install youcompleteme</title>
<ellipse fill="#f5b7b1" stroke="#f5b7b1" cx="1358.06" cy="-18" rx="95.88" ry="18"/>
<text text-anchor="middle" x="1358.06" y="-12.95" font-family="Times,serif" font-size="14.00">install youcompleteme</text>
</g>
<!-- create virtualenv&#45;&gt;install youcompleteme -->
<g id="edge33" class="edge">
<title>create virtualenv&#45;&gt;install youcompleteme</title>
<path fill="none" stroke="black" d="M1231.99,-73.81C1255.26,-63.69 1286.11,-50.28 1311.46,-39.26"/>
<polygon fill="black" stroke="black" points="1312.46,-42.21 1320.24,-35.01 1309.67,-35.79 1312.46,-42.21"/>
</g>
<!-- backup data -->
<g id="node23" class="node">
<title>backup data</title>
<ellipse fill="#aed6f1" stroke="#aed6f1" cx="411.06" cy="-306" rx="55.45" ry="18"/>
<text text-anchor="middle" x="411.06" y="-300.95" font-family="Times,serif" font-size="14.00">backup data</text>
</g>
<!-- transfer data from external disk -->
<g id="node26" class="node">
<title>transfer data from external disk</title>
<ellipse fill="#aed6f1" stroke="#aed6f1" cx="260.06" cy="-234" rx="128.12" ry="18"/>
<text text-anchor="middle" x="260.06" y="-228.95" font-family="Times,serif" font-size="14.00">transfer data from external disk</text>
</g>
<!-- backup data&#45;&gt;transfer data from external disk -->
<g id="edge19" class="edge">
<title>backup data&#45;&gt;transfer data from external disk</title>
<path fill="none" stroke="black" d="M380.14,-290.67C358.77,-280.76 329.99,-267.42 305.95,-256.28"/>
<polygon fill="black" stroke="black" points="307.53,-252.68 296.98,-251.65 304.58,-259.03 307.53,-252.68"/>
</g>
<!-- backup: push commits to git -->
<g id="node24" class="node">
<title>backup: push commits to git</title>
<ellipse fill="#aed6f1" stroke="#aed6f1" cx="2454.06" cy="-450" rx="117.37" ry="18"/>
<text text-anchor="middle" x="2454.06" y="-444.95" font-family="Times,serif" font-size="14.00">backup: push commits to git</text>
</g>
<!-- install ntfs drivers&#45;&gt;transfer data from external disk -->
<g id="edge20" class="edge">
<title>install ntfs drivers&#45;&gt;transfer data from external disk</title>
<path fill="none" stroke="black" d="M260.06,-287.7C260.06,-280.24 260.06,-271.32 260.06,-262.97"/>
<polygon fill="black" stroke="black" points="263.56,-263.1 260.06,-253.1 256.56,-263.1 263.56,-263.1"/>
</g>
<!-- add profile pic -->
<g id="node27" class="node">
<title>add profile pic</title>
<ellipse fill="#aed6f1" stroke="#aed6f1" cx="253.06" cy="-162" rx="65.17" ry="18"/>
<text text-anchor="middle" x="253.06" y="-156.95" font-family="Times,serif" font-size="14.00">add profile pic</text>
</g>
<!-- transfer data from external disk&#45;&gt;add profile pic -->
<g id="edge21" class="edge">
<title>transfer data from external disk&#45;&gt;add profile pic</title>
<path fill="none" stroke="black" d="M258.33,-215.7C257.58,-208.24 256.69,-199.32 255.86,-190.97"/>
<polygon fill="black" stroke="black" points="259.25,-190.71 254.77,-181.1 252.28,-191.4 259.25,-190.71"/>
</g>
<!-- add wallpapers -->
<g id="node28" class="node">
<title>add wallpapers</title>
<ellipse fill="#aed6f1" stroke="#aed6f1" cx="103.06" cy="-162" rx="66.71" ry="18"/>
<text text-anchor="middle" x="103.06" y="-156.95" font-family="Times,serif" font-size="14.00">add wallpapers</text>
</g>
<!-- transfer data from external disk&#45;&gt;add wallpapers -->
<g id="edge22" class="edge">
<title>transfer data from external disk&#45;&gt;add wallpapers</title>
<path fill="none" stroke="black" d="M222.85,-216.41C199.92,-206.19 170.42,-193.03 146.43,-182.34"/>
<polygon fill="black" stroke="black" points="148.08,-178.8 137.53,-177.92 145.23,-185.19 148.08,-178.8"/>
</g>
<!-- serve websites with nginx -->
<g id="node33" class="node">
<title>serve websites with nginx</title>
<ellipse fill="#d2b4de" stroke="#d2b4de" cx="409.06" cy="-90" rx="107.14" ry="18"/>
<text text-anchor="middle" x="409.06" y="-84.95" font-family="Times,serif" font-size="14.00">serve websites with nginx</text>
</g>
<!-- transfer data from external disk&#45;&gt;serve websites with nginx -->
<g id="edge28" class="edge">
<title>transfer data from external disk&#45;&gt;serve websites with nginx</title>
<path fill="none" stroke="black" d="M283.43,-215.95C296.65,-205.95 313.25,-192.81 327.06,-180 348.97,-159.68 371.84,-134.47 387.85,-116.07"/>
<polygon fill="black" stroke="black" points="390.81,-119 394.69,-109.14 385.51,-114.43 390.81,-119"/>
</g>
<!-- use symlinks with dropbox -->
<g id="node30" class="node">
<title>use symlinks with dropbox</title>
<ellipse fill="#aed6f1" stroke="#aed6f1" cx="1842.06" cy="-306" rx="111.74" ry="18"/>
<text text-anchor="middle" x="1842.06" y="-300.95" font-family="Times,serif" font-size="14.00">use symlinks with dropbox</text>
</g>
<!-- install dropbox&#45;&gt;use symlinks with dropbox -->
<g id="edge24" class="edge">
<title>install dropbox&#45;&gt;use symlinks with dropbox</title>
<path fill="none" stroke="black" d="M1834.53,-359.7C1835.6,-352.24 1836.87,-343.32 1838.06,-334.97"/>
<polygon fill="black" stroke="black" points="1841.67,-335.5 1839.62,-325.1 1834.74,-334.51 1841.67,-335.5"/>
</g>
<!-- enable nginx autoindex -->
<g id="node32" class="node">
<title>enable nginx autoindex</title>
<ellipse fill="#d2b4de" stroke="#d2b4de" cx="471.06" cy="-162" rx="97.41" ry="18"/>
<text text-anchor="middle" x="471.06" y="-156.95" font-family="Times,serif" font-size="14.00">enable nginx autoindex</text>
</g>
<!-- install nginx&#45;&gt;enable nginx autoindex -->
<g id="edge26" class="edge">
<title>install nginx&#45;&gt;enable nginx autoindex</title>
<path fill="none" stroke="black" d="M468.05,-215.7C468.47,-208.24 468.98,-199.32 469.46,-190.97"/>
<polygon fill="black" stroke="black" points="473.01,-191.29 470.08,-181.1 466.02,-190.89 473.01,-191.29"/>
</g>
<!-- enable nginx autoindex&#45;&gt;serve websites with nginx -->
<g id="edge27" class="edge">
<title>enable nginx autoindex&#45;&gt;serve websites with nginx</title>
<path fill="none" stroke="black" d="M456.05,-144.05C448.7,-135.75 439.69,-125.58 431.54,-116.38"/>
<polygon fill="black" stroke="black" points="434.61,-114.44 425.36,-109.28 429.37,-119.08 434.61,-114.44"/>
</g>
<!-- fix vim locale error -->
<g id="node38" class="node">
<title>fix vim locale error</title>
<ellipse fill="#f5b7b1" stroke="#f5b7b1" cx="742.06" cy="-162" rx="83.6" ry="18"/>
<text text-anchor="middle" x="742.06" y="-156.95" font-family="Times,serif" font-size="14.00">fix vim locale error</text>
</g>
<!-- brew install vim&#45;&gt;fix vim locale error -->
<g id="edge34" class="edge">
<title>brew install vim&#45;&gt;fix vim locale error</title>
<path fill="none" stroke="black" d="M742.06,-215.7C742.06,-208.24 742.06,-199.32 742.06,-190.97"/>
<polygon fill="black" stroke="black" points="745.56,-191.1 742.06,-181.1 738.56,-191.1 745.56,-191.1"/>
</g>
<!-- install pathogen&#45;&gt;install youcompleteme -->
<g id="edge32" class="edge">
<title>install pathogen&#45;&gt;install youcompleteme</title>
<path fill="none" stroke="black" d="M1358.06,-71.7C1358.06,-64.24 1358.06,-55.32 1358.06,-46.97"/>
<polygon fill="black" stroke="black" points="1361.56,-47.1 1358.06,-37.1 1354.56,-47.1 1361.56,-47.1"/>
</g>
</g>
</svg>
