<?xml version="1.0" encoding="UTF-8" standalone="no"?>
<!DOCTYPE svg PUBLIC "-//W3C//DTD SVG 1.1//EN"
 "http://www.w3.org/Graphics/SVG/1.1/DTD/svg11.dtd">
<!-- Generated by graphviz version 12.0.0 (20240704.0754)
 -->
<!-- Title: dep_graph Pages: 1 -->
<svg width="2756pt" height="476pt"
 viewBox="0.00 0.00 2756.43 476.00" xmlns="http://www.w3.org/2000/svg" xmlns:xlink="http://www.w3.org/1999/xlink">
<g id="graph0" class="graph" transform="scale(1 1) rotate(0) translate(4 472)">
<title>dep_graph</title>
<polygon fill="white" stroke="none" points="-4,4 -4,-472 2752.43,-472 2752.43,4 -4,4"/>
<!-- show battery percentage -->
<g id="node1" class="node">
<title>show battery percentage</title>
<ellipse fill="none" stroke="black" cx="1396.06" cy="-450" rx="101" ry="18"/>
<text text-anchor="middle" x="1396.06" y="-444.95" font-family="Times,serif" font-size="14.00">show battery percentage</text>
</g>
<!-- join wifi network -->
<g id="node2" class="node">
<title>join wifi network</title>
<ellipse fill="none" stroke="black" cx="1590.06" cy="-450" rx="75.41" ry="18"/>
<text text-anchor="middle" x="1590.06" y="-444.95" font-family="Times,serif" font-size="14.00">join wifi network</text>
</g>
<!-- update system -->
<g id="node3" class="node">
<title>update system</title>
<ellipse fill="none" stroke="black" cx="389.06" cy="-378" rx="64.15" ry="18"/>
<text text-anchor="middle" x="389.06" y="-372.95" font-family="Times,serif" font-size="14.00">update system</text>
</g>
<!-- join wifi network&#45;&gt;update system -->
<g id="edge1" class="edge">
<title>join wifi network&#45;&gt;update system</title>
<path fill="none" stroke="black" d="M1536.94,-436.98C1526.73,-435.03 1516.1,-433.25 1506.06,-432 1116.76,-383.66 646.11,-378.61 465.07,-378.63"/>
<polygon fill="black" stroke="black" points="465.08,-375.13 455.09,-378.64 465.09,-382.13 465.08,-375.13"/>
</g>
<!-- install chrome -->
<g id="node8" class="node">
<title>install chrome</title>
<ellipse fill="none" stroke="black" cx="1682.06" cy="-378" rx="64.15" ry="18"/>
<text text-anchor="middle" x="1682.06" y="-372.95" font-family="Times,serif" font-size="14.00">install chrome</text>
</g>
<!-- join wifi network&#45;&gt;install chrome -->
<g id="edge3" class="edge">
<title>join wifi network&#45;&gt;install chrome</title>
<path fill="none" stroke="black" d="M1611.86,-432.41C1623.75,-423.37 1638.65,-412.03 1651.66,-402.13"/>
<polygon fill="black" stroke="black" points="1653.69,-404.99 1659.53,-396.14 1649.45,-399.41 1653.69,-404.99"/>
</g>
<!-- install xcode cmdline tools -->
<g id="node10" class="node">
<title>install xcode cmdline tools</title>
<ellipse fill="#f9e79f" stroke="#f9e79f" cx="1451.06" cy="-378" rx="111.23" ry="18"/>
<text text-anchor="middle" x="1451.06" y="-372.95" font-family="Times,serif" font-size="14.00">install xcode cmdline tools</text>
</g>
<!-- join wifi network&#45;&gt;install xcode cmdline tools -->
<g id="edge5" class="edge">
<title>join wifi network&#45;&gt;install xcode cmdline tools</title>
<path fill="none" stroke="black" d="M1558.87,-433.29C1539.83,-423.7 1515.22,-411.31 1494.32,-400.78"/>
<polygon fill="black" stroke="black" points="1495.95,-397.69 1485.44,-396.31 1492.8,-403.94 1495.95,-397.69"/>
</g>
<!-- install dropbox -->
<g id="node29" class="node">
<title>install dropbox</title>
<ellipse fill="#aed6f1" stroke="#aed6f1" cx="1850.06" cy="-378" rx="66.71" ry="18"/>
<text text-anchor="middle" x="1850.06" y="-372.95" font-family="Times,serif" font-size="14.00">install dropbox</text>
</g>
<!-- join wifi network&#45;&gt;install dropbox -->
<g id="edge23" class="edge">
<title>join wifi network&#45;&gt;install dropbox</title>
<path fill="none" stroke="black" d="M1638.66,-435.92C1682.38,-424.14 1746.66,-406.84 1792.85,-394.4"/>
<polygon fill="black" stroke="black" points="1793.67,-397.81 1802.42,-391.83 1791.85,-391.05 1793.67,-397.81"/>
</g>
<!-- install pathogen -->
<g id="node35" class="node">
<title>install pathogen</title>
<ellipse fill="#f5b7b1" stroke="#f5b7b1" cx="1466.06" cy="-90" rx="69.78" ry="18"/>
<text text-anchor="middle" x="1466.06" y="-84.95" font-family="Times,serif" font-size="14.00">install pathogen</text>
</g>
<!-- join wifi network&#45;&gt;install pathogen -->
<g id="edge30" class="edge">
<title>join wifi network&#45;&gt;install pathogen</title>
<path fill="none" stroke="black" d="M1590.06,-431.51C1590.06,-404.71 1590.06,-351.87 1590.06,-307 1590.06,-307 1590.06,-307 1590.06,-233 1590.06,-179.97 1540.39,-137.19 1503.92,-112.92"/>
<polygon fill="black" stroke="black" points="1506.08,-110.15 1495.78,-107.68 1502.3,-116.04 1506.08,-110.15"/>
</g>
<!-- system preferences -->
<g id="node5" class="node">
<title>system preferences</title>
<ellipse fill="none" stroke="black" cx="82.06" cy="-306" rx="82.06" ry="18"/>
<text text-anchor="middle" x="82.06" y="-300.95" font-family="Times,serif" font-size="14.00">system preferences</text>
</g>
<!-- update system&#45;&gt;system preferences -->
<g id="edge2" class="edge">
<title>update system&#45;&gt;system preferences</title>
<path fill="none" stroke="black" d="M340.41,-365.91C288.66,-354.11 206.45,-335.36 148.7,-322.19"/>
<polygon fill="black" stroke="black" points="149.49,-318.79 138.96,-319.97 147.93,-325.61 149.49,-318.79"/>
</g>
<!-- install ntfs drivers -->
<g id="node25" class="node">
<title>install ntfs drivers</title>
<ellipse fill="#aed6f1" stroke="#aed6f1" cx="389.06" cy="-306" rx="77.97" ry="18"/>
<text text-anchor="middle" x="389.06" y="-300.95" font-family="Times,serif" font-size="14.00">install ntfs drivers</text>
</g>
<!-- update system&#45;&gt;install ntfs drivers -->
<g id="edge18" class="edge">
<title>update system&#45;&gt;install ntfs drivers</title>
<path fill="none" stroke="black" d="M389.06,-359.7C389.06,-352.41 389.06,-343.73 389.06,-335.54"/>
<polygon fill="black" stroke="black" points="392.56,-335.62 389.06,-325.62 385.56,-335.62 392.56,-335.62"/>
</g>
<!-- remove useless apps from dock -->
<g id="node4" class="node">
<title>remove useless apps from dock</title>
<ellipse fill="none" stroke="black" cx="1812.06" cy="-450" rx="128.63" ry="18"/>
<text text-anchor="middle" x="1812.06" y="-444.95" font-family="Times,serif" font-size="14.00">remove useless apps from dock</text>
</g>
<!-- finder preferences and view -->
<g id="node6" class="node">
<title>finder preferences and view</title>
<ellipse fill="none" stroke="black" cx="2073.06" cy="-450" rx="114.3" ry="18"/>
<text text-anchor="middle" x="2073.06" y="-444.95" font-family="Times,serif" font-size="14.00">finder preferences and view</text>
</g>
<!-- textedit preferences -->
<g id="node7" class="node">
<title>textedit preferences</title>
<ellipse fill="none" stroke="black" cx="2289.06" cy="-450" rx="83.6" ry="18"/>
<text text-anchor="middle" x="2289.06" y="-444.95" font-family="Times,serif" font-size="14.00">textedit preferences</text>
</g>
<!-- sync chrome -->
<g id="node9" class="node">
<title>sync chrome</title>
<ellipse fill="none" stroke="black" cx="1680.06" cy="-306" rx="58.52" ry="18"/>
<text text-anchor="middle" x="1680.06" y="-300.95" font-family="Times,serif" font-size="14.00">sync chrome</text>
</g>
<!-- install chrome&#45;&gt;sync chrome -->
<g id="edge4" class="edge">
<title>install chrome&#45;&gt;sync chrome</title>
<path fill="none" stroke="black" d="M1681.57,-359.7C1681.36,-352.41 1681.11,-343.73 1680.88,-335.54"/>
<polygon fill="black" stroke="black" points="1684.38,-335.51 1680.59,-325.62 1677.38,-335.71 1684.38,-335.51"/>
</g>
<!-- install brew -->
<g id="node11" class="node">
<title>install brew</title>
<ellipse fill="#f9e79f" stroke="#f9e79f" cx="974.06" cy="-306" rx="54.42" ry="18"/>
<text text-anchor="middle" x="974.06" y="-300.95" font-family="Times,serif" font-size="14.00">install brew</text>
</g>
<!-- install xcode cmdline tools&#45;&gt;install brew -->
<g id="edge6" class="edge">
<title>install xcode cmdline tools&#45;&gt;install brew</title>
<path fill="none" stroke="black" d="M1370.68,-365.2C1275.62,-351.25 1119.55,-328.35 1034.29,-315.84"/>
<polygon fill="black" stroke="black" points="1034.9,-312.39 1024.49,-314.4 1033.88,-319.32 1034.9,-312.39"/>
</g>
<!-- dotfiles -->
<g id="node14" class="node">
<title>dotfiles</title>
<ellipse fill="#f9e79f" stroke="#f9e79f" cx="1203.06" cy="-162" rx="38.56" ry="18"/>
<text text-anchor="middle" x="1203.06" y="-156.95" font-family="Times,serif" font-size="14.00">dotfiles</text>
</g>
<!-- install xcode cmdline tools&#45;&gt;dotfiles -->
<g id="edge10" class="edge">
<title>install xcode cmdline tools&#45;&gt;dotfiles</title>
<path fill="none" stroke="black" d="M1471.75,-359.95C1507.15,-328.78 1571.92,-261.6 1533.06,-216 1497.73,-174.55 1336.78,-165.39 1253.43,-163.45"/>
<polygon fill="black" stroke="black" points="1253.54,-159.95 1243.47,-163.25 1253.4,-166.95 1253.54,-159.95"/>
</g>
<!-- install tmux -->
<g id="node12" class="node">
<title>install tmux</title>
<ellipse fill="#f9e79f" stroke="#f9e79f" cx="741.06" cy="-234" rx="55.45" ry="18"/>
<text text-anchor="middle" x="741.06" y="-228.95" font-family="Times,serif" font-size="14.00">install tmux</text>
</g>
<!-- install brew&#45;&gt;install tmux -->
<g id="edge7" class="edge">
<title>install brew&#45;&gt;install tmux</title>
<path fill="none" stroke="black" d="M934.8,-293.2C895.43,-281.38 834.63,-263.11 791.66,-250.2"/>
<polygon fill="black" stroke="black" points="792.91,-246.92 782.32,-247.4 790.89,-253.63 792.91,-246.92"/>
</g>
<!-- install and setup iTerm2 -->
<g id="node13" class="node">
<title>install and setup iTerm2</title>
<ellipse fill="#f9e79f" stroke="#f9e79f" cx="1067.06" cy="-234" rx="101.51" ry="18"/>
<text text-anchor="middle" x="1067.06" y="-228.95" font-family="Times,serif" font-size="14.00">install and setup iTerm2</text>
</g>
<!-- install brew&#45;&gt;install and setup iTerm2 -->
<g id="edge8" class="edge">
<title>install brew&#45;&gt;install and setup iTerm2</title>
<path fill="none" stroke="black" d="M995.16,-289.12C1007.18,-280.07 1022.46,-268.57 1035.85,-258.49"/>
<polygon fill="black" stroke="black" points="1037.65,-261.52 1043.53,-252.71 1033.44,-255.92 1037.65,-261.52"/>
</g>
<!-- install mactex -->
<g id="node17" class="node">
<title>install mactex</title>
<ellipse fill="#a9dfbf" stroke="#a9dfbf" cx="1250.06" cy="-234" rx="63.12" ry="18"/>
<text text-anchor="middle" x="1250.06" y="-228.95" font-family="Times,serif" font-size="14.00">install mactex</text>
</g>
<!-- install brew&#45;&gt;install mactex -->
<g id="edge12" class="edge">
<title>install brew&#45;&gt;install mactex</title>
<path fill="none" stroke="black" d="M1016.28,-294.29C1063.65,-282.28 1140.73,-262.73 1193.33,-249.39"/>
<polygon fill="black" stroke="black" points="1193.86,-252.86 1202.7,-247.01 1192.14,-246.08 1193.86,-252.86"/>
</g>
<!-- install useful programs -->
<g id="node18" class="node">
<title>install useful programs</title>
<ellipse fill="#a9dfbf" stroke="#a9dfbf" cx="1428.06" cy="-234" rx="96.39" ry="18"/>
<text text-anchor="middle" x="1428.06" y="-228.95" font-family="Times,serif" font-size="14.00">install useful programs</text>
</g>
<!-- install brew&#45;&gt;install useful programs -->
<g id="edge13" class="edge">
<title>install brew&#45;&gt;install useful programs</title>
<path fill="none" stroke="black" d="M1023.07,-297.66C1090.45,-287.54 1215.49,-268.66 1322.06,-252 1329.69,-250.81 1337.64,-249.55 1345.59,-248.29"/>
<polygon fill="black" stroke="black" points="1345.98,-251.77 1355.3,-246.75 1344.88,-244.86 1345.98,-251.77"/>
</g>
<!-- install python3 -->
<g id="node19" class="node">
<title>install python3</title>
<ellipse fill="#a9dfbf" stroke="#a9dfbf" cx="881.06" cy="-234" rx="66.19" ry="18"/>
<text text-anchor="middle" x="881.06" y="-228.95" font-family="Times,serif" font-size="14.00">install python3</text>
</g>
<!-- install brew&#45;&gt;install python3 -->
<g id="edge14" class="edge">
<title>install brew&#45;&gt;install python3</title>
<path fill="none" stroke="black" d="M952.96,-289.12C940.76,-279.94 925.21,-268.23 911.69,-258.06"/>
<polygon fill="black" stroke="black" points="914.03,-255.43 903.93,-252.22 909.82,-261.03 914.03,-255.43"/>
</g>
<!-- install nginx -->
<g id="node31" class="node">
<title>install nginx</title>
<ellipse fill="#d2b4de" stroke="#d2b4de" cx="449.06" cy="-234" rx="56.98" ry="18"/>
<text text-anchor="middle" x="449.06" y="-228.95" font-family="Times,serif" font-size="14.00">install nginx</text>
</g>
<!-- install brew&#45;&gt;install nginx -->
<g id="edge25" class="edge">
<title>install brew&#45;&gt;install nginx</title>
<path fill="none" stroke="black" d="M921.05,-301.25C835.23,-294.66 660.77,-279.05 515.06,-252 510.73,-251.2 506.27,-250.27 501.8,-249.27"/>
<polygon fill="black" stroke="black" points="502.77,-245.9 492.24,-247.01 501.17,-252.71 502.77,-245.9"/>
</g>
<!-- brew install vim -->
<g id="node34" class="node">
<title>brew install vim</title>
<ellipse fill="#f5b7b1" stroke="#f5b7b1" cx="596.06" cy="-234" rx="71.82" ry="18"/>
<text text-anchor="middle" x="596.06" y="-228.95" font-family="Times,serif" font-size="14.00">brew install vim</text>
</g>
<!-- install brew&#45;&gt;brew install vim -->
<g id="edge29" class="edge">
<title>install brew&#45;&gt;brew install vim</title>
<path fill="none" stroke="black" d="M926.4,-296.95C867.66,-286.93 764.85,-269.04 677.06,-252 671.56,-250.93 665.85,-249.8 660.13,-248.63"/>
<polygon fill="black" stroke="black" points="661.15,-245.27 650.65,-246.69 659.75,-252.13 661.15,-245.27"/>
</g>
<!-- install and setup iTerm2&#45;&gt;dotfiles -->
<g id="edge9" class="edge">
<title>install and setup iTerm2&#45;&gt;dotfiles</title>
<path fill="none" stroke="black" d="M1098.95,-216.59C1119.5,-206.01 1146.25,-192.24 1167.49,-181.31"/>
<polygon fill="black" stroke="black" points="1169.09,-184.42 1176.38,-176.73 1165.89,-178.2 1169.09,-184.42"/>
</g>
<!-- add __git_ps1 -->
<g id="node16" class="node">
<title>add __git_ps1</title>
<ellipse fill="#f9e79f" stroke="#f9e79f" cx="1128.06" cy="-90" rx="63.12" ry="18"/>
<text text-anchor="middle" x="1128.06" y="-84.95" font-family="Times,serif" font-size="14.00">add __git_ps1</text>
</g>
<!-- dotfiles&#45;&gt;add __git_ps1 -->
<g id="edge11" class="edge">
<title>dotfiles&#45;&gt;add __git_ps1</title>
<path fill="none" stroke="black" d="M1186.41,-145.46C1176.95,-136.63 1164.88,-125.37 1154.18,-115.38"/>
<polygon fill="black" stroke="black" points="1156.77,-113.01 1147.07,-108.75 1152,-118.13 1156.77,-113.01"/>
</g>
<!-- get vim plugins -->
<g id="node36" class="node">
<title>get vim plugins</title>
<ellipse fill="#f5b7b1" stroke="#f5b7b1" cx="1278.06" cy="-90" rx="69.26" ry="18"/>
<text text-anchor="middle" x="1278.06" y="-84.95" font-family="Times,serif" font-size="14.00">get vim plugins</text>
</g>
<!-- dotfiles&#45;&gt;get vim plugins -->
<g id="edge31" class="edge">
<title>dotfiles&#45;&gt;get vim plugins</title>
<path fill="none" stroke="black" d="M1219.7,-145.46C1229.17,-136.63 1241.24,-125.37 1251.94,-115.38"/>
<polygon fill="black" stroke="black" points="1254.12,-118.13 1259.05,-108.75 1249.35,-113.01 1254.12,-118.13"/>
</g>
<!-- add to .env -->
<g id="node15" class="node">
<title>add to .env</title>
<ellipse fill="#f9e79f" stroke="#f9e79f" cx="2443.06" cy="-450" rx="52.38" ry="18"/>
<text text-anchor="middle" x="2443.06" y="-444.95" font-family="Times,serif" font-size="14.00">add to .env</text>
</g>
<!-- pip3 install virtualenv -->
<g id="node20" class="node">
<title>pip3 install virtualenv</title>
<ellipse fill="#a9dfbf" stroke="#a9dfbf" cx="897.06" cy="-162" rx="92.3" ry="18"/>
<text text-anchor="middle" x="897.06" y="-156.95" font-family="Times,serif" font-size="14.00">pip3 install virtualenv</text>
</g>
<!-- install python3&#45;&gt;pip3 install virtualenv -->
<g id="edge15" class="edge">
<title>install python3&#45;&gt;pip3 install virtualenv</title>
<path fill="none" stroke="black" d="M885.01,-215.7C886.7,-208.32 888.71,-199.52 890.6,-191.25"/>
<polygon fill="black" stroke="black" points="894,-192.11 892.81,-181.58 887.17,-190.55 894,-192.11"/>
</g>
<!-- create virtualenv -->
<g id="node21" class="node">
<title>create virtualenv</title>
<ellipse fill="#a9dfbf" stroke="#a9dfbf" cx="912.06" cy="-90" rx="72.85" ry="18"/>
<text text-anchor="middle" x="912.06" y="-84.95" font-family="Times,serif" font-size="14.00">create virtualenv</text>
</g>
<!-- pip3 install virtualenv&#45;&gt;create virtualenv -->
<g id="edge16" class="edge">
<title>pip3 install virtualenv&#45;&gt;create virtualenv</title>
<path fill="none" stroke="black" d="M900.77,-143.7C902.35,-136.32 904.23,-127.52 906.01,-119.25"/>
<polygon fill="black" stroke="black" points="909.4,-120.1 908.08,-109.58 902.56,-118.63 909.4,-120.1"/>
</g>
<!-- pip install common packages -->
<g id="node22" class="node">
<title>pip install common packages</title>
<ellipse fill="#a9dfbf" stroke="#a9dfbf" cx="912.06" cy="-18" rx="119.93" ry="18"/>
<text text-anchor="middle" x="912.06" y="-12.95" font-family="Times,serif" font-size="14.00">pip install common packages</text>
</g>
<!-- create virtualenv&#45;&gt;pip install common packages -->
<g id="edge17" class="edge">
<title>create virtualenv&#45;&gt;pip install common packages</title>
<path fill="none" stroke="black" d="M912.06,-71.7C912.06,-64.41 912.06,-55.73 912.06,-47.54"/>
<polygon fill="black" stroke="black" points="915.56,-47.62 912.06,-37.62 908.56,-47.62 915.56,-47.62"/>
</g>
<!-- install youcompleteme -->
<g id="node37" class="node">
<title>install youcompleteme</title>
<ellipse fill="#f5b7b1" stroke="#f5b7b1" cx="1259.06" cy="-18" rx="95.88" ry="18"/>
<text text-anchor="middle" x="1259.06" y="-12.95" font-family="Times,serif" font-size="14.00">install youcompleteme</text>
</g>
<!-- create virtualenv&#45;&gt;install youcompleteme -->
<g id="edge33" class="edge">
<title>create virtualenv&#45;&gt;install youcompleteme</title>
<path fill="none" stroke="black" d="M967.04,-77.91C1025.75,-66.06 1119.15,-47.22 1184.47,-34.05"/>
<polygon fill="black" stroke="black" points="1184.91,-37.53 1194.02,-32.12 1183.53,-30.67 1184.91,-37.53"/>
</g>
<!-- backup data -->
<g id="node23" class="node">
<title>backup data</title>
<ellipse fill="#aed6f1" stroke="#aed6f1" cx="238.06" cy="-306" rx="55.45" ry="18"/>
<text text-anchor="middle" x="238.06" y="-300.95" font-family="Times,serif" font-size="14.00">backup data</text>
</g>
<!-- transfer data from external disk -->
<g id="node26" class="node">
<title>transfer data from external disk</title>
<ellipse fill="#aed6f1" stroke="#aed6f1" cx="238.06" cy="-234" rx="128.12" ry="18"/>
<text text-anchor="middle" x="238.06" y="-228.95" font-family="Times,serif" font-size="14.00">transfer data from external disk</text>
</g>
<!-- backup data&#45;&gt;transfer data from external disk -->
<g id="edge19" class="edge">
<title>backup data&#45;&gt;transfer data from external disk</title>
<path fill="none" stroke="black" d="M238.06,-287.7C238.06,-280.41 238.06,-271.73 238.06,-263.54"/>
<polygon fill="black" stroke="black" points="241.56,-263.62 238.06,-253.62 234.56,-263.62 241.56,-263.62"/>
</g>
<!-- backup: push commits to git -->
<g id="node24" class="node">
<title>backup: push commits to git</title>
<ellipse fill="#aed6f1" stroke="#aed6f1" cx="2631.06" cy="-450" rx="117.37" ry="18"/>
<text text-anchor="middle" x="2631.06" y="-444.95" font-family="Times,serif" font-size="14.00">backup: push commits to git</text>
</g>
<!-- install ntfs drivers&#45;&gt;transfer data from external disk -->
<g id="edge20" class="edge">
<title>install ntfs drivers&#45;&gt;transfer data from external disk</title>
<path fill="none" stroke="black" d="M355.55,-289.46C334.6,-279.75 307.33,-267.11 284.34,-256.45"/>
<polygon fill="black" stroke="black" points="286.03,-253.38 275.49,-252.35 283.09,-259.73 286.03,-253.38"/>
</g>
<!-- add profile pic -->
<g id="node27" class="node">
<title>add profile pic</title>
<ellipse fill="#aed6f1" stroke="#aed6f1" cx="79.06" cy="-162" rx="65.17" ry="18"/>
<text text-anchor="middle" x="79.06" y="-156.95" font-family="Times,serif" font-size="14.00">add profile pic</text>
</g>
<!-- transfer data from external disk&#45;&gt;add profile pic -->
<g id="edge21" class="edge">
<title>transfer data from external disk&#45;&gt;add profile pic</title>
<path fill="none" stroke="black" d="M200.38,-216.41C177.18,-206.2 147.34,-193.06 123.06,-182.37"/>
<polygon fill="black" stroke="black" points="124.63,-179.24 114.07,-178.41 121.81,-185.65 124.63,-179.24"/>
</g>
<!-- add wallpapers -->
<g id="node28" class="node">
<title>add wallpapers</title>
<ellipse fill="#aed6f1" stroke="#aed6f1" cx="229.06" cy="-162" rx="66.71" ry="18"/>
<text text-anchor="middle" x="229.06" y="-156.95" font-family="Times,serif" font-size="14.00">add wallpapers</text>
</g>
<!-- transfer data from external disk&#45;&gt;add wallpapers -->
<g id="edge22" class="edge">
<title>transfer data from external disk&#45;&gt;add wallpapers</title>
<path fill="none" stroke="black" d="M235.84,-215.7C234.89,-208.32 233.76,-199.52 232.69,-191.25"/>
<polygon fill="black" stroke="black" points="236.2,-191.08 231.45,-181.61 229.26,-191.97 236.2,-191.08"/>
</g>
<!-- serve websites with nginx -->
<g id="node33" class="node">
<title>serve websites with nginx</title>
<ellipse fill="#d2b4de" stroke="#d2b4de" cx="387.06" cy="-90" rx="107.14" ry="18"/>
<text text-anchor="middle" x="387.06" y="-84.95" font-family="Times,serif" font-size="14.00">serve websites with nginx</text>
</g>
<!-- transfer data from external disk&#45;&gt;serve websites with nginx -->
<g id="edge28" class="edge">
<title>transfer data from external disk&#45;&gt;serve websites with nginx</title>
<path fill="none" stroke="black" d="M261.43,-215.95C274.65,-205.95 291.25,-192.81 305.06,-180 326.67,-159.96 349.22,-135.15 365.19,-116.82"/>
<polygon fill="black" stroke="black" points="367.81,-119.15 371.7,-109.29 362.52,-114.57 367.81,-119.15"/>
</g>
<!-- use symlinks with dropbox -->
<g id="node30" class="node">
<title>use symlinks with dropbox</title>
<ellipse fill="#aed6f1" stroke="#aed6f1" cx="1868.06" cy="-306" rx="111.74" ry="18"/>
<text text-anchor="middle" x="1868.06" y="-300.95" font-family="Times,serif" font-size="14.00">use symlinks with dropbox</text>
</g>
<!-- install dropbox&#45;&gt;use symlinks with dropbox -->
<g id="edge24" class="edge">
<title>install dropbox&#45;&gt;use symlinks with dropbox</title>
<path fill="none" stroke="black" d="M1854.51,-359.7C1856.41,-352.32 1858.67,-343.52 1860.8,-335.25"/>
<polygon fill="black" stroke="black" points="1864.18,-336.13 1863.28,-325.57 1857.4,-334.38 1864.18,-336.13"/>
</g>
<!-- enable nginx autoindex -->
<g id="node32" class="node">
<title>enable nginx autoindex</title>
<ellipse fill="#d2b4de" stroke="#d2b4de" cx="449.06" cy="-162" rx="97.41" ry="18"/>
<text text-anchor="middle" x="449.06" y="-156.95" font-family="Times,serif" font-size="14.00">enable nginx autoindex</text>
</g>
<!-- install nginx&#45;&gt;enable nginx autoindex -->
<g id="edge26" class="edge">
<title>install nginx&#45;&gt;enable nginx autoindex</title>
<path fill="none" stroke="black" d="M449.06,-215.7C449.06,-208.41 449.06,-199.73 449.06,-191.54"/>
<polygon fill="black" stroke="black" points="452.56,-191.62 449.06,-181.62 445.56,-191.62 452.56,-191.62"/>
</g>
<!-- enable nginx autoindex&#45;&gt;serve websites with nginx -->
<g id="edge27" class="edge">
<title>enable nginx autoindex&#45;&gt;serve websites with nginx</title>
<path fill="none" stroke="black" d="M434.05,-144.05C426.77,-135.84 417.87,-125.79 409.79,-116.66"/>
<polygon fill="black" stroke="black" points="412.61,-114.57 403.36,-109.41 407.37,-119.21 412.61,-114.57"/>
</g>
<!-- fix vim locale error -->
<g id="node38" class="node">
<title>fix vim locale error</title>
<ellipse fill="#f5b7b1" stroke="#f5b7b1" cx="648.06" cy="-162" rx="83.6" ry="18"/>
<text text-anchor="middle" x="648.06" y="-156.95" font-family="Times,serif" font-size="14.00">fix vim locale error</text>
</g>
<!-- brew install vim&#45;&gt;fix vim locale error -->
<g id="edge34" class="edge">
<title>brew install vim&#45;&gt;fix vim locale error</title>
<path fill="none" stroke="black" d="M608.65,-216.05C614.56,-208.09 621.75,-198.41 628.37,-189.51"/>
<polygon fill="black" stroke="black" points="631.17,-191.6 634.32,-181.49 625.55,-187.43 631.17,-191.6"/>
</g>
<!-- install pathogen&#45;&gt;install youcompleteme -->
<g id="edge32" class="edge">
<title>install pathogen&#45;&gt;install youcompleteme</title>
<path fill="none" stroke="black" d="M1425.16,-75.17C1393.56,-64.48 1349.47,-49.57 1314.66,-37.8"/>
<polygon fill="black" stroke="black" points="1316.21,-34.63 1305.62,-34.74 1313.97,-41.26 1316.21,-34.63"/>
</g>
</g>
</svg>
