<?xml version="1.0" encoding="UTF-8" standalone="no"?>
<!DOCTYPE svg PUBLIC "-//W3C//DTD SVG 1.1//EN"
 "http://www.w3.org/Graphics/SVG/1.1/DTD/svg11.dtd">
<!-- Generated by graphviz version 2.42.3 (20191010.1750)
 -->
<!-- Title: dep_graph Pages: 1 -->
<svg width="2366pt" height="476pt"
 viewBox="0.00 0.00 2365.95 476.00" xmlns="http://www.w3.org/2000/svg" xmlns:xlink="http://www.w3.org/1999/xlink">
<g id="graph0" class="graph" transform="scale(1 1) rotate(0) translate(4 472)">
<title>dep_graph</title>
<polygon fill="white" stroke="transparent" points="-4,4 -4,-472 2361.95,-472 2361.95,4 -4,4"/>
<!-- show battery percentage -->
<g id="node1" class="node">
<title>show battery percentage</title>
<ellipse fill="none" stroke="black" cx="1075.63" cy="-450" rx="96.09" ry="18"/>
<text text-anchor="middle" x="1075.63" y="-445.8" font-family="Times,serif" font-size="14.00">show battery percentage</text>
</g>
<!-- join wifi network -->
<g id="node2" class="node">
<title>join wifi network</title>
<ellipse fill="none" stroke="black" cx="1260.63" cy="-450" rx="71.05" ry="18"/>
<text text-anchor="middle" x="1260.63" y="-445.8" font-family="Times,serif" font-size="14.00">join wifi network</text>
</g>
<!-- update system -->
<g id="node3" class="node">
<title>update system</title>
<ellipse fill="none" stroke="black" cx="247.63" cy="-378" rx="60.41" ry="18"/>
<text text-anchor="middle" x="247.63" y="-373.8" font-family="Times,serif" font-size="14.00">update system</text>
</g>
<!-- join wifi network&#45;&gt;update system -->
<g id="edge1" class="edge">
<title>join wifi network&#45;&gt;update system</title>
<path fill="none" stroke="black" d="M1210.48,-437.12C1200.63,-435.13 1190.34,-433.3 1180.63,-432 860.74,-389.18 474.62,-380.91 318.37,-379.34"/>
<polygon fill="black" stroke="black" points="318,-375.84 307.96,-379.25 317.93,-382.84 318,-375.84"/>
</g>
<!-- install chrome -->
<g id="node8" class="node">
<title>install chrome</title>
<ellipse fill="none" stroke="black" cx="1499.63" cy="-378" rx="60.4" ry="18"/>
<text text-anchor="middle" x="1499.63" y="-373.8" font-family="Times,serif" font-size="14.00">install chrome</text>
</g>
<!-- join wifi network&#45;&gt;install chrome -->
<g id="edge3" class="edge">
<title>join wifi network&#45;&gt;install chrome</title>
<path fill="none" stroke="black" d="M1305.3,-435.92C1345.91,-424.02 1405.82,-406.48 1448.37,-394.01"/>
<polygon fill="black" stroke="black" points="1449.36,-397.37 1457.97,-391.2 1447.39,-390.65 1449.36,-397.37"/>
</g>
<!-- terminal.app preferences -->
<g id="node10" class="node">
<title>terminal.app preferences</title>
<ellipse fill="#f9e79f" stroke="#f9e79f" cx="1323.63" cy="-378" rx="97.52" ry="18"/>
<text text-anchor="middle" x="1323.63" y="-373.8" font-family="Times,serif" font-size="14.00">terminal.app preferences</text>
</g>
<!-- join wifi network&#45;&gt;terminal.app preferences -->
<g id="edge5" class="edge">
<title>join wifi network&#45;&gt;terminal.app preferences</title>
<path fill="none" stroke="black" d="M1275.88,-432.05C1283.62,-423.46 1293.16,-412.86 1301.67,-403.4"/>
<polygon fill="black" stroke="black" points="1304.43,-405.56 1308.52,-395.79 1299.23,-400.88 1304.43,-405.56"/>
</g>
<!-- install xcode cmdline tools -->
<g id="node11" class="node">
<title>install xcode cmdline tools</title>
<ellipse fill="#f9e79f" stroke="#f9e79f" cx="1064.63" cy="-378" rx="105.31" ry="18"/>
<text text-anchor="middle" x="1064.63" y="-373.8" font-family="Times,serif" font-size="14.00">install xcode cmdline tools</text>
</g>
<!-- join wifi network&#45;&gt;install xcode cmdline tools -->
<g id="edge6" class="edge">
<title>join wifi network&#45;&gt;install xcode cmdline tools</title>
<path fill="none" stroke="black" d="M1220.97,-434.83C1191.26,-424.23 1150.32,-409.6 1117.79,-397.98"/>
<polygon fill="black" stroke="black" points="1118.57,-394.55 1107.98,-394.48 1116.22,-401.14 1118.57,-394.55"/>
</g>
<!-- install dropbox -->
<g id="node29" class="node">
<title>install dropbox</title>
<ellipse fill="#aed6f1" stroke="#aed6f1" cx="1659.63" cy="-378" rx="63.32" ry="18"/>
<text text-anchor="middle" x="1659.63" y="-373.8" font-family="Times,serif" font-size="14.00">install dropbox</text>
</g>
<!-- join wifi network&#45;&gt;install dropbox -->
<g id="edge23" class="edge">
<title>join wifi network&#45;&gt;install dropbox</title>
<path fill="none" stroke="black" d="M1312.62,-437.54C1321.93,-435.6 1331.55,-433.68 1340.63,-432 1441.5,-413.33 1467.53,-413.42 1568.63,-396 1578.37,-394.32 1588.68,-392.47 1598.73,-390.62"/>
<polygon fill="black" stroke="black" points="1599.46,-394.05 1608.66,-388.78 1598.19,-387.16 1599.46,-394.05"/>
</g>
<!-- install pathogen -->
<g id="node35" class="node">
<title>install pathogen</title>
<ellipse fill="#f5b7b1" stroke="#f5b7b1" cx="1206.63" cy="-90" rx="66.2" ry="18"/>
<text text-anchor="middle" x="1206.63" y="-85.8" font-family="Times,serif" font-size="14.00">install pathogen</text>
</g>
<!-- join wifi network&#45;&gt;install pathogen -->
<g id="edge30" class="edge">
<title>join wifi network&#45;&gt;install pathogen</title>
<path fill="none" stroke="black" d="M1243.2,-432.37C1233.97,-422.61 1223.2,-409.56 1216.63,-396 1198.98,-359.61 1197.63,-347.45 1197.63,-307 1197.63,-307 1197.63,-307 1197.63,-233 1197.63,-192.92 1201.24,-146.59 1203.89,-118.05"/>
<polygon fill="black" stroke="black" points="1207.38,-118.31 1204.85,-108.03 1200.42,-117.65 1207.38,-118.31"/>
</g>
<!-- system preferences -->
<g id="node5" class="node">
<title>system preferences</title>
<ellipse fill="none" stroke="black" cx="77.63" cy="-306" rx="77.76" ry="18"/>
<text text-anchor="middle" x="77.63" y="-301.8" font-family="Times,serif" font-size="14.00">system preferences</text>
</g>
<!-- update system&#45;&gt;system preferences -->
<g id="edge2" class="edge">
<title>update system&#45;&gt;system preferences</title>
<path fill="none" stroke="black" d="M213.64,-363C187.69,-352.32 151.69,-337.5 123.25,-325.78"/>
<polygon fill="black" stroke="black" points="124.49,-322.51 113.91,-321.94 121.83,-328.98 124.49,-322.51"/>
</g>
<!-- install ntfs drivers -->
<g id="node25" class="node">
<title>install ntfs drivers</title>
<ellipse fill="#aed6f1" stroke="#aed6f1" cx="247.63" cy="-306" rx="73.93" ry="18"/>
<text text-anchor="middle" x="247.63" y="-301.8" font-family="Times,serif" font-size="14.00">install ntfs drivers</text>
</g>
<!-- update system&#45;&gt;install ntfs drivers -->
<g id="edge18" class="edge">
<title>update system&#45;&gt;install ntfs drivers</title>
<path fill="none" stroke="black" d="M247.63,-359.7C247.63,-351.98 247.63,-342.71 247.63,-334.11"/>
<polygon fill="black" stroke="black" points="251.13,-334.1 247.63,-324.1 244.13,-334.1 251.13,-334.1"/>
</g>
<!-- remove useless apps from dock -->
<g id="node4" class="node">
<title>remove useless apps from dock</title>
<ellipse fill="none" stroke="black" cx="1470.63" cy="-450" rx="121.22" ry="18"/>
<text text-anchor="middle" x="1470.63" y="-445.8" font-family="Times,serif" font-size="14.00">remove useless apps from dock</text>
</g>
<!-- finder preferences and view -->
<g id="node6" class="node">
<title>finder preferences and view</title>
<ellipse fill="none" stroke="black" cx="1717.63" cy="-450" rx="108.15" ry="18"/>
<text text-anchor="middle" x="1717.63" y="-445.8" font-family="Times,serif" font-size="14.00">finder preferences and view</text>
</g>
<!-- textedit preferences -->
<g id="node7" class="node">
<title>textedit preferences</title>
<ellipse fill="none" stroke="black" cx="1923.63" cy="-450" rx="79.67" ry="18"/>
<text text-anchor="middle" x="1923.63" y="-445.8" font-family="Times,serif" font-size="14.00">textedit preferences</text>
</g>
<!-- sync chrome -->
<g id="node9" class="node">
<title>sync chrome</title>
<ellipse fill="none" stroke="black" cx="1490.63" cy="-306" rx="55.09" ry="18"/>
<text text-anchor="middle" x="1490.63" y="-301.8" font-family="Times,serif" font-size="14.00">sync chrome</text>
</g>
<!-- install chrome&#45;&gt;sync chrome -->
<g id="edge4" class="edge">
<title>install chrome&#45;&gt;sync chrome</title>
<path fill="none" stroke="black" d="M1497.4,-359.7C1496.41,-351.98 1495.22,-342.71 1494.11,-334.11"/>
<polygon fill="black" stroke="black" points="1497.57,-333.58 1492.83,-324.1 1490.63,-334.47 1497.57,-333.58"/>
</g>
<!-- dotfiles -->
<g id="node12" class="node">
<title>dotfiles</title>
<ellipse fill="#f9e79f" stroke="#f9e79f" cx="1314.63" cy="-306" rx="36.3" ry="18"/>
<text text-anchor="middle" x="1314.63" y="-301.8" font-family="Times,serif" font-size="14.00">dotfiles</text>
</g>
<!-- terminal.app preferences&#45;&gt;dotfiles -->
<g id="edge7" class="edge">
<title>terminal.app preferences&#45;&gt;dotfiles</title>
<path fill="none" stroke="black" d="M1321.4,-359.7C1320.41,-351.98 1319.22,-342.71 1318.11,-334.11"/>
<polygon fill="black" stroke="black" points="1321.57,-333.58 1316.83,-324.1 1314.63,-334.47 1321.57,-333.58"/>
</g>
<!-- install xcode cmdline tools&#45;&gt;dotfiles -->
<g id="edge8" class="edge">
<title>install xcode cmdline tools&#45;&gt;dotfiles</title>
<path fill="none" stroke="black" d="M1117.04,-362.33C1163.83,-349.22 1231.39,-330.31 1274.14,-318.34"/>
<polygon fill="black" stroke="black" points="1275.23,-321.67 1283.92,-315.6 1273.35,-314.92 1275.23,-321.67"/>
</g>
<!-- install brew -->
<g id="node15" class="node">
<title>install brew</title>
<ellipse fill="#f9e79f" stroke="#f9e79f" cx="840.63" cy="-306" rx="51.73" ry="18"/>
<text text-anchor="middle" x="840.63" y="-301.8" font-family="Times,serif" font-size="14.00">install brew</text>
</g>
<!-- install xcode cmdline tools&#45;&gt;install brew -->
<g id="edge10" class="edge">
<title>install xcode cmdline tools&#45;&gt;install brew</title>
<path fill="none" stroke="black" d="M1016.58,-361.98C978.46,-350.07 925.48,-333.52 887.64,-321.69"/>
<polygon fill="black" stroke="black" points="888.47,-318.28 877.88,-318.64 886.38,-324.96 888.47,-318.28"/>
</g>
<!-- add __git_ps1 -->
<g id="node14" class="node">
<title>add __git_ps1</title>
<ellipse fill="#f9e79f" stroke="#f9e79f" cx="1295.63" cy="-234" rx="59.94" ry="18"/>
<text text-anchor="middle" x="1295.63" y="-229.8" font-family="Times,serif" font-size="14.00">add __git_ps1</text>
</g>
<!-- dotfiles&#45;&gt;add __git_ps1 -->
<g id="edge9" class="edge">
<title>dotfiles&#45;&gt;add __git_ps1</title>
<path fill="none" stroke="black" d="M1310.03,-288.05C1307.91,-280.26 1305.35,-270.82 1302.98,-262.08"/>
<polygon fill="black" stroke="black" points="1306.32,-261.01 1300.32,-252.28 1299.56,-262.84 1306.32,-261.01"/>
</g>
<!-- get vim plugins -->
<g id="node36" class="node">
<title>get vim plugins</title>
<ellipse fill="#f5b7b1" stroke="#f5b7b1" cx="1438.63" cy="-234" rx="65.26" ry="18"/>
<text text-anchor="middle" x="1438.63" y="-229.8" font-family="Times,serif" font-size="14.00">get vim plugins</text>
</g>
<!-- dotfiles&#45;&gt;get vim plugins -->
<g id="edge31" class="edge">
<title>dotfiles&#45;&gt;get vim plugins</title>
<path fill="none" stroke="black" d="M1337.66,-292C1355.84,-281.73 1381.54,-267.23 1402.46,-255.42"/>
<polygon fill="black" stroke="black" points="1404.41,-258.34 1411.4,-250.37 1400.97,-252.24 1404.41,-258.34"/>
</g>
<!-- add to .env -->
<g id="node13" class="node">
<title>add to .env</title>
<ellipse fill="#f9e79f" stroke="#f9e79f" cx="2070.63" cy="-450" rx="49.31" ry="18"/>
<text text-anchor="middle" x="2070.63" y="-445.8" font-family="Times,serif" font-size="14.00">add to .env</text>
</g>
<!-- install tmux -->
<g id="node16" class="node">
<title>install tmux</title>
<ellipse fill="#f9e79f" stroke="#f9e79f" cx="568.63" cy="-234" rx="52.23" ry="18"/>
<text text-anchor="middle" x="568.63" y="-229.8" font-family="Times,serif" font-size="14.00">install tmux</text>
</g>
<!-- install brew&#45;&gt;install tmux -->
<g id="edge11" class="edge">
<title>install brew&#45;&gt;install tmux</title>
<path fill="none" stroke="black" d="M799.31,-294.95C756.71,-284.52 688.41,-267.57 629.63,-252 625.62,-250.94 621.48,-249.82 617.31,-248.69"/>
<polygon fill="black" stroke="black" points="618.21,-245.3 607.64,-246.03 616.35,-252.05 618.21,-245.3"/>
</g>
<!-- install java -->
<g id="node17" class="node">
<title>install java</title>
<ellipse fill="#a9dfbf" stroke="#a9dfbf" cx="840.63" cy="-234" rx="48.83" ry="18"/>
<text text-anchor="middle" x="840.63" y="-229.8" font-family="Times,serif" font-size="14.00">install java</text>
</g>
<!-- install brew&#45;&gt;install java -->
<g id="edge12" class="edge">
<title>install brew&#45;&gt;install java</title>
<path fill="none" stroke="black" d="M840.63,-287.7C840.63,-279.98 840.63,-270.71 840.63,-262.11"/>
<polygon fill="black" stroke="black" points="844.13,-262.1 840.63,-252.1 837.13,-262.1 844.13,-262.1"/>
</g>
<!-- install mactex -->
<g id="node18" class="node">
<title>install mactex</title>
<ellipse fill="#a9dfbf" stroke="#a9dfbf" cx="966.63" cy="-234" rx="59.43" ry="18"/>
<text text-anchor="middle" x="966.63" y="-229.8" font-family="Times,serif" font-size="14.00">install mactex</text>
</g>
<!-- install brew&#45;&gt;install mactex -->
<g id="edge13" class="edge">
<title>install brew&#45;&gt;install mactex</title>
<path fill="none" stroke="black" d="M867.04,-290.33C885.44,-280.1 910.21,-266.34 930.44,-255.1"/>
<polygon fill="black" stroke="black" points="932.34,-258.05 939.38,-250.14 928.94,-251.94 932.34,-258.05"/>
</g>
<!-- install python3 -->
<g id="node19" class="node">
<title>install python3</title>
<ellipse fill="#a9dfbf" stroke="#a9dfbf" cx="1106.63" cy="-234" rx="62.84" ry="18"/>
<text text-anchor="middle" x="1106.63" y="-229.8" font-family="Times,serif" font-size="14.00">install python3</text>
</g>
<!-- install brew&#45;&gt;install python3 -->
<g id="edge14" class="edge">
<title>install brew&#45;&gt;install python3</title>
<path fill="none" stroke="black" d="M880.45,-294.52C926.11,-282.51 1001.19,-262.75 1052.22,-249.32"/>
<polygon fill="black" stroke="black" points="1053.31,-252.65 1062.09,-246.72 1051.53,-245.88 1053.31,-252.65"/>
</g>
<!-- install nginx -->
<g id="node31" class="node">
<title>install nginx</title>
<ellipse fill="#d2b4de" stroke="#d2b4de" cx="444.63" cy="-234" rx="54.16" ry="18"/>
<text text-anchor="middle" x="444.63" y="-229.8" font-family="Times,serif" font-size="14.00">install nginx</text>
</g>
<!-- install brew&#45;&gt;install nginx -->
<g id="edge25" class="edge">
<title>install brew&#45;&gt;install nginx</title>
<path fill="none" stroke="black" d="M792.91,-299.02C727.99,-290.52 608.38,-273.55 507.63,-252 503.21,-251.05 498.64,-249.99 494.07,-248.87"/>
<polygon fill="black" stroke="black" points="494.68,-245.41 484.13,-246.34 492.96,-252.2 494.68,-245.41"/>
</g>
<!-- brew install vim -->
<g id="node34" class="node">
<title>brew install vim</title>
<ellipse fill="#f5b7b1" stroke="#f5b7b1" cx="706.63" cy="-234" rx="67.66" ry="18"/>
<text text-anchor="middle" x="706.63" y="-229.8" font-family="Times,serif" font-size="14.00">brew install vim</text>
</g>
<!-- install brew&#45;&gt;brew install vim -->
<g id="edge29" class="edge">
<title>install brew&#45;&gt;brew install vim</title>
<path fill="none" stroke="black" d="M813.19,-290.67C793.49,-280.38 766.69,-266.37 744.89,-254.99"/>
<polygon fill="black" stroke="black" points="746.37,-251.81 735.89,-250.29 743.13,-258.02 746.37,-251.81"/>
</g>
<!-- pip3 install virtualenv -->
<g id="node20" class="node">
<title>pip3 install virtualenv</title>
<ellipse fill="#a9dfbf" stroke="#a9dfbf" cx="1062.63" cy="-162" rx="87.94" ry="18"/>
<text text-anchor="middle" x="1062.63" y="-157.8" font-family="Times,serif" font-size="14.00">pip3 install virtualenv</text>
</g>
<!-- install python3&#45;&gt;pip3 install virtualenv -->
<g id="edge15" class="edge">
<title>install python3&#45;&gt;pip3 install virtualenv</title>
<path fill="none" stroke="black" d="M1095.98,-216.05C1090.87,-207.92 1084.63,-198 1078.94,-188.94"/>
<polygon fill="black" stroke="black" points="1081.77,-186.88 1073.49,-180.28 1075.85,-190.6 1081.77,-186.88"/>
</g>
<!-- create virtualenv -->
<g id="node21" class="node">
<title>create virtualenv</title>
<ellipse fill="#a9dfbf" stroke="#a9dfbf" cx="1052.63" cy="-90" rx="69.05" ry="18"/>
<text text-anchor="middle" x="1052.63" y="-85.8" font-family="Times,serif" font-size="14.00">create virtualenv</text>
</g>
<!-- pip3 install virtualenv&#45;&gt;create virtualenv -->
<g id="edge16" class="edge">
<title>pip3 install virtualenv&#45;&gt;create virtualenv</title>
<path fill="none" stroke="black" d="M1060.16,-143.7C1059.06,-135.98 1057.73,-126.71 1056.5,-118.11"/>
<polygon fill="black" stroke="black" points="1059.95,-117.51 1055.07,-108.1 1053.02,-118.5 1059.95,-117.51"/>
</g>
<!-- pip install common packages -->
<g id="node22" class="node">
<title>pip install common packages</title>
<ellipse fill="#a9dfbf" stroke="#a9dfbf" cx="985.63" cy="-18" rx="113.02" ry="18"/>
<text text-anchor="middle" x="985.63" y="-13.8" font-family="Times,serif" font-size="14.00">pip install common packages</text>
</g>
<!-- create virtualenv&#45;&gt;pip install common packages -->
<g id="edge17" class="edge">
<title>create virtualenv&#45;&gt;pip install common packages</title>
<path fill="none" stroke="black" d="M1036.75,-72.41C1028.45,-63.73 1018.12,-52.95 1008.93,-43.34"/>
<polygon fill="black" stroke="black" points="1011.3,-40.76 1001.86,-35.96 1006.24,-45.6 1011.3,-40.76"/>
</g>
<!-- install youcompleteme -->
<g id="node37" class="node">
<title>install youcompleteme</title>
<ellipse fill="#f5b7b1" stroke="#f5b7b1" cx="1206.63" cy="-18" rx="90.33" ry="18"/>
<text text-anchor="middle" x="1206.63" y="-13.8" font-family="Times,serif" font-size="14.00">install youcompleteme</text>
</g>
<!-- create virtualenv&#45;&gt;install youcompleteme -->
<g id="edge33" class="edge">
<title>create virtualenv&#45;&gt;install youcompleteme</title>
<path fill="none" stroke="black" d="M1085.67,-73.98C1108.24,-63.72 1138.38,-50.02 1162.94,-38.86"/>
<polygon fill="black" stroke="black" points="1164.39,-42.04 1172.04,-34.72 1161.49,-35.67 1164.39,-42.04"/>
</g>
<!-- backup data -->
<g id="node23" class="node">
<title>backup data</title>
<ellipse fill="#aed6f1" stroke="#aed6f1" cx="392.63" cy="-306" rx="52.67" ry="18"/>
<text text-anchor="middle" x="392.63" y="-301.8" font-family="Times,serif" font-size="14.00">backup data</text>
</g>
<!-- transfer data from external disk -->
<g id="node26" class="node">
<title>transfer data from external disk</title>
<ellipse fill="#aed6f1" stroke="#aed6f1" cx="247.63" cy="-234" rx="121.19" ry="18"/>
<text text-anchor="middle" x="247.63" y="-229.8" font-family="Times,serif" font-size="14.00">transfer data from external disk</text>
</g>
<!-- backup data&#45;&gt;transfer data from external disk -->
<g id="edge19" class="edge">
<title>backup data&#45;&gt;transfer data from external disk</title>
<path fill="none" stroke="black" d="M363.29,-290.83C342.39,-280.75 313.98,-267.03 290.54,-255.72"/>
<polygon fill="black" stroke="black" points="292.03,-252.55 281.5,-251.35 288.99,-258.85 292.03,-252.55"/>
</g>
<!-- backup: push commits to git -->
<g id="node24" class="node">
<title>backup: push commits to git</title>
<ellipse fill="#aed6f1" stroke="#aed6f1" cx="2247.63" cy="-450" rx="110.15" ry="18"/>
<text text-anchor="middle" x="2247.63" y="-445.8" font-family="Times,serif" font-size="14.00">backup: push commits to git</text>
</g>
<!-- install ntfs drivers&#45;&gt;transfer data from external disk -->
<g id="edge20" class="edge">
<title>install ntfs drivers&#45;&gt;transfer data from external disk</title>
<path fill="none" stroke="black" d="M247.63,-287.7C247.63,-279.98 247.63,-270.71 247.63,-262.11"/>
<polygon fill="black" stroke="black" points="251.13,-262.1 247.63,-252.1 244.13,-262.1 251.13,-262.1"/>
</g>
<!-- add profile pic -->
<g id="node27" class="node">
<title>add profile pic</title>
<ellipse fill="#aed6f1" stroke="#aed6f1" cx="239.63" cy="-162" rx="61.38" ry="18"/>
<text text-anchor="middle" x="239.63" y="-157.8" font-family="Times,serif" font-size="14.00">add profile pic</text>
</g>
<!-- transfer data from external disk&#45;&gt;add profile pic -->
<g id="edge21" class="edge">
<title>transfer data from external disk&#45;&gt;add profile pic</title>
<path fill="none" stroke="black" d="M245.65,-215.7C244.77,-207.98 243.71,-198.71 242.73,-190.11"/>
<polygon fill="black" stroke="black" points="246.2,-189.64 241.58,-180.1 239.24,-190.44 246.2,-189.64"/>
</g>
<!-- add wallpapers -->
<g id="node28" class="node">
<title>add wallpapers</title>
<ellipse fill="#aed6f1" stroke="#aed6f1" cx="96.63" cy="-162" rx="63.28" ry="18"/>
<text text-anchor="middle" x="96.63" y="-157.8" font-family="Times,serif" font-size="14.00">add wallpapers</text>
</g>
<!-- transfer data from external disk&#45;&gt;add wallpapers -->
<g id="edge22" class="edge">
<title>transfer data from external disk&#45;&gt;add wallpapers</title>
<path fill="none" stroke="black" d="M212.61,-216.76C190.25,-206.4 161.16,-192.92 137.71,-182.05"/>
<polygon fill="black" stroke="black" points="138.92,-178.75 128.38,-177.72 135.98,-185.1 138.92,-178.75"/>
</g>
<!-- serve websites with nginx -->
<g id="node33" class="node">
<title>serve websites with nginx</title>
<ellipse fill="#d2b4de" stroke="#d2b4de" cx="389.63" cy="-90" rx="101.94" ry="18"/>
<text text-anchor="middle" x="389.63" y="-85.8" font-family="Times,serif" font-size="14.00">serve websites with nginx</text>
</g>
<!-- transfer data from external disk&#45;&gt;serve websites with nginx -->
<g id="edge28" class="edge">
<title>transfer data from external disk&#45;&gt;serve websites with nginx</title>
<path fill="none" stroke="black" d="M268.61,-216.23C280.91,-206.11 296.55,-192.76 309.63,-180 330.78,-159.37 353.12,-134.19 368.8,-115.89"/>
<polygon fill="black" stroke="black" points="371.7,-117.89 375.51,-108 366.36,-113.35 371.7,-117.89"/>
</g>
<!-- use symlinks with dropbox -->
<g id="node30" class="node">
<title>use symlinks with dropbox</title>
<ellipse fill="#aed6f1" stroke="#aed6f1" cx="1669.63" cy="-306" rx="105.83" ry="18"/>
<text text-anchor="middle" x="1669.63" y="-301.8" font-family="Times,serif" font-size="14.00">use symlinks with dropbox</text>
</g>
<!-- install dropbox&#45;&gt;use symlinks with dropbox -->
<g id="edge24" class="edge">
<title>install dropbox&#45;&gt;use symlinks with dropbox</title>
<path fill="none" stroke="black" d="M1662.1,-359.7C1663.2,-351.98 1664.53,-342.71 1665.76,-334.11"/>
<polygon fill="black" stroke="black" points="1669.24,-334.5 1667.19,-324.1 1662.31,-333.51 1669.24,-334.5"/>
</g>
<!-- enable nginx autoindex -->
<g id="node32" class="node">
<title>enable nginx autoindex</title>
<ellipse fill="#d2b4de" stroke="#d2b4de" cx="449.63" cy="-162" rx="92.74" ry="18"/>
<text text-anchor="middle" x="449.63" y="-157.8" font-family="Times,serif" font-size="14.00">enable nginx autoindex</text>
</g>
<!-- install nginx&#45;&gt;enable nginx autoindex -->
<g id="edge26" class="edge">
<title>install nginx&#45;&gt;enable nginx autoindex</title>
<path fill="none" stroke="black" d="M445.86,-215.7C446.42,-207.98 447.08,-198.71 447.69,-190.11"/>
<polygon fill="black" stroke="black" points="451.19,-190.33 448.41,-180.1 444.2,-189.83 451.19,-190.33"/>
</g>
<!-- enable nginx autoindex&#45;&gt;serve websites with nginx -->
<g id="edge27" class="edge">
<title>enable nginx autoindex&#45;&gt;serve websites with nginx</title>
<path fill="none" stroke="black" d="M435.1,-144.05C427.92,-135.67 419.09,-125.38 411.14,-116.1"/>
<polygon fill="black" stroke="black" points="413.6,-113.59 404.44,-108.28 408.29,-118.15 413.6,-113.59"/>
</g>
<!-- fix vim locale error -->
<g id="node38" class="node">
<title>fix vim locale error</title>
<ellipse fill="#f5b7b1" stroke="#f5b7b1" cx="706.63" cy="-162" rx="78.26" ry="18"/>
<text text-anchor="middle" x="706.63" y="-157.8" font-family="Times,serif" font-size="14.00">fix vim locale error</text>
</g>
<!-- brew install vim&#45;&gt;fix vim locale error -->
<g id="edge34" class="edge">
<title>brew install vim&#45;&gt;fix vim locale error</title>
<path fill="none" stroke="black" d="M706.63,-215.7C706.63,-207.98 706.63,-198.71 706.63,-190.11"/>
<polygon fill="black" stroke="black" points="710.13,-190.1 706.63,-180.1 703.13,-190.1 710.13,-190.1"/>
</g>
<!-- install pathogen&#45;&gt;install youcompleteme -->
<g id="edge32" class="edge">
<title>install pathogen&#45;&gt;install youcompleteme</title>
<path fill="none" stroke="black" d="M1206.63,-71.7C1206.63,-63.98 1206.63,-54.71 1206.63,-46.11"/>
<polygon fill="black" stroke="black" points="1210.13,-46.1 1206.63,-36.1 1203.13,-46.1 1210.13,-46.1"/>
</g>
</g>
</svg>
